<svg width="151" height="34" viewBox="0 0 151 34" fill="none" xmlns="http://www.w3.org/2000/svg">
<g clip-path="url(#clip0_48_3469)">
<path d="M29.3433 28.4694C26.3347 31.4789 22.1064 33.2303 17.8519 33.2303C13.5974 33.2303 9.36915 31.4789 6.36151 28.4694C3.35387 25.4617 1.60246 21.2344 1.60246 16.9808C1.60246 12.7254 3.35387 8.49801 6.36151 5.49038C9.36915 2.48274 13.5974 0.731325 17.8519 0.731325C22.1064 0.731325 26.3347 2.48274 29.3433 5.49038C32.3509 8.49801 34.1024 12.7254 34.1024 16.9808C34.1024 21.2334 32.3509 25.4617 29.3433 28.4694ZM29.8544 4.9774C26.712 1.8359 22.2955 0.00585938 17.8519 0.00585938C13.4084 0.00585938 8.99191 1.8359 5.85041 4.9774C2.70797 8.1189 0.87793 12.5363 0.87793 16.9808C0.87793 21.4235 2.70797 25.8399 5.85041 28.9814C8.99191 32.1238 13.4084 33.9539 17.8519 33.9539C22.2965 33.9539 26.712 32.1257 29.8544 28.9814C32.9959 25.8399 34.826 21.4235 34.826 16.9808C34.826 12.5363 32.9959 8.1189 29.8544 4.9774Z" fill="#273691"/>
<path d="M16.9185 16.4408V17.5183L17.8518 18.0574L18.7851 17.5183V16.4408L17.8518 15.9016L16.9185 16.4408ZM18.6634 13.8591V11.5694C18.6621 11.3544 18.5768 11.1485 18.4256 10.9956C18.2759 10.8449 18.0643 10.7588 17.8518 10.7588C17.6393 10.7588 17.4287 10.8458 17.2789 10.9956C17.1275 11.1483 17.0421 11.3544 17.0412 11.5694V13.8591L17.8527 14.3271L18.6634 13.8591ZM12.7595 18.9823C12.5742 19.0906 12.4386 19.2669 12.3813 19.4737C12.3266 19.6815 12.3562 19.9025 12.4637 20.0885C12.5712 20.2745 12.7478 20.4105 12.9552 20.4669C13.1631 20.5211 13.384 20.4922 13.5711 20.3864L15.5537 19.2416V18.3055L14.7421 17.8375L12.7595 18.9823ZM22.9432 18.9823L20.9605 17.8375L20.149 18.3055V19.2435L22.1316 20.3883C22.3185 20.4947 22.5396 20.5236 22.7475 20.4688C22.9549 20.4122 23.1318 20.2764 23.2399 20.0906C23.3462 19.904 23.3747 19.683 23.3191 19.4755C23.2636 19.2681 23.1285 19.0908 22.9432 18.9823Z" fill="#273691"/>
<path d="M29.5794 23.9174C29.5323 23.9392 29.4797 23.9461 29.4287 23.937L25.864 23.2696C25.776 23.253 25.6958 23.208 25.6359 23.1413C25.576 23.0746 25.5398 22.9901 25.5327 22.9008C25.5111 22.6443 25.4126 22.4002 25.25 22.2006C25.0854 22.0029 24.8644 21.8601 24.6165 21.7914C24.3686 21.7226 24.1056 21.7312 23.8627 21.8159C23.4285 21.9689 22.9663 22.0261 22.5079 21.9836C22.0495 21.9411 21.6057 21.7999 21.207 21.5697L20.1511 20.9622V27.8976H18.6637V20.1028L17.8521 19.6348L17.0405 20.1028V27.8976H15.554V20.9622L14.4972 21.5697C14.0986 21.8002 13.6548 21.9416 13.1963 21.9841C12.7379 22.0266 12.2757 21.9692 11.8415 21.8159C11.6601 21.7517 11.4663 21.7301 11.2752 21.7528C11.0841 21.7754 10.9007 21.8418 10.7394 21.9467C10.578 22.0516 10.443 22.1922 10.3447 22.3576C10.2464 22.5231 10.1874 22.7089 10.1725 22.9008C10.1654 22.99 10.1293 23.0744 10.0696 23.1411C10.0099 23.2077 9.92992 23.2529 9.84203 23.2696L6.27648 23.937C6.2385 23.9437 6.19949 23.9416 6.16243 23.9309C6.12538 23.9202 6.09128 23.9012 6.06272 23.8752C6.03417 23.8493 6.01194 23.8172 5.99771 23.7813C5.98349 23.7455 5.97767 23.7068 5.98068 23.6684C5.98555 23.6167 6.00613 23.5677 6.03965 23.528L8.39952 20.7759C8.45738 20.7075 8.53624 20.6603 8.6238 20.6415C8.71135 20.6227 8.80266 20.6334 8.88348 20.672C9.11469 20.7815 9.37866 20.818 9.63047 20.7759C9.88228 20.7338 10.12 20.613 10.3026 20.4342C10.4851 20.2564 10.6106 20.0195 10.6583 19.7687C10.7422 19.3159 10.9235 18.8867 11.1895 18.5107C11.4555 18.1348 11.8 17.8211 12.1991 17.5913L13.2559 16.9829L7.24814 13.5147L7.99139 12.2276L14.7424 16.1254L15.554 15.6574V14.7204L8.80297 10.8225L9.54529 9.53539L15.5531 13.0036V11.782C15.5531 11.3242 15.6532 10.8656 15.8442 10.4481C16.037 10.0315 16.3188 9.65708 16.667 9.35847C16.8618 9.19026 17.0007 8.96657 17.0649 8.71731C17.1291 8.46806 17.1157 8.20513 17.0265 7.96371C16.9353 7.72325 16.7734 7.51603 16.5622 7.36929C16.4888 7.31802 16.4341 7.24423 16.4064 7.15911C16.3787 7.07398 16.3795 6.98214 16.4087 6.89751L17.6134 3.47705C17.6309 3.42819 17.663 3.38589 17.7054 3.35591C17.7477 3.32593 17.7983 3.30973 17.8502 3.3095C17.9021 3.30973 17.9527 3.32593 17.9951 3.35591C18.0374 3.38589 18.0696 3.42819 18.0871 3.47705L19.2927 6.89751C19.3219 6.98214 19.3227 7.07398 19.295 7.15911C19.2673 7.24423 19.2126 7.31802 19.1392 7.36929C18.9276 7.51585 18.766 7.72366 18.6759 7.96479C18.5859 8.20592 18.5718 8.46883 18.6356 8.71819C18.6993 8.96532 18.8406 9.19185 19.0344 9.35847C19.3837 9.65836 19.6642 10.0301 19.8566 10.4484C20.049 10.8667 20.1488 11.3216 20.1492 11.782V13.0026L26.157 9.53445L26.9003 10.8216L20.1492 14.7194V15.6564L20.9608 16.1245L27.7119 12.2266L28.4551 13.5137L22.4483 16.9819L23.5051 17.5904C23.9035 17.8211 24.2475 18.1351 24.5136 18.5108C24.7797 18.8866 24.9615 19.3153 25.0468 19.7677C25.0936 20.0186 25.22 20.2554 25.4016 20.4333C25.5842 20.6121 25.8229 20.7328 26.0737 20.775C26.3265 20.8171 26.5904 20.7806 26.8207 20.671C26.9016 20.6326 26.9928 20.622 27.0804 20.6408C27.1679 20.6596 27.2467 20.7067 27.3047 20.775L29.6645 23.527C29.6979 23.5666 29.7183 23.6155 29.723 23.6671C29.7277 23.7186 29.7164 23.7704 29.6908 23.8154C29.6658 23.8607 29.6267 23.8965 29.5794 23.9174ZM28.0461 6.78518C25.3773 4.11546 21.6264 2.5625 17.8512 2.5625C14.0769 2.5625 10.326 4.1164 7.65627 6.78518C4.98656 9.45489 3.43359 13.2058 3.43359 16.981C3.43359 20.7544 4.98656 24.5071 7.65627 27.1768C10.326 29.8447 14.0769 31.3986 17.8512 31.3986C21.6255 31.3986 25.3773 29.8447 28.0461 27.1768C30.7158 24.5071 32.2697 20.7562 32.2697 16.981C32.2697 13.2058 30.7158 9.45489 28.0461 6.78518ZM115.674 31.1243V2.8349H120.627V13.6785H126.05V2.8349H131.114V31.1243H126.05V18.7034H120.627V31.1243H115.674ZM43.219 20.1824L37.7195 2.8349H42.6621L46.0479 13.8564L49.7904 2.8349H54.4221L48.7213 19.6189V31.1243H43.219V20.1824ZM72.643 31.1243H77.0791V9.8003L80.8637 28.3385H85.0058L88.3626 9.50076V31.1243H93.5635V2.8349H85.5038L83.129 16.292L80.3769 2.8349H72.643V31.1243ZM139.846 19.8267L141.955 7.17459L144.001 19.8267H139.846ZM146.209 2.8349H138.548L133.377 31.1243H137.961L139.059 24.5408H144.763L145.829 31.1243H150.879L146.209 2.8349ZM102.294 19.8267L104.403 7.17459L106.45 19.8267H102.294ZM108.658 2.8349H100.997L95.827 31.1243H100.411L101.508 24.5408H107.211L108.276 31.1243H113.327L108.658 2.8349ZM59.2635 19.8267L61.3725 7.17459L63.4188 19.8267H59.2635ZM65.627 2.8349H57.9661L52.7952 31.1243H57.3811L58.4782 24.5408H64.1808L65.246 31.1243H70.2962L65.627 2.8349Z" fill="#273691"/>
</g>
<defs>
<clipPath id="clip0_48_3469">
<rect width="150" height="33.96" fill="white" transform="translate(0.87793)"/>
</clipPath>
</defs>
</svg>
