<svg width="151" height="21" viewBox="0 0 151 21" fill="none" xmlns="http://www.w3.org/2000/svg">
<path fill-rule="evenodd" clip-rule="evenodd" d="M123.172 2.71658H116.042C115.867 2.71658 115.726 2.85819 115.726 3.03324V3.58198C115.726 3.75309 115.863 3.8947 116.034 3.89863C116.034 3.89863 121.919 4.45327 121.949 4.4749C122.993 4.68928 123.778 5.67465 123.778 6.78196V7.8401C123.778 9.17359 123.095 10.2907 120.784 10.2907H113.149C113.039 10.2907 112.949 10.2003 112.949 10.0901V8.32C112.949 8.20986 113.039 8.11938 113.149 8.11938H120.654C120.826 8.11545 120.963 7.97384 120.963 7.80273V7.05731C120.963 6.88227 120.822 6.74066 120.647 6.74066L115.189 6.27453C115.175 6.27453 115.161 6.27059 115.147 6.26666C113.924 6.21946 112.949 5.33833 112.949 4.10515V3.03127C112.949 1.69778 114.015 0.612107 115.342 0.580638H123.174C123.286 0.580638 123.375 0.671112 123.375 0.781253V2.51794C123.375 2.62808 123.284 2.71855 123.174 2.71855M110.83 2.71658H103.701C103.526 2.71658 103.384 2.85819 103.384 3.03324V3.58198C103.384 3.75309 103.522 3.8947 103.693 3.89863C103.693 3.89863 109.577 4.45327 109.607 4.4749C110.651 4.68928 111.436 5.67465 111.436 6.78196V7.8401C111.436 9.17359 110.754 10.2907 108.443 10.2907H100.807C100.695 10.2907 100.607 10.2003 100.607 10.0901V8.32C100.607 8.20986 100.697 8.11938 100.807 8.11938H108.313C108.484 8.11545 108.622 7.97384 108.622 7.80273V7.05731C108.622 6.88227 108.48 6.74066 108.305 6.74066L102.847 6.27453C102.833 6.27453 102.82 6.27059 102.806 6.26666C101.582 6.21946 100.607 5.33833 100.607 4.10515V3.03127C100.607 1.69778 101.673 0.612107 103 0.580638H110.832C110.944 0.580638 111.033 0.671112 111.033 0.781253V2.51794C111.033 2.62808 110.942 2.71855 110.832 2.71855L110.83 2.71658ZM133.879 8.30623H128.158L127.381 10.035C127.322 10.1668 127.167 10.273 127.037 10.273H124.633C124.502 10.273 124.443 10.1668 124.503 10.035L128.657 0.80092C128.716 0.669145 128.87 0.562938 129.002 0.562938H133.037C133.169 0.562938 133.323 0.669145 133.382 0.80092L137.536 10.035C137.595 10.1668 137.536 10.273 137.406 10.273H135.004C134.872 10.273 134.719 10.1668 134.66 10.035L133.883 8.30623H133.879ZM129.049 6.32763H132.99L131.381 2.75199H130.658L129.051 6.32763H129.049ZM139.225 0.578672H142.868C142.999 0.578672 143.524 0.633742 143.831 1.10774L148.345 8.09972V0.814688C148.345 0.682912 148.451 0.576705 148.583 0.576705H150.64C150.772 0.576705 150.878 0.682912 150.878 0.814688V10.0488C150.878 10.1806 150.772 10.2868 150.64 10.2868H147.124C146.992 10.2868 146.28 10.2868 145.959 9.70856L141.583 2.8995V10.0508C141.583 10.1826 141.477 10.2888 141.345 10.2888H139.223C139.091 10.2888 138.985 10.1826 138.985 10.0508V0.816655C138.985 0.684879 139.091 0.578672 139.223 0.578672H139.225ZM82.2448 0.578672H85.8559C85.9876 0.578672 86.5128 0.633742 86.8196 1.10774L91.3334 8.09972V0.814688C91.3334 0.682912 91.4396 0.576705 91.5714 0.576705H93.6287C93.7604 0.576705 93.8666 0.682912 93.8666 0.814688V10.0488C93.8666 10.1806 93.7604 10.2868 93.6287 10.2868L90.112 10.2907C89.9802 10.2907 89.2683 10.2868 88.9477 9.70856L84.5715 2.8995V10.0508C84.5715 10.1826 84.4653 10.2888 84.3336 10.2888H82.2448C82.113 10.2888 82.0068 10.1826 82.0068 10.0508V0.816655C82.0068 0.684879 82.113 0.578672 82.2448 0.578672ZM95.9534 0.5H98.3568C98.4886 0.5 98.5948 0.606207 98.5948 0.737983V9.97211C98.5948 10.1039 98.4886 10.2101 98.3568 10.2101H95.9534C95.8216 10.2101 95.7154 10.1039 95.7154 9.97211V0.737983C95.7154 0.606207 95.8216 0.5 95.9534 0.5Z" fill="#CE1141"/>
<path fill-rule="evenodd" clip-rule="evenodd" d="M59.6973 2.34289H59.9608C60.1811 1.91216 60.6138 1.64664 61.1448 1.64664H63.0133V10.1019H65.8317V1.64664H67.7002C68.2292 1.64664 68.6639 1.91413 68.8842 2.34289H69.1477V0.5H59.7012V2.34289" fill="#231F20"/>
<path fill-rule="evenodd" clip-rule="evenodd" d="M60.0095 8.94347H56.9983V0.5H53.5859V0.755683C53.9557 0.991699 54.1819 1.40473 54.1819 1.91216V10.1H61.4492V8.25509H61.1955C60.9752 8.68582 60.5425 8.94151 60.0115 8.94151" fill="#231F20"/>
<path fill-rule="evenodd" clip-rule="evenodd" d="M50.0245 0.755697C50.3942 0.991713 50.6106 1.40474 50.6106 1.91218V5.59993C50.6106 7.45855 49.9576 8.47539 48.2248 8.47539C46.4921 8.47539 45.847 7.46052 45.847 5.59993V0.498047H42.4346V0.753732C42.8043 0.989748 43.0305 1.40278 43.0305 1.91021V6.09556C43.0305 8.43015 44.5233 10.2888 47.4519 10.2888C50.6892 10.2888 52.0306 8.86482 52.0306 5.74154V0.498047H50.0245V0.753732" fill="#231F20"/>
<path fill-rule="evenodd" clip-rule="evenodd" d="M42.0625 9.12639L38.2784 0.5H36.0873L31.8135 10.1019H33.4656L34.3841 7.90304H38.5321L39.4034 10.1019H42.7981V9.8423C42.4873 9.72626 42.21 9.45484 42.0644 9.12639M34.8738 6.74656L36.5082 3.0116L38.064 6.74656H34.8738Z" fill="#231F20"/>
<path fill-rule="evenodd" clip-rule="evenodd" d="M28.9478 0.755711C29.3195 0.991727 29.5358 1.40476 29.5358 1.91219V7.57658L25.085 0.498061H21.291V0.753746C21.6608 0.989762 21.887 1.40279 21.887 1.91022V10.098H23.2952V3.02737L27.7539 10.098H30.9519V0.496094H28.9478V0.751778" fill="#231F20"/>
<path fill-rule="evenodd" clip-rule="evenodd" d="M18.6677 8.94349H15.3635V5.72384H19.0985V4.56736H15.3635V1.64469H18.5517C19.0729 1.64469 19.4938 1.86497 19.7337 2.22686H19.9875V0.498047H11.959V0.753732C12.3307 0.989748 12.5451 1.40278 12.5451 1.91021V10.098H20.1153V8.32001H19.8518C19.6315 8.72124 19.2479 8.93955 18.6677 8.93955" fill="#231F20"/>
<path fill-rule="evenodd" clip-rule="evenodd" d="M10.6785 9.26012L8.26327 5.71594C9.46498 5.34421 10.4051 4.36082 10.4051 3.09813C10.4051 1.43422 9.11292 0.501953 7.11859 0.501953H0.87793V0.757636C1.24965 0.993652 1.47387 1.40668 1.47387 1.91411V10.1019H4.29033V6.02276H5.3465L7.67519 10.1019H11.4298V9.84229C11.1289 9.73411 10.8673 9.5394 10.6765 9.26012M5.51368 4.95872H4.29033V1.56796H5.51368C6.53641 1.56796 7.41951 2.09309 7.41951 3.2299C7.41951 4.37655 6.60525 4.95872 5.51368 4.95872Z" fill="#231F20"/>
<path d="M76.8885 4.07715H74.2471V6.8523H76.8885V4.07715Z" fill="#231F20"/>
<path fill-rule="evenodd" clip-rule="evenodd" d="M36.2051 20.0268V15.9732H34.8972V15.5464H38.0204V15.9732H36.7125V20.0268H36.2051ZM28.1215 20.0268V15.5464H28.8276L30.8869 19.0414V15.5464H31.351V20.0268H30.9675L28.5877 16.0598V20.0268H28.1235H28.1215ZM23.5743 20.0268V15.5464H24.0758V20.0268H23.5743ZM16.3011 17.7827C16.3011 17.0786 16.4623 16.518 16.7829 16.0991C17.1035 15.6802 17.5342 15.4717 18.0731 15.4717C18.612 15.4717 19.0428 15.6802 19.3634 16.0971C19.684 16.5141 19.8452 17.0766 19.8452 17.7846C19.8452 18.4927 19.684 19.0532 19.3634 19.4741C19.0428 19.893 18.612 20.1035 18.0731 20.1035C17.5342 20.1035 17.1074 19.893 16.7849 19.4741C16.4623 19.0532 16.3011 18.4927 16.3011 17.7846V17.7827ZM16.8026 17.7846C16.8026 18.3786 16.9147 18.8408 17.1409 19.1712C17.3651 19.5036 17.6759 19.6688 18.0731 19.6688C18.4704 19.6688 18.7812 19.5036 19.0054 19.1712C19.2316 18.8408 19.3437 18.3786 19.3437 17.7846C19.3437 17.1907 19.2316 16.7265 19.0054 16.3961C18.7812 16.0637 18.4704 15.8985 18.0731 15.8985C17.6759 15.8985 17.3651 16.0637 17.1409 16.3961C16.9147 16.7265 16.8026 17.1887 16.8026 17.7846ZM10.5029 19.5194L10.8943 19.246C10.9966 19.4072 11.0969 19.5213 11.1933 19.5843C11.2897 19.6492 11.4057 19.6806 11.5434 19.6806C11.7577 19.6806 11.9092 19.6157 11.9997 19.4859C12.0901 19.3561 12.1334 19.1221 12.1334 18.7877V15.5464H12.6172V18.8388C12.6172 19.2499 12.5268 19.5626 12.3439 19.779C12.1629 19.9953 11.8954 20.1015 11.5434 20.1015C11.3113 20.1015 11.1126 20.0543 10.9455 19.9619C10.7783 19.8694 10.6308 19.7219 10.5029 19.5194Z" fill="#231F20"/>
<path fill-rule="evenodd" clip-rule="evenodd" d="M85.9501 20.0263V15.5459H88.5974V15.9668H86.4457V17.4675H87.97V17.8825H86.4457V19.5995H88.7017V20.0263H85.9501ZM79.0879 20.0263V15.5459H80.3467C80.9741 15.5459 81.4284 15.6403 81.7117 15.8291C81.9949 16.0179 82.1365 16.3169 82.1365 16.7279C82.1365 17.021 82.0598 17.2629 81.9044 17.4537C81.751 17.6464 81.5189 17.7861 81.2062 17.8746L82.2584 20.0263H81.7136L80.7263 17.9926H79.5737V20.0263H79.084H79.0879ZM80.3447 15.9609H79.5757V17.5796H80.3251C80.7873 17.5796 81.1197 17.5147 81.3262 17.3888C81.5307 17.261 81.633 17.0564 81.633 16.7751C81.633 16.4742 81.5425 16.2638 81.3596 16.1438C81.1767 16.0238 80.8384 15.9648 80.3447 15.9648V15.9609ZM71.856 15.5459H72.3458V18.4371C72.3458 18.6377 72.3556 18.7911 72.3733 18.8934C72.391 18.9937 72.4225 19.0861 72.4638 19.1668C72.5464 19.3281 72.6762 19.452 72.8512 19.5424C73.0263 19.6309 73.2328 19.6762 73.4688 19.6762C73.7048 19.6762 73.9153 19.6309 74.0923 19.5424C74.2673 19.4539 74.3971 19.3281 74.4797 19.1668C74.523 19.0822 74.5525 18.9858 74.5702 18.8816C74.5879 18.7754 74.5977 18.6003 74.5977 18.3565V15.5479H75.0875V18.5158C75.0875 19.033 74.9498 19.4284 74.6744 19.6978C74.3991 19.9673 73.9959 20.103 73.4688 20.103C72.9417 20.103 72.5365 19.9692 72.2651 19.7017C71.9937 19.4343 71.858 19.0389 71.858 18.5158V15.5479L71.856 15.5459ZM66.5004 20.0263V15.9727H65.1925V15.5459H68.3158V15.9727H67.0079V20.0263H66.5004ZM58.4149 20.0263V15.5459H59.121L61.1802 19.0409V15.5459H61.6444V20.0263H61.2609L58.881 16.0592V20.0263H58.4169H58.4149ZM52.0661 20.0263V15.5459H54.7134V15.9668H52.5617V17.4675H54.086V17.8825H52.5617V19.5995H54.8176V20.0263H52.0661ZM46.6023 20.0263L45.0918 15.5459H45.5992L46.8068 19.1766H46.8423L48.0597 15.5459H48.5612L47.037 20.0263H46.6003H46.6023Z" fill="#231F20"/>
<path fill-rule="evenodd" clip-rule="evenodd" d="M138.766 20.0268V18.1347L137.403 15.5445H137.942L139.008 17.6155L140.078 15.5445H140.619L139.256 18.1347V20.0268H138.766ZM130.668 20.0268V15.5464H131.375L133.434 19.0414V15.5464H133.898V20.0268H133.514L131.135 16.0598V20.0268H130.67H130.668ZM123.631 20.0268L125.014 15.5464H125.767L127.144 20.0268H126.623L126.22 18.6323H124.552L124.154 20.0268H123.627H123.631ZM124.672 18.2173H126.084L125.415 15.8808H125.344L124.67 18.2173H124.672ZM117.981 20.0268V15.5464H119.283C119.818 15.5464 120.213 15.6448 120.467 15.8454C120.722 16.044 120.848 16.3508 120.848 16.7698C120.848 17.1887 120.722 17.4778 120.475 17.6981C120.225 17.9164 119.875 18.0266 119.424 18.0266H118.463V20.0288H117.979L117.981 20.0268ZM118.464 17.6037H119.228C119.635 17.6037 119.922 17.5388 120.091 17.409C120.26 17.2792 120.343 17.0648 120.343 16.7599C120.343 16.4747 120.254 16.2682 120.079 16.1463C119.902 16.0224 119.607 15.9614 119.192 15.9614H118.466V17.6037H118.464ZM109.978 20.0268V15.5464H110.743L111.994 19.3345L113.252 15.5464H113.972V20.0268H113.494V16.0794L112.141 20.0268H111.809L110.456 16.0794V20.0268H109.978ZM102.734 17.7827C102.734 17.0786 102.895 16.518 103.216 16.0991C103.536 15.6802 103.967 15.4717 104.506 15.4717C105.045 15.4717 105.476 15.6802 105.796 16.0971C106.117 16.5141 106.278 17.0766 106.278 17.7846C106.278 18.4927 106.117 19.0532 105.796 19.4741C105.476 19.893 105.045 20.1035 104.506 20.1035C103.967 20.1035 103.54 19.893 103.218 19.4741C102.895 19.0532 102.734 18.4927 102.734 17.7846V17.7827ZM103.238 17.7846C103.238 18.3786 103.35 18.8408 103.576 19.1712C103.8 19.5036 104.111 19.6688 104.508 19.6688C104.905 19.6688 105.216 19.5036 105.44 19.1712C105.667 18.8408 105.779 18.3786 105.779 17.7846C105.779 17.1907 105.667 16.7265 105.44 16.3961C105.216 16.0637 104.905 15.8985 104.508 15.8985C104.111 15.8985 103.8 16.0637 103.576 16.3961C103.35 16.7265 103.238 17.1887 103.238 17.7846ZM99.4849 18.6835C99.3767 19.1555 99.1899 19.5095 98.9263 19.7455C98.6628 19.9816 98.3225 20.1015 97.9055 20.1015C97.3548 20.1015 96.93 19.9009 96.631 19.4977C96.3321 19.0945 96.1826 18.5242 96.1826 17.7827C96.1826 17.0412 96.3341 16.4983 96.635 16.0873C96.9359 15.6762 97.347 15.4717 97.8682 15.4717C98.2832 15.4717 98.6195 15.5838 98.8791 15.81C99.1367 16.0362 99.3138 16.3685 99.4062 16.8111L98.9538 16.9291C98.883 16.5947 98.7591 16.339 98.5782 16.1601C98.3992 15.983 98.177 15.8926 97.9134 15.8926C97.52 15.8926 97.2172 16.0578 97.0047 16.3902C96.7923 16.7206 96.6861 17.1926 96.6861 17.8023C96.6861 18.412 96.7943 18.8605 97.0106 19.185C97.227 19.5095 97.5318 19.6728 97.9272 19.6728C98.2202 19.6728 98.4621 19.5784 98.6549 19.3895C98.8476 19.2007 98.9735 18.9313 99.0345 18.5812L99.4868 18.6815L99.4849 18.6835Z" fill="#231F20"/>
</svg>
