<svg width="126" height="33" viewBox="0 0 126 33" fill="none" xmlns="http://www.w3.org/2000/svg">
<path d="M60.9312 8.8337C60.75 8.90303 60.6471 8.92816 60.56 8.97929C58.5801 10.15 56.6037 11.3243 54.6247 12.495C52.9104 13.5089 51.1935 14.5177 49.4784 15.529C48.9365 15.8479 48.3947 16.1668 47.8556 16.49C47.7439 16.5567 47.6445 16.6451 47.5213 16.737C47.5847 16.8297 47.6251 16.9129 47.6876 16.9753C48.2505 17.5429 48.8152 18.1097 49.3834 18.6721C50.16 19.4416 50.9402 20.2085 51.7195 20.9755C52.5938 21.836 53.4707 22.6939 54.345 23.5544C55.1911 24.3881 56.0355 25.2244 56.879 26.0615C56.9705 26.1525 57.047 26.2573 57.1561 26.3873C57.0329 26.4471 56.9564 26.5026 56.8728 26.5199C56.7691 26.5407 56.6582 26.5303 56.5509 26.5303C53.9114 26.5303 51.2718 26.5303 48.6322 26.5294C48.4035 26.5294 48.174 26.526 47.9462 26.5095C47.5301 26.48 47.1721 26.3293 46.8722 26.0312C45.6971 24.8639 44.5106 23.7061 43.3355 22.5379C42.6538 21.8603 41.9854 21.1696 41.3019 20.4755C41.141 20.5283 41.0205 20.5456 40.9246 20.6028C39.4636 21.4677 38.0071 22.3404 36.5461 23.2061C35.3728 23.9011 34.1951 24.5874 33.02 25.279C32.5476 25.5563 32.0771 25.8362 31.6065 26.1161C31.1482 26.3882 30.661 26.5338 30.1174 26.5329C27.3028 26.526 24.4882 26.5346 21.6736 26.5286C21.4097 26.5286 21.1318 26.4991 20.8837 26.4159C20.3446 26.2357 20.0921 25.811 20.0147 25.2764C19.9963 25.1455 20.0007 25.0112 20.0007 24.8795C20.0007 21.3628 19.998 17.8471 20.0033 14.3305C20.0033 13.9483 20.027 13.5618 20.086 13.184C20.1836 12.5574 20.4897 12.0288 21.0297 11.6735C21.6877 11.2411 22.364 10.8355 23.0413 10.4317C24.8673 9.34326 26.6977 8.26175 28.5263 7.17852C28.6389 7.11179 28.7567 7.052 28.8535 7C29.003 7.04333 29.0628 7.12046 29.0654 7.24091C29.0672 7.34664 29.0672 7.45322 29.0672 7.55895C29.0672 12.2559 29.0672 16.9536 29.0707 21.6505C29.0707 21.8126 29.003 21.9989 29.1974 22.1471C29.2739 22.115 29.361 22.089 29.4366 22.044C31.4262 20.8654 33.4122 19.6817 35.4018 18.5048C38.1276 16.8921 40.8586 15.2863 43.5844 13.6727C46.0454 12.216 48.5029 10.7532 50.9622 9.29299C51.9156 8.72711 52.8682 8.15863 53.826 7.59968C54.2482 7.35357 54.7038 7.22791 55.2052 7.22878C59.5819 7.23571 63.9595 7.24091 68.3362 7.22445C69.0838 7.22185 69.638 7.64041 69.7954 8.13176C69.8587 8.32935 69.8851 8.54513 69.8877 8.75311C69.8974 9.65523 69.8921 10.5573 69.8921 11.4603C69.8921 15.7725 69.8921 20.0855 69.8921 24.3976C69.8921 24.5666 69.8596 24.7425 69.9871 24.8933C70.1622 24.9601 70.266 24.8179 70.3794 24.7451C71.303 24.1567 72.2177 23.5553 73.1413 22.9652C74.3128 22.2173 75.4915 21.4807 76.663 20.7328C78.3641 19.647 80.0608 18.5542 81.7592 17.4649C83.47 16.3687 85.1798 15.2725 86.8915 14.178C88.4342 13.1918 89.9787 12.2091 91.5206 11.222C93.0405 10.2497 94.5577 9.27306 96.0768 8.29902C96.3916 8.0971 96.71 7.89952 97.024 7.6976C97.5087 7.3865 98.0267 7.22185 98.6169 7.22705C100.556 7.24264 102.496 7.25478 104.434 7.22358C105.414 7.20798 106.003 7.93938 106 8.76264C105.989 12.5046 105.996 16.2465 105.995 19.9884C105.995 20.706 105.861 21.3949 105.354 21.9426C105.114 22.2017 104.82 22.427 104.514 22.6099C102.177 24.012 99.8325 25.4011 97.4876 26.792C97.3627 26.8657 97.2263 26.9203 97.061 27C97.0135 26.909 96.9537 26.8371 96.9396 26.7574C96.9194 26.6412 96.9291 26.5199 96.9291 26.4003C96.9291 22.2468 96.9291 18.0941 96.9273 13.9405C96.9273 13.8019 96.9845 13.645 96.8323 13.5228C96.6977 13.4674 96.5887 13.5427 96.4743 13.6164C95.71 14.1078 94.943 14.5965 94.1778 15.087C91.386 16.873 88.5943 18.66 85.8026 20.446C84.2053 21.4686 82.6089 22.492 81.0116 23.5146C79.7063 24.35 78.3975 25.181 77.0958 26.0225C76.5513 26.3743 75.9708 26.5407 75.3129 26.5381C71.0576 26.5251 66.8014 26.5294 62.5452 26.5286C62.2892 26.5286 62.0376 26.519 61.7993 26.4003C61.3032 26.1525 61.0209 25.7668 60.9822 25.2166C60.9725 25.0848 60.9734 24.9514 60.9734 24.8188C60.9734 19.6704 60.9734 14.522 60.9716 9.37358C60.9716 9.22107 60.9496 9.06941 60.932 8.8337H60.9312Z" fill="black"/>
</svg>
