<svg width="126" height="33" viewBox="0 0 126 33" fill="none" xmlns="http://www.w3.org/2000/svg">
<path fill-rule="evenodd" clip-rule="evenodd" d="M88.1274 13.6521C88.9317 13.4912 94.4545 13.5806 95.7235 13.5806C96.9925 13.5806 98.3687 13.4734 99.4232 13.7415C104.821 15.1356 104.785 23.5895 98.9228 24.5904C98.0649 24.7334 92.6314 24.6619 91.3088 24.6619C89.9862 24.6619 88.5921 24.7692 87.6091 24.5011C84.4455 23.6432 82.9442 20.2115 83.9451 17.1731C84.5349 15.3858 86.0184 14.0453 88.1095 13.6342L88.1274 13.6521ZM106.769 20.1758C107.144 16.619 105.625 13.7951 103.695 12.2044C102.676 11.3643 101.568 10.7388 99.9773 10.3634C98.6011 10.0417 96.1882 10.1847 94.6332 10.1847C93.0783 10.1847 90.9156 10.1847 89.0568 10.1847C87.2516 10.1847 85.9111 10.5958 84.6243 11.3286C79.1551 14.4743 78.8513 22.1776 83.3553 26.0382C86.1614 28.4332 88.8602 28.0936 92.417 28.0936C95.9737 28.0936 96.1346 28.0936 97.9934 28.0936C102.48 28.0936 106.269 24.93 106.769 20.1758ZM54.0255 12.6154C54.1327 13.2053 55.0443 14.4206 55.3839 14.9032L59.7806 21.3733C60.6386 22.6423 61.8182 24.4653 62.7118 25.6807C63.6055 26.9139 65.1426 28.2544 67.5018 28.1472C69.7181 28.0399 70.9335 26.6458 71.8807 25.2875C72.8459 23.8934 73.811 22.4278 74.8119 20.9622L79.9594 13.4019C80.996 11.8648 79.6913 10.1847 78.19 10.4707C77.2427 10.6494 76.8316 11.5073 76.349 12.2401L73.4178 16.5654C72.4527 17.9774 71.4697 19.4609 70.4866 20.8728C69.9862 21.5878 69.5215 22.2848 69.021 23.0355C68.61 23.6253 67.9487 24.7155 66.8405 24.4475C66.0184 24.2508 65.4464 23.2142 65.0353 22.6065C64.5349 21.8737 64.0881 21.1945 63.5697 20.4439C62.5867 19.014 61.6573 17.6378 60.6386 16.1186C59.6555 14.6351 58.7261 13.2946 57.7074 11.8112C57.2427 11.1499 56.7422 10.2205 55.4911 10.4528C54.5974 10.6137 53.8289 11.4716 54.0255 12.5797V12.6154ZM19.7985 12.5618C19.8878 13.2053 20.8172 14.3849 21.1568 14.8675L27.0192 23.5002C28.4669 25.6807 29.8968 28.2902 33.2212 28.1829C36.2954 28.0757 37.5644 25.4841 39.1372 23.1606L43.534 16.6905C43.9987 15.9935 44.4991 15.2607 44.9996 14.5279C45.5536 13.7236 46.2507 12.9372 46.1256 12.0435C46.0005 11.1141 45.1426 10.3098 44.0523 10.4707C43.0872 10.6137 42.6761 11.4358 42.1756 12.2044C41.1747 13.7057 40.2632 15.0283 39.2444 16.5297C38.2614 17.9774 37.3141 19.4072 36.3132 20.8371C35.7949 21.5699 35.3481 22.2491 34.8476 22.9997C34.4187 23.6253 33.8289 24.6798 32.7207 24.4832C31.845 24.3223 31.3445 23.3214 30.8619 22.6601C28.4312 19.2106 25.9111 15.4037 23.534 11.8648C23.0514 11.1499 22.5509 10.2919 21.3177 10.4707C20.424 10.5958 19.6555 11.4716 19.8164 12.5618H19.7985ZM49.7538 10.4885C47.9486 10.8639 48.2346 12.401 48.2346 14.2955V25.0194C48.2346 25.913 48.1095 26.7352 48.5563 27.3786C49.3964 28.6298 51.3803 28.3438 51.8092 26.8961C51.988 26.342 51.8986 19.8541 51.8986 18.9604C51.8986 17.1731 51.8986 15.3858 51.8986 13.5985C51.8986 11.8112 52.0237 11.9005 51.5948 11.2392C51.273 10.7566 50.5939 10.2919 49.7538 10.4707V10.4885ZM49.8253 4.05423C49.5215 4.17934 49.3249 4.44743 49.1104 4.66191L47.7878 5.96665C46.9299 6.82456 47.6269 7.18202 48.6993 8.25441C48.9317 8.48676 49.1283 8.68336 49.3606 8.91571C50.2185 9.77362 50.5224 9.14806 51.6662 8.02206C53.2212 6.46709 53.1855 6.78881 50.7547 4.37594C50.5581 4.17934 50.2721 3.8755 49.8253 4.05423Z" fill="#0072BC"/>
</svg>
