<svg width="116" height="40" viewBox="0 0 116 40" fill="none" xmlns="http://www.w3.org/2000/svg">
<path fill-rule="evenodd" clip-rule="evenodd" d="M87.3019 28.7485H87.0073C85.6755 28.7687 84.4014 29.2924 83.4437 30.2133C82.4424 31.18 81.8828 32.4689 81.7944 34.0801C81.7061 35.6913 82.0595 36.3943 82.8547 37.156C83.6499 37.9177 84.8279 38.2985 86.3005 38.2985H87.0073C87.8675 38.2419 88.7034 37.9914 89.4518 37.5661C90.298 37.0798 90.9445 36.3121 91.2778 35.3983H87.9792C87.8875 35.6321 87.7079 35.8212 87.4786 35.9256C87.3345 36.0143 87.1745 36.074 87.0073 36.1014H86.6245C86.4169 36.1146 86.209 36.082 86.0156 36.006C85.8221 35.9301 85.6479 35.8126 85.5053 35.662C85.2697 35.3983 85.1814 34.9882 85.2108 34.4316V34.2852H91.6312L91.7196 33.8457C91.7196 33.6993 91.749 33.5528 91.749 33.4063C91.8374 31.883 91.5134 30.7406 90.7771 29.9496C90.0408 29.1587 88.8628 28.7485 87.3019 28.7485ZM88.5388 32.5275H85.4759C85.5564 32.0683 85.7836 31.6471 86.1238 31.3264C86.3586 31.0877 86.6726 30.9419 87.0073 30.9163H87.2135C87.404 30.9009 87.5953 30.933 87.7702 31.0098C87.945 31.0865 88.0979 31.2054 88.2149 31.3557C88.4572 31.6967 88.5718 32.1113 88.5388 32.5275ZM100.143 28.8071C99.583 28.8013 99.0292 28.9215 98.5228 29.1587C97.9832 29.4356 97.4952 29.8021 97.0797 30.2426L97.3153 29.0708H94.2229L92.3086 37.9762H95.725L96.6968 33.2306C96.7733 32.7473 96.9765 32.2926 97.2859 31.9123C97.415 31.7686 97.5741 31.6547 97.7522 31.5788C97.9303 31.5029 98.123 31.4667 98.3167 31.4729C98.4581 31.4633 98.5999 31.4845 98.7321 31.5351C98.8644 31.5857 98.984 31.6644 99.0824 31.7659C99.1768 31.8609 99.2473 31.9767 99.2883 32.104C99.3292 32.2312 99.3394 32.3663 99.318 32.4982V32.6447L99.2297 32.9376L98.2283 37.9762H101.615L102.675 32.8497C102.705 32.6154 102.764 32.4103 102.793 32.2053C102.823 32.0002 102.823 31.8244 102.852 31.678C102.911 30.7991 102.705 30.0961 102.204 29.5981C101.937 29.328 101.615 29.1178 101.259 28.9814C100.904 28.845 100.523 28.7856 100.143 28.8071ZM107.653 34.5781V34.4902L108.389 31.0335H109.714L110.156 29.0708H108.801L109.39 26.3464H106.092L105.503 29.0708H104.266L103.854 31.0335H105.09L104.266 35.0468C104.215 35.2298 104.176 35.4157 104.148 35.6034C104.116 35.7381 104.096 35.8753 104.089 36.0135C104.047 36.2937 104.077 36.5798 104.174 36.8459C104.272 37.1119 104.435 37.3494 104.649 37.5368C105.178 37.9411 105.838 38.139 106.504 38.0934L107.417 38.0348L108.418 37.9469L108.949 35.3983H108.536C108.282 35.415 108.028 35.3645 107.8 35.2519C107.735 35.1815 107.685 35.0981 107.654 35.0072C107.624 34.9163 107.613 34.8199 107.623 34.7246C107.614 34.6738 107.625 34.6215 107.653 34.5781ZM63.6229 29.9496C64.3887 30.7406 64.7126 31.883 64.6243 33.4063C64.5948 33.5528 64.5948 33.6993 64.5654 33.8457C64.5603 33.9938 64.5406 34.141 64.5065 34.2852H58.0861V34.4316C58.0566 34.9882 58.145 35.3983 58.3806 35.662C58.5205 35.816 58.6943 35.9358 58.8884 36.0121C59.0826 36.0883 59.2918 36.1189 59.4997 36.1014H59.8826C60.0497 36.074 60.2098 36.0143 60.3538 35.9256C60.4638 35.8735 60.5621 35.7999 60.643 35.7094C60.724 35.6188 60.7858 35.5131 60.8251 35.3983H64.1236C63.8023 36.31 63.1655 37.0784 62.3271 37.5661C61.5786 37.9914 60.7427 38.2419 59.8826 38.2985H59.1758C57.6738 38.2985 56.5546 37.9177 55.73 37.156C54.9053 36.3943 54.5814 35.369 54.6697 34.0801C54.7581 32.7912 55.3176 31.18 56.319 30.2133C57.2767 29.2924 58.5508 28.7687 59.8826 28.7485H60.1771C61.738 28.7485 62.8866 29.1587 63.6229 29.9496ZM61.3846 32.5275H58.3511C58.4344 32.0755 58.6495 31.6578 58.9696 31.3264C59.2191 31.0918 59.5407 30.9474 59.8826 30.9163H60.0888C60.2793 30.9009 60.4706 30.933 60.6454 31.0098C60.8203 31.0865 60.9731 31.2054 61.0901 31.3557C61.3345 31.6949 61.4399 32.1139 61.3846 32.5275ZM78.1719 28.7778C77.5971 28.7813 77.0315 28.922 76.5226 29.188C75.9428 29.4918 75.4316 29.9105 75.0206 30.4183C74.9473 29.935 74.6952 29.4962 74.3138 29.188C73.878 28.9018 73.3631 28.7584 72.8412 28.7778C72.3008 28.7758 71.7671 28.896 71.2803 29.1294C70.7594 29.4085 70.2911 29.7752 69.8961 30.2133L70.1611 29.0708H67.0982L65.1839 37.9762H68.4824L69.5427 33.0841C69.6238 32.6484 69.8053 32.2373 70.0728 31.883C70.1806 31.7658 70.3129 31.6735 70.4605 31.6127C70.6081 31.552 70.7673 31.5242 70.9269 31.5315C71.179 31.5186 71.4281 31.5909 71.6337 31.7366C71.7981 32.02 71.8506 32.3542 71.781 32.674C71.7754 32.7739 71.7556 32.8725 71.7221 32.9669L70.7207 37.9762H74.0193L75.0501 33.1427C75.1391 32.7004 75.3196 32.2814 75.5802 31.9123C75.6942 31.7851 75.8354 31.6849 75.9933 31.619C76.1513 31.5532 76.3221 31.5232 76.4932 31.5315C76.7266 31.5226 76.9558 31.5951 77.1411 31.7366C77.2199 31.8223 77.2769 31.9255 77.3077 32.0376C77.3384 32.1496 77.3419 32.2674 77.3178 32.381C77.3227 32.4893 77.3128 32.5977 77.2884 32.7033C77.2828 32.8032 77.263 32.9018 77.2295 32.9962L76.2281 37.9762H79.5561L80.6164 32.7326C80.6753 32.4689 80.7047 32.2346 80.7342 32.0295C80.7648 31.8748 80.7845 31.7182 80.7931 31.5608C80.852 30.682 80.6458 30.0082 80.1746 29.5395C79.9125 29.2808 79.599 29.0794 79.2542 28.9483C78.9093 28.8171 78.5407 28.7591 78.1719 28.7778ZM53.6389 32.5861V32.4689C53.6389 31.2678 53.256 30.3304 52.5492 29.7153C51.8424 29.1001 50.7527 28.7485 49.3979 28.7485C48.6136 28.7465 47.8353 28.8854 47.1007 29.1587C46.4097 29.422 45.7788 29.8204 45.2453 30.3304C44.7529 30.7992 44.3533 31.3556 44.0672 31.9709C43.7738 32.5763 43.6037 33.2333 43.5665 33.9043C43.4487 35.2519 43.8316 36.3358 44.6268 37.0974C45.422 37.8591 46.6 38.2985 48.1021 38.2985C49.2893 38.3242 50.4542 37.9756 51.4301 37.3025C52.3535 36.6417 53.0111 35.6762 53.2855 34.5781V34.4316H50.0458V34.5195C49.8817 34.9039 49.6174 35.2376 49.2801 35.4862C48.9542 35.7189 48.5621 35.842 48.161 35.8378C47.9732 35.854 47.7843 35.8253 47.6101 35.7539C47.4359 35.6826 47.2814 35.5707 47.1596 35.4276C46.9057 35.0267 46.8014 34.5497 46.8651 34.0801C46.9064 33.3085 47.1725 32.5655 47.6308 31.9416C47.8152 31.6952 48.0551 31.4952 48.3314 31.3579C48.6076 31.2205 48.9124 31.1495 49.2212 31.1507C49.3945 31.1384 49.5684 31.1634 49.731 31.2241C49.8937 31.2848 50.0412 31.3796 50.1636 31.5022C50.284 31.6301 50.3731 31.7838 50.4242 31.9514C50.4752 32.119 50.4869 32.2961 50.4582 32.4689V32.5861H53.6389ZM112.336 10.9962V11.5235C112.306 11.8165 112.247 12.1387 112.188 12.5781C112.123 13.0217 112.034 13.4617 111.923 13.8963L110.627 19.6966C110.583 19.9827 110.524 20.2662 110.451 20.5461C110.421 20.7109 110.402 20.8772 110.392 21.0441C110.364 21.3481 110.384 21.6544 110.451 21.9523C110.543 22.2039 110.672 22.4408 110.834 22.6553V23.0655H104.708L104.59 21.5714C104.052 21.9712 103.48 22.3241 102.882 22.626L101.821 23.0947C100.894 23.4209 99.9185 23.5893 98.9352 23.5927C97.3448 23.5927 96.1078 23.1826 95.2243 22.3624C94.7825 21.9512 94.4433 21.4432 94.2337 20.8787C94.0241 20.3142 93.9498 19.7088 94.0168 19.1107C94.1346 17.2652 94.8414 15.9176 96.0784 14.9802C97.3153 14.0428 99.4064 13.4862 102.263 13.1933L102.882 13.1347H103.176C105.208 12.9296 106.269 12.4316 106.327 11.6407C106.349 11.4476 106.316 11.2524 106.233 11.0767C106.15 10.9009 106.019 10.7514 105.856 10.6447C105.421 10.3883 104.919 10.266 104.413 10.2931C103.88 10.2672 103.35 10.3888 102.882 10.6447H102.823C102.423 10.9418 102.159 11.3842 102.086 11.875H96.1667C96.5496 10.0588 97.4626 8.71126 98.9352 7.80313C100.408 6.89501 101.291 6.80713 102.882 6.60207C103.625 6.51686 104.372 6.47773 105.12 6.48489C107.594 6.48489 109.42 6.92431 110.657 7.77384C111.182 8.13149 111.61 8.6129 111.903 9.17516C112.196 9.73741 112.345 10.363 112.336 10.9962ZM104.295 18.7592C103.926 19.1897 103.432 19.4965 102.882 19.638C102.536 19.7338 102.18 19.7831 101.821 19.7845C101.409 19.8019 101.004 19.6778 100.673 19.433C100.544 19.3092 100.445 19.1578 100.384 18.9902C100.322 18.8227 100.3 18.6435 100.319 18.4663C100.378 17.5581 101.232 16.9429 102.882 16.5621H102.911C103.971 16.3278 104.796 16.1227 105.473 15.9176C105.326 17.1187 104.943 18.0854 104.295 18.7592ZM78.8493 6.04548C77.8139 6.05508 76.7951 6.3059 75.8747 6.77783C74.8455 7.34128 73.9274 8.08568 73.1652 8.97491C72.9296 8.00819 72.5173 7.27584 71.8399 6.77783C71.0663 6.26347 70.1484 6.00701 69.2187 6.04548C68.249 6.04639 67.2922 6.26678 66.4208 6.68995C65.4692 7.18095 64.6197 7.84695 63.9174 8.65267L64.3887 6.57277H58.8224L55.7889 20.429L55.2293 23.0655H61.2079L63.2695 13.8085C63.3898 13.0311 63.7037 12.2959 64.1825 11.67C64.3785 11.4543 64.6201 11.2846 64.8901 11.1731C65.16 11.0617 65.4515 11.0112 65.7434 11.0255C66.1992 10.9845 66.6532 11.1211 67.0098 11.4063C67.1502 11.5648 67.2544 11.7515 67.3154 11.9538C67.3764 12.156 67.3927 12.369 67.3633 12.5781C67.3565 12.7454 67.3369 12.9119 67.3044 13.0761L67.216 13.6034L65.2133 23.0655H71.1919L73.2241 13.9256C73.4597 12.871 73.7542 12.1387 74.1665 11.6993C74.3732 11.4714 74.6287 11.2925 74.9142 11.1759C75.1996 11.0593 75.5077 11.0079 75.8158 11.0255C76.0278 11.0074 76.2413 11.0317 76.4436 11.0971C76.646 11.1626 76.8331 11.2677 76.9939 11.4063C77.1335 11.5525 77.2358 11.73 77.2922 11.9237C77.3486 12.1174 77.3574 12.3217 77.3178 12.5195C77.3142 12.7258 77.2945 12.9315 77.2589 13.1347L77.1706 13.662L75.1679 23.0655H81.176L83.267 13.164C83.3554 12.6953 83.4143 12.2852 83.4732 11.9336C83.5321 11.5821 83.5615 11.2599 83.591 11.0548C83.6793 9.5022 83.3259 8.27184 82.4718 7.39301C81.6177 6.51419 80.4102 6.04548 78.8493 6.04548ZM56.3779 1.2998H50.252L45.8343 23.0655H51.9896L55.7889 4.14135L56.3779 1.2998ZM95.1359 1.2998H88.9806L88.0381 5.75253H94.2524L95.1359 1.2998ZM84.4156 23.0655H90.571L93.9284 7.18795H87.7731L84.4156 23.0655ZM44.7151 11.5235C44.6972 11.8771 44.6579 12.2292 44.5973 12.5781C44.509 12.9882 44.4501 13.4276 44.3323 13.8963L43.0364 19.6966C42.9481 20.0481 42.8892 20.3411 42.8597 20.5461C42.8305 20.7109 42.8108 20.8772 42.8008 21.0441C42.7732 21.3481 42.7931 21.6544 42.8597 21.9523C42.9415 22.2029 43.0607 22.4399 43.2131 22.6553V23.0655H37.0872L36.9989 21.5714C36.4567 21.9648 35.8857 22.3174 35.2907 22.626L34.2304 23.0947C33.3027 23.4183 32.3273 23.5866 31.3442 23.5927C29.7538 23.5927 28.5169 23.1826 27.6333 22.3624C26.7203 21.5422 26.3375 20.4583 26.4258 19.1107C26.5436 17.2652 27.221 15.9176 28.4874 14.9802C29.7538 14.0428 31.786 13.4862 34.6722 13.1933L35.2907 13.1347H35.5558C37.6174 12.9296 38.6776 12.4609 38.7365 11.6407C38.7435 11.4493 38.7043 11.2591 38.6224 11.0858C38.5404 10.9126 38.418 10.7613 38.2653 10.6447C37.8297 10.3883 37.3276 10.266 36.8222 10.2931C36.2884 10.2624 35.7569 10.3844 35.2907 10.6447H35.2023C35.0051 10.7897 34.8404 10.974 34.7187 11.1859C34.5971 11.3977 34.521 11.6324 34.4955 11.875H28.5758C28.7114 11.0407 29.0297 10.2461 29.5081 9.54756C29.9865 8.84901 30.6133 8.2635 31.3442 7.83243C32.375 7.18795 33.6709 6.80713 35.2907 6.60207C36.0336 6.51609 36.7812 6.47696 37.529 6.48489C39.9735 6.48489 41.8289 6.92431 43.0364 7.77384C44.2439 8.62337 44.8329 9.88303 44.7151 11.5235ZM36.7044 18.7592C36.3249 19.1777 35.8352 19.4821 35.2907 19.638C34.9455 19.7338 34.5889 19.7831 34.2304 19.7845C33.8171 19.8123 33.408 19.6871 33.0818 19.433C32.9438 19.3149 32.8368 19.1652 32.7701 18.9968C32.7033 18.8283 32.6789 18.6462 32.699 18.4663C32.7579 17.5581 33.612 16.9429 35.2907 16.5621H35.3201C36.3509 16.3278 37.205 16.1227 37.853 15.9176C37.7942 16.9646 37.3905 17.9631 36.7044 18.7592ZM25.7484 7.42231C26.0094 8.61458 26.0888 9.83906 25.9841 11.0548C25.719 14.9509 24.5115 17.939 22.3321 19.9896C20.1527 22.0402 18.1794 22.6846 15.2343 22.9776C14.6158 23.0362 13.9679 23.0655 13.32 23.0655H3.33594L8.01871 1.2998H16.6185C18.7979 1.2998 20.4472 1.53416 21.6253 2.03216C22.8242 2.58187 23.8445 3.4546 24.5704 4.55147C25.143 5.42521 25.5428 6.39957 25.7484 7.42231ZM19.1219 11.0841C19.0477 12.19 18.7993 13.2774 18.3856 14.3065C18.1055 15.1614 17.6203 15.9356 16.9719 16.5621C16.5286 16.967 15.9929 17.2586 15.411 17.4117L15.2343 17.4702C14.4797 17.6307 13.7083 17.6996 12.9371 17.6753H11.3173L13.6734 6.60207H15.2343C16.7658 6.60207 17.826 6.9536 18.415 7.59807C19.0041 8.24255 19.2102 9.44361 19.1219 11.0841Z" fill="#2300C8"/>
</svg>
