<svg width="151" height="35" viewBox="0 0 151 35" fill="none" xmlns="http://www.w3.org/2000/svg">
<g clip-path="url(#clip0_48_3664)">
<path d="M24.8221 24.1795C22.9046 26.9399 20.1652 29.026 16.9834 30.1323C21.2715 29.9848 25.4648 28.8048 29.2156 26.7081L24.8221 24.1689" fill="#225986"/>
<path d="M19.5337 0.926223C19.1333 0.799792 18.7224 0.694433 18.3115 0.599609C18.3853 0.631217 18.4696 0.673361 18.5433 0.704969C26.4979 4.45576 29.901 13.9381 26.1503 21.8927L32.8406 25.7489C36.0224 15.2235 30.0696 4.10807 19.5442 0.926223" fill="#609740"/>
<path d="M31.3024 28.1824C24.0748 33.1975 14.1605 31.3958 9.14539 24.1787L2.45508 28.0349C9.97773 36.0527 22.5787 36.4531 30.6071 28.9304C30.9126 28.6459 31.2182 28.3404 31.5026 28.0349C31.4394 28.0875 31.3657 28.1297 31.2919 28.1824" fill="#225986"/>
<path d="M6.59555 12.126C4.58319 15.9189 3.49799 20.1333 3.44531 24.4319L7.83879 21.8928C6.40591 18.8479 5.97394 15.4343 6.59555 12.126Z" fill="#D02643"/>
<path d="M0.811222 24.5267C0.906045 24.9376 1.02194 25.3485 1.13784 25.7489C1.13784 25.6646 1.11676 25.5803 1.11676 25.496C0.389785 16.7407 6.90099 9.04942 15.6669 8.32244V0.599609C4.96238 3.10716 -1.68579 13.8222 0.811222 24.5267Z" fill="#D02643"/>
<path d="M18.3008 3.24414V8.32246C21.6512 8.59639 24.8331 9.93446 27.3828 12.1259C25.107 8.4805 21.9989 5.43561 18.3008 3.24414Z" fill="#609740"/>
<path d="M51.2993 14.107C49.7295 14.7813 48.0648 15.2028 46.3685 15.2028C42.3122 15.2028 39.752 12.8111 39.752 9.27105C39.752 5.73098 42.1436 3.21289 46.7794 3.21289C51.4152 3.21289 49.2554 3.40254 50.5302 3.81344V6.36313C50.0245 6.05759 48.8445 5.34115 47.1376 5.34115C44.5458 5.34115 42.8179 6.97422 42.8179 9.23944C42.8179 11.5047 44.1876 13.1693 46.7794 13.1693C49.3713 13.1693 48.1175 12.9797 48.5073 12.8322L48.5389 10.6618H45.8417L47.0007 8.60729H51.3204L51.2888 14.107" fill="#231F20"/>
<path d="M55.377 14.9182H52.3848V3.50781H55.377V14.9182Z" fill="#231F20"/>
<path d="M63.8157 14.9182H56.8936V3.50781H59.8858V12.6425H65.1432L63.8157 14.9182Z" fill="#231F20"/>
<path d="M65.502 3.50781H70.3485C71.9605 3.50781 73.9202 4.2664 73.9202 6.50002C73.9202 8.73363 73.288 8.4597 72.1923 8.94435C72.4662 9.06025 72.835 9.18668 73.1826 9.429C73.878 9.90312 74.3311 10.7249 74.3311 11.6626C74.3311 12.6003 73.8991 13.5169 73.0667 14.1491C72.108 14.8972 71.0438 14.9288 70.222 14.9288H65.502V3.50781ZM68.3572 9.61865L69.3897 8.10148C69.6215 8.10148 69.8744 8.10148 70.1378 8.03826C70.8437 7.85915 71.1703 7.36396 71.1703 6.82663C71.1703 5.77304 70.2326 5.62553 69.4529 5.62553H68.3572V9.61865ZM68.3572 12.8321H69.5372C70.6329 12.8321 71.3599 12.3791 71.3599 11.3465C71.3599 10.314 70.2326 9.86098 69.0947 9.86098H68.3467V12.8321" fill="#231F20"/>
<path d="M86.0465 14.9182H82.8963L82.1166 12.6425H78.0392L77.2174 14.9182H74.2568L78.7557 3.50781H81.6531L86.0465 14.9182ZM81.5161 10.8724L80.3045 7.26914C80.2202 7.00574 80.1886 6.93199 80.1464 6.63698C80.0305 6.9952 80.0305 7.02681 79.9673 7.20592L78.6609 10.8724H81.5266" fill="#231F20"/>
<path d="M96.7826 14.9182H93.5375L90.6296 10.0822C90.0607 10.1138 89.9869 10.1138 89.3337 10.1138V14.9182H86.4258V3.50781H91.5989C93.3795 3.50781 95.2549 4.44551 95.2549 6.68966C95.2549 8.93382 95.1601 7.60629 94.9599 8.01719C94.5595 8.92328 93.8747 9.32365 93.5059 9.55544L96.7931 14.9182H96.7826ZM89.3337 9.87151L90.461 8.27005C90.8193 8.24898 91.0405 8.24898 91.3039 8.18576C91.9045 8.03826 92.3259 7.55361 92.3259 6.88985C92.3259 6.22608 92.0625 6.03644 91.8202 5.86786C91.4514 5.59393 90.9036 5.59393 90.2714 5.59393H89.3337V9.86098" fill="#231F20"/>
<path d="M104.474 14.897C104.053 15.0129 103.347 15.2026 102.083 15.2026C97.9948 15.2026 95.582 12.6318 95.582 9.33406C95.582 6.03631 97.8578 3.20215 102.293 3.20215C106.729 3.20215 104.569 3.44447 105.349 3.66573V6.20489C104.948 5.94149 104.011 5.35148 102.652 5.35148C100.134 5.35148 98.6901 7.11098 98.6901 9.19709C98.6901 11.2832 100.239 13.1059 102.894 13.1059C105.549 13.1059 104.927 12.8847 105.865 12.4948L104.474 14.8865" fill="#231F20"/>
<path d="M111.976 15.2125C107.993 15.2125 105.654 12.6418 105.654 9.2176C105.654 5.79342 108.014 3.22266 111.913 3.22266C115.811 3.22266 118.139 5.95146 118.139 9.15438C118.139 12.3573 115.958 15.2125 111.976 15.2125ZM114.989 9.23867C114.989 7.03666 113.83 5.40359 111.913 5.40359C109.995 5.40359 108.805 7.01559 108.805 9.18599C108.805 11.3564 109.963 12.9368 111.913 12.9368C113.862 12.9368 114.989 10.9666 114.989 9.23867Z" fill="#231F20"/>
<path d="M46.4631 31.4172H43.8291L39.2881 20.0068H42.5332L45.262 27.8666L48.075 20.0068H51.0673L46.4631 31.4172Z" fill="#231F20"/>
<path d="M58.4848 31.4172H51.5205V20.0068H58.9273V22.251H54.5022V24.4319H58.3056V26.6655H54.5022V29.152H59.7912L58.4953 31.4172" fill="#231F20"/>
<path d="M67.1879 31.4172H60.2236V20.0068H67.6304V22.251H63.2053V24.4319H67.0088V26.6655H63.2053V29.152H68.4943L67.1984 31.4172" fill="#231F20"/>
<path d="M68.915 19.9961H74.025C77.1963 19.9961 79.6828 22.0295 79.6828 25.6012C79.6828 29.1729 79.1033 28.7409 78.0813 29.7734C76.5325 31.3433 74.6887 31.4065 73.4139 31.4065H68.915V19.9961ZM71.8756 29.215H72.7185C73.3507 29.215 74.0144 29.194 74.6887 28.8884C76.1427 28.2247 76.5325 26.8023 76.5325 25.6855C76.5325 23.5362 75.1628 22.2402 73.0873 22.2086H71.8756V29.2045" fill="#231F20"/>
<path d="M87.3002 31.4172H80.3359V20.0068H87.7427V22.251H83.3176V24.4319H87.1211V26.6655H83.3176V29.152H88.6066L87.3107 31.4172" fill="#231F20"/>
<path d="M99.3959 31.4172H96.1508L93.2429 26.5813C92.674 26.6129 92.6002 26.6129 91.947 26.6129V31.4172H89.0391V20.0068H94.2122C95.9928 20.0068 97.8682 20.9445 97.8682 23.1887C97.8682 25.4328 97.7733 24.1053 97.5732 24.5162C97.1728 25.4223 96.488 25.8227 96.1192 26.0545L99.4064 31.4172H99.3959ZM91.9364 26.3705L93.0638 24.7691C93.422 24.748 93.6433 24.748 93.9067 24.6848C94.5072 24.5373 94.9286 24.0526 94.9286 23.3889C94.9286 22.7251 94.6653 22.5355 94.4229 22.3669C94.0542 22.093 93.5063 22.0929 92.8741 22.0929H91.9364V26.36" fill="#231F20"/>
<path d="M104.031 26.7923H99.248L100.46 25.0117H105.243L104.031 26.7923Z" fill="#231F20"/>
<path d="M116.738 31.4172H113.493L110.585 26.5813C110.016 26.6129 109.942 26.6129 109.289 26.6129V31.4172H106.381V20.0068H111.554C113.335 20.0068 115.21 20.9445 115.21 23.1887C115.21 25.4328 115.115 24.1053 114.915 24.5162C114.515 25.4223 113.83 25.8227 113.461 26.0545L116.748 31.4172H116.738ZM109.278 26.3705L110.406 24.7691C110.764 24.748 110.985 24.748 111.248 24.6848C111.849 24.5373 112.27 24.0526 112.27 23.3889C112.27 22.7251 112.007 22.5355 111.765 22.3669C111.396 22.093 110.848 22.0929 110.216 22.0929H109.278V26.36" fill="#231F20"/>
<path d="M122.185 31.7018C118.213 31.7018 115.863 29.131 115.863 25.7069C115.863 22.2827 118.223 19.7119 122.122 19.7119C126.02 19.7119 128.348 22.4407 128.348 25.6436C128.348 28.8466 126.167 31.7018 122.185 31.7018ZM125.188 25.7385C125.188 23.5365 124.029 21.9034 122.111 21.9034C120.194 21.9034 119.003 23.5154 119.003 25.6858C119.003 27.8562 120.162 29.4366 122.111 29.4366C124.06 29.4366 125.188 27.4664 125.188 25.7385Z" fill="#231F20"/>
<path d="M135.26 31.7018C131.288 31.7018 128.938 29.131 128.938 25.7069C128.938 22.2827 131.299 19.7119 135.197 19.7119C139.095 19.7119 141.424 22.4407 141.424 25.6436C141.424 28.8466 139.243 31.7018 135.26 31.7018ZM138.273 25.7385C138.273 23.5365 137.114 21.9034 135.197 21.9034C133.279 21.9034 132.089 23.5154 132.089 25.6858C132.089 27.8562 133.248 29.4366 135.197 29.4366C137.146 29.4366 138.273 27.4664 138.273 25.7385Z" fill="#231F20"/>
<path d="M147.071 31.417H144.1V22.2613H140.834V19.9961H150.306V22.2613H147.071V31.417Z" fill="#231F20"/>
<path d="M150.295 17.4357H39.3516V16.9932H150.295V17.4357Z" fill="#231F20"/>
<path d="M30.5861 32.8286H30.0593V34.2826H29.7221V32.8286H29.1953V32.5547H30.5861V32.8286ZM31.8925 33.7874L32.3666 32.5652H32.8513V34.2931H32.5352V32.9445L32.0189 34.2931H31.7872L31.2709 32.9445V34.2931H30.9548V32.5652H31.4395L31.9136 33.7874" fill="#231F20"/>
</g>
<defs>
<clipPath id="clip0_48_3664">
<rect width="150" height="33.715" fill="white" transform="translate(0.294922 0.599609)"/>
</clipPath>
</defs>
</svg>
