<svg width="151" height="30" viewBox="0 0 151 30" fill="none" xmlns="http://www.w3.org/2000/svg">
<g clip-path="url(#clip0_48_3698)">
<path d="M138.623 0.36834C137.61 0.546465 136.645 0.996465 135.801 1.67146C133.701 3.36834 132.642 6.06834 132.642 9.74334C132.642 13.4183 133.026 13.7371 133.907 15.4527C134.207 16.034 134.498 16.409 135.154 17.0652C135.885 17.8058 136.138 17.984 136.898 18.3496C138.117 18.9308 138.567 19.0246 140.17 19.0152C141.304 19.0152 141.642 18.9777 142.232 18.7996C144.295 18.1715 145.907 16.5308 146.273 14.684C146.395 14.0465 146.338 12.6871 146.17 12.1152C146.029 11.6277 145.513 10.9058 145.176 10.709C144.998 10.6058 144.67 10.5308 144.342 10.5308C143.817 10.5121 143.779 10.5308 143.442 10.8871C143.038 11.3183 142.842 11.9277 142.757 13.0246C142.654 14.1871 142.551 14.4683 142.007 15.0121C140.47 16.5496 138.098 15.6027 137.16 13.0527C136.467 11.1777 136.588 8.07459 137.442 5.96521C137.713 5.29021 137.873 5.04646 138.426 4.46521C139.242 3.62146 140.282 3.37771 141.163 3.84646C141.979 4.26834 142.307 4.79334 142.71 6.40584C143.01 7.56834 143.132 7.82146 143.498 8.06521C144.088 8.44959 145.129 8.26209 145.532 7.69959C145.738 7.40896 145.748 7.33396 145.776 4.58709C145.795 2.74959 145.776 1.65271 145.71 1.42771C145.551 0.91209 145.129 0.602715 144.595 0.602715C144.06 0.602715 143.92 0.72459 143.498 1.30584C143.348 1.51209 143.217 1.69959 143.207 1.70896C143.198 1.72771 142.917 1.54021 142.588 1.28709C141.913 0.771465 141.238 0.471465 140.413 0.321465C139.729 0.208965 139.467 0.208965 138.623 0.36834ZM140.526 1.63396C141.717 1.83084 142.748 2.49646 143.526 3.58396L143.967 4.21209L144.013 3.22771C144.051 2.37459 144.079 2.24334 144.229 2.21521C144.651 2.13084 144.67 2.27146 144.67 4.78396C144.67 7.29646 144.651 7.17459 144.52 7.29646C144.201 7.62459 144.07 7.42771 143.938 6.38709C143.723 4.70896 142.767 3.26521 141.407 2.59959C140.742 2.27146 140.638 2.24334 139.851 2.24334C139.063 2.24334 138.951 2.27146 138.295 2.59021C137.47 3.00271 136.973 3.43396 136.429 4.20271C135.407 5.67459 134.751 8.84334 135.004 11.1121C135.323 13.934 136.41 15.7621 138.295 16.6715C138.867 16.9433 138.97 16.9621 139.935 16.9621C140.901 16.9621 141.042 16.934 141.66 16.6808C142.542 16.334 143.329 15.6308 143.704 14.8808C143.929 14.4121 143.967 14.2152 143.995 13.2215C144.042 11.8996 144.154 11.6371 144.52 12.0027C144.632 12.1152 144.67 12.359 144.67 13.0621C144.67 13.7652 144.529 14.684 144.182 15.3496C143.901 15.9121 142.982 16.7652 142.307 17.0933C139.035 18.7058 135.698 16.8308 134.638 12.7902C134.32 11.5808 134.273 9.30271 134.535 7.69959C134.76 6.30271 134.967 5.63709 135.51 4.54959C136.223 3.07771 137.704 1.86834 139.054 1.64334C139.757 1.53084 139.86 1.53084 140.526 1.63396Z" fill="#E52428"/>
<path d="M148.008 0.461452C146.583 0.967702 146.442 2.93645 147.783 3.5927C149.142 4.24895 150.586 3.0677 150.201 1.62395C150.061 1.10833 149.526 0.564577 149.03 0.423952C148.561 0.292702 148.458 0.302077 148.008 0.461452ZM149.33 0.789577C150.201 1.31458 150.305 2.48645 149.536 3.17083C148.917 3.73333 148.111 3.71458 147.501 3.12395C146.536 2.17708 147.201 0.602077 148.561 0.602077C149.92 0.602077 149.142 0.667702 149.33 0.789577Z" fill="black"/>
<path d="M147.782 2.07441C147.801 2.76816 147.848 3.08691 147.932 3.11504C148.007 3.13379 148.045 3.01191 148.045 2.66504V2.18691L148.345 2.21504C148.579 2.23379 148.72 2.34629 148.963 2.66504C149.245 3.04004 149.545 3.25566 149.545 3.08691C149.545 2.91816 149.413 2.84316 149.263 2.61816L148.982 2.20566L149.226 1.96191C149.404 1.78379 149.441 1.67129 149.395 1.51191C149.282 1.11816 149.17 1.07129 148.448 1.07129H147.754L147.782 2.07441ZM149.076 1.43691C149.226 1.72754 149.095 1.88691 148.645 1.96191C148.129 2.03691 148.045 1.98066 148.045 1.57754V1.25879H148.513C148.87 1.25879 149.001 1.29629 149.076 1.43691Z" fill="black"/>
<path d="M32.17 0.631069C31.7669 0.837319 31.5606 1.28732 31.0544 3.04982C30.7825 3.99669 30.5013 4.96232 30.4263 5.19669C30.3606 5.43107 29.6575 7.83107 28.87 10.5404L27.4263 15.4623L26.395 15.5092C25.1856 15.5654 24.9419 15.6779 24.6513 16.3248C24.3138 17.0936 24.5106 17.8623 25.1763 18.3592C25.42 18.5467 25.57 18.5561 29.0106 18.5842C30.9794 18.6029 32.77 18.5842 32.995 18.5561C33.5106 18.4811 33.97 18.0311 34.1294 17.4592C34.2981 16.8779 34.1388 16.3248 33.67 15.8654C33.3231 15.5186 33.3044 15.5092 32.6013 15.5092C31.8981 15.5092 31.87 15.4717 31.8325 15.3779C31.7669 15.2092 32.2169 13.5967 32.4325 13.2404C32.6669 12.8373 32.9013 12.7904 34.6638 12.7904C36.4263 12.7904 36.7544 12.8467 36.9888 13.4654C37.195 14.0467 37.5138 15.1811 37.5138 15.3498C37.5138 15.5186 37.3638 15.4998 36.7731 15.5186C35.9669 15.5561 35.6856 15.7154 35.3856 16.2873C35.1606 16.7373 35.2075 17.5248 35.4981 17.9373C35.9294 18.5748 35.8169 18.5561 40.1013 18.5561C44.3856 18.5561 43.9731 18.5467 44.2263 18.3592C44.7419 17.9842 44.8731 17.7029 44.8731 17.0279C44.8731 16.3529 44.8356 16.3436 44.6481 16.0811C44.3294 15.6404 43.945 15.5092 42.9794 15.5092C42.0138 15.5092 42.1075 15.4717 42.0513 15.4342C41.995 15.3967 41.6669 14.5061 41.32 13.4467C40.9731 12.3873 40.4481 10.7654 40.1388 9.83732C37.4388 1.53107 37.3075 1.14669 37.045 0.856069L36.7825 0.556069L34.5888 0.527944C32.9575 0.509194 32.3481 0.537319 32.17 0.631069ZM34.7013 4.98107C34.7669 5.23419 34.9169 5.78732 35.0388 6.22794C35.5356 8.05607 35.8263 9.20919 35.8263 9.35919C35.8263 9.50919 35.6669 9.50919 34.5606 9.50919C33.4544 9.50919 33.295 9.49044 33.295 9.34044C33.2856 9.06857 34.4388 4.54044 34.5138 4.54044C34.5888 4.54044 34.6356 4.73732 34.7013 4.98107Z" fill="#0179C0"/>
<path d="M44.8071 0.78023C44.4509 0.94898 44.1978 1.28648 44.0665 1.74585C44.0103 1.98023 43.9822 3.14273 44.0009 4.89585C44.029 7.63335 44.029 7.6896 44.2446 8.03648C44.554 8.5146 44.8728 8.6646 45.6603 8.6646C46.4478 8.6646 46.354 8.63648 46.6072 8.42085C47.1134 7.9896 47.1697 7.78335 47.1697 6.2271C47.1697 4.67085 47.254 4.3521 47.6009 3.95835C47.9853 3.53648 48.8103 3.73335 49.0822 4.30523C49.2134 4.5771 49.2321 5.2521 49.2134 10.0427L49.1853 15.4615L48.0603 15.5084C46.804 15.5646 46.579 15.649 46.2509 16.1834C45.6884 17.1115 46.1103 18.2177 47.1415 18.499C47.6103 18.6302 55.2509 18.6396 55.7197 18.5084C55.9165 18.4521 56.1978 18.2552 56.3853 18.0396C56.8915 17.4865 56.9478 16.849 56.5447 16.1927C56.2259 15.6584 55.9634 15.5646 54.7728 15.5084L53.6853 15.4615L53.6572 9.93023L53.6384 4.3896L53.9103 4.07085C54.1353 3.79898 54.2384 3.74273 54.5571 3.74273C55.0259 3.74273 55.3728 4.04273 55.5134 4.53023C55.5603 4.71773 55.6072 5.50523 55.6072 6.28335C55.6072 7.59585 55.6259 7.71773 55.8228 8.00835C56.1415 8.48648 56.5634 8.69273 57.2103 8.69273C57.9134 8.68335 58.3071 8.45835 58.5884 7.9146C58.7853 7.51148 58.7947 7.41773 58.7947 4.6521C58.7947 1.88648 58.7759 1.78335 58.6165 1.4646C58.4103 1.06148 58.1853 0.83648 57.8665 0.74273C57.7446 0.70523 54.8197 0.66773 51.3603 0.658355C46.1572 0.64898 45.0321 0.66773 44.8071 0.78023Z" fill="#0179C0"/>
<path d="M60.6234 0.780907C60.2109 1.02466 60.0047 1.39028 59.9484 1.95278C59.8828 2.57153 60.0234 3.02153 60.3984 3.37778C60.6703 3.64028 60.7172 3.64966 61.8703 3.69653L63.0609 3.74341V15.4622L61.8703 15.509C60.764 15.5559 60.6703 15.5747 60.4265 15.7903C59.9015 16.2778 59.7703 17.1122 60.1078 17.8153C60.5015 18.6122 59.9203 18.5559 67.8234 18.584C74.5453 18.6028 74.8547 18.6028 75.239 18.4247C75.5578 18.2934 75.689 18.1528 75.8672 17.7965C76.0828 17.3465 76.0922 17.2715 76.1203 14.5715C76.139 12.7622 76.1109 11.684 76.0453 11.459C75.7453 10.409 74.4984 9.95903 73.5422 10.5403C72.989 10.8684 72.914 11.159 72.8578 12.9778C72.7734 15.5278 72.8578 15.4622 69.8672 15.4622C66.8765 15.4622 66.9234 15.4997 66.9703 12.7809C67.0078 10.7747 67.0265 10.7184 67.9359 10.6997C68.414 10.6903 68.4984 10.7184 68.6953 10.9434C68.8453 11.1215 68.9203 11.3278 68.9203 11.5528C68.9203 12.1059 69.0984 12.5934 69.4359 12.959C69.7078 13.259 69.8015 13.3059 70.1672 13.3059C70.5328 13.3059 71.0484 13.0622 71.3109 12.5465C71.489 12.1997 71.4984 11.9934 71.4984 9.22778C71.4984 6.46216 71.489 6.24653 71.3109 5.89966C71.0484 5.38403 70.5703 5.07466 70.1203 5.13091C69.4172 5.22466 69.0797 5.68403 68.9297 6.72466C68.8265 7.46528 68.639 7.77466 68.2078 7.91528C67.9359 8.00903 67.8422 7.99966 67.5797 7.84966C67.0734 7.55903 66.914 7.09966 66.914 5.89966C66.914 4.00591 67.3359 3.69653 69.9328 3.69653C72.5297 3.69653 71.4047 3.74341 71.639 3.79966C72.4922 3.99653 72.6422 4.33403 72.7265 6.22778C72.7828 7.44653 72.8203 7.69028 72.989 7.94341C73.4578 8.62778 74.4328 8.82466 75.0609 8.34653C75.6703 7.87778 75.6703 7.85903 75.6703 4.66216C75.6609 0.471532 75.7828 0.621532 72.6703 0.696532C69.7265 0.762157 65.1328 0.752782 62.8734 0.668407C61.0453 0.612157 60.8859 0.612157 60.6234 0.780907Z" fill="#0179C0"/>
<path d="M79.4952 0.789375C79.1108 0.995625 78.8483 1.33312 78.6889 1.81125C78.5296 2.28 78.5483 2.47687 78.8202 3.01125C79.1389 3.6675 79.7295 3.97687 80.6483 3.97687C81.567 3.97687 81.2858 4.01437 81.3327 4.12687C81.4077 4.31437 81.4077 15.1706 81.3327 15.3581C81.2858 15.48 81.117 15.5081 80.5077 15.5081C79.6264 15.5081 79.2046 15.6675 78.8952 16.1362C78.4639 16.7925 78.5389 17.6081 79.0921 18.2081L79.4014 18.555H87.3702L87.6233 18.3206C88.1671 17.8237 88.3077 16.905 87.9327 16.2394C87.6327 15.705 87.3139 15.5737 86.2171 15.5081L85.2796 15.4612V11.43L86.6296 11.4019C88.6358 11.3644 89.1795 11.58 89.4608 12.4987C89.517 12.6862 89.5921 13.8019 89.6389 14.9925C89.7421 17.6362 89.8358 18.0019 90.5108 18.4144C90.7827 18.5831 90.9983 18.6019 93.1546 18.6019C95.3108 18.6019 95.5171 18.5831 95.7983 18.4144C96.4358 18.03 96.6608 17.055 96.2858 16.2956C96.0233 15.7425 95.5264 15.5081 94.6358 15.5081C93.7452 15.5081 93.6327 15.4894 93.5296 13.5581C93.4639 12.3394 93.2202 11.28 92.8921 10.755C92.4796 10.1081 91.7296 9.52687 91.1202 9.37687C90.7546 9.2925 90.7921 9.18 91.2702 8.93625C92.3108 8.42062 93.2202 7.47375 93.5858 6.53625C93.7545 6.105 93.8014 5.805 93.8014 5.055C93.8014 4.305 93.6889 3.62062 93.2389 2.81437C92.7514 1.96125 91.5608 1.03312 90.6702 0.826875C90.4921 0.78 88.2514 0.7425 85.7014 0.7425C83.1514 0.7425 80.7889 0.705 80.4514 0.6675C79.9358 0.61125 79.7952 0.63 79.4952 0.789375ZM88.5421 4.10812C88.7296 4.20187 88.9827 4.4175 89.1046 4.57687C89.2921 4.83937 89.3108 4.98 89.3108 5.9925C89.3108 7.005 89.2827 7.16437 89.1139 7.44562C88.7014 8.14875 88.0733 8.32688 86.2171 8.27063L85.2796 8.2425V4.02375L85.7014 3.95812C86.5171 3.84562 88.1577 3.93 88.5421 4.10812Z" fill="#0179C0"/>
<path d="M98.498 0.771433C98.3667 0.837058 98.1886 1.02456 98.1042 1.19331C97.9542 1.45581 97.9355 1.84018 97.9073 4.58706C97.8886 7.56831 97.8886 7.69018 98.0761 7.99018C98.3292 8.40268 98.723 8.54331 99.5386 8.51518C100.317 8.49643 100.551 8.39331 100.795 7.98081C100.954 7.72768 100.982 7.50268 100.982 6.50893C100.982 5.51518 101.085 4.69956 101.46 4.34331C101.995 3.84643 102.81 3.94018 103.27 4.56831C103.467 4.83081 103.467 4.92456 103.467 10.2402V15.6496L102.06 15.6964C101.142 15.7246 100.579 15.7902 100.439 15.8652C99.9511 16.1464 99.8011 17.1964 100.148 17.9183C100.485 18.6214 100.335 18.6027 105.295 18.6027C110.254 18.6027 110.048 18.6121 110.395 18.0214C110.61 17.6558 110.685 16.8402 110.545 16.4089C110.357 15.8371 110.132 15.7527 108.576 15.6964L107.217 15.6496V10.3527C107.217 5.22456 107.226 5.04643 107.404 4.73706C107.929 3.83706 108.82 3.80893 109.457 4.66206C109.617 4.87768 109.654 5.11206 109.701 6.34018C109.757 7.92456 109.814 8.09331 110.348 8.34643C110.573 8.45893 110.854 8.48706 111.37 8.45893C112.035 8.43081 112.082 8.41206 112.335 8.11206C112.692 7.68081 112.72 7.34331 112.682 4.11831C112.654 1.23081 112.635 1.12768 112.176 0.827683C111.97 0.687058 111.267 0.668308 105.332 0.658933C100.139 0.649558 98.6761 0.677683 98.498 0.771433ZM110.807 2.22456C111.389 2.54331 111.482 2.90893 111.482 5.12143C111.482 7.33393 111.473 7.06206 111.285 7.11831C110.91 7.24018 110.873 7.05268 110.826 5.00893C110.789 3.29331 110.76 3.02143 110.61 2.88081C110.46 2.73081 110.198 2.71206 108.06 2.68393L105.67 2.65581V16.8214L107.507 16.8402C109.11 16.8683 109.364 16.8871 109.448 17.0277C109.523 17.1402 109.514 17.2246 109.429 17.3277C109.317 17.4589 108.839 17.4777 105.342 17.4777C101.845 17.4777 101.367 17.4589 101.254 17.3277C101.17 17.2246 101.16 17.1402 101.235 17.0277C101.32 16.8871 101.573 16.8683 103.176 16.8402L105.014 16.8214V2.66518H102.632C100.429 2.66518 100.232 2.67456 100.035 2.84331C99.8105 3.02143 99.8105 3.05893 99.7636 5.07456C99.7167 7.09018 99.7167 7.11831 99.5105 7.14643C99.1355 7.20268 99.0886 6.91206 99.1261 4.87768C99.1636 2.59956 99.2761 2.29018 100.073 2.10268C100.232 2.05581 102.651 2.02768 105.435 2.03706C110.132 2.05581 110.517 2.06518 110.807 2.22456Z" fill="#E52428"/>
<path d="M115.411 0.743272C114.782 1.08077 114.604 2.8714 115.139 3.52765C115.289 3.71515 115.42 3.75265 116.348 3.79952C117.445 3.86515 117.736 3.96827 117.97 4.3714C118.157 4.69952 118.148 14.487 117.961 14.9276C117.773 15.387 117.398 15.5276 116.311 15.5839C115.307 15.6308 115.148 15.6964 114.895 16.1839C114.726 16.5214 114.726 17.5526 114.904 17.9839C115.176 18.6308 114.698 18.5933 122.798 18.612C129.464 18.6214 130.157 18.612 130.373 18.4714C130.832 18.1714 130.861 17.9839 130.936 15.162C131.02 11.9276 130.982 11.5433 130.551 11.1401C130.111 10.7183 129.642 10.6526 129.023 10.9245C128.282 11.2339 128.207 11.412 128.142 12.837C128.048 14.6558 127.898 15.0964 127.223 15.4339C126.951 15.5839 126.623 15.6026 124.842 15.6026C121.898 15.6026 121.889 15.5933 121.889 13.0714C121.889 10.5495 121.917 11.5151 122.067 11.2151C122.357 10.6526 122.948 10.4745 123.501 10.7933C123.904 11.037 124.12 11.4495 124.279 12.2745C124.476 13.2964 124.851 13.662 125.517 13.437C126.145 13.2308 126.154 13.1464 126.154 9.41515C126.154 5.6839 126.136 6.0589 125.995 5.78702C125.779 5.40265 125.479 5.1964 125.142 5.1964C124.542 5.1964 124.345 5.46827 124.176 6.52765C124.101 6.98702 123.989 7.34327 123.848 7.53077C123.576 7.90577 123.098 8.0464 122.686 7.87765C121.992 7.58702 121.795 6.87452 121.954 5.21515C122.039 4.35265 122.067 4.23077 122.311 3.97765C122.461 3.81827 122.732 3.64952 122.911 3.60265C123.098 3.55577 124.064 3.5089 125.057 3.5089C127.017 3.5089 127.242 3.55577 127.551 4.01515C127.795 4.39952 127.982 5.36515 127.982 6.3214C127.982 7.27765 128.132 7.69952 128.723 8.0089C129.398 8.3464 130.064 8.18702 130.373 7.5964C130.504 7.34327 130.523 6.94015 130.495 4.35265C130.476 2.07452 130.439 1.34327 130.336 1.1464C130.111 0.696397 129.801 0.640147 127.842 0.696397C125.198 0.762022 117.67 0.752647 116.592 0.677647C115.861 0.621397 115.598 0.640147 115.411 0.743272ZM128.498 2.11202C128.929 2.2339 129.154 2.41202 129.37 2.80577C129.501 3.03077 129.529 3.45265 129.557 4.99015C129.595 6.97765 129.567 7.16515 129.192 7.16515C128.817 7.16515 128.929 7.00577 128.901 4.8964C128.873 3.26515 128.854 3.03077 128.704 2.88077C128.554 2.7214 128.226 2.71202 124.42 2.6839L120.295 2.65577V8.9464L122.573 8.92765L124.842 8.89952L124.87 7.42765C124.889 6.19015 124.917 5.95577 125.048 5.9089C125.442 5.7589 125.451 5.89952 125.432 9.31202L125.404 12.5558L125.151 12.5839L124.898 12.612L124.87 11.1308L124.842 9.64952L122.573 9.6214L120.295 9.60265V16.8214H124.411C126.707 16.8214 128.629 16.7839 128.761 16.737C128.882 16.6901 129.023 16.5683 129.07 16.4745C129.117 16.3808 129.173 15.4433 129.201 14.3933C129.239 12.7433 129.267 12.4714 129.407 12.387C129.52 12.312 129.604 12.3214 129.707 12.4058C129.839 12.5089 129.857 12.7995 129.857 14.2808C129.857 15.762 129.782 16.6339 129.417 17.0183C128.995 17.4776 128.836 17.487 122.264 17.4589L116.123 17.4308L116.095 17.2058C116.076 17.0839 116.114 16.9433 116.189 16.9058C116.254 16.8589 117.061 16.8214 117.979 16.8214H119.639V2.66515L117.886 2.6464L116.123 2.61827L116.095 2.39327C116.076 2.2714 116.114 2.13077 116.189 2.09327C116.376 1.9714 128.048 1.99015 128.498 2.11202Z" fill="#E52428"/>
<path d="M1.42031 0.790771C0.389058 1.0439 0.0515578 2.5814 0.848433 3.42515L1.20468 3.79077H2.23593C2.95781 3.79077 3.30468 3.82827 3.36093 3.90327C3.41718 3.9689 3.57656 4.5314 3.70781 5.15015C4.03593 6.62202 4.21406 7.40015 4.33593 7.91577C4.39218 8.15015 4.46718 8.5064 4.51406 8.71265C4.56093 8.9189 4.66406 9.35952 4.73906 9.69702C4.94531 10.5783 5.93906 15.0314 6.01406 15.4158C6.58593 18.1064 6.70781 18.4626 7.12031 18.5751C7.26093 18.622 8.31093 18.6501 9.45468 18.6501C11.4422 18.6501 11.5453 18.6408 11.7328 18.4533C11.9203 18.2658 12.0516 17.8439 12.9141 11.7126C13.3078 8.92827 13.6453 6.6314 13.6641 6.61265C13.7484 6.52827 13.7953 6.68765 13.8891 7.31577C13.9359 7.67202 14.0391 8.38452 14.1234 8.90015C14.2734 9.88452 14.3109 10.1189 14.6766 12.6033C15.5391 18.3783 15.5109 18.2376 15.7828 18.4814C15.9516 18.6314 16.1859 18.6501 17.9953 18.6783C19.1109 18.697 20.1141 18.6876 20.2359 18.6501C20.6391 18.5564 20.7234 18.2939 21.4172 15.2751C21.7172 13.972 22.2609 11.647 22.5703 10.3064C22.7016 9.73452 22.8703 9.02202 22.9359 8.71265C23.6297 5.67515 24.0422 4.01577 24.1359 3.90327C24.1922 3.82827 24.5297 3.79077 25.1766 3.79077C26.2547 3.79077 26.6016 3.65015 26.8828 3.11577C27.0891 2.72202 27.0891 1.8689 26.9016 1.4939C26.4984 0.734521 26.1328 0.668896 22.0266 0.734521C19.6391 0.772021 18.3328 1.02515 18.1078 1.4939C17.7609 2.21577 17.9109 3.05952 18.4734 3.53765C18.7266 3.7439 18.8672 3.79077 19.2797 3.79077C19.6922 3.79077 19.8047 3.82827 19.8328 3.86577C19.8703 3.9314 19.7203 4.9064 19.2422 7.63452C19.1391 8.22515 18.9234 9.47202 18.7641 10.4001C18.6047 11.3283 18.4078 12.4345 18.3422 12.8658C18.2203 13.5501 18.0234 14.1501 18.0141 13.8595C18.0141 13.8033 17.8641 12.7533 17.6859 11.5158C17.4984 10.2876 17.3109 9.00327 17.2734 8.66577C17.1141 7.55015 16.5141 3.37827 16.4203 2.8064C16.2328 1.67202 16.1109 1.25015 15.9141 1.10952C15.6328 0.912646 11.8641 0.912646 11.5828 1.10952C11.2828 1.31577 11.3578 0.922022 9.89531 11.0564C9.66093 12.7064 9.44531 14.0751 9.42656 14.0939C9.32343 14.197 9.35156 14.3189 8.45156 9.69702C8.18906 8.32827 7.82343 6.4814 7.64531 5.5814C7.47656 4.69077 7.35468 3.92202 7.38281 3.87515C7.41093 3.82827 7.72031 3.79077 8.06718 3.79077C8.81718 3.79077 9.11718 3.61265 9.39843 3.00327C9.82968 2.04702 9.38906 0.997021 8.46093 0.800146C7.94531 0.687646 1.87968 0.678271 1.42031 0.790771Z" fill="#0179C0"/>
<path d="M69.7169 20.9553C69.0231 21.0303 68.0388 21.3115 66.8106 21.7897C63.8294 22.9522 63.4919 23.0553 62.3106 23.0553C61.1294 23.0553 61.1294 23.0272 58.3544 22.1084C55.8888 21.3022 55.1575 21.1334 54.0044 21.1334C52.8513 21.1334 52.2231 21.3022 50.2638 22.1365C46.4763 23.7678 46.5044 23.7678 41.2169 22.1834C39.3794 21.6397 38.2638 21.4803 37.1857 21.6209C36.2294 21.7522 35.695 21.9209 33.8107 22.699C30.445 24.1053 30.5294 24.0959 26.545 22.999C23.17 22.0803 22.1669 21.8834 20.7607 21.8834C19.3544 21.8834 18.7732 22.0428 16.6544 22.7553C12.0982 24.3115 11.7138 24.3115 8.63878 22.8209C6.52003 21.7897 5.94815 21.6022 4.77628 21.5365C3.80128 21.4803 3.05128 21.5834 2.12315 21.9022C1.6544 22.0615 0.520027 22.5772 0.407527 22.6897C0.351277 22.7365 0.876277 23.6647 0.960652 23.6647C1.04503 23.6647 1.29815 23.5428 1.62628 23.3928C2.7044 22.8959 3.58565 22.699 4.59815 22.7459C5.69503 22.8022 6.27628 22.9897 7.98253 23.8428C10.195 24.9678 11.3857 25.2584 12.8388 25.0615C13.8419 24.9303 14.3107 24.799 16.7294 23.9928C17.8919 23.599 19.2232 23.2147 19.6732 23.1397C20.9763 22.9053 22.2232 23.074 25.2794 23.899C28.5044 24.7709 28.9825 24.8928 29.6107 24.9678C30.7825 25.1178 31.7763 24.874 34.1013 23.8709C37.4107 22.4553 37.8513 22.4365 41.995 23.6459C44.9575 24.5178 45.0982 24.5459 46.2325 24.5365C47.5919 24.5365 48.4356 24.2834 50.7325 23.224C51.7731 22.7459 53.0013 22.3522 53.6669 22.2959C54.52 22.2115 55.5419 22.4365 57.9888 23.2522C60.2482 24.0022 61.5794 24.3209 62.3856 24.3209C63.1075 24.3115 64.3263 24.0209 65.6388 23.524C69.4638 22.0803 69.9232 21.9584 71.095 22.1553C71.9575 22.2959 72.4825 22.474 74.1981 23.1865C76.4106 24.1053 77.0106 24.2647 78.3419 24.2553C79.5606 24.2459 80.0294 24.1615 83.2169 23.3553C86.77 22.4647 87.1356 22.4928 90.7731 23.9553C92.9481 24.8272 93.6231 24.9959 94.8419 24.9959C96.0606 24.9959 96.7356 24.8553 99.3606 24.0022C101.929 23.1678 102.37 23.0647 103.467 23.0647C104.564 23.0647 105.22 23.224 107.217 23.9084C109.973 24.8553 111.136 25.0803 112.448 24.8928C113.414 24.7522 114.895 24.3678 116.92 23.7115C119.704 22.8209 120.961 22.6147 122.17 22.849C122.554 22.924 123.651 23.2709 124.598 23.6178C126.801 24.4053 127.814 24.5928 129.014 24.424C129.848 24.3115 131.001 23.9928 132.295 23.524C134.686 22.6709 136.176 22.2678 136.954 22.2584C137.658 22.2584 138.679 22.5303 140.254 23.1584C143.095 24.2834 143.695 24.4147 145.279 24.2178L146.311 24.0865L146.339 23.4959L146.367 22.8959L145.636 22.9803C143.854 23.1678 143.123 23.0365 140.873 22.1178C138.886 21.3022 138.548 21.2178 137.348 21.1615C135.933 21.0959 135.258 21.2365 132.679 22.1365C128.489 23.599 128.02 23.6084 124.748 22.4084C122.77 21.6678 122.217 21.5647 120.773 21.6303C119.573 21.6865 119.011 21.8084 116.826 22.4928C111.764 24.0678 111.511 24.0772 107.873 22.8678C105.389 22.0334 104.723 21.8834 103.458 21.8834C102.192 21.8834 101.611 22.024 98.8638 22.8959C96.5294 23.6459 96.1825 23.7397 95.4044 23.8053C94.3544 23.899 93.5388 23.7303 91.7669 23.0365C88.4857 21.7709 88.4763 21.7709 87.3231 21.6022C86.3669 21.4709 85.1013 21.6397 82.795 22.2303C79.8419 22.9709 79.4856 23.0365 78.3419 23.0459C77.17 23.0459 76.6919 22.924 74.9669 22.2022C72.1638 21.0303 71.2263 20.8053 69.7169 20.9553Z" fill="#0179C0"/>
<path d="M69.7164 25.3525C68.8446 25.4556 68.0852 25.69 66.3039 26.3837C63.7914 27.3587 63.5008 27.4337 62.3571 27.4431C61.2508 27.4431 60.4446 27.2556 57.9696 26.3837C54.3883 25.1369 53.2727 25.1744 49.8883 26.6931C47.4602 27.7806 46.5696 27.94 44.9196 27.6119C44.3758 27.4994 43.6164 27.3119 43.2321 27.19C40.1946 26.2244 39.1821 25.9994 37.9352 25.99C36.7352 25.9806 36.0602 26.1587 33.7164 27.1337C30.4352 28.4837 30.5664 28.4837 26.7789 27.4619C22.9633 26.4306 22.0446 26.2525 20.6383 26.2712C19.4383 26.2806 18.8571 26.4212 16.0071 27.3681C13.9821 28.0431 12.7258 28.3525 12.0133 28.3525C11.3008 28.3525 10.1664 27.9681 8.45082 27.1431C6.28519 26.1025 6.00394 26.0087 4.83207 25.9431C3.64144 25.8775 2.86332 26.0087 1.64457 26.4869C0.294569 27.0119 0.313319 26.9931 0.613319 27.5837C0.753944 27.8556 0.894569 28.0712 0.932069 28.0712C0.969569 28.0712 1.35394 27.9212 1.77582 27.7431C3.23832 27.1337 4.39144 26.9931 5.61957 27.2837C5.96644 27.3681 7.02582 27.8087 7.98207 28.2587C9.88519 29.1587 10.3258 29.3275 11.3102 29.4775C12.4821 29.665 13.6352 29.44 16.4383 28.5025C19.5789 27.4431 20.2821 27.3212 21.8571 27.5462C23.4321 27.7712 23.5071 27.8556 27.7164 28.9619C28.5977 29.1869 29.5446 29.4025 29.8258 29.44C30.7821 29.5431 31.7289 29.2619 34.9914 27.9306C37.4758 26.9181 38.1977 26.9275 41.7321 27.9962C44.5071 28.8306 45.0414 28.9431 46.1852 28.9525C47.4696 28.9525 48.1446 28.7744 50.1133 27.9119C52.0446 27.0681 52.5414 26.89 53.3758 26.7494C54.3696 26.5806 55.2321 26.7587 57.9321 27.6587C60.0883 28.3712 61.5414 28.7275 62.3289 28.7275C63.1164 28.7275 63.9414 28.5306 64.6071 28.315C64.8414 28.2494 65.7883 27.8931 66.7164 27.5275C70.2321 26.1681 70.7664 26.1681 74.2164 27.6025C75.8664 28.2962 76.2602 28.4275 77.1321 28.5962C78.4633 28.8494 79.4289 28.7181 82.8883 27.8462C83.9946 27.565 85.3071 27.2837 85.7946 27.2275C87.0039 27.0775 87.8758 27.2369 89.6477 27.9306C90.3883 28.2306 91.6071 28.6806 92.3571 28.9431C93.6789 29.4025 93.7446 29.4119 94.7946 29.4119C95.8446 29.4119 96.6508 29.29 98.8258 28.5869C101.216 27.8087 101.948 27.6119 102.745 27.5181C103.945 27.3681 104.713 27.5087 107.301 28.3525C108.557 28.7556 109.926 29.1587 110.357 29.2337C111.97 29.5431 112.785 29.4119 116.638 28.2119C120.932 26.8712 121.345 26.8619 124.607 28.0337C126.341 28.6525 127.448 28.915 128.31 28.915C129.173 28.915 130.429 28.5869 132.182 27.9775C134.695 27.1056 135.51 26.8712 136.373 26.74C137.432 26.59 138.238 26.7681 140.338 27.6119C142.963 28.6619 143.863 28.84 145.466 28.615L146.31 28.4931L146.338 27.9025L146.366 27.3025L145.541 27.3869C144.454 27.49 143.535 27.4431 142.898 27.2556C142.607 27.1806 141.66 26.8244 140.779 26.4775C138.595 25.6244 138.173 25.5119 136.982 25.5212C135.81 25.5306 134.92 25.7369 132.716 26.515C130.026 27.4712 129.379 27.6306 128.263 27.6306C127.148 27.6306 126.838 27.5556 124.841 26.8337C124.073 26.5431 123.145 26.2431 122.779 26.1494C121.87 25.9244 120.398 25.9337 119.31 26.1869C118.457 26.3744 118.185 26.4587 115.448 27.3119C111.857 28.4275 111.445 28.4275 107.779 27.2275C105.163 26.3744 104.704 26.2712 103.466 26.2712C102.229 26.2712 101.488 26.44 98.8258 27.3119C95.0102 28.5681 94.5414 28.5587 90.8946 27.1056C88.5414 26.1681 87.8946 25.9994 86.5914 25.9994C85.2883 25.9994 84.9602 26.0744 81.7821 26.8712C79.7383 27.3775 79.3914 27.4337 78.5008 27.4431C77.2258 27.4525 76.8414 27.3587 74.7602 26.515C72.0977 25.4369 71.0196 25.1837 69.7164 25.3525Z" fill="#E52428"/>
</g>
<defs>
<clipPath id="clip0_48_3698">
<rect width="150" height="29.3438" fill="white" transform="translate(0.294922 0.227539)"/>
</clipPath>
</defs>
</svg>
