<svg width="151" height="39" viewBox="0 0 151 39" fill="none" xmlns="http://www.w3.org/2000/svg">
<path d="M55.4026 2.19849C54.8883 1.5953 52.4891 1.50636 52.0502 2.38409C51.8308 2.82102 51.7766 3.30145 51.8878 3.82442C52.1672 5.14101 54.1082 4.98731 55.0681 4.66251C55.9169 4.37444 55.8724 2.75046 55.4026 2.19849ZM27.8827 1.86693H24.4105C24.395 1.86693 24.3825 1.87949 24.3825 1.89593V15.84C24.3825 15.8564 24.395 15.869 24.4105 15.869H27.8827C27.8982 15.869 27.9108 15.8564 27.9108 15.84V1.89593C27.9108 1.87949 27.8982 1.86693 27.8827 1.86693ZM50.2851 9.33148C50.2832 8.57652 50.2377 8.04873 50.1469 7.74809C49.6374 6.05161 47.9313 5.60597 46.3653 5.65721C45.5552 5.68331 44.9076 5.77514 44.2454 6.17243C44.2377 6.17727 44.229 6.18017 44.2212 6.18017C44.2164 6.18017 44.2106 6.17824 44.2058 6.17727C44.2029 6.17727 44.2009 6.17533 44.198 6.17437C44.1903 6.17147 44.1845 6.1647 44.1797 6.15794C44.1768 6.15504 44.1748 6.1502 44.1748 6.1473C44.1729 6.14247 44.1719 6.13667 44.1719 6.13183L44.1777 1.9114C44.1777 1.8882 44.1574 1.86886 44.1352 1.86886H40.7016C40.6707 1.86886 40.6465 1.89303 40.6465 1.92396V15.8158C40.6465 15.8468 40.6707 15.8709 40.7016 15.8709H44.1188C44.1284 15.8709 44.1352 15.869 44.1429 15.8661V15.8642H44.1449C44.1449 15.8642 44.1545 15.8593 44.1574 15.8564C44.1603 15.8545 44.1632 15.8535 44.1652 15.8506C44.1681 15.8487 44.17 15.8477 44.17 15.8458C44.1729 15.8429 44.1748 15.84 44.1758 15.8361C44.1758 15.8361 44.1764 15.8352 44.1777 15.8332C44.1777 15.8332 44.1797 15.8313 44.1806 15.8303C44.1835 15.8207 44.1855 15.812 44.1855 15.8013C44.1594 13.7085 44.169 11.6157 44.2116 9.52385C44.2222 9.05309 44.4049 8.74472 44.7577 8.60068C45.4431 8.32132 46.7432 8.38608 46.7548 9.45811C46.778 11.5703 46.7906 13.6863 46.7935 15.8062C46.7935 15.8419 46.8215 15.8709 46.8563 15.8709H50.2358C50.2725 15.8709 50.3035 15.84 50.3035 15.8033C50.2986 13.6467 50.2938 11.4871 50.287 9.33245L50.2851 9.33148ZM12.1706 5.23187C11.3712 2.92736 8.90235 2.45369 6.79503 2.44693C4.78631 2.44209 2.77372 2.44209 0.7592 2.44982C0.728267 2.45176 0.704102 2.47399 0.704102 2.50396V15.8178C0.704102 15.8419 0.724401 15.8622 0.748567 15.8622C2.98349 15.8854 5.21937 15.8777 7.45623 15.839C10.9971 15.7781 12.5331 13.6776 12.5786 10.3571C12.6027 8.69252 12.7013 6.76886 12.1706 5.23091V5.23187ZM8.78635 5.69974C8.46252 7.96849 8.13869 10.2382 7.81679 12.507C7.71819 13.1914 7.37213 13.4456 6.68483 13.4446H4.15991C4.15991 13.4446 4.15025 13.4427 4.14638 13.4398C4.14445 13.4398 4.14445 13.4379 4.14445 13.4379C4.14445 13.4379 4.1438 13.4379 4.14251 13.4379C4.12415 13.4301 4.11061 13.4147 4.10385 13.3963C4.10095 13.3886 4.09901 13.3808 4.09901 13.3721V13.3625L5.44461 4.73888C5.44944 4.70505 5.47844 4.68088 5.51227 4.68088C6.2856 4.67798 7.07246 4.67508 7.86996 4.67508C8.44802 4.67508 8.87045 5.10621 8.78635 5.69974ZM23.1036 8.70025C22.9257 7.04436 21.9097 6.1444 20.3186 5.82347C17.9571 5.34497 14.5167 5.61467 13.9638 8.62195C13.7134 9.97818 13.7047 11.4494 13.9377 13.0309C14.2905 15.4292 16.5119 15.9318 18.5951 15.9164C19.7599 15.9067 20.9286 15.8951 22.104 15.8767C22.1408 15.8767 22.1727 15.8487 22.1794 15.812L22.6309 13.3663C22.6309 13.3663 22.6328 13.3605 22.6328 13.3567V13.3547C22.6328 13.347 22.6309 13.3412 22.628 13.3344C22.626 13.3286 22.6231 13.3238 22.6183 13.319C22.6154 13.3141 22.6125 13.3112 22.6077 13.3093C22.6028 13.3045 22.598 13.3016 22.5941 13.3016C22.5912 13.2987 22.5883 13.2987 22.5835 13.2967H22.5738C21.3491 13.3064 20.1301 13.3074 18.9121 13.2996C17.9503 13.2938 17.2011 13.1865 17.2185 12.0613C17.2185 12.0304 17.2427 12.0062 17.2736 12.0062C18.6714 12.0227 20.0663 12.014 21.4602 11.9753C22.2394 11.954 22.8928 11.7588 23.0591 10.9613C23.1848 10.3571 23.2002 9.60215 23.1036 8.69639V8.70025ZM20.1794 9.75198C20.1794 9.75198 20.1746 9.76165 20.1697 9.76551C20.1668 9.77035 20.1639 9.77325 20.1591 9.77615H20.1572C20.1514 9.77905 20.1465 9.78098 20.1407 9.78098C20.1388 9.78291 20.1378 9.78291 20.1359 9.78291L17.1837 9.77711C17.1837 9.77711 17.1808 9.77711 17.1789 9.77518C17.1634 9.77518 17.1499 9.76938 17.1402 9.75875C17.1296 9.74811 17.1219 9.73265 17.1219 9.71621V9.71331C17.1431 9.08595 17.2582 8.41412 17.9638 8.23432C18.4887 8.09899 18.9808 8.09899 19.4399 8.23432C19.5057 8.25462 19.5675 8.28459 19.6236 8.32809C20.0914 8.69059 20.1301 9.19518 20.1804 9.73361C20.1804 9.73941 20.1804 9.74715 20.1775 9.75391L20.1794 9.75198ZM36.5585 5.8718C34.9365 5.53251 32.484 5.49094 31.0572 6.33773C29.8315 7.0666 29.3927 8.42862 29.3772 9.86314C29.3482 12.941 29.3463 16.0227 29.3724 19.1131C29.3724 19.1489 29.4014 19.1779 29.4381 19.1779H32.8436C32.8746 19.1779 32.8987 19.1537 32.8987 19.1228V15.8216C32.8987 15.8216 32.9007 15.812 32.9016 15.8081C32.9036 15.8033 32.9065 15.7984 32.9094 15.7955C32.9123 15.7926 32.9152 15.7897 32.92 15.7878C32.9229 15.7849 32.9297 15.7849 32.9335 15.7849H32.9364C32.9364 15.7849 32.9461 15.7849 32.95 15.7868C33.355 15.9647 33.6711 16.072 33.8963 16.1087C37.2748 16.6452 39.3444 15.1856 39.3367 11.7075C39.3309 9.42041 39.4546 6.47887 36.5566 5.87277L36.5585 5.8718ZM35.3019 13.2494C34.9249 13.493 34.1003 13.4852 33.6982 13.3876C33.2245 13.2697 33.0138 12.8656 32.9635 12.3765C32.8543 11.3286 32.8591 10.2788 32.9819 9.22998C33.0921 8.26815 34.4502 8.30682 35.0438 8.46245C35.4643 8.57265 35.6498 8.97962 35.6972 9.41365C35.7958 10.273 35.9659 12.8211 35.3019 13.2494ZM55.5292 5.94721H52.0589C52.0434 5.94721 52.0299 5.95977 52.0299 5.9762V15.841C52.0299 15.8574 52.0434 15.87 52.0589 15.87H55.5292C55.5457 15.87 55.5582 15.8574 55.5582 15.841V5.9762C55.5582 5.95977 55.5457 5.94721 55.5292 5.94721ZM38.1661 28.2461C38.051 25.5917 35.1172 25.2012 33.1201 25.5462C32.5643 25.641 32.0568 25.8681 31.5947 26.2248C31.5638 26.249 31.5473 26.2413 31.5473 26.2016L31.5502 21.5481C31.5502 21.5172 31.5241 21.493 31.4932 21.493H29.6295C29.5937 21.493 29.5667 21.522 29.5667 21.5559C29.5454 25.815 29.5309 30.0722 29.527 34.3313C29.5251 34.6445 29.5328 34.9924 29.5454 35.3772C29.5473 35.4419 29.6005 35.4922 29.6653 35.4942L31.5174 35.5019C31.5357 35.5019 31.5512 35.4864 31.5512 35.4681C31.5483 33.3984 31.5483 31.3269 31.5512 29.2592C31.5531 28.3099 31.8354 27.4332 32.8726 27.2186C34.0152 26.9788 36.1525 26.8609 36.168 28.5719C36.1844 30.4723 36.1941 32.3738 36.1941 34.2771C36.1941 34.6667 36.1941 35.0563 36.1921 35.4458C36.1921 35.4748 36.2153 35.498 36.2443 35.498L38.1313 35.4951C38.1603 35.4951 38.1854 35.4709 38.1854 35.44C38.2173 31.6691 38.2134 29.2708 38.167 28.2461H38.1661ZM63.3843 21.493H61.4326C61.4162 21.493 61.4036 21.5066 61.4036 21.524V35.4671C61.4036 35.4835 61.4162 35.4961 61.4326 35.4961H63.3843C63.4007 35.4961 63.4133 35.4835 63.4133 35.4671V21.524C63.4133 21.5075 63.4007 21.493 63.3843 21.493ZM88.1105 21.6429L87.5963 21.6409C87.5673 21.6409 87.5363 21.6429 87.5073 21.6458C87.4996 21.6458 87.4919 21.6458 87.4841 21.6477C87.3894 21.6583 87.2956 21.6835 87.2096 21.7183C87.2096 21.7183 87.2089 21.7189 87.2077 21.7202C87.2077 21.7202 87.198 21.725 87.1922 21.726C87.1497 21.7463 87.1081 21.7676 87.0675 21.7937C87.0549 21.8014 87.0433 21.8091 87.0308 21.8178C87.0153 21.8275 87.0018 21.8381 86.9882 21.8488C86.9805 21.8546 86.9728 21.8594 86.967 21.8652C86.9641 21.8671 86.9621 21.87 86.9592 21.8729C86.9573 21.8729 86.9563 21.8729 86.9563 21.8749C86.9544 21.8768 86.9534 21.8768 86.9534 21.8778C86.938 21.8903 86.9225 21.9039 86.909 21.9174C86.8993 21.9251 86.8925 21.9338 86.8848 21.9416C86.8684 21.958 86.8529 21.9754 86.8374 21.9938C86.8355 21.9957 86.8345 21.9967 86.8345 21.9986H86.8326C86.8326 21.9986 86.8268 22.0044 86.8249 22.0092C86.8123 22.0228 86.8017 22.0382 86.791 22.0537C86.7833 22.0634 86.7775 22.074 86.7698 22.0846C86.7379 22.132 86.7098 22.1832 86.6886 22.2364C86.676 22.2644 86.6654 22.2915 86.6567 22.3205C86.6518 22.3302 86.6489 22.3408 86.647 22.3495C86.6422 22.363 86.6393 22.3775 86.6364 22.3911C86.6315 22.4065 86.6286 22.422 86.6257 22.4375C86.6199 22.4694 86.6151 22.5022 86.6122 22.5361C86.6093 22.5651 86.6074 22.596 86.6074 22.625L86.6054 23.1161C86.6035 23.6603 87.0443 24.104 87.5885 24.1069L88.1028 24.1088C88.647 24.1108 89.0907 23.67 89.0926 23.1257L89.0946 22.6337C89.0975 22.0895 88.6576 21.6458 88.1115 21.6438L88.1105 21.6429ZM12.2847 22.1813C12.2847 22.1813 12.2847 22.1784 12.2828 22.1765C12.2808 22.1668 12.2779 22.16 12.275 22.1533C12.2731 22.1484 12.2702 22.1455 12.2692 22.1407C12.2663 22.1359 12.2615 22.131 12.2567 22.1252C12.2518 22.1223 12.247 22.1175 12.2412 22.1127C12.2364 22.1098 12.2306 22.1069 12.2248 22.103C12.219 22.1011 12.2122 22.0982 12.2064 22.0972C12.2006 22.0953 12.1938 22.0953 12.1861 22.0953L1.21836 22.0982C1.1797 22.0982 1.14586 22.1243 1.13813 22.1629L0.809467 23.7985C0.809467 23.7985 0.807533 23.8043 0.807533 23.8082V23.8101C0.807533 23.8179 0.809467 23.8237 0.812367 23.8304C0.815267 23.8362 0.818167 23.8411 0.823 23.8459C0.823 23.8478 0.824934 23.8478 0.8259 23.8488C0.830734 23.8536 0.835567 23.8565 0.841367 23.8585C0.844267 23.8614 0.849101 23.8614 0.852001 23.8633H5.44557C5.47457 23.8633 5.50067 23.8875 5.50067 23.9184V35.44C5.50067 35.4709 5.52484 35.4951 5.5548 35.4951H7.42819C7.46009 35.4951 7.48812 35.4719 7.49296 35.44C7.54226 35.1268 7.48523 34.7083 7.48523 34.5043V23.9136C7.48523 23.8855 7.50843 23.8633 7.53453 23.8633H11.899C11.9299 23.8633 11.9541 23.843 11.9599 23.813L12.2837 22.219C12.2857 22.2132 12.2857 22.2064 12.2857 22.1987C12.2857 22.1929 12.2857 22.1861 12.2837 22.1823L12.2847 22.1813ZM18.7836 26.8812C17.7386 25.3413 15.3761 25.3084 13.7685 25.5511C11.6158 25.8759 10.9314 27.4138 10.8202 29.3762C10.6472 32.4704 10.6887 35.5067 14.7661 35.5193C16.3988 35.5241 17.5675 35.5212 18.2703 35.5086C18.2993 35.5086 18.3254 35.4874 18.3331 35.4565L18.654 33.9127C18.654 33.9127 18.656 33.903 18.656 33.9001C18.656 33.8924 18.654 33.8866 18.6511 33.8798C18.6492 33.8769 18.6482 33.874 18.6463 33.8702C18.6434 33.8673 18.6415 33.8653 18.6405 33.8644C18.6395 33.8634 18.6357 33.8595 18.6328 33.8586V33.8566C18.6328 33.8566 18.6308 33.8547 18.6299 33.8547C18.6279 33.8528 18.627 33.8528 18.625 33.8528C18.6221 33.8499 18.6192 33.8479 18.6144 33.8479H18.6018C17.3548 33.8837 16.1069 33.8924 14.8599 33.876C13.0484 33.8518 12.741 33.1026 12.7845 31.4226C12.7845 31.3916 12.8106 31.3675 12.8415 31.3675C14.4896 31.3617 16.1368 31.3578 17.785 31.3568C18.4539 31.3549 19.0465 31.2892 19.2012 30.5893C19.4332 29.5569 19.4157 27.814 18.7855 26.8793L18.7836 26.8812ZM17.4302 29.7647C17.4283 29.7937 17.4061 29.817 17.3761 29.817H12.8376C12.8067 29.817 12.7825 29.7938 12.7825 29.7628C12.7516 28.5584 12.7593 27.2959 14.2258 27.0948C14.8425 27.0107 15.464 27.0136 16.0856 27.1026C17.4815 27.3036 17.5076 28.6096 17.4293 29.7647H17.4302ZM48.6572 28.2123C48.6466 27.5956 48.4475 27.0571 48.0608 26.598C46.7858 25.088 42.5856 25.1373 41.0941 26.1852C40.2454 26.7816 40.0404 27.7715 40.0404 28.7701C40.0385 30.9905 40.0385 33.2128 40.0424 35.4381C40.0424 35.47 40.0685 35.4951 40.0994 35.4951H41.9051C41.9186 35.4951 41.9312 35.5009 41.9409 35.5106C41.9563 35.5241 41.9728 35.527 41.9902 35.5164C42.0134 35.5009 42.0269 35.4748 42.0269 35.4477C42.024 33.3211 42.025 31.1954 42.0288 29.0717C42.0308 28.2461 42.1042 27.438 43.0535 27.2369C43.8297 27.0745 44.6263 27.06 45.4421 27.1983C46.5992 27.3945 46.6862 28.0886 46.6852 29.0765C46.6833 31.1964 46.6833 33.3201 46.6872 35.4449C46.6872 35.4758 46.7113 35.4999 46.7413 35.4999L48.6099 35.4942C48.6408 35.4942 48.665 35.47 48.665 35.439C48.6804 31.6082 48.6785 29.1993 48.6601 28.2133L48.6572 28.2123ZM59.5312 30.3341C59.4896 28.8493 59.4703 27.118 58.1353 26.1562C56.9937 25.3336 54.8197 25.351 53.4519 25.5578C51.2827 25.8846 50.4968 27.4032 50.4678 29.4593C50.4311 31.9175 50.0811 35.2631 53.4934 35.6884C54.5858 35.8247 55.5969 35.8247 56.5278 35.6884C59.4597 35.2592 59.596 32.6937 59.5322 30.3341H59.5312ZM57.3726 32.8581C57.2373 33.6285 56.7666 33.9871 55.9874 34.0993C55.2499 34.2037 54.5084 34.1959 53.7641 34.0761C52.5461 33.8798 52.5287 32.5661 52.491 31.6507C52.4543 30.7546 52.4649 29.8585 52.5229 28.9624C52.5857 27.9755 52.8757 27.3268 53.9362 27.1644C54.5867 27.0649 55.2383 27.0552 55.8927 27.1403C57.3775 27.3307 57.4915 28.424 57.4896 29.6517C57.4877 30.7043 57.5553 31.8199 57.3726 32.8581ZM74.3443 29.3143C74.2998 27.265 73.3805 25.7686 71.2114 25.552C68.0262 25.234 65.5071 25.5288 65.3138 29.3771C65.2674 30.2742 65.2741 31.1722 65.3273 32.0693C65.4269 33.7213 66.0504 35.236 67.8522 35.5976C69.0799 35.845 70.3104 35.8634 71.5439 35.6546C74.7638 35.1104 74.3946 31.7222 74.3433 29.3133L74.3443 29.3143ZM72.2196 32.803C72.1094 33.6594 71.5719 34.0132 70.7271 34.1147C69.9615 34.2056 69.1959 34.1776 68.4322 34.0335C67.8541 33.9233 67.4858 33.2621 67.423 32.7314C67.2587 31.3327 67.2577 29.932 67.4201 28.5303C67.6077 26.9121 69.4095 27.0127 70.5801 27.12C71.5893 27.2137 72.1268 27.5743 72.2418 28.599C72.4042 30.0383 72.3965 31.439 72.2205 32.803H72.2196ZM84.7794 29.5627C84.7562 27.99 84.4285 26.5496 82.8712 25.8826C81.6455 25.3548 80.0389 25.3684 78.7484 25.5868C76.6865 25.9339 76.0282 27.2911 75.8823 29.2563C75.6706 32.1157 75.9267 34.9683 79.5662 35.1462C80.7088 35.2013 81.805 35.1587 82.7668 34.4608C82.7978 34.4395 82.8132 34.4473 82.8132 34.485C82.8471 36.4134 82.3251 37.093 80.3705 37.1607C79.339 37.1964 78.3066 37.1897 77.2714 37.1423C77.2395 37.1404 77.2105 37.1636 77.2027 37.1964L76.8499 38.7218C76.8499 38.7218 76.848 38.7276 76.848 38.7315C76.848 38.745 76.8509 38.7576 76.8605 38.7682C76.8634 38.7731 76.8683 38.7779 76.8731 38.7808C76.8731 38.7827 76.875 38.7827 76.876 38.7837C76.8789 38.7856 76.8837 38.7866 76.8866 38.7885H76.8886C76.8886 38.7885 76.8982 38.7914 76.904 38.7914C78.1694 38.8407 79.4367 38.8523 80.704 38.8282C83.6639 38.7731 84.7929 37.3279 84.8036 34.4511C84.8113 32.8213 84.8036 31.1925 84.7804 29.5646L84.7794 29.5627ZM82.761 31.9165C82.6122 33.5657 81.2608 33.5908 79.9683 33.5135C78.8992 33.4506 78.0785 33.2969 77.9538 32.0345C77.8514 30.976 77.8417 29.9146 77.9277 28.8522C78.0427 27.4206 78.5908 27.2108 79.8726 27.1035C80.9437 27.0127 82.5281 27.0146 82.7001 28.4134C82.8442 29.5811 82.8645 30.7488 82.7601 31.9156L82.761 31.9165ZM99.2339 27.5018C98.5485 25.5192 96.1067 25.3046 94.3648 25.5076C92.3087 25.7483 91.2812 26.6656 91.0337 28.6976C90.8906 29.8653 90.8906 31.1219 91.0318 32.4704C91.2667 34.7121 92.8945 35.5096 94.9487 35.5174C96.5137 35.5232 97.664 35.5193 98.4006 35.5038C98.4374 35.5019 98.4693 35.4758 98.477 35.441L98.795 33.9127V33.8895C98.795 33.8895 98.7921 33.8837 98.7902 33.8798C98.7883 33.8769 98.7873 33.874 98.7844 33.8702C98.7825 33.8673 98.7815 33.8653 98.7796 33.8644C98.7776 33.8634 98.7747 33.8595 98.7718 33.8586C98.7699 33.8566 98.7689 33.8566 98.767 33.8557C98.7651 33.8547 98.7641 33.8537 98.7622 33.8537C98.7602 33.8518 98.7573 33.8508 98.7544 33.8508C98.7496 33.8508 98.7467 33.8489 98.7419 33.8489C97.2551 33.8731 95.6785 33.9929 94.2034 33.8102C92.9825 33.6594 92.9148 32.4965 92.9129 31.4226C92.9129 31.3916 92.9371 31.3675 92.968 31.3675C94.7457 31.3617 96.5243 31.352 98.302 31.3433C98.3388 31.3433 98.3755 31.3414 98.4113 31.3385C98.4403 31.3365 98.4712 31.3336 98.4983 31.3288C98.5012 31.3288 98.506 31.3288 98.5089 31.3269C98.5089 31.3269 98.5099 31.3269 98.5118 31.3269H98.5137C98.5379 31.324 98.5611 31.3191 98.5843 31.3143C98.5998 31.3114 98.6152 31.3085 98.6307 31.3046C98.652 31.2998 98.6732 31.294 98.6935 31.2882C98.7177 31.2824 98.7409 31.2747 98.7622 31.265C98.7776 31.2602 98.7911 31.2544 98.8047 31.2486C98.825 31.2408 98.8434 31.2321 98.8617 31.2225C98.94 31.1838 99.0106 31.1335 99.0705 31.0755C99.0802 31.0659 99.0908 31.0552 99.0995 31.0446C99.1102 31.034 99.1198 31.0233 99.1285 31.0127C99.1653 30.9702 99.1971 30.9218 99.2281 30.8687C99.2406 30.8445 99.2542 30.8184 99.2667 30.7904C99.2764 30.7691 99.2851 30.7478 99.2929 30.7246C99.2987 30.7111 99.3035 30.6956 99.3083 30.6821C99.3132 30.6686 99.319 30.6531 99.3219 30.6376C99.3267 30.6222 99.3315 30.6067 99.3344 30.5912C99.3422 30.5632 99.348 30.5361 99.3547 30.5081C99.5374 29.5917 99.5142 28.3138 99.232 27.5008L99.2339 27.5018ZM97.5915 29.7096C97.5896 29.7696 97.5413 29.817 97.4813 29.817H92.968C92.94 29.817 92.9158 29.7937 92.9158 29.7647C92.9322 28.1727 92.9438 27.147 94.8578 27.0504C95.2657 27.0301 95.7104 27.0504 96.1928 27.1103C97.6505 27.2911 97.6041 28.5709 97.5915 29.7096ZM27.8537 33.8856C27.8537 33.8856 27.8508 33.8808 27.8489 33.8779C27.847 33.875 27.846 33.8702 27.8431 33.8673L27.8412 33.8653C27.8412 33.8653 27.8354 33.8576 27.8305 33.8557C27.8276 33.8508 27.8247 33.8499 27.8199 33.8479C27.8199 33.8479 27.8189 33.8473 27.817 33.846C27.817 33.846 27.8122 33.8431 27.8112 33.8431C27.8054 33.8402 27.7977 33.8383 27.7899 33.8383H27.7822C26.9567 33.8808 26.1195 33.8934 25.2718 33.875C23.8837 33.847 22.8841 33.8354 22.7507 32.2491C22.6444 31.005 22.6512 29.8421 22.7691 28.7614C22.8793 27.7396 23.5956 27.4158 24.5197 27.3926C25.3423 27.3713 26.3167 27.379 27.4439 27.4158C27.4758 27.4158 27.5038 27.3945 27.5096 27.3655L27.8238 25.8527C27.8238 25.8527 27.8257 25.8469 27.8257 25.843L27.8238 25.8411V25.8362C27.8238 25.8285 27.8218 25.8208 27.8189 25.815V25.8121L27.817 25.8092C27.817 25.8072 27.8151 25.8063 27.8151 25.8063C27.8131 25.8043 27.8131 25.8034 27.8122 25.8034C27.8122 25.8014 27.8102 25.8005 27.8093 25.7985C27.8093 25.7966 27.8093 25.7956 27.8073 25.7956C27.8025 25.7898 27.7967 25.785 27.7909 25.7821C27.788 25.7792 27.7832 25.7763 27.7774 25.7763H27.7754C27.7754 25.7763 27.7658 25.7715 27.76 25.7715C26.7227 25.7241 25.787 25.7028 24.9537 25.7067C20.6579 25.7328 20.5748 28.2732 20.6714 31.7116C20.7942 36.0132 24.3718 35.6285 27.4893 35.4825C27.5202 35.4806 27.5444 35.4594 27.5502 35.4304L27.8537 33.9253C27.8557 33.9195 27.8557 33.9127 27.8557 33.9069C27.8557 33.8992 27.8537 33.8914 27.8508 33.8837L27.8537 33.8856ZM108.87 31.7445C108.645 30.5767 107.668 29.8604 106.518 29.7667C105.55 29.6884 104.584 29.5888 103.624 29.4709C103.046 29.3984 102.742 29.0823 102.713 28.5245C102.666 27.5859 103.298 27.4245 104.112 27.3955C105.509 27.3481 106.911 27.3539 108.317 27.4167C108.35 27.4187 108.382 27.3955 108.389 27.3597L108.713 25.8198V25.814C108.713 25.8082 108.713 25.8014 108.71 25.7976C108.708 25.7927 108.705 25.7879 108.702 25.784C108.699 25.7792 108.697 25.7763 108.692 25.7734C108.689 25.7715 108.684 25.7705 108.681 25.7686C108.678 25.7666 108.673 25.7657 108.67 25.7657C107.066 25.697 105.462 25.697 103.857 25.7676C102.498 25.8285 101.236 26.3631 100.917 27.8005C100.469 29.8131 101.481 31.1007 103.459 31.3133C104.343 31.4081 105.226 31.497 106.109 31.583C107.256 31.6932 107.304 33.5802 106.334 33.7754C105.518 33.9369 104.5 33.8769 103.449 33.8818C102.702 33.8866 101.954 33.8586 101.2 33.8537C101.168 33.8537 101.14 33.875 101.134 33.9059L100.816 35.4313C100.816 35.4313 100.814 35.4371 100.814 35.4419C100.814 35.4497 100.816 35.4555 100.819 35.4622C100.821 35.468 100.825 35.4748 100.83 35.4787C100.835 35.4826 100.84 35.4864 100.843 35.4893C100.851 35.4922 100.859 35.4951 100.867 35.4951C102.451 35.5318 104.036 35.5348 105.621 35.5048C107.936 35.4623 109.324 34.1196 108.869 31.7464L108.87 31.7445ZM88.8114 25.7405H86.9148C86.8906 25.7405 86.8703 25.7608 86.8703 25.785V35.4506C86.8703 35.4748 86.8906 35.4951 86.9148 35.4951H88.8114C88.8355 35.4951 88.8558 35.4748 88.8558 35.4506V25.785C88.8558 25.7608 88.8355 25.7405 88.8114 25.7405Z" fill="#0678BD"/>
<path d="M52.051 2.38326C51.8316 2.82019 51.7784 3.30062 51.8886 3.82455C52.168 5.14017 54.1081 4.98647 55.068 4.66168C55.9167 4.37264 55.8732 2.74962 55.4025 2.19766C54.8901 1.59543 52.4899 1.5065 52.051 2.38422V2.38326Z" fill="#0678BD"/>
<path d="M27.9111 1.89619C27.9111 1.88072 27.8985 1.86719 27.8821 1.86719H24.4108C24.3954 1.86719 24.3818 1.87975 24.3818 1.89619V15.8412C24.3818 15.8567 24.3944 15.8702 24.4108 15.8702H27.8821C27.8976 15.8702 27.9111 15.8577 27.9111 15.8412V1.89619Z" fill="#0678BD"/>
<path d="M44.1729 6.13016L44.1787 1.90972C44.1787 1.88555 44.1593 1.86719 44.1361 1.86719H40.7026C40.6726 1.86719 40.6475 1.89232 40.6475 1.92229V15.8151C40.6475 15.8451 40.6726 15.8702 40.7026 15.8702H44.1187C44.1555 15.8702 44.1864 15.8403 44.1864 15.8026C44.1864 15.8026 44.1864 15.8026 44.1864 15.8016C44.1603 13.7078 44.17 11.616 44.2125 9.52314C44.2231 9.05141 44.4049 8.74304 44.7587 8.59901C45.444 8.31965 46.7442 8.38441 46.7558 9.45547C46.779 11.5676 46.7925 13.6846 46.7945 15.8055C46.7945 15.8412 46.8225 15.8693 46.8573 15.8693H50.2377C50.2744 15.8693 50.3054 15.8393 50.3054 15.8016C50.3005 13.643 50.2957 11.4864 50.2889 9.32981C50.287 8.57485 50.2406 8.04705 50.1497 7.74738C49.6413 6.0509 47.9351 5.60526 46.3682 5.65553C45.5591 5.68163 44.9114 5.77346 44.2492 6.17172C44.226 6.18526 44.1961 6.17849 44.1825 6.15529C44.1777 6.14756 44.1748 6.13886 44.1758 6.12919L44.1729 6.13016Z" fill="#0678BD"/>
<path d="M12.1706 5.22968C11.3712 2.92516 8.90235 2.4515 6.79503 2.44473C4.78631 2.4399 2.77372 2.4399 0.7592 2.44763C0.728267 2.44956 0.704102 2.4718 0.704102 2.50177V15.8156C0.704102 15.8397 0.724401 15.86 0.748567 15.86C2.98349 15.8832 5.21937 15.8755 7.45623 15.8368C10.9971 15.7759 12.5331 13.6754 12.5786 10.3549C12.6027 8.69033 12.7013 6.76667 12.1706 5.22871V5.22968ZM8.78635 5.69755C8.46252 7.9663 8.13869 10.236 7.81679 12.5048C7.71819 13.1892 7.37213 13.4434 6.68483 13.4424H4.15991C4.15991 13.4424 4.15024 13.4405 4.14638 13.4376C4.14444 13.4376 4.14445 13.4357 4.14445 13.4357C4.14445 13.4357 4.1438 13.4357 4.14251 13.4357C4.12415 13.4279 4.11061 13.4125 4.10384 13.3941C4.10095 13.3864 4.09901 13.3786 4.09901 13.3699V13.3603L5.44461 4.73669C5.44944 4.70285 5.47844 4.67868 5.51227 4.67868C6.2856 4.67578 7.07246 4.67288 7.86996 4.67288C8.44802 4.67288 8.87045 5.10402 8.78635 5.69755Z" fill="#0678BD"/>
<path d="M23.1048 8.69929C22.927 7.0434 21.911 6.14344 20.3199 5.82251C17.9583 5.34401 14.518 5.61371 13.965 8.62099C13.7147 9.97722 13.706 11.4485 13.9389 13.0299C14.2918 15.4282 16.5132 15.9309 18.5963 15.9154C19.7611 15.9057 20.9298 15.8941 22.1053 15.8758C22.142 15.8758 22.1739 15.8477 22.1807 15.811L22.6321 13.3654C22.6321 13.3654 22.6341 13.3596 22.6341 13.3557V13.3538C22.6341 13.346 22.6321 13.3402 22.6292 13.3335C22.6273 13.3277 22.6244 13.3228 22.6196 13.318C22.6167 13.3132 22.6138 13.3103 22.6089 13.3083C22.6041 13.3035 22.5993 13.3006 22.5954 13.3006C22.5925 13.2977 22.5896 13.2977 22.5848 13.2958H22.5751C21.3503 13.3054 20.1314 13.3064 18.9134 13.2987C17.9515 13.2929 17.2024 13.1856 17.2198 12.0604C17.2198 12.0294 17.244 12.0053 17.2749 12.0053C18.6727 12.0217 20.0676 12.013 21.4615 11.9743C22.2406 11.9531 22.8941 11.7578 23.0603 10.9603C23.186 10.3561 23.2015 9.60119 23.1048 8.69543V8.69929ZM20.1807 9.75102C20.1807 9.75102 20.1758 9.76069 20.171 9.76455C20.1681 9.76939 20.1652 9.77228 20.1604 9.77518H20.1584C20.1526 9.77808 20.1478 9.78002 20.142 9.78002C20.1401 9.78195 20.1391 9.78195 20.1372 9.78195L17.185 9.77615C17.185 9.77615 17.1821 9.77615 17.1802 9.77422C17.1647 9.77422 17.1512 9.76842 17.1415 9.75778C17.1309 9.74715 17.1231 9.73168 17.1231 9.71525V9.71235C17.1444 9.08499 17.2594 8.41316 17.9651 8.23336C18.49 8.09803 18.982 8.09803 19.4412 8.23336C19.5069 8.25366 19.5688 8.28363 19.6248 8.32713C20.0927 8.68963 20.1314 9.19422 20.1816 9.73265C20.1816 9.73845 20.1816 9.74619 20.1787 9.75295L20.1807 9.75102Z" fill="#0678BD"/>
<path d="M36.558 5.87006C34.9359 5.53076 32.4835 5.4892 31.0567 6.33599C29.831 7.06485 29.3921 8.42688 29.3767 9.8614C29.3477 12.9392 29.3457 16.021 29.3718 19.1114C29.3718 19.1471 29.4008 19.1761 29.4376 19.1761H32.8431C32.8741 19.1761 32.8982 19.152 32.8982 19.121V15.8199C32.8982 15.8199 32.9002 15.8102 32.9011 15.8064C32.9031 15.8015 32.906 15.7967 32.9089 15.7938C32.9118 15.7909 32.9147 15.788 32.9195 15.7861C32.9224 15.7832 32.9292 15.7832 32.933 15.7832H32.9359C32.9359 15.7832 32.9456 15.7812 32.9495 15.7851C33.3545 15.963 33.6706 16.0703 33.8958 16.107C37.2743 16.6435 39.3439 15.1838 39.3362 11.7058C39.3304 9.41867 39.4541 6.47713 36.5561 5.87103L36.558 5.87006ZM35.3013 13.2476C34.9243 13.4912 34.0998 13.4835 33.6976 13.3858C33.224 13.2679 33.0133 12.8638 32.963 12.3747C32.8538 11.3269 32.8586 10.2771 32.9814 9.22824C33.0916 8.26641 34.4497 8.30508 35.0432 8.46071C35.4637 8.57091 35.6493 8.97788 35.6967 9.41191C35.7953 10.2713 35.9654 12.8194 35.3013 13.2476Z" fill="#0678BD"/>
<path d="M55.5586 5.97431C55.5586 5.95884 55.546 5.94531 55.5296 5.94531H52.0583C52.0428 5.94531 52.0293 5.95788 52.0293 5.97431V15.84C52.0293 15.8555 52.0419 15.869 52.0583 15.869H55.5296C55.545 15.869 55.5586 15.8565 55.5586 15.84V5.97431Z" fill="#0678BD"/>
<path d="M31.5477 26.2008L31.5496 21.5483C31.5496 21.5183 31.5245 21.4932 31.4935 21.4932H29.6288C29.594 21.4932 29.566 21.5212 29.566 21.556C29.5447 25.8141 29.5312 30.0723 29.5264 34.3314C29.5264 34.6426 29.5322 34.9916 29.5447 35.3773C29.5467 35.4411 29.5989 35.4923 29.6636 35.4933L31.5158 35.501C31.5341 35.501 31.5486 35.4865 31.5486 35.4682C31.5467 33.3976 31.5467 31.328 31.5496 29.2583C31.5506 28.3091 31.8328 27.4333 32.8691 27.2177C34.0126 26.9799 36.1499 26.862 36.1644 28.572C36.1847 30.862 36.1934 33.153 36.1896 35.4469C36.1896 35.4759 36.2128 35.4991 36.2418 35.4991L38.1287 35.4962C38.1586 35.4962 38.1828 35.472 38.1828 35.4421C38.2157 31.6702 38.2099 29.2728 38.1654 28.2482C38.0494 25.5928 35.1166 25.2032 33.1185 25.5483C32.5636 25.644 32.0551 25.8702 31.594 26.2259C31.5621 26.2501 31.5467 26.2424 31.5467 26.2027L31.5477 26.2008Z" fill="#0678BD"/>
<path d="M63.414 21.5202C63.414 21.5038 63.4004 21.4902 63.384 21.4902H61.4323C61.4159 21.4902 61.4023 21.5038 61.4023 21.5202V35.4633C61.4023 35.4797 61.4159 35.4933 61.4323 35.4933H63.384C63.4004 35.4933 63.414 35.4797 63.414 35.4633V21.5202Z" fill="#0678BD"/>
<path d="M89.0956 22.6314C89.0975 22.0863 88.6577 21.6435 88.1125 21.6416L87.5982 21.6397C87.053 21.6377 86.6103 22.0776 86.6084 22.6227L86.6065 23.1148C86.6045 23.66 87.0453 24.1027 87.5895 24.1046L88.1038 24.1066C88.649 24.1085 89.0917 23.6687 89.0937 23.1235L89.0956 22.6314Z" fill="#0678BD"/>
<path d="M12.1872 22.0967L1.21949 22.0986C1.18083 22.0986 1.14699 22.1257 1.13926 22.1634L0.810598 23.799C0.804798 23.828 0.824131 23.857 0.854097 23.8618C0.856997 23.8618 0.860864 23.8618 0.863764 23.8618H5.4467C5.47667 23.8618 5.5018 23.8869 5.5018 23.9169V35.4385C5.5018 35.4685 5.52693 35.4936 5.5569 35.4936H7.42932C7.46219 35.4936 7.48925 35.4704 7.49409 35.4385C7.54339 35.1244 7.48636 34.7068 7.48636 34.5028V23.9111C7.48636 23.884 7.50859 23.8618 7.53566 23.8618H11.9001C11.9301 23.8618 11.9562 23.8405 11.962 23.8115L12.2849 22.2175C12.2955 22.1624 12.2607 22.1092 12.2066 22.0986C12.1998 22.0976 12.194 22.0967 12.1872 22.0967Z" fill="#0678BD"/>
<path d="M18.7848 26.8787C17.7399 25.3388 15.3773 25.306 13.7698 25.5486C11.617 25.8734 10.9326 27.4113 10.8215 29.3737C10.6484 32.4679 10.69 35.5042 14.7674 35.5168C16.4001 35.5216 17.5688 35.5187 18.2715 35.5061C18.3005 35.5061 18.3266 35.4849 18.3344 35.454L18.6553 33.9102C18.6553 33.9102 18.6572 33.9005 18.6572 33.8976C18.6572 33.8899 18.6553 33.8841 18.6524 33.8773C18.6505 33.8744 18.6495 33.8715 18.6476 33.8677C18.6447 33.8648 18.6427 33.8628 18.6418 33.8619C18.6408 33.8609 18.6369 33.857 18.634 33.8561V33.8541C18.634 33.8541 18.6321 33.8522 18.6311 33.8522C18.6292 33.8503 18.6282 33.8503 18.6263 33.8503C18.6234 33.8474 18.6205 33.8454 18.6157 33.8454H18.6031C17.3561 33.8812 16.1081 33.8899 14.8611 33.8735C13.0496 33.8493 12.7422 33.1001 12.7857 31.4201C12.7857 31.3891 12.8118 31.365 12.8428 31.365C14.4909 31.3592 16.1381 31.3553 17.7863 31.3543C18.4552 31.3524 19.0478 31.2867 19.2024 30.5868C19.4344 29.5544 19.417 27.8115 18.7868 26.8768L18.7848 26.8787ZM17.4315 29.7623C17.4296 29.7913 17.4073 29.8145 17.3774 29.8145H12.8389C12.808 29.8145 12.7838 29.7913 12.7838 29.7603C12.7529 28.5559 12.7606 27.2934 14.227 27.0923C14.8437 27.0082 15.4653 27.0111 16.0869 27.1001C17.4827 27.3011 17.5088 28.6071 17.4305 29.7623H17.4315Z" fill="#0678BD"/>
<path d="M41.938 35.5083C41.9544 35.5228 41.9699 35.5248 41.9863 35.5151C42.0095 35.4996 42.024 35.4745 42.024 35.4464C42.0211 33.3188 42.0221 31.1931 42.0259 29.0694C42.0269 28.2448 42.0994 27.4367 43.0506 27.2356C43.8268 27.0713 44.6233 27.0587 45.4402 27.197C46.5963 27.3932 46.6843 28.0853 46.6823 29.0742C46.6804 31.1951 46.6804 33.3179 46.6833 35.4426C46.6833 35.4726 46.7075 35.4977 46.7374 35.4977L48.606 35.4909C48.6359 35.4909 48.6611 35.4658 48.6611 35.4358C48.6765 31.6049 48.6746 29.196 48.6562 28.2091C48.6446 27.5923 48.4455 27.0549 48.0588 26.5957C46.7838 25.0848 42.5837 25.1351 41.0921 26.182C40.2444 26.7784 40.0394 27.7683 40.0394 28.7678C40.0375 30.9872 40.0375 33.2096 40.0404 35.4348C40.0404 35.4667 40.0655 35.4919 40.0965 35.4919H41.9022C41.9157 35.4919 41.9283 35.4967 41.938 35.5064V35.5083Z" fill="#0678BD"/>
<path d="M59.5318 30.3325C59.4903 28.8477 59.4709 27.1165 58.136 26.1546C56.9943 25.332 54.8203 25.3494 53.4525 25.5563C51.2833 25.883 50.4974 27.4016 50.4684 29.4577C50.4317 31.9159 50.0818 35.2615 53.4941 35.6869C54.5864 35.8232 55.5975 35.8232 56.5284 35.6869C59.4603 35.2577 59.5966 32.6921 59.5328 30.3325H59.5318ZM57.3733 32.8565C57.238 33.6269 56.7672 33.9855 55.9881 34.0977C55.2505 34.2021 54.5091 34.1943 53.7647 34.0745C52.5467 33.8782 52.5293 32.5646 52.4916 31.6491C52.4549 30.753 52.4655 29.8569 52.5235 28.9608C52.5864 27.9739 52.8764 27.3253 53.9368 27.1629C54.5874 27.0633 55.2389 27.0536 55.8933 27.1387C57.3781 27.3291 57.4922 28.4224 57.4902 29.6501C57.4883 30.7028 57.556 31.8183 57.3733 32.8565Z" fill="#0678BD"/>
<path d="M74.3457 29.3143C74.3012 27.265 73.3819 25.7686 71.2127 25.5521C68.0276 25.234 65.5085 25.5289 65.3151 29.3771C65.2687 30.2742 65.2755 31.1722 65.3287 32.0693C65.4282 33.7213 66.0517 35.2361 67.8536 35.5976C69.0812 35.8451 70.3118 35.8634 71.5453 35.6546C74.7652 35.1104 74.396 31.7222 74.3447 29.3133L74.3457 29.3143ZM72.221 32.803C72.1108 33.6594 71.5733 34.0132 70.7284 34.1147C69.9628 34.2056 69.1972 34.1776 68.4336 34.0335C67.8555 33.9233 67.4872 33.2621 67.4244 32.7314C67.2601 31.3327 67.2591 29.932 67.4215 28.5303C67.609 26.9121 69.4109 27.0127 70.5815 27.12C71.5907 27.2137 72.1282 27.5743 72.2432 28.599C72.4056 30.0383 72.3979 31.439 72.2219 32.803H72.221Z" fill="#0678BD"/>
<path d="M84.7791 29.5605C84.7559 27.9878 84.4282 26.5474 82.871 25.8804C81.6452 25.3526 80.0386 25.3662 78.7481 25.5846C76.6863 25.9317 76.028 27.2889 75.882 29.2541C75.6703 32.1135 75.9265 34.9661 79.5659 35.144C80.7085 35.1991 81.8047 35.1565 82.7666 34.4586C82.7975 34.4373 82.813 34.4451 82.813 34.4828C82.8468 36.4112 82.3248 37.0908 80.3702 37.1585C79.3388 37.1942 78.3064 37.1875 77.2711 37.1401C77.2392 37.1382 77.2102 37.1614 77.2025 37.1942L76.8496 38.7196C76.8496 38.7196 76.8477 38.7254 76.8477 38.7293C76.8477 38.7428 76.8506 38.7554 76.8603 38.766C76.8632 38.7709 76.868 38.7757 76.8728 38.7786C76.8728 38.7805 76.8748 38.7805 76.8757 38.7815C76.8786 38.7834 76.8835 38.7844 76.8864 38.7863H76.8883C76.8883 38.7863 76.898 38.7892 76.9038 38.7892C78.1691 38.8385 79.4364 38.8501 80.7037 38.826C83.6636 38.7709 84.7927 37.3257 84.8033 34.4489C84.811 32.8191 84.8033 31.1903 84.7801 29.5625L84.7791 29.5605ZM82.7607 31.9143C82.6119 33.5635 81.2605 33.5886 79.9681 33.5113C78.8989 33.4484 78.0782 33.2947 77.9535 32.0323C77.8511 30.9738 77.8414 29.9124 77.9274 28.85C78.0425 27.4184 78.5906 27.2086 79.8724 27.1013C80.9434 27.0105 82.5278 27.0124 82.6998 28.4112C82.8439 29.5789 82.8642 30.7466 82.7598 31.9134L82.7607 31.9143Z" fill="#0678BD"/>
<path d="M99.2355 27.5008C98.5501 25.5182 96.1083 25.3036 94.3664 25.5066C92.3103 25.7473 91.2827 26.6646 91.0353 28.6965C90.8922 29.8643 90.8922 31.1209 91.0333 32.4694C91.2682 34.7111 92.8961 35.5086 94.9503 35.5163C96.5153 35.5221 97.6656 35.5183 98.4022 35.5028C98.4389 35.5009 98.4708 35.4748 98.4786 35.44L98.7966 33.9117V33.8885C98.7966 33.8885 98.7937 33.8827 98.7918 33.8788C98.7898 33.8759 98.7889 33.873 98.786 33.8691C98.784 33.8662 98.7831 33.8643 98.7811 33.8633C98.7792 33.8624 98.7763 33.8585 98.7734 33.8575C98.7715 33.8556 98.7705 33.8556 98.7686 33.8546C98.7666 33.8537 98.7657 33.8527 98.7637 33.8527C98.7618 33.8508 98.7589 33.8498 98.756 33.8498C98.7512 33.8498 98.7483 33.8479 98.7434 33.8479C97.2567 33.872 95.6801 33.9919 94.2049 33.8092C92.9841 33.6584 92.9164 32.4955 92.9145 31.4216C92.9145 31.3906 92.9386 31.3665 92.9696 31.3665C94.7473 31.3607 96.5259 31.351 98.3036 31.3423C98.3403 31.3423 98.3771 31.3404 98.4128 31.3375C98.4418 31.3355 98.4728 31.3326 98.4998 31.3278C98.5027 31.3278 98.5076 31.3278 98.5105 31.3259H98.5153C98.5395 31.323 98.5627 31.3181 98.5859 31.3133C98.6013 31.3104 98.6168 31.3075 98.6323 31.3036C98.6535 31.2988 98.6748 31.293 98.6951 31.2872C98.7193 31.2814 98.7425 31.2737 98.7637 31.264C98.7792 31.2592 98.7927 31.2534 98.8063 31.2476C98.8266 31.2398 98.8449 31.2311 98.8633 31.2215C98.9416 31.1828 99.0122 31.1325 99.0721 31.0745C99.0818 31.0649 99.0924 31.0542 99.1011 31.0436C99.1117 31.033 99.1214 31.0223 99.1301 31.0117C99.1668 30.9692 99.1987 30.9208 99.2296 30.8677C99.2422 30.8435 99.2558 30.8174 99.2683 30.7894C99.278 30.7681 99.2867 30.7468 99.2944 30.7236C99.3002 30.7101 99.3051 30.6946 99.3099 30.6811C99.3147 30.6676 99.3205 30.6521 99.3234 30.6366C99.3283 30.6212 99.3331 30.6057 99.336 30.5902C99.3437 30.5622 99.3495 30.5351 99.3563 30.5071C99.539 29.5907 99.5158 28.3128 99.2335 27.4998L99.2355 27.5008ZM97.5931 29.7086C97.5912 29.7686 97.5428 29.8159 97.4829 29.8159H92.9696C92.9415 29.8159 92.9174 29.7927 92.9174 29.7637C92.9338 28.1716 92.9454 27.146 94.8594 27.0493C95.2673 27.029 95.712 27.0493 96.1943 27.1093C97.6521 27.29 97.6057 28.5699 97.5931 29.7086Z" fill="#0678BD"/>
<path d="M27.76 25.7715C26.7228 25.7241 25.7871 25.7019 24.9538 25.7067C20.658 25.7328 20.5758 28.2742 20.6725 31.7116C20.7952 36.0152 24.3728 35.6295 27.4894 35.4835C27.5203 35.4825 27.5454 35.4603 27.5512 35.4303L27.8557 33.9262C27.8635 33.8866 27.8383 33.847 27.7987 33.8392C27.7929 33.8383 27.7871 33.8373 27.7803 33.8383C26.9538 33.8818 26.1177 33.8943 25.2699 33.876C23.8818 33.847 22.8832 33.8354 22.7498 32.25C22.6445 31.0059 22.6503 29.843 22.7672 28.7623C22.8784 27.7406 23.5956 27.4158 24.5188 27.3926C25.3395 27.3723 26.3149 27.38 27.443 27.4158C27.4739 27.4167 27.5019 27.3955 27.5077 27.3655L27.8219 25.8527C27.8296 25.8159 27.8055 25.7811 27.7697 25.7734C27.7668 25.7734 27.7629 25.7724 27.7591 25.7724L27.76 25.7715Z" fill="#0678BD"/>
<path d="M103.45 33.8791C102.704 33.8839 101.954 33.8549 101.201 33.8501C101.17 33.8501 101.142 33.8723 101.136 33.9033L100.817 35.4277C100.811 35.4567 100.829 35.4847 100.857 35.4905C100.86 35.4905 100.864 35.4915 100.867 35.4915C102.451 35.5292 104.037 35.5321 105.621 35.5012C107.936 35.4567 109.324 34.115 108.869 31.7428C108.645 30.5741 107.668 29.8588 106.517 29.765C105.549 29.6867 104.585 29.5871 103.624 29.4682C103.046 29.3957 102.742 29.0806 102.713 28.5219C102.665 27.5823 103.296 27.4218 104.111 27.3928C105.51 27.3445 106.912 27.3513 108.316 27.4141C108.351 27.416 108.382 27.3918 108.389 27.358L108.711 25.8181C108.716 25.793 108.7 25.7688 108.675 25.764C108.673 25.764 108.671 25.764 108.668 25.764C107.064 25.6944 105.461 25.6944 103.856 25.765C102.497 25.8259 101.234 26.3604 100.914 27.7969C100.467 29.8104 101.479 31.098 103.456 31.3107C104.34 31.4054 105.224 31.4953 106.106 31.5804C107.254 31.6906 107.3 33.5785 106.332 33.7728C105.516 33.9352 104.499 33.8743 103.447 33.8801L103.45 33.8791Z" fill="#0678BD"/>
<path d="M88.8556 25.7827C88.8556 25.7586 88.8363 25.7383 88.8112 25.7383H86.9146C86.8904 25.7383 86.8701 25.7576 86.8701 25.7827V35.4484C86.8701 35.4726 86.8894 35.4929 86.9146 35.4929H88.8112C88.8353 35.4929 88.8556 35.4735 88.8556 35.4484V25.7827Z" fill="#0678BD"/>
<path d="M52.0485 2.38422C52.4874 1.5065 54.8876 1.59543 55.4 2.19766C55.8707 2.74962 55.9152 4.37264 55.0655 4.66168C54.1056 4.98647 52.1645 5.14017 51.8861 3.82455C51.775 3.30062 51.8291 2.82019 52.0485 2.38326V2.38422Z" fill="#0678BD"/>
<path d="M27.8811 1.86719H24.4108C24.3948 1.86719 24.3818 1.88017 24.3818 1.89619V15.8412C24.3818 15.8572 24.3948 15.8702 24.4108 15.8702H27.8811C27.8972 15.8702 27.9101 15.8572 27.9101 15.8412V1.89619C27.9101 1.88017 27.8972 1.86719 27.8811 1.86719Z" fill="#0678BD"/>
<path d="M12.1706 5.2302C11.3712 2.92568 8.90235 2.45202 6.79503 2.44525C4.78631 2.44042 2.77372 2.44041 0.7592 2.44815C0.728267 2.45008 0.704102 2.47232 0.704102 2.50228V15.8161C0.704102 15.8403 0.724401 15.8606 0.748567 15.8606C2.98349 15.8838 5.21937 15.876 7.45623 15.8374C10.9971 15.7765 12.5331 13.6759 12.5786 10.3554C12.6027 8.69084 12.7013 6.76719 12.1706 5.22923V5.2302ZM8.78635 5.69806C8.46252 7.96682 8.13869 10.2365 7.81679 12.5053C7.71819 13.1897 7.37213 13.4439 6.68483 13.4429H4.15991C4.15991 13.4429 4.15024 13.441 4.14638 13.4381C4.14444 13.4381 4.14445 13.4362 4.14445 13.4362C4.14445 13.4362 4.1438 13.4362 4.14251 13.4362C4.12415 13.4284 4.11061 13.413 4.10384 13.3946C4.10095 13.3869 4.09901 13.3791 4.09901 13.3704V13.3608L5.44461 4.7372C5.44944 4.70337 5.47844 4.6792 5.51227 4.6792C6.2856 4.6763 7.07246 4.6734 7.86996 4.6734C8.44802 4.6734 8.87045 5.10453 8.78635 5.69806ZM50.2851 9.3298C50.2832 8.57484 50.2377 8.04705 50.1469 7.74642C49.6374 6.04993 47.9313 5.6043 46.3653 5.65553C45.5552 5.68163 44.9076 5.77346 44.2454 6.17076C44.2377 6.17559 44.229 6.17849 44.2212 6.17849C44.2164 6.17849 44.2106 6.17656 44.2058 6.17559C44.2029 6.17559 44.2009 6.17366 44.198 6.17269C44.1903 6.16979 44.1845 6.16303 44.1797 6.15626C44.1768 6.15336 44.1748 6.14852 44.1748 6.14562C44.1729 6.14079 44.1719 6.13499 44.1719 6.13016L44.1777 1.90972C44.1777 1.88652 44.1574 1.86719 44.1352 1.86719H40.7016C40.6707 1.86719 40.6465 1.89135 40.6465 1.92229V15.8142C40.6465 15.8451 40.6707 15.8693 40.7016 15.8693H44.1188C44.1284 15.8693 44.1352 15.8673 44.1429 15.8644C44.1449 15.8644 44.1449 15.8625 44.1449 15.8625C44.1497 15.8606 44.1545 15.8596 44.1574 15.8548C44.1603 15.8528 44.1632 15.8519 44.1652 15.849C44.1681 15.847 44.17 15.8461 44.17 15.8441C44.1729 15.8412 44.1748 15.8383 44.1758 15.8345C44.1758 15.8345 44.1764 15.8335 44.1777 15.8316C44.1777 15.8316 44.1797 15.8296 44.1806 15.8287C44.1835 15.819 44.1855 15.8103 44.1855 15.7997C44.1594 13.7068 44.169 11.614 44.2116 9.52217C44.2222 9.05141 44.4049 8.74304 44.7577 8.59901C45.4431 8.31964 46.7432 8.38441 46.7548 9.45643C46.778 11.5686 46.7906 13.6846 46.7935 15.8045C46.7935 15.8403 46.8215 15.8693 46.8563 15.8693H50.2358C50.2725 15.8693 50.3035 15.8383 50.3035 15.8016C50.2986 13.645 50.2938 11.4855 50.287 9.33077L50.2851 9.3298Z" fill="#0678BD"/>
<path d="M23.1048 8.69929C22.927 7.0434 21.911 6.14344 20.3199 5.82251C17.9583 5.34401 14.518 5.61371 13.965 8.62099C13.7147 9.97722 13.706 11.4485 13.9389 13.0299C14.2918 15.4282 16.5132 15.9309 18.5963 15.9154C19.7611 15.9057 20.9298 15.8941 22.1053 15.8758C22.142 15.8758 22.1739 15.8477 22.1807 15.811L22.6321 13.3654C22.6321 13.3654 22.6341 13.3596 22.6341 13.3557V13.3538C22.6341 13.346 22.6321 13.3402 22.6292 13.3335C22.6273 13.3277 22.6244 13.3228 22.6196 13.318C22.6167 13.3132 22.6138 13.3103 22.6089 13.3083C22.6041 13.3035 22.5993 13.3006 22.5954 13.3006C22.5896 13.2977 22.5828 13.2958 22.5751 13.2958C21.3503 13.3054 20.1314 13.3064 18.9134 13.2987C17.9515 13.2929 17.2024 13.1856 17.2198 12.0604C17.2198 12.0294 17.244 12.0053 17.2749 12.0053C18.6727 12.0217 20.0676 12.013 21.4615 11.9743C22.2406 11.9531 22.8941 11.7578 23.0603 10.9603C23.186 10.3561 23.2015 9.60119 23.1048 8.69543V8.69929ZM20.1807 9.75102C20.1807 9.75102 20.1758 9.76069 20.171 9.76455C20.1681 9.76939 20.1652 9.77228 20.1604 9.77518H20.1584C20.1526 9.77808 20.1478 9.78002 20.142 9.78002C20.1401 9.78195 20.1391 9.78195 20.1372 9.78195L17.185 9.77615C17.185 9.77615 17.1821 9.77615 17.1802 9.77422C17.1647 9.77422 17.1512 9.76842 17.1415 9.75778C17.1309 9.74715 17.1231 9.73168 17.1231 9.71525V9.71235C17.1444 9.08499 17.2594 8.41316 17.9651 8.23336C18.49 8.09803 18.982 8.09803 19.4412 8.23336C19.5069 8.25366 19.5688 8.28363 19.6248 8.32713C20.0927 8.68963 20.1314 9.19422 20.1816 9.73265C20.1816 9.73845 20.1816 9.74619 20.1787 9.75295L20.1807 9.75102ZM36.5598 5.87084C34.9377 5.53154 32.4853 5.48998 31.0585 6.33677C29.8328 7.06563 29.3939 8.42766 29.3784 9.86218C29.3494 12.94 29.3475 16.0217 29.3736 19.1122C29.3736 19.1479 29.4026 19.1769 29.4393 19.1769H32.8449C32.8758 19.1769 32.9 19.1528 32.9 19.1218V15.8207C32.9 15.8207 32.9019 15.811 32.9029 15.8071C32.9048 15.8023 32.9077 15.7975 32.9106 15.7946C32.9135 15.7917 32.9164 15.7888 32.9213 15.7868C32.9242 15.7839 32.9309 15.7839 32.9348 15.7839H32.9377C32.9377 15.7839 32.9474 15.782 32.9512 15.7859C33.3563 15.9637 33.6723 16.071 33.8976 16.1078C37.2761 16.6443 39.3457 15.1846 39.3379 11.7066C39.3321 9.41945 39.4559 6.4779 36.5578 5.87181L36.5598 5.87084ZM35.3031 13.2484C34.9261 13.492 34.1015 13.4843 33.6994 13.3866C33.2258 13.2687 33.015 12.8646 32.9648 12.3755C32.8555 11.3276 32.8604 10.2778 32.9831 9.22902C33.0933 8.26719 34.4515 8.30586 35.045 8.46149C35.4655 8.57169 35.6511 8.97866 35.6985 9.41269C35.7971 10.272 35.9672 12.8202 35.3031 13.2484Z" fill="#0678BD"/>
<path d="M55.5286 5.94531H52.0583C52.0423 5.94531 52.0293 5.95829 52.0293 5.97431V15.8391C52.0293 15.8551 52.0423 15.8681 52.0583 15.8681H55.5286C55.5446 15.8681 55.5576 15.8551 55.5576 15.8391V5.97431C55.5576 5.95829 55.5446 5.94531 55.5286 5.94531Z" fill="#0678BD"/>
<path d="M31.5942 26.223C32.0562 25.8663 32.5637 25.6401 33.1186 25.5454C35.1167 25.2003 38.0495 25.5908 38.1655 28.2453C38.21 29.2699 38.2158 31.6682 38.1829 35.4391C38.1829 35.4691 38.1587 35.4933 38.1288 35.4933L36.2419 35.4962C36.2129 35.4962 36.1897 35.473 36.1897 35.444C36.1935 33.1511 36.1848 30.8591 36.1645 28.5691C36.15 26.8591 34.0127 26.977 32.8692 27.2148C31.8329 27.4313 31.5507 28.3062 31.5497 29.2554C31.5468 31.325 31.5468 33.3947 31.5487 35.4652C31.5487 35.4836 31.5342 35.4981 31.5159 35.4981L29.6637 35.4904C29.599 35.4904 29.5468 35.4382 29.5448 35.3744C29.5313 34.9887 29.5255 34.6397 29.5265 34.3285C29.5313 30.0693 29.5448 25.8112 29.5661 21.5531C29.5661 21.5183 29.5941 21.4902 29.6289 21.4902H31.4936C31.5246 21.4902 31.5497 21.5154 31.5497 21.5453L31.5478 26.1979C31.5478 26.2375 31.5632 26.2452 31.5951 26.2211L31.5942 26.223Z" fill="#0678BD"/>
<path d="M63.383 21.4902H61.4323C61.4158 21.4902 61.4023 21.5037 61.4023 21.5202V35.4633C61.4023 35.4799 61.4158 35.4933 61.4323 35.4933H63.383C63.3996 35.4933 63.413 35.4799 63.413 35.4633V21.5202C63.413 21.5037 63.3996 21.4902 63.383 21.4902Z" fill="#0678BD"/>
<path d="M86.6087 22.6255L86.607 23.1166C86.6051 23.6616 87.0454 24.1051 87.5905 24.107L88.1038 24.1088C88.6488 24.1107 89.0923 23.6703 89.0942 23.1252L89.0959 22.6342C89.0978 22.0891 88.6574 21.6457 88.1124 21.6438L87.5991 21.642C87.054 21.6401 86.6106 22.0804 86.6087 22.6255Z" fill="#0678BD"/>
<path d="M108.869 31.743C108.644 30.5752 107.667 29.8589 106.517 29.7652C105.549 29.6869 104.583 29.5873 103.624 29.4694C103.045 29.3969 102.741 29.0808 102.712 28.523C102.665 27.5844 103.297 27.423 104.111 27.394C105.509 27.3466 106.91 27.3524 108.316 27.4152C108.35 27.4171 108.381 27.3939 108.388 27.3582L108.712 25.8183V25.8125C108.712 25.8067 108.712 25.7999 108.709 25.7961C108.707 25.7912 108.704 25.7864 108.701 25.7825C108.699 25.7777 108.696 25.7748 108.691 25.7719C108.688 25.77 108.683 25.769 108.68 25.7671C108.677 25.7651 108.672 25.7642 108.67 25.7642C107.065 25.6955 105.461 25.6955 103.857 25.7661C102.497 25.827 101.235 26.3616 100.916 27.799C100.468 29.8116 101.48 31.0992 103.458 31.3118C104.342 31.4066 105.225 31.4955 106.108 31.5815C107.255 31.6917 107.303 33.5786 106.333 33.7739C105.517 33.9353 104.499 33.8754 103.449 33.8802C102.701 33.8851 101.953 33.857 101.199 33.8522C101.167 33.8522 101.139 33.8735 101.133 33.9044L100.815 35.4298C100.815 35.4298 100.813 35.4356 100.813 35.4404C100.813 35.4482 100.815 35.454 100.818 35.4607C100.82 35.4665 100.824 35.4733 100.829 35.4772C100.834 35.481 100.839 35.4849 100.842 35.4878C100.85 35.4907 100.858 35.4936 100.866 35.4936C102.45 35.5303 104.035 35.5332 105.62 35.5033C107.935 35.4607 109.323 34.118 108.868 31.7449L108.869 31.743ZM27.8528 33.8841C27.8528 33.8841 27.8499 33.8793 27.848 33.8764C27.8461 33.8735 27.8451 33.8686 27.8422 33.8657L27.8403 33.8638C27.8403 33.8638 27.8345 33.8561 27.8296 33.8541C27.8267 33.8493 27.8238 33.8483 27.819 33.8464C27.819 33.8464 27.818 33.8458 27.8161 33.8445C27.8161 33.8445 27.8113 33.8416 27.8103 33.8416C27.8045 33.8387 27.7968 33.8367 27.789 33.8367H27.7813C26.9558 33.8793 26.1186 33.8918 25.2709 33.8735C23.8828 33.8454 22.8832 33.8338 22.7498 32.2476C22.6435 31.0035 22.6503 29.8406 22.7682 28.7598C22.8784 27.7381 23.5947 27.4142 24.5188 27.391C25.3415 27.3698 26.3158 27.3775 27.443 27.4142C27.4749 27.4142 27.5029 27.393 27.5087 27.364L27.8229 25.8512V25.8357C27.8229 25.828 27.8209 25.8202 27.818 25.8144V25.8115L27.8161 25.8086C27.8161 25.8067 27.8142 25.8057 27.8142 25.8057C27.8122 25.8038 27.8122 25.8028 27.8113 25.8028C27.8113 25.8009 27.8093 25.7999 27.8084 25.798C27.8084 25.7961 27.8084 25.7951 27.8064 25.7951C27.8016 25.7893 27.7958 25.7845 27.79 25.7816C27.7871 25.7787 27.7823 25.7758 27.7765 25.7758H27.7745C27.7745 25.7758 27.7649 25.7709 27.7591 25.7709C26.7218 25.7236 25.7861 25.7023 24.9529 25.7062C20.657 25.7323 20.5739 28.2726 20.6705 31.7111C20.7933 36.0127 24.3709 35.628 27.4884 35.482C27.5193 35.4801 27.5435 35.4588 27.5493 35.4298L27.8528 33.9247C27.8548 33.9189 27.8548 33.9121 27.8548 33.9063C27.8548 33.8986 27.8528 33.8909 27.8499 33.8831L27.8528 33.8841ZM99.233 27.5003C98.5476 25.5177 96.1058 25.3031 94.3639 25.5061C92.3078 25.7468 91.2803 26.6641 91.0328 28.696C90.8897 29.8638 90.8897 31.1204 91.0309 32.4689C91.2658 34.7106 92.8936 35.5081 94.9478 35.5158C96.5128 35.5216 97.6631 35.5178 98.3997 35.5023C98.4365 35.5004 98.4684 35.4743 98.4761 35.4395L98.7941 33.9112V33.8986C98.7941 33.8928 98.7922 33.8851 98.7893 33.8783C98.7874 33.8754 98.7864 33.8725 98.7835 33.8686C98.7816 33.8657 98.7806 33.8638 98.7787 33.8628C98.7767 33.8619 98.7738 33.858 98.7709 33.857C98.769 33.8551 98.768 33.8551 98.7661 33.8541C98.7642 33.8532 98.7632 33.8522 98.7613 33.8522C98.7555 33.8493 98.7487 33.8474 98.741 33.8474C97.2542 33.8715 95.6776 33.9914 94.2025 33.8087C92.9816 33.6579 92.9139 32.495 92.912 31.4211C92.912 31.3901 92.9362 31.366 92.9671 31.366C94.7448 31.3602 96.5234 31.3505 98.3011 31.3418C98.3379 31.3418 98.3746 31.3399 98.4104 31.337C98.4394 31.335 98.4703 31.3321 98.4974 31.3273C98.5003 31.3273 98.5051 31.3273 98.508 31.3254H98.5128C98.537 31.3225 98.5602 31.3176 98.5834 31.3128C98.5989 31.3099 98.6143 31.307 98.6298 31.3031C98.6511 31.2983 98.6723 31.2925 98.6926 31.2867C98.7168 31.2809 98.74 31.2732 98.7613 31.2635C98.7767 31.2587 98.7902 31.2529 98.8038 31.2471C98.8241 31.2393 98.8425 31.2306 98.8608 31.221C98.9391 31.1823 99.0097 31.132 99.0696 31.074C99.0793 31.0644 99.0899 31.0537 99.0986 31.0431C99.1093 31.0325 99.1189 31.0218 99.1276 31.0112C99.1644 30.9687 99.1962 30.9203 99.2272 30.8672C99.2397 30.843 99.2533 30.8169 99.2658 30.7889C99.2755 30.7676 99.2842 30.7463 99.2919 30.7231C99.2977 30.7096 99.3026 30.6941 99.3074 30.6806C99.3123 30.6671 99.3181 30.6516 99.321 30.6361C99.3258 30.6207 99.3306 30.6052 99.3335 30.5897C99.3413 30.5617 99.3471 30.5346 99.3538 30.5066C99.5365 29.5902 99.5133 28.3123 99.231 27.4993L99.233 27.5003ZM97.5906 29.7081C97.5887 29.7681 97.5404 29.8154 97.4804 29.8154H92.9671C92.9391 29.8154 92.9149 29.7922 92.9149 29.7632C92.9313 28.1711 92.9429 27.1455 94.8569 27.0489C95.2648 27.0286 95.7095 27.0489 96.1919 27.1088C97.6496 27.2896 97.6032 28.5694 97.5906 29.7081ZM84.7785 29.5612C84.7553 27.9884 84.4276 26.5481 82.8703 25.8811C81.6446 25.3533 80.038 25.3669 78.7475 25.5853C76.6856 25.9324 76.0273 27.2896 75.8814 29.2548C75.6697 32.1142 75.9258 34.9668 79.5653 35.1446C80.7079 35.1997 81.8041 35.1572 82.7659 34.4593C82.7969 34.438 82.8123 34.4457 82.8123 34.4834C82.8462 36.4119 82.3242 37.0915 80.3696 37.1592C79.3381 37.1949 78.3057 37.1882 77.2705 37.1408C77.2386 37.1389 77.2096 37.1621 77.2018 37.1949L76.849 38.7203C76.849 38.7203 76.8471 38.7261 76.8471 38.73C76.8471 38.7435 76.85 38.7561 76.8596 38.7667C76.8625 38.7715 76.8674 38.7764 76.8722 38.7793C76.8722 38.7812 76.8741 38.7812 76.8751 38.7822C76.878 38.7841 76.8828 38.7851 76.8857 38.787H76.8877C76.8877 38.787 76.8973 38.7899 76.9031 38.7899C78.1685 38.8392 79.4358 38.8508 80.7031 38.8266C83.663 38.7715 84.792 37.3264 84.8027 34.4496C84.8104 32.8198 84.8027 31.191 84.7795 29.5631L84.7785 29.5612ZM82.7601 31.915C82.6113 33.5641 81.2599 33.5893 79.9674 33.5119C78.8983 33.4491 78.0776 33.2954 77.9529 32.033C77.8505 30.9745 77.8408 29.9131 77.9268 28.8507C78.0418 27.4191 78.5899 27.2093 79.8717 27.102C80.9428 27.0112 82.5272 27.0131 82.6992 28.4118C82.8433 29.5796 82.8636 30.7473 82.7592 31.9141L82.7601 31.915ZM74.3434 29.3128C74.2989 27.2635 73.3796 25.7671 71.2105 25.5505C68.0253 25.2325 65.5062 25.5273 65.3129 29.3756C65.2665 30.2727 65.2732 31.1707 65.3264 32.0678C65.426 33.7198 66.0495 35.2345 67.8513 35.5961C69.079 35.8435 70.3095 35.8619 71.543 35.6531C74.7629 35.1089 74.3937 31.7207 74.3424 29.3118L74.3434 29.3128ZM72.2187 32.8014C72.1085 33.6579 71.571 34.0117 70.7262 34.1132C69.9606 34.2041 69.195 34.176 68.4313 34.032C67.8532 33.9218 67.485 33.2606 67.4221 32.7299C67.2578 31.3312 67.2568 29.9305 67.4192 28.5288C67.6068 26.9106 69.4086 27.0112 70.5792 27.1184C71.5884 27.2122 72.1259 27.5728 72.2409 28.5974C72.4033 30.0368 72.3956 31.4375 72.2197 32.8014H72.2187ZM59.5303 30.3326C59.4887 28.8478 59.4694 27.1165 58.1344 26.1547C56.9928 25.3321 54.8188 25.3495 53.451 25.5563C51.2818 25.8831 50.4959 27.4017 50.4669 29.4578C50.4302 31.916 50.0802 35.2616 53.4925 35.6869C54.5849 35.8232 55.596 35.8232 56.5269 35.6869C59.4588 35.2577 59.5951 32.6922 59.5313 30.3326H59.5303ZM57.3718 32.8565C57.2364 33.627 56.7657 33.9856 55.9865 34.0977C55.249 34.2021 54.5075 34.1944 53.7632 34.0745C52.5452 33.8783 52.5278 32.5646 52.4901 31.6492C52.4534 30.7531 52.464 29.857 52.522 28.9609C52.5848 27.9739 52.8748 27.3253 53.9353 27.1629C54.5858 27.0634 55.2374 27.0537 55.8918 27.1388C57.3766 27.3292 57.4906 28.4225 57.4887 29.6501C57.4868 30.7028 57.5545 31.8184 57.3718 32.8565ZM48.6563 28.2108C48.6457 27.594 48.4466 27.0556 48.0599 26.5965C46.7849 25.0865 42.5847 25.1358 41.0932 26.1837C40.2445 26.7801 40.0395 27.77 40.0395 28.7685C40.0376 30.989 40.0376 33.2113 40.0415 35.4366C40.0415 35.4685 40.0676 35.4936 40.0985 35.4936H41.9042C41.9177 35.4936 41.9303 35.4994 41.94 35.5091C41.9554 35.5226 41.9719 35.5255 41.9893 35.5149C42.0125 35.4994 42.026 35.4733 42.026 35.4462C42.0231 33.3196 42.0241 31.1939 42.0279 29.0701C42.0299 28.2446 42.1033 27.4365 43.0526 27.2354C43.8288 27.073 44.6254 27.0585 45.4412 27.1967C46.5983 27.393 46.6853 28.087 46.6844 29.075C46.6824 31.1949 46.6824 33.3186 46.6863 35.4433C46.6863 35.4743 46.7104 35.4984 46.7404 35.4984L48.609 35.4926C48.6399 35.4926 48.6641 35.4685 48.6641 35.4375C48.6795 31.6067 48.6776 29.1977 48.6592 28.2117L48.6563 28.2108ZM18.7827 26.8797C17.7377 25.3398 15.3752 25.3069 13.7676 25.5496C11.6149 25.8744 10.9305 27.4123 10.8193 29.3746C10.6463 32.4689 10.6878 35.5052 14.7652 35.5178C16.3979 35.5226 17.5666 35.5197 18.2694 35.5071C18.2984 35.5071 18.3245 35.4859 18.3322 35.4549L18.6531 33.9112C18.6531 33.9112 18.6551 33.9015 18.6551 33.8986C18.6551 33.8909 18.6531 33.8851 18.6502 33.8783C18.6483 33.8754 18.6473 33.8725 18.6454 33.8686C18.6425 33.8657 18.6406 33.8638 18.6396 33.8628C18.6386 33.8619 18.6348 33.858 18.6319 33.857C18.6319 33.8551 18.6299 33.8551 18.629 33.8541C18.628 33.8532 18.6261 33.8522 18.6241 33.8522C18.6183 33.8493 18.6106 33.8474 18.6038 33.8474H18.6009C17.3539 33.8831 16.106 33.8918 14.859 33.8754C13.0475 33.8512 12.7401 33.1021 12.7836 31.422C12.7836 31.3911 12.8097 31.3669 12.8406 31.3669C14.4888 31.3611 16.1359 31.3573 17.7841 31.3563C18.453 31.3544 19.0456 31.2886 19.2003 30.5888C19.4323 29.5564 19.4149 27.8135 18.7846 26.8787L18.7827 26.8797ZM17.4293 29.7632C17.4274 29.7922 17.4052 29.8154 17.3752 29.8154H12.8367C12.8058 29.8154 12.7816 29.7922 12.7816 29.7613C12.7507 28.5568 12.7584 27.2944 14.2249 27.0933C14.8416 27.0092 15.4631 27.0121 16.0847 27.1011C17.4806 27.3021 17.5067 28.6081 17.4284 29.7632H17.4293ZM12.2838 22.1798C12.2838 22.1798 12.2838 22.1769 12.2819 22.1749C12.2799 22.1653 12.277 22.1585 12.2741 22.1517C12.2722 22.1469 12.2693 22.144 12.2683 22.1392C12.2654 22.1343 12.2606 22.1295 12.2558 22.1237C12.2509 22.1208 12.2461 22.116 12.2403 22.1111C12.2355 22.1082 12.2297 22.1054 12.2239 22.1015C12.2181 22.0996 12.2113 22.0966 12.2055 22.0957C12.1997 22.0937 12.1929 22.0938 12.1852 22.0938L1.21747 22.0966C1.1788 22.0966 1.14497 22.1228 1.13724 22.1614L0.808574 23.797C0.808574 23.797 0.806641 23.8028 0.806641 23.8067V23.8086C0.806641 23.8163 0.808574 23.8221 0.811474 23.8289C0.814374 23.8347 0.817274 23.8395 0.822108 23.8444C0.822108 23.8463 0.824041 23.8463 0.825007 23.8473C0.829841 23.8521 0.834674 23.855 0.840474 23.8569C0.846274 23.8598 0.85304 23.8618 0.860773 23.8618H5.44468C5.47368 23.8618 5.49978 23.8859 5.49978 23.9169V35.4385C5.49978 35.4694 5.52394 35.4936 5.55391 35.4936H7.4273C7.4592 35.4936 7.48723 35.4704 7.49206 35.4385C7.54136 35.1253 7.48433 34.7067 7.48433 34.5028V23.912C7.48433 23.884 7.50753 23.8618 7.53363 23.8618H11.8981C11.929 23.8618 11.9532 23.8415 11.959 23.8115L12.2828 22.2175C12.2848 22.2117 12.2848 22.2049 12.2848 22.1972C12.2848 22.1914 12.2848 22.1846 12.2828 22.1807L12.2838 22.1798Z" fill="#0678BD"/>
<path d="M88.8102 25.7412H86.9146C86.89 25.7412 86.8701 25.7611 86.8701 25.7857V35.4503C86.8701 35.4749 86.89 35.4948 86.9146 35.4948H88.8102C88.8348 35.4948 88.8547 35.4749 88.8547 35.4503V25.7857C88.8547 25.7611 88.8348 25.7412 88.8102 25.7412Z" fill="#0678BD"/>
<path d="M131.367 3.55754L131.555 2.37725C131.568 2.29411 131.619 2.22258 131.692 2.18488C133.685 1.11866 135.512 1.11866 138.018 1.05486C138.125 1.05292 138.193 1.00073 138.221 0.899226L138.358 0.405264C138.38 0.325997 138.429 0.257363 138.495 0.209996C138.793 -0.00846912 139.074 0.0369654 139.34 0.344363C139.729 0.792894 140.37 0.101732 140.782 0.99106C141.035 1.54206 141.373 2.03892 141.796 2.48262C141.855 2.54352 141.896 2.61892 141.917 2.70205C142.097 3.42415 142.479 4.01477 143.063 4.47684C143.12 4.52227 143.132 4.60444 143.089 4.66437L142.54 5.42707C142.491 5.49763 142.483 5.58946 142.519 5.66776C143.284 7.32559 142.973 8.99211 144.454 10.2275C144.556 10.3126 144.57 10.4634 144.486 10.5658C144.47 10.5842 144.453 10.5997 144.434 10.6132C143.017 11.5393 142.191 12.8501 141.957 14.5475C141.944 14.6422 141.972 14.7244 142.039 14.793C142.34 15.1014 142.446 15.4823 142.356 15.9366C142.341 16.0101 142.299 16.0748 142.24 16.1183L141.071 16.9845C141.017 17.0241 140.977 17.0782 140.955 17.1401C140.495 18.3707 141.037 20.4799 142.051 21.2697C142.172 21.3625 142.211 21.5258 142.146 21.6631C141.764 22.4712 141.126 22.8395 140.232 22.769C140.134 22.7603 140.048 22.8318 140.039 22.9285C140.039 22.9381 140.038 22.9488 140.039 22.9584C140.121 24.0063 141.827 25.232 142.933 26.1194C143.324 26.4307 143.976 27.1083 144.89 28.1523C144.954 28.2267 144.997 28.3157 145.014 28.4114C145.186 29.3393 145.678 30.0353 146.49 30.5003C146.58 30.5515 146.676 30.5689 146.78 30.5535C150.584 30.0073 145.573 24.9981 144.784 23.9183C143.123 21.6447 141.723 20.1377 142.724 17.0985C142.969 16.3542 142.993 15.5751 143.254 14.823C143.282 14.7418 143.334 14.6809 143.407 14.6384C144.276 14.1628 145.242 13.5132 146.312 13.693C147.741 13.9337 150.251 15.6099 150.568 17.115C150.92 18.7853 150.589 20.3049 149.575 21.6718C149.471 21.81 149.499 22.0072 149.637 22.1116C149.663 22.131 149.692 22.1464 149.723 22.1571C151.16 22.6588 150.117 24.2827 148.77 23.1846C148.381 22.8656 147.993 22.624 147.605 22.4587C147.522 22.4239 147.469 22.362 147.444 22.274C147.354 21.9521 147.22 21.6544 147.04 21.3818C146.071 19.9009 147.069 18.4035 145.332 17.1391C145.278 17.0985 145.223 17.1005 145.17 17.144C143.76 18.2846 144.333 20.6317 145.178 21.8332C145.537 22.3456 146.117 22.9758 146.918 23.724C147.99 24.7255 148.898 25.8594 149.64 27.1247C150.958 29.3664 150.411 32.2258 147.763 33.1422C147.693 33.1673 147.656 33.2447 147.682 33.3143C147.696 33.3549 147.729 33.3858 147.771 33.3984C148.644 33.6391 150.413 34.6212 150.313 35.7348C150.157 37.4535 146.437 36.9392 145.402 36.6985C145.318 36.6792 145.235 36.684 145.154 36.7121C143.458 37.3162 141.807 37.1973 140.201 36.3554C140.127 36.3167 140.05 36.3109 139.971 36.337C139.303 36.5748 138.748 36.9499 138.051 36.9499C137.224 36.9499 135.593 36.2345 135.022 36.4163C133.975 36.7507 132.984 36.8783 132.049 36.7991C131.442 36.7488 131.082 36.3718 130.449 36.2365C130.346 36.2142 130.239 36.2258 130.145 36.2713C128.471 37.062 126.82 36.9885 125.192 36.0518C125.12 36.0093 125.047 36.0074 124.973 36.047C122.887 37.1161 120.172 36.2896 118.713 34.6898C118.295 34.2326 118.142 33.3404 118.441 32.7546C119.368 30.9353 122.077 31.9339 123.516 32.6202C123.597 32.6589 123.678 32.6598 123.762 32.6231C125.417 31.8865 126.927 32.1746 128.533 32.8C128.615 32.8319 128.706 32.828 128.783 32.7894C130.674 31.8788 132.044 32.4539 133.871 33.0668C133.97 33.0987 134.078 33.0446 134.111 32.946C134.14 32.8599 134.103 32.7671 134.024 32.7236C133.267 32.2973 132.758 31.6719 132.497 30.8464C132.467 30.7497 132.409 30.6743 132.323 30.6192C131.399 30.0334 130.28 29.843 129.475 29.2649C128.739 28.7352 128.064 28.133 127.449 27.4592C127.391 27.3964 127.313 27.3548 127.228 27.3432C125.525 27.0928 124.361 26.4239 122.56 25.5346C121.348 24.9352 120.155 24.7719 118.856 24.4886C118.378 24.3833 118.022 24.0904 117.762 23.7172C117.699 23.6254 117.618 23.6061 117.52 23.6593C116.739 24.0894 114.526 24.9236 114.447 23.3847C114.344 21.4079 114.254 20.1377 114.172 19.5751C113.945 17.9908 116.338 17.1382 117.529 17.5925C118.482 17.9569 119.049 19.0869 119.726 19.6254C120.631 20.3475 121.744 20.6626 123.066 20.5737C123.549 20.5418 123.979 20.7399 124.447 20.6926C124.611 20.6761 124.731 20.5302 124.715 20.3668C124.712 20.3388 124.705 20.3117 124.695 20.2866C124.315 19.3363 123.921 18.4045 123.512 17.49C123.166 16.7167 123.253 15.8738 123.09 15.0424C122.957 14.3745 122.422 13.7094 122.541 12.8433C122.57 12.6181 122.41 12.4112 122.185 12.3822C122.17 12.3803 122.155 12.3793 122.14 12.3793C120.003 12.3426 119.541 13.227 119.457 10.3938C119.446 9.97617 119.591 9.7577 119.803 9.4271C119.848 9.3604 119.866 9.28694 119.858 9.20767L119.768 8.03511C119.762 7.94522 119.793 7.87271 119.866 7.81568C120.177 7.57788 120.565 7.12259 121.028 6.45076C121.931 5.14673 124.424 6.52229 124.83 7.70258C125.159 8.65668 125.565 9.57307 126.05 10.4508C126.754 11.7316 126.998 13.2841 127.79 14.4035C127.911 14.5775 128.099 14.648 128.352 14.6152C129.049 14.5253 129.646 14.4334 129.72 13.5721C129.729 13.4861 129.768 13.4175 129.839 13.3662L130.116 13.1632C130.188 13.111 130.211 13.0163 130.172 12.939L129.115 10.7901C129.078 10.7166 129.019 10.6722 128.938 10.6577C128.323 10.561 127.757 10.3396 127.238 9.99454C126.253 9.34204 126.105 7.73931 127.444 7.48315C127.521 7.46768 127.589 7.48798 127.647 7.54405L128.394 8.29418C128.404 8.30288 128.416 8.31061 128.429 8.31835C128.57 8.38215 128.669 8.36958 128.729 8.28161C128.784 8.20041 128.773 8.09214 128.703 8.02544C127.906 7.24632 128.072 6.46526 128.014 5.4435C128.009 5.35167 128.031 5.2695 128.083 5.19507C128.566 4.48264 130.425 3.92004 131.241 3.70351C131.313 3.68418 131.355 3.63777 131.367 3.56334V3.55754ZM140.09 1.47149C140.059 1.38932 139.968 1.34872 139.885 1.37965L138.494 1.91132C138.412 1.94225 138.372 2.03409 138.403 2.11625L138.433 2.19551C138.464 2.27768 138.555 2.31828 138.638 2.28735L140.029 1.75569C140.111 1.72475 140.151 1.63292 140.12 1.55075L140.09 1.47245V1.47149ZM136.691 3.10611C136.395 1.36902 131.655 2.18488 132.419 3.59234C132.496 3.73347 132.598 3.75377 132.723 3.65324C134.231 2.44105 134.703 3.75377 136.242 3.66678C136.507 3.65324 136.711 3.42704 136.697 3.16218C136.697 3.14381 136.695 3.12545 136.692 3.10708L136.691 3.10611ZM141.114 2.76488C141.126 2.64115 140.929 2.52225 140.677 2.49905C140.425 2.47585 140.21 2.55608 140.199 2.67981C140.187 2.80355 140.382 2.92244 140.636 2.94564C140.888 2.96884 141.103 2.88861 141.114 2.76488ZM139.216 3.55948C139.222 3.47924 139.042 3.39998 138.812 3.38161C138.581 3.36324 138.39 3.41254 138.384 3.49278C138.378 3.57301 138.558 3.65227 138.788 3.67064C139.018 3.68901 139.21 3.63971 139.216 3.55948ZM133.783 8.72434C133.759 8.71178 133.702 8.65378 133.614 8.55035C133.569 8.49815 133.491 8.49235 133.439 8.53681C133.427 8.54648 133.418 8.55808 133.411 8.57161C133.081 9.18157 132.944 9.82827 131.993 9.70937C131.343 9.62721 130.152 9.62527 130.065 10.5359C130.053 10.6567 130.141 10.764 130.26 10.7766C130.299 10.7804 130.339 10.7737 130.374 10.7582C130.957 10.4972 131.578 10.1038 132.219 10.1221C132.902 10.1463 133.415 10.4759 134.062 10.4682C135.567 10.4547 135.731 10.532 136.708 9.37491C138.001 7.84371 137.08 6.42272 136.792 4.69917C136.755 4.47974 136.564 4.31927 136.341 4.32121C136.288 4.32121 136.21 4.3444 136.109 4.38984C136.04 4.4198 135.975 4.4691 135.913 4.53774C135.352 5.1448 134.685 5.59333 133.913 5.88139C132.624 6.35892 133.572 7.62621 134.163 8.15208C134.307 8.27774 134.32 8.49718 134.194 8.64025C134.091 8.75624 133.923 8.79104 133.783 8.72531V8.72434ZM138.032 6.51069C138.139 6.53486 138.325 6.11049 138.449 5.5624C138.573 5.0143 138.586 4.55127 138.479 4.5271C138.373 4.50293 138.186 4.9273 138.062 5.4754C137.939 6.0235 137.925 6.48652 138.032 6.51069ZM132.743 5.00173C132.354 4.8461 132.165 4.7533 131.75 4.97273C131.082 5.32363 130.274 5.30817 129.76 5.7277C129.258 6.13466 128.378 7.32269 129.627 7.58369C129.721 7.60399 129.82 7.58369 129.897 7.52859C130.601 7.02302 131.377 6.83259 132.226 6.95536C132.316 6.96889 132.399 6.90509 132.411 6.81422C132.412 6.80552 132.413 6.79682 132.413 6.78909C132.406 6.25936 132.55 5.777 132.846 5.342C132.918 5.23857 132.893 5.09743 132.789 5.0259C132.775 5.01623 132.759 5.00753 132.744 5.00173H132.743ZM139.808 6.02349C138.882 7.40872 138.83 8.81811 139.653 10.2507C139.717 10.3667 139.78 10.3648 139.84 10.2459C139.986 9.96264 140.056 9.66103 140.049 9.343C140.045 9.25504 140.059 9.16997 140.088 9.08684C140.456 8.04092 140.466 7.09648 140.059 6.05056C140.03 5.97709 139.947 5.94229 139.874 5.97129C139.847 5.98192 139.825 6.0003 139.808 6.02446V6.02349ZM141.306 6.69339C141.302 6.64119 141.256 6.60252 141.203 6.60736L141.139 6.61315C141.087 6.61799 141.048 6.66342 141.053 6.71659L141.178 8.11631C141.183 8.16851 141.229 8.20718 141.281 8.20235L141.345 8.19655C141.397 8.19171 141.436 8.14628 141.431 8.09311L141.306 6.69339ZM122.475 8.10085L122.486 8.46818C122.488 8.55228 122.421 8.62284 122.337 8.62478C122.329 8.62478 122.322 8.62477 122.315 8.62381C121.533 8.52618 120.836 8.39665 120.485 9.23087C120.436 9.34687 120.49 9.47931 120.605 9.52861C120.639 9.54311 120.677 9.5489 120.714 9.54504C121.2 9.50251 121.873 9.28114 122.118 9.95393C122.146 10.0332 122.118 10.0844 122.036 10.1067C121.503 10.2488 120.098 10.6035 120.972 11.4929C121.031 11.5518 121.11 11.5837 121.191 11.5799C122.221 11.5451 123.272 11.662 123.151 13.0086C123.129 13.2338 123.296 13.4329 123.522 13.4542C123.563 13.4581 123.606 13.4552 123.647 13.4465C123.752 13.4233 123.835 13.3933 123.895 13.3566C124.004 13.2879 124.087 13.3111 124.145 13.4252C124.364 13.8496 124.538 14.2904 124.668 14.7476C124.726 14.9516 124.703 15.114 124.597 15.2338C124.558 15.2783 124.491 15.2831 124.448 15.2445C124.434 15.2329 124.424 15.2164 124.417 15.199C124.338 14.9777 124.199 14.8056 124.002 14.6838C123.889 14.6132 123.83 14.6442 123.825 14.7766C123.792 15.6582 123.934 16.4992 124.251 17.2986C124.716 18.476 124.847 21.0348 126.575 21.2378C126.644 21.2474 126.708 21.1972 126.717 21.1266C126.721 21.0995 126.715 21.0715 126.701 21.0473C126.14 20.0372 125.565 19.0705 124.977 18.1483C124.594 17.549 124.692 17.1024 124.85 16.4721C124.871 16.3861 124.924 16.3571 125.006 16.3851L125.106 16.417C125.163 16.4364 125.194 16.4953 125.178 16.5514C125.072 16.9245 125.116 17.2851 125.31 17.6341C125.393 17.782 125.58 17.8342 125.727 17.751C125.819 17.6998 125.878 17.6041 125.882 17.4997L125.93 16.3561C125.934 16.2662 125.964 16.187 126.02 16.1183C126.27 15.8119 126.41 15.4581 126.442 15.0569C126.449 14.9806 126.49 14.911 126.555 14.8694L126.941 14.619C127.02 14.5678 127.043 14.4615 126.991 14.3812C126.989 14.3783 126.987 14.3754 126.985 14.3735C126.017 13.0482 126.058 11.6591 125.108 10.3889C124.361 9.38844 125.448 7.58272 123.609 7.42902C123.521 7.42032 123.431 7.44642 123.358 7.50055C123.119 7.68228 122.849 7.78088 122.547 7.79635C122.477 7.80021 122.41 7.78571 122.346 7.75381C122.16 7.65908 121.975 7.65231 121.792 7.73545C121.753 7.75285 121.736 7.79828 121.755 7.83791C121.767 7.86401 121.793 7.88142 121.822 7.88335L122.263 7.89108C122.377 7.89398 122.469 7.98581 122.472 8.09988L122.475 8.10085ZM128.216 9.51024C128.305 9.39811 128.146 9.1255 127.862 8.90124C127.579 8.67697 127.276 8.58611 127.188 8.69824C127.099 8.81038 127.258 9.08297 127.542 9.30724C127.825 9.5315 128.128 9.62237 128.216 9.51024ZM138.252 10.0438C138.254 10.0042 138.224 9.97134 138.184 9.96844L137.652 9.93944C137.612 9.9375 137.578 9.96747 137.576 10.0061L137.415 12.9854C137.413 13.025 137.443 13.0579 137.481 13.0608L138.014 13.0898C138.054 13.0917 138.088 13.0617 138.089 13.0231L138.251 10.0438H138.252ZM143.032 10.1637C142.933 10.0564 142.854 10.1241 142.794 10.3667C142.783 10.417 142.803 10.4692 142.844 10.5011L143.032 10.6432C143.099 10.6925 143.192 10.6789 143.242 10.6142C143.254 10.5977 143.263 10.5794 143.267 10.5591C143.299 10.4305 143.274 10.3377 143.193 10.2787C143.09 10.2053 143.036 10.1656 143.032 10.1627V10.1637ZM141.017 10.4382L140.482 10.2584C140.465 10.2517 140.444 10.2604 140.437 10.2778C140.437 10.2778 140.437 10.2778 140.437 10.2787L139.104 14.2942C139.097 14.3319 139.217 14.4044 139.376 14.4576L139.387 14.4624C139.55 14.5166 139.692 14.5301 139.704 14.4924L141.04 10.4788C141.045 10.4614 141.036 10.4431 141.018 10.4363L141.017 10.4382ZM134.887 12.6819L135.425 12.1193C135.455 12.0893 135.455 12.041 135.425 12.011L135.393 11.982C135.185 11.7809 134.885 11.7529 134.725 11.9182L134.657 11.9897C134.497 12.156 134.537 12.4528 134.746 12.6548L134.778 12.6838C134.809 12.7128 134.857 12.7118 134.886 12.6809L134.887 12.6819ZM141.54 12.128L140.706 14.1792C140.672 14.2604 140.699 14.3126 140.785 14.3377C141.064 14.4112 141.221 14.3145 141.258 14.0477C141.34 13.4329 141.749 12.6171 141.685 12.1463C141.659 11.9578 141.611 11.952 141.54 12.128ZM135.918 13.4687C136.054 13.5576 136.27 13.4687 136.402 13.2686C136.533 13.0685 136.53 12.8346 136.395 12.7457C136.26 12.6567 136.044 12.7457 135.912 12.9457C135.78 13.1458 135.783 13.3798 135.918 13.4687ZM134.031 13.3846C134.031 13.2493 133.921 13.1391 133.786 13.1391C133.651 13.1391 133.54 13.2493 133.54 13.3846C133.54 13.5199 133.651 13.6301 133.786 13.6301C133.921 13.6301 134.031 13.5199 134.031 13.3846ZM144.302 21.4988C143.541 20.4325 143.356 19.2851 143.745 18.0584C143.957 17.3982 144.514 16.8201 144.918 16.1966C144.968 16.1203 144.969 16.0226 144.921 15.9463C144.685 15.5586 144.726 15.2261 145.043 14.9487C145.111 14.8887 145.191 14.8559 145.28 14.851C146.958 14.7379 148.114 15.4185 148.747 16.8917C148.782 16.9748 148.79 17.0589 148.771 17.1449C148.655 17.6901 148.685 18.2334 148.861 18.7737C148.89 18.8704 148.992 18.9245 149.088 18.8946C149.164 18.8714 149.217 18.8008 149.218 18.7206C149.252 17.2184 149.273 15.9221 147.961 14.9554C147.287 14.4586 144.08 14.2053 143.903 15.3247C143.802 15.9656 143.688 16.5069 143.56 16.9487C142.905 19.2116 142.834 20.8376 144.693 22.5911C144.739 22.6346 144.813 22.6336 144.856 22.5882C144.869 22.5747 144.878 22.5582 144.883 22.5408C145.042 21.9734 144.514 21.7888 144.305 21.4978L144.302 21.4988ZM136.139 14.6674C135.973 14.6248 135.841 14.6509 135.742 14.7437C134.747 15.6862 133.949 16.3146 133.585 17.5954C133.248 18.7853 132.714 19.8409 131.979 20.7612C131.872 20.8956 131.894 21.0918 132.028 21.1991C132.102 21.2571 132.197 21.2803 132.289 21.26L132.764 21.1595C132.833 21.145 132.889 21.1121 132.933 21.0589C133.409 20.5128 133.952 20.0217 134.214 19.3189C134.788 17.7771 135.454 16.2817 136.213 14.8327C136.243 14.7756 136.221 14.706 136.164 14.6761C136.156 14.6722 136.147 14.6683 136.139 14.6664V14.6674ZM127.476 16.2305L127.645 16.5475C127.676 16.6036 127.746 16.6249 127.803 16.5949L127.843 16.5765C129.363 15.7684 130.533 14.9951 130.456 14.8491C130.456 14.8491 130.456 14.8472 130.455 14.8472C130.375 14.7031 129.08 15.2406 127.561 16.0487L127.524 16.07C127.466 16.1009 127.445 16.1734 127.476 16.2314L127.476 16.2305ZM135.362 20.7805C136.239 20.9864 136.675 18.7051 136.839 18.1609C137.12 17.2329 137.429 16.2788 137.766 15.2986C137.832 15.1053 137.745 14.8936 137.563 14.8017C137.312 14.6751 137.128 14.7921 137.008 15.1526C136.725 16.011 135.856 17.114 135.727 18.2923C135.635 19.1034 135.486 19.8883 135.28 20.6452C135.265 20.7032 135.3 20.7631 135.359 20.7786C135.36 20.7786 135.362 20.7786 135.362 20.7786V20.7805ZM138.992 21.609C139.106 21.667 139.247 21.6215 139.305 21.5075C139.339 21.4388 139.338 21.3567 139.301 21.289C138.924 20.6046 138.751 19.8158 138.781 18.9236C138.836 17.2735 140.304 16.5098 138.495 14.8704C138.411 14.795 138.359 14.8133 138.34 14.9255L137.891 17.405C137.878 17.4804 137.897 17.5596 137.944 17.6215C138.353 18.1783 138.314 19.81 138.312 20.9536C138.31 21.1595 138.537 21.3779 138.993 21.608L138.992 21.609ZM131.826 17.6408C131.253 19.5577 130.192 20.3707 128.199 20.4973C128.021 20.5079 127.886 20.6607 127.897 20.8385C127.901 20.8936 127.918 20.9468 127.948 20.9942C128.259 21.4823 129.068 21.1237 129.504 20.9101C129.579 20.8724 129.665 20.8608 129.749 20.8753C130.615 21.0261 131.14 20.6955 131.539 19.9038C132.273 18.4441 132.94 16.9497 133.538 15.4204C133.577 15.3218 133.544 15.2793 133.441 15.2938C132.521 15.4223 131.865 15.8612 131.471 16.6113C130.926 17.6486 130.045 18.3223 129.089 18.9584C128.603 19.2803 128.189 19.2725 127.637 19.2513C127.584 19.2484 127.533 19.2687 127.497 19.3064C127.273 19.5442 127.296 19.6592 127.563 19.6524C129.288 19.608 130.621 18.8955 131.563 17.5142C131.608 17.4465 131.7 17.4272 131.767 17.4726C131.823 17.5094 131.847 17.578 131.826 17.6408ZM148.049 17.2136C147.602 16.0304 146.475 15.0221 145.171 15.8409C145.075 15.9028 145.046 16.0323 145.108 16.129C145.155 16.2015 145.241 16.2372 145.325 16.2208C146.412 16.0014 147.165 16.5562 147.804 17.3537C147.852 17.4166 147.942 17.4282 148.004 17.3808C148.056 17.3421 148.074 17.2735 148.05 17.2136H148.049ZM127.389 17.3421C127.343 17.3247 127.293 17.316 127.238 17.316C127.113 17.3141 127.05 17.376 127.05 17.5007V17.9598C127.05 18.0372 127.095 18.1077 127.163 18.1396C127.993 18.5282 129.545 17.4504 130.049 16.9332C130.114 16.8646 130.112 16.7563 130.043 16.6906C129.991 16.6413 129.913 16.6297 129.849 16.6616C129.141 17.0154 128.375 17.2493 127.549 17.3644C127.493 17.3711 127.439 17.3644 127.388 17.3431L127.389 17.3421ZM137.673 17.9869L136.941 20.6955C136.928 20.739 136.935 20.7863 136.962 20.825L137.889 22.2141C137.91 22.246 137.952 22.2557 137.984 22.2354C138.016 22.2151 138.026 22.1725 138.005 22.1406C137.272 20.8492 137.72 19.3837 137.804 18.0082C137.81 17.9714 137.785 17.9376 137.749 17.9318C137.713 17.926 137.679 17.9511 137.673 17.9869ZM117.104 19.8032C117.169 19.8448 117.188 19.9308 117.148 19.9966C117.128 20.0265 117.099 20.0478 117.066 20.0565L115.568 20.4548C115.474 20.4789 115.433 20.5389 115.442 20.6346L115.476 21.0435C115.482 21.1266 115.555 21.1885 115.639 21.1827C115.667 21.1807 115.694 21.1711 115.716 21.1546C116.006 20.942 116.321 20.8588 116.661 20.9062C116.781 20.9217 116.866 21.0309 116.851 21.1517C116.84 21.2349 116.783 21.3054 116.703 21.3315C115.794 21.6486 114.913 21.5906 115.436 23.0686C115.513 23.2861 115.753 23.3983 115.971 23.3209C115.983 23.3171 115.994 23.3122 116.006 23.3064L117.588 22.5776C117.668 22.5418 117.763 22.5698 117.809 22.6433C118.601 23.9106 119.328 23.8497 120.685 23.9241C120.779 23.9289 120.857 23.8941 120.915 23.8187L121.2 23.4466C121.251 23.378 121.333 23.3373 121.421 23.3354C122.321 23.3199 123.119 23.3432 124.001 23.7366C125.708 24.4973 127.504 24.9217 129.385 25.0116C129.492 25.0164 129.539 25.0725 129.527 25.1779L129.476 25.6032C129.465 25.7028 129.381 25.7782 129.281 25.7772C128.194 25.7791 127.124 25.6525 126.071 25.3973C124.901 25.1121 123.998 24.3253 122.612 24.2354C122.556 24.2257 122.503 24.2634 122.493 24.3195C122.484 24.3755 122.521 24.4287 122.577 24.4384C123.805 24.7767 124.637 25.8487 125.859 25.9754C127.426 26.1378 129.015 26.3543 130.628 26.6279C130.822 26.6607 131.02 26.5931 131.154 26.4481L133.274 24.1638C133.352 24.0817 133.482 24.0788 133.565 24.1571C133.6 24.1909 133.622 24.2363 133.627 24.2856C133.728 25.2939 132.278 26.3533 131.573 26.9942C131.549 27.0145 131.532 27.0416 131.523 27.0706L131.302 27.8207C131.273 27.9155 131.172 27.9686 131.077 27.9396C131.067 27.9367 131.056 27.9319 131.045 27.9261C130.411 27.5868 129.739 27.4196 129.028 27.4244C128.95 27.4254 128.887 27.4911 128.888 27.5694C128.888 27.6119 128.908 27.6516 128.941 27.6777C129.987 28.5187 131.142 29.1518 132.407 29.5762C132.539 29.6206 132.681 29.552 132.725 29.4215C132.729 29.4089 132.733 29.3964 132.735 29.3828C133.102 27.3132 136.133 27.9232 137.601 28.1475C137.677 28.1562 137.731 28.2248 137.721 28.3002C137.714 28.3611 137.667 28.4104 137.606 28.4201C136.825 28.5728 135.901 28.3727 135.311 28.4442C133.339 28.6869 133.091 31.7579 135.087 31.8633C138.023 32.0189 141.012 32.0112 143.935 32.2722C144.567 32.3283 145.172 32.2084 145.751 31.9136C145.827 31.8739 145.916 31.8778 145.989 31.9213C148.26 33.2418 149.974 30.944 149.564 28.8483C149.106 26.5012 146.857 24.479 145.194 22.9362C145.124 22.8724 145.016 22.8772 144.952 22.9478C144.914 22.9894 144.899 23.0474 144.912 23.1025C144.979 23.3751 145.137 23.6273 145.388 23.8574C146.238 24.6443 147.019 25.493 147.732 26.4026C148.848 27.8256 149.572 30.9334 147.029 31.4592C146.068 31.6603 145.245 31.0474 144.978 30.1523C144.776 29.464 144.664 29.1015 144.642 29.0648C144.115 28.1059 143.212 27.7608 142.544 27.1615C141.208 25.9676 139.75 25.3238 139.196 23.462C139.167 23.3654 139.067 23.3113 138.972 23.3403H138.97C137.932 23.666 137.204 23.349 136.786 22.39C136.697 22.188 136.463 22.0971 136.261 22.1851C136.22 22.2035 136.181 22.2286 136.147 22.2605C135.445 22.9256 134.611 23.3422 133.647 23.5094C133.559 23.5239 133.474 23.5162 133.391 23.4881C131.827 22.9362 130.798 23.6496 129.388 22.303C129.314 22.2325 129.226 22.2025 129.127 22.2131C128.567 22.2692 128.102 22.0846 127.733 21.6583C127.664 21.58 127.563 21.5374 127.458 21.5423C126.534 21.579 125.614 21.5423 124.696 21.434C123.678 21.3151 122.666 21.405 121.639 21.3045C120.812 21.2252 120.144 20.7448 119.384 20.4064C118.145 19.8545 118.092 18.2179 116.754 18.3919C116.669 18.4035 116.6 18.4673 116.582 18.5504C116.466 19.1014 116.122 19.3025 115.55 19.1527C115.458 19.1275 115.364 19.1807 115.339 19.2706C115.332 19.2957 115.331 19.3228 115.336 19.3479C115.37 19.5258 115.485 19.5954 115.682 19.5567C116.201 19.4562 116.676 19.5384 117.105 19.8023L117.104 19.8032ZM140.154 21.3509L140.555 21.2503C140.59 21.2416 140.611 21.2059 140.603 21.1711L140.592 21.1314C140.227 19.6776 139.831 18.5234 139.708 18.5543L139.625 18.5756C139.503 18.6065 139.699 19.81 140.063 21.2639L140.074 21.3035C140.083 21.3383 140.118 21.3596 140.153 21.3509H140.154ZM148.572 21.2871L148.757 19.8187C148.759 19.7878 148.737 19.7607 148.707 19.7578L148.692 19.7549C148.349 19.7124 148.034 19.9695 147.99 20.3301L147.958 20.6017C147.913 20.9623 148.153 21.289 148.496 21.3325H148.511C148.541 21.3354 148.568 21.3141 148.572 21.2851V21.2871ZM131.46 22.2064V21.5142C131.46 21.4205 131.385 21.3451 131.291 21.3451C131.291 21.3451 131.289 21.3451 131.288 21.3451H131.251C130.677 21.347 130.212 21.5713 130.214 21.8458C130.214 21.8458 130.214 21.8458 130.214 21.8468V21.8835C130.217 22.1571 130.684 22.3765 131.257 22.3746H131.294C131.386 22.3736 131.46 22.2982 131.46 22.2054V22.2064ZM132.888 21.6621L132.898 22.2537C132.899 22.3736 132.998 22.4693 133.118 22.4674C133.118 22.4674 133.12 22.4674 133.121 22.4674L133.604 22.4567C134.451 22.4403 135.132 22.2044 135.128 21.9289V21.9028C135.123 21.6273 134.433 21.4166 133.586 21.433H133.583L133.1 21.4437C132.981 21.4466 132.887 21.5442 132.888 21.6631V21.6621ZM124.368 35.0562C123.567 33.8391 121.769 32.83 120.346 32.7671C119.174 32.7169 119.071 34.1398 119.961 34.6395C121.234 35.3578 122.661 35.5917 124.243 35.3423C124.431 35.3123 124.473 35.2176 124.367 35.0571L124.368 35.0562ZM129.321 35.0591L127.172 33.293C127.159 33.2804 127.054 33.264 126.919 33.2534C126.668 33.234 126.181 33.2021 125.456 33.1586C124.466 33.0977 124.395 34.1756 125.008 34.6792C125.881 35.3974 128.387 36.2075 129.33 35.1915C129.374 35.1441 129.371 35.0997 129.322 35.0591H129.321ZM134.44 35.207C133.44 33.7444 131.625 33.2166 129.835 33.4747C129.648 33.5018 129.518 33.6768 129.545 33.8643C129.554 33.9271 129.581 33.9861 129.621 34.0344C130.081 34.5835 130.65 35.0359 131.33 35.3916C132.228 35.8585 133.294 35.6768 134.268 35.5762C134.399 35.5627 134.493 35.4457 134.48 35.3152C134.476 35.2766 134.463 35.2389 134.44 35.207ZM139.259 35.3288C139.209 34.9595 138.259 34.6347 137.976 34.0479C137.936 33.9648 137.873 33.9039 137.789 33.8633C136.867 33.4283 135.94 33.4061 135.009 33.7976C134.858 33.8604 134.787 34.0335 134.85 34.1843C134.862 34.2123 134.878 34.2384 134.898 34.2616C135.984 35.5463 137.36 36.0132 139.024 35.6613C139.178 35.6284 139.28 35.4834 139.259 35.3288ZM144.479 35.669C144.62 35.1876 143.675 34.4858 142.367 34.1011C141.059 33.7164 139.885 33.7947 139.742 34.2751C139.6 34.7565 140.546 35.4583 141.855 35.843C143.162 36.2278 144.337 36.1495 144.479 35.669ZM149.034 34.9353C147.81 34.191 146.52 33.8991 145.161 34.0615C144.948 34.0857 144.794 34.278 144.818 34.4926C144.821 34.5168 144.826 34.54 144.833 34.5632C145.316 36.1369 147.344 36.4984 148.703 36.1611C149.342 36.0054 149.681 35.3297 149.033 34.9363L149.034 34.9353Z" fill="#0678BD"/>
<path d="M58.0439 10.9376V8.56152H68.8647V10.9376H58.0439Z" fill="#0678BD"/>
<path d="M70.5625 4.56278V2.208H81.8077V4.56278H70.5625ZM74.9009 17.2715V2.20703H77.4683V17.2715H74.9009Z" fill="#0678BD"/>
<path d="M86.9509 17.2715L82.9199 2.20703H85.5618L88.8185 15.0433H89.0099L92.2666 2.20703H94.9084L90.8775 17.2715H86.9519H86.9509Z" fill="#0678BD"/>
<path d="M101.126 17.4839C100.27 17.4839 99.4517 17.4134 98.6696 17.2722C97.8886 17.1311 97.179 16.9262 96.543 16.6565L96.8823 14.0784C97.6604 14.4109 98.4241 14.6632 99.1742 14.8372C99.9234 15.0102 100.631 15.0972 101.296 15.0972C102.145 15.0972 102.787 14.9474 103.222 14.6468C103.657 14.3461 103.874 13.9063 103.874 13.3263C103.874 12.5694 103.443 11.9933 102.58 11.597L100.236 10.4834C99.1819 9.98844 98.3699 9.37655 97.8006 8.64768C97.2312 7.91979 96.947 7.08169 96.947 6.1334C96.947 4.81777 97.3656 3.79988 98.2037 3.07779C99.0418 2.35666 100.228 1.99609 101.763 1.99609C102.725 1.99609 103.61 2.15366 104.42 2.46782C105.23 2.78296 105.971 3.25855 106.643 3.89462L104.892 5.82503C104.348 5.3446 103.819 4.98211 103.306 4.73754C102.792 4.49394 102.282 4.37118 101.773 4.37118C101.108 4.37118 100.591 4.52198 100.224 4.82164C99.8557 5.12227 99.672 5.55921 99.672 6.13147C99.672 6.5278 99.7977 6.8758 100.049 7.17643C100.3 7.47706 100.663 7.74772 101.137 7.98842L103.248 9.03821C104.329 9.57568 105.159 10.1963 105.735 10.9C106.311 11.6037 106.599 12.4157 106.599 13.335C106.599 14.6864 106.134 15.7149 105.204 16.4225C104.274 17.1301 102.914 17.483 101.125 17.483L101.126 17.4839Z" fill="#0678BD"/>
</svg>
