<svg width="151" height="36" viewBox="0 0 151 36" fill="none" xmlns="http://www.w3.org/2000/svg">
<path d="M38.2342 5.44336H6.1582V30.9657H38.2342V5.44336Z" fill="#898989"/>
<path d="M22.4004 28.1578C30.3379 28.1578 37.7056 23.8023 41.939 18.7955C37.0544 12.5675 29.7681 8.37486 22.3189 8.57839C14.8698 8.78191 7.38 13.2188 2.78027 18.6327C7.05436 23.5173 14.4628 28.1171 22.4004 28.1171" fill="#FEFEFE"/>
<path d="M22.4002 27.6688C29.8493 27.6688 36.7286 23.5168 40.7177 18.795C36.1587 12.8927 29.3201 8.90352 22.3188 9.10705C15.3174 9.31058 8.31608 13.5033 4.04199 18.6729C8.03114 23.3133 14.9511 27.6688 22.4002 27.6688Z" fill="#0F1F7A"/>
<path d="M32.1691 19.2027H16.6196C16.701 20.9123 17.5151 22.4592 18.4921 23.4361C19.5097 24.4537 21.2193 24.9829 23.0104 24.9829C24.8014 24.9829 27.1216 23.6396 28.0172 21.93H32.047C30.7444 25.5528 27.7729 27.6288 23.2139 27.6288C18.6549 27.6288 17.5558 26.8147 15.6427 25.1864C13.7702 23.5582 12.834 21.2787 12.834 18.3886C12.834 15.4985 13.7295 13.4225 15.5206 11.7129C17.3116 10.0033 19.6725 9.14844 22.644 9.14844C25.6155 9.14844 28.0986 10.0033 29.7675 11.7129C31.355 13.3818 32.1284 15.6206 32.1284 18.5514V19.2434L32.1691 19.2027ZM28.2207 16.5569C27.8543 13.3004 25.7376 11.5501 22.5219 11.5501C19.3062 11.5501 19.3469 12.1199 18.2478 13.1783C17.1895 14.1552 16.6196 15.5799 16.5789 16.5569H28.2207Z" fill="#FEFEFE"/>
<path d="M44.5037 13.9514V8.45616H42.5498V7.31641H47.8008V8.45616H45.847V13.9514H44.5037Z" fill="#0F1F7A"/>
<path d="M48.9404 13.9514V7.31641H50.2837V9.92156H52.8889V7.31641H54.2322V13.9514H52.8889V11.0613H50.2837V13.9514H48.9404Z" fill="#0F1F7A"/>
<path d="M55.8604 13.9514V7.31641H60.7857V8.45616H57.2036V9.92156H60.5008V11.0206H57.2036V12.8117H60.9078V13.9514H55.8604Z" fill="#0F1F7A"/>
<path d="M64.6123 13.9514V7.31641H69.497V8.45616H65.9556V9.92156H69.2527V11.0206H65.9556V12.8117H69.6191V13.9514H64.6123Z" fill="#0F1F7A"/>
<path d="M72.7532 13.9514V11.1427L70.3516 7.31641H71.8984L73.4859 9.92156L74.992 7.31641H76.5388L74.0965 11.1834V13.9514H72.7532Z" fill="#0F1F7A"/>
<path d="M77.4746 13.9514V7.31641H82.3593V8.45616H78.7772V9.92156H82.115V11.0206H78.7772V12.8117H82.4814V13.9514H77.4746Z" fill="#0F1F7A"/>
<path d="M86.1855 13.9514V7.31641H90.7446V8.45616H87.5288V10.003H90.2968V11.1427H87.5288V13.9514H86.1855Z" fill="#0F1F7A"/>
<path d="M93.1867 10.6126C93.1867 11.3453 93.3495 11.9152 93.7159 12.3223C94.0822 12.7293 94.4893 12.8921 95.0185 12.8921C95.5476 12.8921 95.9954 12.6886 96.321 12.3223C96.6467 11.9559 96.8502 11.3453 96.8502 10.5719C96.8502 9.79852 96.6874 9.22864 96.3618 8.86229C96.0361 8.49594 95.5883 8.29241 95.0185 8.29241C94.4486 8.29241 94.0008 8.49594 93.6752 8.86229C93.3495 9.22864 93.1867 9.79852 93.1867 10.5719M91.8027 10.6533C91.8027 9.96134 91.8841 9.39146 92.0877 8.9437C92.2505 8.61805 92.454 8.29241 92.6983 8.04818C92.9425 7.76324 93.2274 7.60041 93.5531 7.43759C93.9601 7.27477 94.4486 7.19336 94.9778 7.19336C95.9547 7.19336 96.7281 7.4783 97.3387 8.08888C97.9086 8.69946 98.2342 9.55428 98.2342 10.6126C98.2342 11.671 97.9493 12.5258 97.3794 13.1364C96.8095 13.747 96.0361 14.0319 95.0592 14.0319C94.0822 14.0319 93.3088 13.747 92.6983 13.1364C92.1284 12.5258 91.8434 11.7117 91.8434 10.6533H91.8027Z" fill="#0F1F7A"/>
<path d="M99.5371 7.3161H100.88V10.8982C100.88 11.4681 100.88 11.8344 100.921 11.9972C100.962 12.2822 101.125 12.4857 101.328 12.6485C101.532 12.8113 101.817 12.8928 102.224 12.8928C102.631 12.8928 102.875 12.8113 103.078 12.6485C103.282 12.4857 103.363 12.3229 103.404 12.0786C103.404 11.8344 103.445 11.4681 103.445 10.9389V7.27539H104.788V10.7761C104.788 11.5902 104.788 12.1194 104.666 12.445C104.585 12.7706 104.462 13.0556 104.259 13.2591C104.055 13.5033 103.811 13.6662 103.486 13.7883C103.16 13.9104 102.753 13.9918 102.224 13.9918C101.695 13.9918 101.125 13.9104 100.799 13.7883C100.473 13.6255 100.229 13.4626 100.026 13.2184C99.822 12.9742 99.6999 12.7299 99.6592 12.4857C99.5778 12.1194 99.5371 11.5495 99.5371 10.8168V7.27539V7.3161Z" fill="#0F1F7A"/>
<path d="M106.498 13.9514V7.31641H107.801L110.528 11.7533V7.31641H111.749V13.9514H110.406L107.719 9.59592V13.9514H106.498Z" fill="#0F1F7A"/>
<path d="M114.761 8.45585V12.8521H115.738C116.105 12.8521 116.389 12.8521 116.552 12.7706C116.756 12.7299 116.959 12.6078 117.081 12.4857C117.244 12.3636 117.326 12.1601 117.448 11.8344C117.529 11.5495 117.57 11.1424 117.57 10.6132C117.57 10.0841 117.529 9.71773 117.448 9.43279C117.366 9.14785 117.244 8.94432 117.081 8.7815C116.919 8.61867 116.715 8.53726 116.471 8.45585C116.267 8.41515 115.901 8.37444 115.372 8.37444H114.761V8.45585ZM113.418 7.3161H115.86C116.43 7.3161 116.837 7.3568 117.122 7.43821C117.529 7.56033 117.855 7.76386 118.099 8.0488C118.384 8.33374 118.588 8.70009 118.75 9.10714C118.913 9.5142 118.954 10.0434 118.954 10.654C118.954 11.2645 118.873 11.6716 118.75 12.0786C118.588 12.5671 118.343 12.9335 118.058 13.2591C117.814 13.5033 117.529 13.6662 117.122 13.7883C116.837 13.8697 116.43 13.9104 115.942 13.9104H113.418V7.27539V7.3161Z" fill="#0F1F7A"/>
<path d="M123.879 11.3056L122.943 8.86322L122.047 11.3056H123.879ZM126.322 13.9514H124.897L124.327 12.4453H121.681L121.111 13.9514H119.687L122.251 7.31641H123.676L126.322 13.9514Z" fill="#0F1F7A"/>
<path d="M128.112 13.9514V8.45616H126.158V7.31641H131.409V8.45616H129.455V13.9514H128.112Z" fill="#0F1F7A"/>
<path d="M133.811 7.31641H132.468V13.9514H133.811V7.31641Z" fill="#0F1F7A"/>
<path d="M136.457 10.6136C136.457 11.3463 136.62 11.9162 136.986 12.3232C137.353 12.7303 137.76 12.8931 138.289 12.8931C138.818 12.8931 139.266 12.6896 139.592 12.3232C139.917 11.9569 140.121 11.3463 140.121 10.5729C140.121 9.79949 139.958 9.22961 139.632 8.86326C139.307 8.49691 138.859 8.29339 138.289 8.29339C137.719 8.29339 137.271 8.49691 136.946 8.86326C136.62 9.22961 136.457 9.79949 136.457 10.5729M135.073 10.6543C135.073 9.96231 135.155 9.39244 135.358 8.94468C135.521 8.61903 135.725 8.29339 135.969 8.04915C136.213 7.76421 136.498 7.60139 136.824 7.43857C137.231 7.27575 137.719 7.19434 138.248 7.19434C139.225 7.19434 139.999 7.47927 140.609 8.08986C141.179 8.70044 141.505 9.55526 141.505 10.6136C141.505 11.6719 141.22 12.5268 140.65 13.1373C140.08 13.7479 139.307 14.0329 138.33 14.0329C137.353 14.0329 136.579 13.7479 135.969 13.1373C135.399 12.5268 135.114 11.7127 135.114 10.6543H135.073Z" fill="#0F1F7A"/>
<path d="M142.808 13.9514V7.31641H144.11L146.837 11.7533V7.31641H148.059V13.9514H146.715L144.029 9.59592V13.9514H142.808Z" fill="#0F1F7A"/>
<path d="M43.7298 20.2198H44.259C44.259 20.3826 44.3404 20.5455 44.4218 20.6676C44.5033 20.7897 44.6661 20.9118 44.8289 20.9932C45.0324 21.0746 45.236 21.1153 45.4802 21.1153C45.7244 21.1153 45.8872 21.1153 46.0501 21.0339C46.2129 20.9525 46.335 20.8711 46.4164 20.7897C46.4978 20.6676 46.5385 20.5455 46.5385 20.4233C46.5385 20.3012 46.5385 20.1791 46.4164 20.0977C46.335 20.0163 46.2129 19.9349 46.0501 19.8535C45.9279 19.8128 45.6837 19.7313 45.3174 19.6499C44.951 19.5685 44.6661 19.4871 44.5033 19.4057C44.2997 19.2836 44.1776 19.1615 44.0555 19.0394C43.9741 18.8765 43.8927 18.7137 43.8927 18.5102C43.8927 18.3067 43.9334 18.1031 44.0555 17.9403C44.1776 17.7775 44.3404 17.6147 44.5847 17.5332C44.8289 17.4518 45.0731 17.4111 45.3581 17.4111C45.643 17.4111 45.9279 17.4518 46.1722 17.574C46.4164 17.6554 46.5792 17.8182 46.7014 18.0217C46.8235 18.2252 46.9049 18.4288 46.9049 18.673H46.3757C46.3757 18.4695 46.2536 18.2659 46.0908 18.1438C45.9279 18.0217 45.6837 17.9403 45.3581 17.9403C45.0324 17.9403 44.7882 17.981 44.6254 18.1031C44.4625 18.2252 44.3811 18.3881 44.3811 18.5509C44.3811 18.7137 44.4218 18.8358 44.544 18.9172C44.6661 18.9987 44.9103 19.1208 45.3581 19.2022C45.8058 19.2836 46.0908 19.4057 46.2536 19.4464C46.4978 19.5685 46.6606 19.6906 46.7828 19.8535C46.9049 20.0163 46.9456 20.2198 46.9456 20.4233C46.9456 20.6269 46.8642 20.8304 46.7421 21.0339C46.6199 21.2375 46.4571 21.3596 46.2129 21.4817C45.9687 21.6038 45.7244 21.6445 45.4395 21.6445C45.1545 21.6445 44.7475 21.6038 44.5033 21.4817C44.259 21.3596 44.0555 21.1968 43.8927 20.9932C43.7298 20.7897 43.6891 20.5455 43.6484 20.2605" fill="#0F1F7A"/>
<path d="M50.5684 17.4111H51.0976V19.7721C51.0976 20.1791 51.0569 20.5048 50.9755 20.749C50.894 20.9932 50.7312 21.1968 50.487 21.3596C50.2428 21.5224 49.9171 21.6038 49.5101 21.6038C49.103 21.6038 48.8181 21.5224 48.5738 21.4003C48.3296 21.2782 48.1668 21.0746 48.0447 20.8304C47.9225 20.5862 47.8818 20.2198 47.8818 19.8128V17.4518H48.411V19.8128C48.411 20.1791 48.411 20.4233 48.4924 20.5862C48.5738 20.749 48.6552 20.8711 48.8181 20.9932C48.9809 21.0746 49.1844 21.1153 49.4286 21.1153C49.8357 21.1153 50.1206 21.0339 50.2835 20.8304C50.4463 20.6676 50.5277 20.3012 50.5277 19.7721V17.4111H50.5684Z" fill="#0F1F7A"/>
<path d="M52.7261 19.365H53.7845C54.1508 19.365 54.3951 19.2836 54.5172 19.1615C54.68 19.0394 54.7207 18.8358 54.7207 18.5916C54.7207 18.3474 54.68 18.2659 54.5986 18.1438C54.5172 18.0217 54.3951 17.9403 54.2729 17.8996C54.1915 17.8996 54.0287 17.8996 53.7845 17.8996H52.7261V19.365ZM52.197 21.5224V17.4111H53.7438C54.0287 17.4111 54.2322 17.4111 54.3544 17.4111C54.5579 17.4111 54.7207 17.4925 54.8428 17.6147C54.9649 17.6961 55.0871 17.8589 55.1685 18.0217C55.2499 18.1845 55.2906 18.3881 55.2906 18.5916C55.2906 18.9579 55.1685 19.2429 54.9649 19.4871C54.7614 19.7314 54.3544 19.8535 53.7438 19.8535H52.6854V21.5224H52.1562H52.197Z" fill="#0F1F7A"/>
<path d="M56.2266 21.5224V17.4111H59.1981V17.8996H56.7557V19.1615H59.0352V19.6499H56.7557V21.0746H59.2795V21.5224H56.2266Z" fill="#0F1F7A"/>
<path d="M60.745 19.2429H61.9255C62.1697 19.2429 62.3732 19.2429 62.4953 19.1615C62.6175 19.1208 62.7396 19.0394 62.821 18.9172C62.9024 18.7951 62.9431 18.673 62.9431 18.5509C62.9431 18.3474 62.8617 18.1845 62.7396 18.0624C62.6174 17.9403 62.3732 17.8589 62.0883 17.8589H60.7857V19.2022L60.745 19.2429ZM60.2158 21.5224V17.4111H62.0476C62.4139 17.4111 62.6989 17.4111 62.9024 17.5332C63.1059 17.6147 63.228 17.7368 63.3501 17.9403C63.4723 18.1438 63.513 18.3474 63.513 18.5509C63.513 18.7544 63.4316 19.0801 63.228 19.2836C63.0245 19.4871 62.7396 19.6092 62.3732 19.6499C62.536 19.7313 62.6175 19.7721 62.6989 19.8535C62.8617 20.0163 63.0245 20.1791 63.1466 20.3826L63.8386 21.5224H63.1466L62.6175 20.6676C62.4546 20.4233 62.3325 20.2198 62.2104 20.0977C62.0883 19.9756 62.0069 19.8942 61.9255 19.8128C61.844 19.7721 61.7626 19.7314 61.6812 19.6906C61.5998 19.6906 61.5184 19.6906 61.3963 19.6906H60.7857V21.5224H60.2565H60.2158Z" fill="#0F1F7A"/>
<path d="M65.7513 20.2198H66.2805C66.2805 20.3826 66.3619 20.5455 66.4433 20.6676C66.5247 20.7897 66.6876 20.9118 66.8504 20.9932C67.0539 21.0746 67.2574 21.1153 67.5017 21.1153C67.7459 21.1153 67.9087 21.1153 68.0715 21.0339C68.2344 20.9525 68.3565 20.8711 68.4379 20.7897C68.5193 20.6676 68.56 20.5455 68.56 20.4233C68.56 20.3012 68.56 20.1791 68.4379 20.0977C68.3565 20.0163 68.2344 19.9349 68.0715 19.8535C67.9494 19.8128 67.7052 19.7313 67.3388 19.6499C66.9725 19.5685 66.6876 19.4871 66.5247 19.4057C66.3212 19.2836 66.1991 19.1615 66.077 19.0394C65.9956 18.8765 65.9142 18.7137 65.9142 18.5102C65.9142 18.3067 65.9549 18.1031 66.077 17.9403C66.1991 17.7775 66.3619 17.6147 66.6061 17.5332C66.8504 17.4518 67.0946 17.4111 67.3796 17.4111C67.6645 17.4111 67.9494 17.4518 68.1937 17.574C68.4379 17.6554 68.6007 17.8182 68.7228 18.0217C68.845 18.2252 68.9264 18.4288 68.9264 18.673H68.3972C68.3972 18.4695 68.2751 18.2659 68.1123 18.1438C67.9494 18.0217 67.7052 17.9403 67.3796 17.9403C67.0539 17.9403 66.8097 17.981 66.6469 18.1031C66.484 18.2252 66.4026 18.3881 66.4026 18.5509C66.4026 18.7137 66.4433 18.8358 66.5654 18.9172C66.6876 18.9987 66.9318 19.1208 67.3796 19.2022C67.8273 19.2836 68.1123 19.4057 68.2751 19.4464C68.5193 19.5685 68.6821 19.6906 68.8042 19.8535C68.9264 20.0163 68.9671 20.2198 68.9671 20.4233C68.9671 20.6269 68.8857 20.8304 68.7635 21.0339C68.6414 21.2375 68.4786 21.3596 68.2344 21.4817C67.9901 21.6038 67.7459 21.6445 67.461 21.6445C67.176 21.6445 66.769 21.6038 66.5247 21.4817C66.2805 21.3596 66.077 21.1968 65.9142 20.9932C65.7513 20.7897 65.7106 20.5455 65.6699 20.2605" fill="#0F1F7A"/>
<path d="M70.4735 19.365H71.5319C71.8982 19.365 72.1424 19.2836 72.2646 19.1615C72.4274 19.0394 72.4681 18.8358 72.4681 18.5916C72.4681 18.3474 72.4274 18.2659 72.346 18.1438C72.2646 18.0217 72.1424 17.9403 72.0203 17.8996C71.9389 17.8996 71.7761 17.8996 71.5319 17.8996H70.4735V19.365ZM69.9443 21.5224V17.4111H71.4911C71.7761 17.4111 71.9796 17.4111 72.1017 17.4111C72.3053 17.4111 72.4681 17.4925 72.6309 17.6147C72.753 17.6961 72.8751 17.8589 72.9565 18.0217C73.038 18.1845 73.0787 18.3881 73.0787 18.5916C73.0787 18.9579 72.9565 19.2429 72.753 19.4871C72.5495 19.7314 72.1424 19.8535 71.5319 19.8535H70.4735V21.5224H69.9443Z" fill="#0F1F7A"/>
<path d="M73.9336 21.5224V17.4111H76.9051V17.8996H74.5035V19.1615H76.783V19.6499H74.5035V21.0746H77.0272V21.5224H73.9336Z" fill="#0F1F7A"/>
<path d="M80.8531 20.0981L81.3823 20.2202C81.2601 20.6679 81.0566 20.9936 80.7717 21.2378C80.4867 21.482 80.1204 21.6042 79.6726 21.6042C79.2249 21.6042 78.8585 21.5228 78.5736 21.3192C78.2886 21.1564 78.0851 20.8715 77.9223 20.5458C77.7595 20.2202 77.7188 19.8538 77.7188 19.4468C77.7188 19.0397 77.8002 18.6327 77.963 18.307C78.1258 17.9814 78.37 17.7371 78.655 17.5743C78.9399 17.4115 79.3063 17.3301 79.6319 17.3301C79.9576 17.3301 80.4053 17.4522 80.6903 17.6557C80.9752 17.8593 81.1787 18.1442 81.2601 18.5512L80.731 18.6734C80.6496 18.3884 80.4867 18.1442 80.3239 18.0221C80.1611 17.9 79.9168 17.8185 79.6319 17.8185C79.347 17.8185 79.062 17.9 78.8585 18.0628C78.655 18.2256 78.4922 18.4291 78.4107 18.6734C78.3293 18.9176 78.2886 19.2025 78.2886 19.4468C78.2886 19.691 78.3293 20.0981 78.4515 20.383C78.5329 20.6272 78.6957 20.8308 78.9399 20.9529C79.1434 21.075 79.3877 21.1564 79.6319 21.1564C79.8761 21.1564 80.2018 21.075 80.4053 20.9122C80.6088 20.7493 80.7717 20.4644 80.8531 20.1388" fill="#0F1F7A"/>
<path d="M82.8475 17.4111H82.3184V21.5224H82.8475V17.4111Z" fill="#0F1F7A"/>
<path d="M84.7205 19.8535H86.1045L85.6567 18.7137C85.5346 18.3474 85.4125 18.0624 85.3718 17.8589C85.3311 18.1438 85.2497 18.3881 85.1276 18.6323L84.6798 19.8535H84.7205ZM83.54 21.5224L85.1276 17.4111H85.7381L87.4071 21.5224H86.7965L86.308 20.2605H84.5577L84.1099 21.5224H83.54Z" fill="#0F1F7A"/>
<path d="M87.9766 21.5224V17.4111H88.5057V21.0746H90.541V21.5224H87.9766Z" fill="#0F1F7A"/>
<path d="M91.9657 17.4111H91.4365V21.5224H91.9657V17.4111Z" fill="#0F1F7A"/>
<path d="M94.1636 21.5224V17.8996H92.8203V17.4111H96.0768V17.8996H94.6928V21.5224H94.1636Z" fill="#0F1F7A"/>
<path d="M97.9498 21.5224V19.7721L96.3623 17.4111H97.0136L97.8277 18.673C97.9905 18.9172 98.1126 19.1208 98.2348 19.365C98.3569 19.1615 98.5197 18.9172 98.6825 18.6323L99.4966 17.4111H100.148L98.5197 19.7721V21.5224H97.9905H97.9498Z" fill="#0F1F7A"/>
<path d="M102.143 21.5224V17.4111H105.114V17.8996H102.672V19.1615H104.951V19.6499H102.672V21.0746H105.196V21.5224H102.143Z" fill="#0F1F7A"/>
<path d="M107.271 21.5224V19.7721L105.684 17.4111H106.335L107.149 18.673C107.312 18.9172 107.434 19.1208 107.556 19.365C107.678 19.1615 107.841 18.9172 108.004 18.6323L108.818 17.4111H109.469L107.841 19.7721V21.5224H107.312H107.271Z" fill="#0F1F7A"/>
<path d="M110.121 21.5224V17.4111H113.093V17.8996H110.65V19.1615H112.93V19.6499H110.65V21.0746H113.174V21.5224H110.121Z" fill="#0F1F7A"/>
<path d="M115.575 21.5224V17.4111H116.104V19.1208H118.221V17.4111H118.791V21.5224H118.221V19.6092H116.104V21.5224H115.575Z" fill="#0F1F7A"/>
<path d="M120.256 19.5275C120.256 20.016 120.378 20.423 120.663 20.708C120.948 20.9929 121.274 21.1557 121.681 21.1557C122.088 21.1557 122.413 20.9929 122.698 20.708C122.983 20.423 123.105 20.016 123.105 19.4868C123.105 18.9576 123.065 18.8762 122.943 18.5913C122.821 18.3471 122.658 18.1435 122.454 18.0214C122.251 17.8993 122.006 17.8179 121.721 17.8179C121.355 17.8179 120.989 17.94 120.745 18.2249C120.46 18.4692 120.337 18.9169 120.337 19.5682M119.686 19.5275C119.686 18.8355 119.89 18.3063 120.256 17.94C120.622 17.5736 121.111 17.3701 121.681 17.3701C122.251 17.3701 122.413 17.4515 122.698 17.6551C122.983 17.8179 123.228 18.1028 123.39 18.4285C123.553 18.7541 123.635 19.1205 123.635 19.5275C123.635 19.9346 123.553 20.3009 123.39 20.6673C123.228 20.9929 122.983 21.2371 122.658 21.4C122.332 21.5628 122.006 21.6442 121.64 21.6442C121.274 21.6442 120.907 21.5628 120.582 21.3593C120.297 21.1557 120.053 20.9115 119.89 20.5859C119.727 20.2602 119.646 19.9346 119.646 19.5682L119.686 19.5275Z" fill="#0F1F7A"/>
<path d="M124.327 20.2198H124.856C124.856 20.3826 124.937 20.5455 125.019 20.6676C125.1 20.7897 125.263 20.9118 125.426 20.9932C125.629 21.0746 125.833 21.1153 126.077 21.1153C126.321 21.1153 126.484 21.1153 126.647 21.0339C126.81 20.9525 126.932 20.8711 127.013 20.7897C127.095 20.6676 127.135 20.5455 127.135 20.4233C127.135 20.3012 127.135 20.1791 127.013 20.0977C126.932 20.0163 126.81 19.9349 126.647 19.8535C126.525 19.8128 126.28 19.7313 125.914 19.6499C125.548 19.5685 125.263 19.4871 125.1 19.4057C124.896 19.2836 124.774 19.1615 124.652 19.0394C124.571 18.8765 124.489 18.7137 124.489 18.5102C124.489 18.3067 124.53 18.1031 124.652 17.9403C124.774 17.7775 124.937 17.6147 125.181 17.5332C125.426 17.4518 125.67 17.4111 125.955 17.4111C126.24 17.4111 126.525 17.4518 126.769 17.574C127.013 17.6554 127.176 17.8182 127.298 18.0217C127.42 18.2252 127.502 18.4288 127.502 18.673H126.972C126.972 18.4695 126.85 18.2659 126.687 18.1438C126.525 18.0217 126.28 17.9403 125.955 17.9403C125.629 17.9403 125.385 17.981 125.222 18.1031C125.059 18.2252 124.978 18.3881 124.978 18.5509C124.978 18.7137 125.019 18.8358 125.141 18.9172C125.263 18.9987 125.507 19.1208 125.955 19.2022C126.403 19.2836 126.687 19.4057 126.85 19.4464C127.095 19.5685 127.257 19.6906 127.379 19.8535C127.502 20.0163 127.542 20.2198 127.542 20.4233C127.542 20.6269 127.461 20.8304 127.339 21.0339C127.217 21.2375 127.054 21.3596 126.81 21.4817C126.565 21.6038 126.321 21.6445 126.036 21.6445C125.751 21.6445 125.344 21.6038 125.1 21.4817C124.856 21.3596 124.652 21.1968 124.489 20.9932C124.327 20.7897 124.286 20.5455 124.245 20.2605" fill="#0F1F7A"/>
<path d="M129.008 19.365H130.067C130.433 19.365 130.677 19.2836 130.799 19.1615C130.962 19.0394 131.003 18.8358 131.003 18.5916C131.003 18.3474 130.962 18.2659 130.881 18.1438C130.799 18.0217 130.677 17.9403 130.555 17.8996C130.474 17.8996 130.311 17.8996 130.067 17.8996H129.008V19.365ZM128.479 21.5224V17.4111H130.026C130.311 17.4111 130.514 17.4111 130.637 17.4111C130.84 17.4111 131.003 17.4925 131.125 17.6147C131.247 17.6961 131.369 17.8589 131.451 18.0217C131.532 18.1845 131.573 18.3881 131.573 18.5916C131.573 18.9579 131.451 19.2429 131.247 19.4871C131.044 19.7314 130.637 19.8535 130.026 19.8535H128.968V21.5224H128.438H128.479Z" fill="#0F1F7A"/>
<path d="M133.079 17.4111H132.55V21.5224H133.079V17.4111Z" fill="#0F1F7A"/>
<path d="M135.277 21.5224V17.8996H133.934V17.4111H137.19V17.8996H135.847V21.5224H135.277Z" fill="#0F1F7A"/>
<path d="M138.208 19.8535H139.592L139.144 18.7137C139.022 18.3474 138.9 18.0624 138.859 17.8589C138.818 18.1438 138.737 18.3881 138.615 18.6323L138.167 19.8535H138.208ZM137.027 21.5224L138.615 17.4111H139.225L140.894 21.5224H140.284L139.795 20.2605H138.045L137.597 21.5224H137.027Z" fill="#0F1F7A"/>
<path d="M141.464 21.5224V17.4111H141.993V21.0746H144.028V21.5224H141.464Z" fill="#0F1F7A"/>
<path d="M144.639 20.2198H145.168C145.168 20.3826 145.25 20.5455 145.331 20.6676C145.412 20.7897 145.575 20.9118 145.738 20.9932C145.942 21.0746 146.145 21.1153 146.389 21.1153C146.634 21.1153 146.796 21.1153 146.959 21.0339C147.122 20.9525 147.244 20.8711 147.326 20.7897C147.407 20.6676 147.448 20.5455 147.448 20.4233C147.448 20.3012 147.448 20.1791 147.326 20.0977C147.244 20.0163 147.122 19.9349 146.959 19.8535C146.837 19.8128 146.593 19.7313 146.227 19.6499C145.86 19.5685 145.575 19.4871 145.412 19.4057C145.209 19.2836 145.087 19.1615 144.965 19.0394C144.883 18.8765 144.802 18.7137 144.802 18.5102C144.802 18.3067 144.843 18.1031 144.965 17.9403C145.087 17.7775 145.25 17.6147 145.494 17.5332C145.738 17.4518 145.982 17.4111 146.267 17.4111C146.552 17.4111 146.837 17.4518 147.081 17.574C147.326 17.6554 147.488 17.8182 147.611 18.0217C147.733 18.2252 147.814 18.4288 147.814 18.673H147.285C147.285 18.4695 147.163 18.2659 147 18.1438C146.837 18.0217 146.593 17.9403 146.267 17.9403C145.942 17.9403 145.697 17.981 145.535 18.1031C145.372 18.2252 145.29 18.3881 145.29 18.5509C145.29 18.7137 145.331 18.8358 145.453 18.9172C145.575 18.9987 145.819 19.1208 146.267 19.2022C146.715 19.2836 147 19.4057 147.163 19.4464C147.407 19.5685 147.57 19.6906 147.692 19.8535C147.814 20.0163 147.855 20.2198 147.855 20.4233C147.855 20.6269 147.773 20.8304 147.651 21.0339C147.529 21.2375 147.366 21.3596 147.122 21.4817C146.878 21.6038 146.634 21.6445 146.349 21.6445C146.064 21.6445 145.657 21.6038 145.412 21.4817C145.168 21.3596 144.965 21.1968 144.802 20.9932C144.639 20.7897 144.598 20.5455 144.558 20.2605" fill="#0F1F7A"/>
<path d="M45.1545 29.8665V25.7552H43.6484V24.9004H47.5969V25.7552H46.1315V29.8665H45.1545Z" fill="#0F1F7A"/>
<path d="M49.9175 28.157C49.7954 28.157 49.5919 28.2384 49.3476 28.3198C49.1034 28.3605 48.8999 28.4419 48.8185 28.4826C48.6963 28.564 48.6149 28.6862 48.6149 28.8083C48.6149 28.9304 48.6556 29.0525 48.7778 29.1339C48.8592 29.2153 49.022 29.2967 49.1441 29.2967C49.2662 29.2967 49.4698 29.256 49.6326 29.1339C49.7547 29.0525 49.8361 28.9304 49.8768 28.8083C49.8768 28.7269 49.8768 28.564 49.8768 28.3605V28.157H49.9175ZM48.6556 27.3836L47.8008 27.2208C47.8822 26.8544 48.0858 26.6102 48.2893 26.4474C48.5335 26.2845 48.8592 26.2031 49.3476 26.2031C49.8361 26.2031 50.0803 26.2438 50.2839 26.3659C50.4874 26.4474 50.6502 26.6102 50.7316 26.7323C50.813 26.8951 50.8537 27.1801 50.8537 27.5871V28.6862C50.8537 29.0118 50.8537 29.256 50.8537 29.3782C50.8537 29.541 50.9352 29.7038 51.0166 29.8666H50.0803C50.0803 29.7852 50.0396 29.7038 49.9989 29.5817C49.9989 29.541 49.9989 29.5003 49.9989 29.4596C49.8361 29.6224 49.6733 29.7445 49.4698 29.8259C49.2662 29.9073 49.1034 29.948 48.8592 29.948C48.4928 29.948 48.2079 29.8666 48.0044 29.6631C47.8008 29.4596 47.6787 29.2153 47.6787 28.8897C47.6787 28.564 47.7194 28.5233 47.8415 28.3605C47.9229 28.1977 48.0858 28.0756 48.2486 27.9942C48.4114 27.9128 48.6556 27.8313 49.022 27.7906C49.4698 27.7092 49.7547 27.6278 49.9582 27.5464V27.465C49.9582 27.2615 49.9175 27.1394 49.8361 27.0579C49.7547 26.9765 49.5919 26.9358 49.3069 26.9358C49.022 26.9358 49.022 26.9358 48.8999 27.0172C48.8185 27.0986 48.7371 27.2208 48.6556 27.3836Z" fill="#0F1F7A"/>
<path d="M51.9121 26.2845H52.7669V26.773C53.0926 26.4067 53.4589 26.2031 53.9067 26.2031C54.3544 26.2031 54.3544 26.2438 54.5173 26.3252C54.6801 26.4067 54.8429 26.5695 54.9243 26.773C55.0871 26.5695 55.25 26.4474 55.4535 26.3252C55.6163 26.2438 55.8198 26.2031 56.0234 26.2031C56.2269 26.2031 56.5118 26.2438 56.6747 26.3659C56.8375 26.4881 57.0003 26.6509 57.0817 26.8544C57.1631 27.0172 57.1631 27.2615 57.1631 27.5871V29.8666H56.2269V27.8313C56.2269 27.465 56.2269 27.2615 56.1455 27.1394C56.0641 27.0172 55.9013 26.9358 55.7384 26.9358C55.5756 26.9358 55.4942 26.9358 55.3721 27.0579C55.25 27.1394 55.1686 27.2615 55.1278 27.4243C55.0871 27.5871 55.0464 27.8313 55.0464 28.157V29.8666H54.1102V27.9128C54.1102 27.5464 54.1102 27.3429 54.0695 27.2208C54.0695 27.1394 53.9881 27.0579 53.9067 26.9765C53.8253 26.9358 53.7439 26.8951 53.6217 26.8951C53.4996 26.8951 53.3368 26.8951 53.2147 27.0172C53.0926 27.0986 53.0112 27.2208 52.9705 27.3429C52.9297 27.5057 52.889 27.7499 52.889 28.0756V29.8259H51.9528V26.2438L51.9121 26.2845Z" fill="#0F1F7A"/>
<path d="M58.3428 29.8665V26.2844H59.279V29.8665H58.3428ZM58.3428 25.7959V24.9004H59.279V25.7959H58.3428Z" fill="#0F1F7A"/>
<path d="M61.3962 24.9004H60.46V29.8665H61.3962V24.9004Z" fill="#0F1F7A"/>
<path d="M65.8733 29.8666H64.9371V28.0349C64.9371 27.6278 64.9371 27.3836 64.8557 27.3022C64.815 27.1801 64.7336 27.0986 64.6522 27.0172C64.5707 26.9358 64.4486 26.9358 64.3265 26.9358C64.2044 26.9358 64.0009 26.9765 63.8787 27.0579C63.7566 27.1394 63.6752 27.2615 63.5938 27.4243C63.5531 27.5871 63.5124 27.8313 63.5124 28.2384V29.8666H62.5762V26.2845H63.4717V26.8137C63.7973 26.4067 64.2044 26.2031 64.6522 26.2031C65.0999 26.2031 65.0592 26.2031 65.222 26.3252C65.3849 26.4067 65.5477 26.4881 65.6291 26.6102C65.7105 26.7323 65.7919 26.8544 65.8326 27.0172C65.8326 27.1801 65.8733 27.3836 65.8733 27.6685V29.9073V29.8666Z" fill="#0F1F7A"/>
<path d="M69.0083 28.157C68.8862 28.157 68.6827 28.2384 68.4385 28.3198C68.1942 28.3605 67.9907 28.4419 67.9093 28.4826C67.7872 28.564 67.7058 28.6862 67.7058 28.8083C67.7058 28.9304 67.7465 29.0525 67.8686 29.1339C67.95 29.2153 68.1128 29.2967 68.2349 29.2967C68.357 29.2967 68.5606 29.256 68.7234 29.1339C68.8455 29.0525 68.9269 28.9304 68.9676 28.8083C68.9676 28.7269 68.9676 28.564 68.9676 28.3605V28.157H69.0083ZM67.7465 27.3836L66.8916 27.2208C66.9731 26.8544 67.1766 26.6102 67.3801 26.4474C67.6243 26.2845 67.95 26.2031 68.4385 26.2031C68.9269 26.2031 69.1712 26.2438 69.3747 26.3659C69.5782 26.4474 69.741 26.6102 69.8224 26.7323C69.9039 26.8951 69.9446 27.1801 69.9446 27.5871V28.6862C69.9446 29.0118 69.9446 29.256 69.9446 29.3782C69.9446 29.541 70.026 29.7038 70.1074 29.8666H69.1712C69.1712 29.7852 69.1305 29.7038 69.0897 29.5817C69.0897 29.541 69.0897 29.5003 69.0897 29.4596C68.9269 29.6224 68.7641 29.7445 68.5606 29.8259C68.357 29.9073 68.1942 29.948 67.95 29.948C67.5836 29.948 67.2987 29.8666 67.0952 29.6631C66.8916 29.4596 66.7695 29.2153 66.7695 28.8897C66.7695 28.564 66.8102 28.5233 66.9324 28.3605C67.0138 28.1977 67.1766 28.0756 67.3394 27.9942C67.5022 27.9128 67.7465 27.8313 68.1128 27.7906C68.5606 27.7092 68.8455 27.6278 69.049 27.5464V27.465C69.049 27.2615 69.0083 27.1394 68.9269 27.0579C68.8455 26.9765 68.6827 26.9358 68.3978 26.9358C68.1128 26.9358 68.1128 26.9358 67.9907 27.0172C67.9093 27.0986 67.8279 27.2208 67.7465 27.3836Z" fill="#0F1F7A"/>
<path d="M71.8168 28.0347C71.8168 28.4011 71.8575 28.686 71.9796 28.8895C72.1424 29.1338 72.3459 29.2559 72.6309 29.2559C72.9158 29.2559 73.0379 29.1745 73.2008 28.9709C73.3636 28.7674 73.445 28.5232 73.445 28.1161C73.445 27.7091 73.3636 27.3834 73.2415 27.2206C73.0786 27.0578 72.9158 26.9357 72.6716 26.9357C72.4274 26.9357 72.2645 27.0171 72.1017 27.2206C71.9389 27.3834 71.8575 27.6684 71.8575 28.0347M74.3812 29.8665H73.4857V29.3373C73.3229 29.5408 73.1601 29.7036 72.9565 29.7851C72.753 29.9072 72.5495 29.9479 72.3459 29.9479C71.9389 29.9479 71.5725 29.7851 71.2876 29.4594C71.0027 29.1338 70.8398 28.6453 70.8398 28.0754C70.8398 27.5055 71.0027 27.0171 71.2876 26.6914C71.5725 26.3658 71.9389 26.203 72.3867 26.203C72.8344 26.203 73.1194 26.3658 73.445 26.6914V24.9004H74.3812V29.8665Z" fill="#0F1F7A"/>
<path d="M77.8821 29.8669V29.3378C77.76 29.5413 77.5972 29.6634 77.3529 29.7855C77.1494 29.9076 76.9052 29.9483 76.6609 29.9483C76.4167 29.9483 76.2132 29.9076 76.0096 29.7855C75.8061 29.6634 75.684 29.5413 75.6026 29.3378C75.5212 29.1342 75.4805 28.89 75.4805 28.5237V26.2441H76.4167V27.9131C76.4167 28.4015 76.4167 28.7272 76.4574 28.8493C76.4574 28.9714 76.5388 29.0528 76.6609 29.1342C76.7423 29.2156 76.8645 29.2156 77.0273 29.2156C77.1901 29.2156 77.3529 29.1749 77.475 29.0935C77.5972 29.0121 77.6786 28.89 77.76 28.7679C77.8007 28.6458 77.8414 28.3201 77.8414 27.791V26.2848H78.7776V29.8669H77.8821Z" fill="#0F1F7A"/>
<path d="M82.5227 24.8193H81.79V31.3322H82.5227V24.8193Z" fill="#0F1F7A"/>
<path d="M85.5752 29.8665V24.9004H86.5521V27.0985L88.5874 24.9004H89.9307L88.0582 26.8543L90.0528 29.8665H88.7502L87.3662 27.5463L86.5521 28.4011V29.8665H85.5752Z" fill="#0F1F7A"/>
<path d="M92.7395 28.157C92.6174 28.157 92.4138 28.2384 92.1696 28.3198C91.9254 28.3605 91.7218 28.4419 91.6404 28.4826C91.5183 28.564 91.4369 28.6862 91.4369 28.8083C91.4369 28.9304 91.4776 29.0525 91.5997 29.1339C91.6811 29.2153 91.8439 29.2967 91.9661 29.2967C92.0882 29.2967 92.2917 29.256 92.4545 29.1339C92.5766 29.0525 92.6581 28.9304 92.6988 28.8083C92.6988 28.7269 92.6988 28.564 92.6988 28.3605V28.157H92.7395ZM91.4369 27.3836L90.5821 27.2208C90.6635 26.8544 90.867 26.6102 91.0705 26.4474C91.3148 26.2845 91.6404 26.2031 92.1289 26.2031C92.6174 26.2031 92.8616 26.2438 93.0651 26.3659C93.2686 26.4474 93.4315 26.6102 93.5129 26.7323C93.5943 26.8951 93.635 27.1801 93.635 27.5871V28.6862C93.635 29.0118 93.635 29.256 93.635 29.3782C93.635 29.541 93.7164 29.7038 93.7978 29.8666H92.8616C92.8616 29.7852 92.8209 29.7038 92.7802 29.5817C92.7802 29.541 92.7802 29.5003 92.7802 29.4596C92.6174 29.6224 92.4545 29.7445 92.251 29.8259C92.0475 29.9073 91.8847 29.948 91.6404 29.948C91.2741 29.948 90.9891 29.8666 90.7856 29.6631C90.5821 29.4596 90.46 29.2153 90.46 28.8897C90.46 28.564 90.5007 28.5233 90.6228 28.3605C90.7042 28.1977 90.867 28.0756 91.0298 27.9942C91.1927 27.9128 91.4369 27.8313 91.8032 27.7906C92.251 27.7092 92.5359 27.6278 92.7395 27.5464V27.465C92.7395 27.2615 92.6988 27.1394 92.6174 27.0579C92.5359 26.9765 92.3731 26.9358 92.0882 26.9358C91.8032 26.9358 91.8032 26.9358 91.6811 27.0172C91.5997 27.0986 91.5183 27.2208 91.4369 27.3836Z" fill="#0F1F7A"/>
<path d="M95.7106 29.8666H94.7744V26.2845H95.6699V26.8137C95.8328 26.5695 95.9549 26.4067 96.077 26.3252C96.1991 26.2438 96.3212 26.2031 96.484 26.2031C96.6876 26.2031 96.8911 26.2438 97.0946 26.3659L96.8097 27.1801C96.6469 27.0579 96.484 27.0172 96.3619 27.0172C96.2398 27.0172 96.1177 27.0172 96.0363 27.1394C95.9549 27.2208 95.8735 27.3429 95.8328 27.5464C95.792 27.7499 95.7513 28.157 95.7513 28.7676V29.8666H95.7106Z" fill="#0F1F7A"/>
<path d="M100.962 29.8666H100.026V28.0349C100.026 27.6278 100.026 27.3836 99.9446 27.3022C99.9038 27.1801 99.8224 27.0986 99.741 27.0172C99.6596 26.9358 99.5375 26.9358 99.4154 26.9358C99.2933 26.9358 99.0897 26.9765 98.9676 27.0579C98.8455 27.1394 98.7641 27.2615 98.6827 27.4243C98.642 27.5871 98.6013 27.8313 98.6013 28.2384V29.8666H97.665V26.2845H98.5606V26.8137C98.8862 26.4067 99.2933 26.2031 99.741 26.2031C100.189 26.2031 100.148 26.2031 100.311 26.3252C100.474 26.4067 100.637 26.4881 100.718 26.6102C100.799 26.7323 100.881 26.8544 100.921 27.0172C100.921 27.1801 100.962 27.3836 100.962 27.6685V29.9073V29.8666Z" fill="#0F1F7A"/>
<path d="M104.096 28.157C103.974 28.157 103.771 28.2384 103.526 28.3198C103.282 28.3605 103.079 28.4419 102.997 28.4826C102.875 28.564 102.794 28.6862 102.794 28.8083C102.794 28.9304 102.834 29.0525 102.956 29.1339C103.079 29.2153 103.201 29.2967 103.323 29.2967C103.445 29.2967 103.648 29.256 103.811 29.1339C103.933 29.0525 104.015 28.9304 104.056 28.8083C104.056 28.7269 104.056 28.564 104.056 28.3605V28.157H104.096ZM102.834 27.3836L101.98 27.2208C102.061 26.8544 102.264 26.6102 102.468 26.4474C102.712 26.2845 103.038 26.2031 103.526 26.2031C104.015 26.2031 104.259 26.2438 104.463 26.3659C104.666 26.4474 104.829 26.6102 104.91 26.7323C104.992 26.8951 105.032 27.1801 105.032 27.5871V28.6862C105.032 29.0118 105.032 29.256 105.032 29.3782C105.032 29.541 105.114 29.7038 105.195 29.8666H104.259C104.259 29.7852 104.218 29.7038 104.178 29.5817C104.178 29.541 104.178 29.5003 104.178 29.4596C104.015 29.6224 103.852 29.7445 103.648 29.8259C103.445 29.9073 103.282 29.948 103.038 29.948C102.672 29.948 102.387 29.8666 102.183 29.6631C101.98 29.4596 101.857 29.2153 101.857 28.8897C101.857 28.564 101.898 28.5233 102.02 28.3605C102.102 28.1977 102.264 28.0756 102.427 27.9942C102.59 27.9128 102.834 27.8313 103.201 27.7906C103.648 27.7092 103.933 27.6278 104.137 27.5464V27.465C104.137 27.2615 104.096 27.1394 104.015 27.0579C103.933 26.9765 103.771 26.9358 103.486 26.9358C103.201 26.9358 103.201 26.9358 103.079 27.0172C102.997 27.0986 102.916 27.2208 102.834 27.3836Z" fill="#0F1F7A"/>
<path d="M107.8 26.2847V27.0581H107.149V28.5235C107.149 28.8084 107.149 29.012 107.149 29.0527C107.149 29.0934 107.149 29.1341 107.23 29.1748C107.271 29.1748 107.312 29.2155 107.393 29.2155C107.475 29.2155 107.597 29.2155 107.76 29.1341L107.841 29.8668C107.637 29.9482 107.352 29.9889 107.108 29.9889C106.864 29.9889 106.783 29.9889 106.66 29.9075C106.538 29.8668 106.416 29.7854 106.376 29.6633C106.294 29.5818 106.253 29.4597 106.253 29.2969C106.253 29.1748 106.253 28.9713 106.253 28.6049V27.0174H105.806V26.244H106.253V25.5113L107.19 24.9414V26.2033H107.841L107.8 26.2847Z" fill="#0F1F7A"/>
<path d="M110.65 28.157C110.528 28.157 110.324 28.2384 110.08 28.3198C109.836 28.3605 109.632 28.4419 109.551 28.4826C109.429 28.564 109.347 28.6862 109.347 28.8083C109.347 28.9304 109.388 29.0525 109.51 29.1339C109.632 29.2153 109.754 29.2967 109.877 29.2967C109.999 29.2967 110.202 29.256 110.365 29.1339C110.487 29.0525 110.569 28.9304 110.609 28.8083C110.609 28.7269 110.609 28.564 110.609 28.3605V28.157H110.65ZM109.388 27.3836L108.533 27.2208C108.615 26.8544 108.818 26.6102 109.022 26.4474C109.266 26.2845 109.592 26.2031 110.08 26.2031C110.569 26.2031 110.813 26.2438 111.016 26.3659C111.22 26.4474 111.383 26.6102 111.464 26.7323C111.545 26.8951 111.586 27.1801 111.586 27.5871V28.6862C111.586 29.0118 111.586 29.256 111.586 29.3782C111.586 29.541 111.668 29.7038 111.749 29.8666H110.813C110.813 29.7852 110.772 29.7038 110.731 29.5817C110.731 29.541 110.731 29.5003 110.731 29.4596C110.569 29.6224 110.406 29.7445 110.202 29.8259C109.999 29.9073 109.836 29.948 109.592 29.948C109.225 29.948 108.94 29.8666 108.737 29.6631C108.533 29.4596 108.411 29.2153 108.411 28.8897C108.411 28.564 108.452 28.5233 108.574 28.3605C108.655 28.1977 108.818 28.0756 108.981 27.9942C109.144 27.9128 109.388 27.8313 109.754 27.7906C110.202 27.7092 110.487 27.6278 110.691 27.5464V27.465C110.691 27.2615 110.65 27.1394 110.569 27.0579C110.487 26.9765 110.324 26.9358 110.039 26.9358C109.754 26.9358 109.754 26.9358 109.632 27.0172C109.551 27.0986 109.469 27.2208 109.388 27.3836Z" fill="#0F1F7A"/>
<path d="M112.686 29.8665V24.9004H113.662V27.5463L114.762 26.2844H115.942L114.721 27.587L116.023 29.8665H115.006L114.07 28.279L113.662 28.7267V29.8665H112.686Z" fill="#0F1F7A"/>
<path d="M118.751 28.157C118.628 28.157 118.425 28.2384 118.181 28.3198C117.936 28.3605 117.733 28.4419 117.651 28.4826C117.529 28.564 117.448 28.6862 117.448 28.8083C117.448 28.9304 117.489 29.0525 117.611 29.1339C117.692 29.2153 117.855 29.2967 117.977 29.2967C118.099 29.2967 118.303 29.256 118.466 29.1339C118.588 29.0525 118.669 28.9304 118.71 28.8083C118.71 28.7269 118.71 28.564 118.71 28.3605V28.157H118.751ZM117.489 27.3836L116.634 27.2208C116.715 26.8544 116.919 26.6102 117.122 26.4474C117.367 26.2845 117.692 26.2031 118.181 26.2031C118.669 26.2031 118.913 26.2438 119.117 26.3659C119.32 26.4474 119.483 26.6102 119.565 26.7323C119.646 26.8951 119.687 27.1801 119.687 27.5871V28.6862C119.687 29.0118 119.687 29.256 119.687 29.3782C119.687 29.541 119.768 29.7038 119.85 29.8666H118.913C118.913 29.7852 118.873 29.7038 118.832 29.5817C118.832 29.541 118.832 29.5003 118.832 29.4596C118.669 29.6224 118.506 29.7445 118.303 29.8259C118.099 29.9073 117.936 29.948 117.692 29.948C117.326 29.948 117.041 29.8666 116.837 29.6631C116.634 29.4596 116.512 29.2153 116.512 28.8897C116.512 28.564 116.552 28.5233 116.675 28.3605C116.756 28.1977 116.919 28.0756 117.082 27.9942C117.244 27.9128 117.489 27.8313 117.855 27.7906C118.303 27.7092 118.588 27.6278 118.791 27.5464V27.465C118.791 27.2615 118.751 27.1394 118.669 27.0579C118.588 26.9765 118.425 26.9358 118.14 26.9358C117.855 26.9358 117.855 26.9358 117.733 27.0172C117.651 27.0986 117.57 27.2208 117.489 27.3836Z" fill="#0F1F7A"/>
<path d="M123.391 24.8193H122.658V31.3322H123.391V24.8193Z" fill="#0F1F7A"/>
<path d="M126.443 29.8665V24.9004H127.461V27.0985L129.496 24.9004H130.84L128.967 26.8543L130.921 29.8665H129.659L128.275 27.5463L127.461 28.4011V29.8665H126.443Z" fill="#0F1F7A"/>
<path d="M133.771 27.7913C133.771 27.5063 133.689 27.3028 133.567 27.1807C133.445 27.0179 133.282 26.9772 133.079 26.9772C132.875 26.9772 132.712 27.0586 132.55 27.2214C132.427 27.3842 132.346 27.5877 132.346 27.832H133.771V27.7913ZM133.73 28.7682L134.666 28.931C134.544 29.2974 134.341 29.5416 134.096 29.7451C133.852 29.908 133.486 30.0301 133.119 30.0301C132.509 30.0301 132.02 29.8265 131.735 29.4195C131.491 29.0938 131.369 28.6868 131.369 28.1576C131.369 27.6284 131.532 27.0993 131.817 26.7736C132.143 26.448 132.509 26.2852 132.997 26.2852C133.486 26.2852 133.974 26.448 134.259 26.8143C134.585 27.1807 134.707 27.7099 134.707 28.4426H132.346C132.346 28.7275 132.427 28.931 132.59 29.0938C132.753 29.2567 132.916 29.3381 133.119 29.3381C133.323 29.3381 133.404 29.3381 133.486 29.216C133.567 29.1345 133.649 29.0124 133.73 28.8089V28.7682Z" fill="#0F1F7A"/>
<path d="M136.62 29.8666H135.684V26.2845H136.579V26.8137C136.742 26.5695 136.864 26.4067 136.986 26.3252C137.108 26.2438 137.23 26.2031 137.393 26.2031C137.556 26.2031 137.8 26.2438 138.004 26.3659L137.719 27.1801C137.556 27.0579 137.393 27.0172 137.271 27.0172C137.149 27.0172 137.027 27.0172 136.945 27.1394C136.864 27.2208 136.783 27.3429 136.742 27.5464C136.701 27.7499 136.661 28.157 136.661 28.7676V29.8666H136.62Z" fill="#0F1F7A"/>
<path d="M140.569 28.157C140.447 28.157 140.243 28.2384 139.999 28.3198C139.755 28.3605 139.551 28.4419 139.47 28.4826C139.348 28.564 139.266 28.6862 139.266 28.8083C139.266 28.9304 139.307 29.0525 139.429 29.1339C139.551 29.2153 139.673 29.2967 139.795 29.2967C139.918 29.2967 140.121 29.256 140.284 29.1339C140.406 29.0525 140.487 28.9304 140.528 28.8083C140.528 28.7269 140.528 28.564 140.528 28.3605V28.157H140.569ZM139.307 27.3836L138.452 27.2208C138.534 26.8544 138.737 26.6102 138.941 26.4474C139.185 26.2845 139.511 26.2031 139.999 26.2031C140.487 26.2031 140.732 26.2438 140.935 26.3659C141.139 26.4474 141.302 26.6102 141.383 26.7323C141.464 26.8951 141.505 27.1801 141.505 27.5871V28.6862C141.505 29.0118 141.505 29.256 141.505 29.3782C141.505 29.541 141.587 29.7038 141.668 29.8666H140.732C140.732 29.7852 140.691 29.7038 140.65 29.5817C140.65 29.541 140.65 29.5003 140.65 29.4596C140.487 29.6224 140.325 29.7445 140.121 29.8259C139.918 29.9073 139.755 29.948 139.511 29.948C139.144 29.948 138.859 29.8666 138.656 29.6631C138.452 29.4596 138.33 29.2153 138.33 28.8897C138.33 28.564 138.371 28.5233 138.493 28.3605C138.574 28.1977 138.737 28.0756 138.9 27.9942C139.063 27.9128 139.307 27.8313 139.673 27.7906C140.121 27.7092 140.406 27.6278 140.61 27.5464V27.465C140.61 27.2615 140.569 27.1394 140.487 27.0579C140.406 26.9765 140.243 26.9358 139.958 26.9358C139.673 26.9358 139.673 26.9358 139.551 27.0172C139.47 27.0986 139.388 27.2208 139.307 27.3836Z" fill="#0F1F7A"/>
<path d="M143.581 24.9004H142.645V29.8665H143.581V24.9004Z" fill="#0F1F7A"/>
<path d="M146.756 28.157C146.634 28.157 146.43 28.2384 146.186 28.3198C145.942 28.3605 145.738 28.4419 145.657 28.4826C145.535 28.564 145.453 28.6862 145.453 28.8083C145.453 28.9304 145.494 29.0525 145.616 29.1339C145.698 29.2153 145.861 29.2967 145.983 29.2967C146.105 29.2967 146.308 29.256 146.471 29.1339C146.593 29.0525 146.675 28.9304 146.715 28.8083C146.715 28.7269 146.715 28.564 146.715 28.3605V28.157H146.756ZM145.453 27.3836L144.599 27.2208C144.68 26.8544 144.884 26.6102 145.087 26.4474C145.331 26.2845 145.657 26.2031 146.145 26.2031C146.634 26.2031 146.878 26.2438 147.082 26.3659C147.285 26.4474 147.448 26.6102 147.529 26.7323C147.611 26.8951 147.652 27.1801 147.652 27.5871V28.6862C147.652 29.0118 147.652 29.256 147.652 29.3782C147.652 29.541 147.733 29.7038 147.814 29.8666H146.878C146.878 29.7852 146.837 29.7038 146.797 29.5817C146.797 29.541 146.797 29.5003 146.797 29.4596C146.634 29.6224 146.471 29.7445 146.268 29.8259C146.064 29.9073 145.901 29.948 145.657 29.948C145.291 29.948 145.006 29.8666 144.802 29.6631C144.599 29.4596 144.477 29.2153 144.477 28.8897C144.477 28.564 144.517 28.5233 144.639 28.3605C144.721 28.1977 144.884 28.0756 145.046 27.9942C145.209 27.9128 145.453 27.8313 145.82 27.7906C146.268 27.7092 146.553 27.6278 146.756 27.5464V27.465C146.756 27.2615 146.715 27.1394 146.634 27.0579C146.553 26.9765 146.39 26.9358 146.105 26.9358C145.82 26.9358 145.82 26.9358 145.698 27.0172C145.616 27.0986 145.535 27.2208 145.453 27.3836Z" fill="#0F1F7A"/>
</svg>
