<svg width="151" height="35" viewBox="0 0 151 35" fill="none" xmlns="http://www.w3.org/2000/svg">
<path d="M28.952 17.7617C26.6339 17.7617 24.7344 19.5969 24.7344 21.8828V30.7044C24.7344 32.9903 26.3442 34.5357 29.0486 34.8255H41.8625C44.5991 34.5357 46.1767 32.9903 46.1767 30.7044V24.0399H32.1072V28.3219H41.7015V29.3522C41.7015 30.3181 40.8644 31.0907 39.802 31.1229H30.9481C29.9179 31.1229 29.0486 30.3181 29.0486 29.3522V23.2672C29.0486 22.2691 29.9501 21.432 30.9803 21.432H46.1123V17.7617" fill="#004181"/>
<path d="M87.9674 29.2546C87.9674 30.2205 87.0981 30.9932 86.0035 30.9932H76.8277C75.733 30.9932 74.8638 30.2205 74.8638 29.2546V23.556C74.8638 22.4613 75.7652 21.5921 76.9243 21.6243H86.0035C87.0981 21.6243 87.9674 22.397 87.9674 23.3628V29.2546ZM88.0318 17.793H74.735C71.9339 18.0827 70.2598 19.6281 70.2598 21.914V30.7035C70.5495 33.2791 71.9983 34.5347 74.8638 34.7923H88.064C91.0904 34.6313 92.5392 32.9572 92.5392 30.7035V21.914C92.5392 19.6603 90.7684 18.0827 88.064 17.793" fill="#004181"/>
<path d="M121.516 17.8262H126.055V34.8255H121.516V17.8262Z" fill="#004181"/>
<path d="M113.724 17.9863L106.287 30.3495L98.8496 17.9863H93.7305L103.872 34.8247H108.734L118.875 17.9863" fill="#004181"/>
<path d="M54.613 30.929V17.9863H50.2666V34.5349H68.586V30.929" fill="#004181"/>
<path d="M143.57 24.0078H146.661C149.172 24.1687 150.879 25.1024 150.879 28.161V30.7045C150.879 33.8596 149.14 34.6967 146.661 34.8577H130.499V31.123H145.405C145.405 31.123 146.275 31.2196 146.242 30.1571C146.242 29.964 146.242 29.4166 146.242 29.2557C146.242 28.2576 145.437 28.322 145.437 28.322H134.169H133.686C132.817 28.2576 129.919 27.8712 129.983 24.2975V21.9794C129.951 18.792 131.851 17.8262 134.33 17.8262H150.46V21.5609H135.811C135.811 21.5609 134.684 21.4643 134.684 22.398C134.684 23.3316 134.684 23.1707 134.684 23.3316C134.684 24.1687 135.94 24.0721 135.94 24.0721" fill="#004181"/>
<path d="M8.6049 5.26921H3.357V0.858398H0.87793V12.1269H3.357V7.45852H8.6049V12.1269H11.084V0.858398H8.6049" fill="#004181"/>
<path d="M64.7861 3.07991H69.3901V6.36387H64.1422V3.72382C64.1422 3.59504 64.1422 3.36967 64.2388 3.20869C64.3676 3.04771 64.5285 3.07991 64.7861 3.07991ZM62.2426 1.50231C61.7275 2.04964 61.6953 2.79014 61.6953 3.24088V12.1269H64.1744V8.52098H69.4223V12.1269H71.9014V0.858398H64.2066C63.4661 0.858398 62.79 0.954986 62.2748 1.50231" fill="#004181"/>
<path d="M44.7924 0.858398H37.0654V12.1269H39.5445V3.04771H44.1807C44.4061 3.04771 44.5992 3.04771 44.728 3.17649C44.8246 3.30527 44.8246 3.56284 44.8246 3.69162V12.1269H47.3037V3.27308C47.3037 2.82234 47.2715 2.04964 46.7563 1.50231C46.2412 0.954986 45.5651 0.858398 44.8246 0.858398" fill="#004181"/>
<path d="M32.3969 9.29368C32.3969 9.42246 32.3969 9.64783 32.3003 9.80881C32.1715 9.96979 31.9783 9.93759 31.7529 9.93759H27.1168V0.858398H24.6377V12.1269H32.3325C33.073 12.1269 33.7491 12.0303 34.2642 11.483C34.7793 10.9679 34.8115 10.1952 34.8115 9.71222V0.858398H32.3325" fill="#004181"/>
<path d="M57.1879 9.29368C57.1879 9.42246 57.1879 9.64783 57.0913 9.80881C56.9625 9.96979 56.8016 9.93759 56.544 9.93759H51.9078V3.07991H56.544C56.7694 3.07991 56.9625 3.0799 57.0913 3.20869C57.1879 3.33747 57.1879 3.59504 57.1879 3.72382V9.29368ZM59.667 3.27308C59.667 2.82234 59.6348 2.04964 59.1197 1.50231C58.6045 0.954986 57.9284 0.858398 57.1879 0.858398H49.4609V12.1269H57.1879C57.9284 12.1269 58.6045 12.0303 59.1197 11.483C59.6348 10.9357 59.667 10.1952 59.667 9.71222" fill="#004181"/>
<path d="M17.8771 5.78435L14.8829 0.858398H11.9531L16.5571 7.97366V12.1269H19.1972V7.97366L23.8011 0.858398H20.8713" fill="#004181"/>
<path d="M74.3486 0.858398H76.9887V12.1269H74.3486V0.858398Z" fill="#004181"/>
</svg>
