<svg width="151" height="24" viewBox="0 0 151 24" fill="none" xmlns="http://www.w3.org/2000/svg">
<path fill-rule="evenodd" clip-rule="evenodd" d="M83.0362 11.1582C83.0362 11.1582 81.5391 10.2224 80.6969 9.94169C80.6969 9.94169 77.8897 8.63167 77.3283 8.07023C77.3283 8.07023 76.2054 7.04092 76.8604 5.82447C76.8604 5.82447 77.1411 5.07589 78.264 5.07589C78.264 5.07589 79.7612 5.07589 79.7612 6.38591V8.1638H85.0949V5.63732C85.0949 5.63732 85.4691 1.42653 78.7319 1.23938C78.7319 1.23938 73.3982 0.865087 71.901 3.76586C71.901 3.76586 71.3396 4.42087 71.3396 6.57306V8.1638C71.3396 8.1638 71.3396 10.0353 72.1817 11.1582C72.1817 11.1582 72.7432 11.9067 74.0532 12.8425C74.0532 12.8425 76.7668 14.2461 78.3576 15.0882C78.3576 15.0882 79.9483 16.024 79.7612 17.5211C79.7612 17.5211 79.6676 19.0183 78.0769 18.9247C78.0769 18.9247 76.6733 18.9247 76.6733 17.4276V15.6497H70.9653V18.1761C70.9653 18.1761 70.7781 23.042 78.1704 23.042C78.1704 23.042 85.1884 23.2291 85.5627 18.0826V16.024C85.5627 16.024 85.8434 12.936 83.0362 11.2517V11.1582Z" fill="#293795"/>
<path fill-rule="evenodd" clip-rule="evenodd" d="M55.6202 1.80078L53.8423 13.0296H53.3745L51.6902 1.89435H42.7071L42.2393 22.2933H47.5729V6.85374H48.0408L50.848 22.2933H56.4624L59.176 6.85374H59.5503L59.7375 22.2933H65.0711L64.5097 1.80078H55.6202Z" fill="#293795"/>
<path fill-rule="evenodd" clip-rule="evenodd" d="M23.9923 1.8916L20.4365 22.197H26.1445L28.2967 6.38312H28.7645L30.8232 22.197H36.5311L32.9753 1.8916H23.9923Z" fill="#293795"/>
<path fill-rule="evenodd" clip-rule="evenodd" d="M143.86 10.8781V13.8725H145.358V17.0539C145.358 18.6447 144.048 18.6447 144.048 18.6447C142.363 18.6447 142.457 17.1475 142.457 17.1475V6.0123C142.457 4.88942 143.954 4.79585 143.954 4.79585C145.358 4.79585 145.358 6.19944 145.358 6.19944V7.88377H150.691C150.878 4.6087 150.223 3.76654 150.223 3.76654C148.913 0.772195 143.86 0.959342 143.86 0.959342C136.094 0.959342 136.936 6.94803 136.936 6.94803V17.709C137.123 23.3234 144.703 22.7619 144.89 22.7619C148.258 22.3876 149.288 21.2647 149.288 21.2647C150.223 20.5162 150.504 19.5804 150.504 19.5804C150.785 19.019 150.878 17.2411 150.878 17.2411V10.8781H143.954H143.86Z" fill="#293795"/>
<path fill-rule="evenodd" clip-rule="evenodd" d="M126.081 14.246H125.801L120.373 1.80078H113.823V22.2933H119.157L118.783 9.75451H119.063L124.678 22.2933H131.041V1.80078H125.707L126.081 14.246Z" fill="#293795"/>
<path fill-rule="evenodd" clip-rule="evenodd" d="M100.816 17.1496C100.816 17.1496 100.816 18.8339 99.3183 18.8339C99.3183 18.8339 97.634 18.8339 97.634 17.1496V1.70996H91.8325V16.9624C91.8325 16.9624 91.271 22.764 99.4119 22.764C99.4119 22.764 106.523 22.764 106.523 17.2431V1.70996H100.816V17.056V17.1496Z" fill="#293795"/>
<path fill-rule="evenodd" clip-rule="evenodd" d="M12.8557 11.16C12.8557 11.16 11.3586 10.2242 10.5164 9.94352C10.5164 9.94352 7.70922 8.6335 7.14778 8.07206C7.14778 8.07206 6.0249 7.04275 6.67991 5.8263C6.67991 5.8263 6.96063 5.07771 8.08351 5.07771C8.08351 5.07771 9.58068 5.07772 9.58068 6.38774V8.16563H14.9144V5.63915C14.9144 5.63915 15.2887 1.42836 8.55138 1.24121C8.55138 1.24121 8.08351 1.24121 7.33492 1.24121C7.33492 1.24121 3.2177 1.42836 1.8141 3.67412C1.8141 3.67412 1.25266 4.32913 1.25266 6.48131V8.07206C1.25266 8.07206 1.25266 9.94353 2.09482 11.0664C2.09482 11.0664 2.65626 11.815 3.96628 12.7507C3.96628 12.7507 6.58633 14.1543 8.27065 14.9965C8.27065 14.9965 9.8614 15.9322 9.67425 17.4294C9.67425 17.4294 9.58068 18.9266 7.98994 18.833C7.98994 18.833 6.58634 18.833 6.58634 17.3358V15.5579H0.878364V18.0844C0.878364 18.0844 0.691218 22.9502 8.08351 22.9502C8.08351 22.9502 15.1015 23.1374 15.4758 17.9908V15.9322C15.4758 15.9322 15.7565 12.8443 12.9493 11.16H12.8557Z" fill="#293795"/>
</svg>
