<svg width="112" height="40" viewBox="0 0 112 40" fill="none" xmlns="http://www.w3.org/2000/svg">
<g clip-path="url(#clip0_49_3947)">
<path d="M103.31 0H9V39.7895H103.31V0Z" fill="#00539C"/>
<path d="M24.7899 13.7151C24.7899 14.6986 24.6082 15.5538 24.2447 16.2594C23.8812 16.9756 23.4002 17.5636 22.8015 18.0233C22.2029 18.483 21.5294 18.8251 20.781 19.0389C20.0327 19.2527 19.263 19.3703 18.4933 19.3703H14.292V8.12402H18.3543C19.1454 8.12402 19.9365 8.22024 20.7062 8.40197C21.4759 8.58371 22.1708 8.89373 22.7694 9.32134C23.3681 9.74896 23.8599 10.3262 24.234 11.0425C24.6082 11.7587 24.7899 12.6567 24.7899 13.7151ZM21.9677 13.7151C21.9677 13.0843 21.8608 12.5498 21.6576 12.1329C21.4545 11.716 21.1766 11.3846 20.8345 11.128C20.4924 10.8821 20.0969 10.7004 19.6585 10.5935C19.2202 10.4866 18.7713 10.4331 18.3009 10.4331H16.9432V17.0077H18.226C18.7178 17.0077 19.1775 16.9543 19.6265 16.8367C20.0755 16.7298 20.471 16.548 20.8131 16.2915C21.1552 16.0349 21.4331 15.7035 21.6363 15.2759C21.8608 14.8589 21.9677 14.3351 21.9677 13.7151Z" fill="white"/>
<path d="M30.4126 13.598C30.295 13.5659 30.1774 13.5445 30.0705 13.5338C29.9636 13.5231 29.846 13.5338 29.7498 13.5338C29.397 13.5338 29.1084 13.598 28.8732 13.7263C28.638 13.8545 28.4456 14.0042 28.2959 14.1859C28.157 14.3677 28.0501 14.5601 27.9859 14.7739C27.9218 14.9877 27.8897 15.1695 27.8897 15.3298V19.3815H25.2812V11.4813H27.7935V12.6251H27.8256C28.0287 12.2189 28.3173 11.8875 28.6808 11.6309C29.0549 11.3744 29.4826 11.2461 29.9636 11.2461C30.4447 11.2461 30.1774 11.2461 30.2736 11.2675C30.3699 11.2889 30.4554 11.2995 30.5195 11.3102L30.4126 13.6087V13.598Z" fill="white"/>
<path d="M52.061 18.6225C52.061 19.3922 51.9541 20.0657 51.7296 20.643C51.5051 21.2096 51.195 21.6906 50.7888 22.0648C50.3826 22.4389 49.9015 22.7169 49.3242 22.9093C48.747 23.0911 48.1055 23.1873 47.4107 23.1873C46.7158 23.1873 45.9995 23.0804 45.2619 22.8666C44.5243 22.6528 43.8828 22.3427 43.3483 21.9472L44.6525 20.0871C45.0374 20.4292 45.4543 20.675 45.914 20.8461C46.3737 21.0064 46.8227 21.092 47.2717 21.092C48.0307 21.092 48.5973 20.8888 48.9608 20.4933C49.3242 20.0871 49.506 19.5525 49.506 18.8897V18.4087H49.4632C49.2173 18.7294 48.8966 18.9753 48.4797 19.1677C48.0628 19.3601 47.5924 19.4563 47.0686 19.4563C46.5447 19.4563 45.9354 19.3494 45.465 19.1356C44.9946 18.9218 44.6098 18.6225 44.2784 18.259C43.9577 17.8849 43.7118 17.4572 43.5407 16.9655C43.3697 16.4737 43.2842 15.9499 43.2842 15.4047C43.2842 14.8595 43.3697 14.325 43.5407 13.8332C43.7118 13.3308 43.9577 12.8925 44.2784 12.5183C44.5991 12.1334 44.9946 11.8341 45.465 11.5989C45.9354 11.3744 46.4592 11.2568 47.0579 11.2568C47.6565 11.2568 48.0307 11.353 48.4904 11.5562C48.9501 11.7593 49.3135 12.0693 49.5808 12.4969H49.6129V11.4813H52.0716V18.6225H52.061ZM49.5808 15.3619C49.5808 15.0947 49.538 14.8488 49.4418 14.6029C49.3563 14.357 49.2173 14.1432 49.057 13.9615C48.8859 13.7798 48.6828 13.6301 48.4583 13.5232C48.2231 13.4163 47.9559 13.3628 47.6672 13.3628C47.3786 13.3628 47.1113 13.4163 46.8868 13.5232C46.6623 13.6301 46.4699 13.7691 46.3095 13.9508C46.1492 14.1325 46.0316 14.3463 45.9461 14.5815C45.8606 14.8274 45.8178 15.084 45.8178 15.3619C45.8178 15.6399 45.8606 15.8751 45.9461 16.1209C46.0316 16.3668 46.1492 16.5806 46.3095 16.7624C46.4699 16.9441 46.6623 17.0938 46.8868 17.2114C47.1113 17.3183 47.3786 17.3824 47.6672 17.3824C47.9559 17.3824 48.2338 17.329 48.469 17.2114C48.7042 17.0938 48.9073 16.9548 49.0677 16.7731C49.228 16.5913 49.3563 16.3775 49.4525 16.1423C49.538 15.8964 49.5808 15.6399 49.5808 15.3619Z" fill="white"/>
<path d="M52.8205 12.5395C53.2908 12.0905 53.8253 11.7591 54.4454 11.5453C55.0654 11.3208 55.6962 11.2139 56.3376 11.2139C56.979 11.2139 57.567 11.2994 58.0267 11.4597C58.4863 11.6201 58.8605 11.8767 59.1491 12.2188C59.4378 12.5609 59.6409 12.9992 59.7799 13.523C59.9082 14.0468 59.983 14.6669 59.983 15.3938V19.3813H57.599V18.5368H57.5563C57.3532 18.8682 57.0538 19.114 56.6476 19.2958C56.2414 19.4775 55.8031 19.563 55.322 19.563C54.8409 19.563 54.6806 19.5203 54.3385 19.4347C53.9964 19.3492 53.6864 19.2103 53.4084 19.0178C53.1305 18.8254 52.8953 18.5688 52.7135 18.2588C52.5318 17.9381 52.4463 17.5532 52.4463 17.0829C52.4463 16.6125 52.6066 16.0459 52.9167 15.7038C53.2267 15.351 53.6329 15.0838 54.1247 14.8913C54.6164 14.6989 55.1616 14.5706 55.771 14.5065C56.3696 14.4424 56.9576 14.4103 57.5349 14.4103V14.282C57.5349 13.8865 57.3959 13.5978 57.118 13.4161C56.84 13.2343 56.5086 13.1381 56.1024 13.1381C55.6962 13.1381 55.3754 13.213 55.0334 13.3733C54.6913 13.5337 54.3919 13.7261 54.1567 13.9399L52.8205 12.5395ZM57.599 15.9176H57.2676C56.979 15.9176 56.6904 15.9283 56.4017 15.9604C56.1131 15.9818 55.8458 16.0352 55.6213 16.11C55.3968 16.1849 55.2044 16.2918 55.0547 16.4308C54.9051 16.5697 54.8302 16.7622 54.8302 16.9973C54.8302 17.2325 54.8623 17.2753 54.9371 17.3822C55.0013 17.4891 55.0975 17.5746 55.2044 17.6388C55.3113 17.7029 55.4289 17.7457 55.5679 17.7777C55.7068 17.7991 55.8351 17.8205 55.9634 17.8205C56.4979 17.8205 56.8935 17.6708 57.1821 17.3822C57.4601 17.0936 57.599 16.698 57.599 16.1956V15.9176Z" fill="white"/>
<path d="M65.7984 13.598C65.6808 13.5659 65.5632 13.5445 65.4563 13.5338C65.3387 13.5338 65.2318 13.5338 65.1249 13.5338C64.7721 13.5338 64.4834 13.598 64.2483 13.7263C64.0131 13.8545 63.8206 14.0042 63.6817 14.1859C63.5427 14.3677 63.4358 14.5601 63.3717 14.7739C63.3075 14.9877 63.2754 15.1695 63.2754 15.3298V19.3815H60.667V11.4813H63.1792V12.6251H63.2113C63.4144 12.2189 63.7031 11.8875 64.0665 11.6309C64.4407 11.3744 64.8683 11.2461 65.3494 11.2461C65.8304 11.2461 65.5632 11.2461 65.6594 11.2675C65.7556 11.2889 65.8411 11.2995 65.9053 11.3102L65.7984 13.6087V13.598Z" fill="white"/>
<path d="M77.3759 19.3708H74.7568L73.196 14.4426H73.1639L71.6459 19.3708H69.0268L66.29 11.46H69.1016L70.47 16.463H70.5127L71.9239 11.46H74.5537L76.0076 16.463H76.0396L77.4187 11.46H80.1234L77.3759 19.3708Z" fill="white"/>
<path d="M80.0694 12.5395C80.5398 12.0905 81.0743 11.7591 81.6944 11.5453C82.3144 11.3208 82.9451 11.2139 83.5865 11.2139C84.228 11.2139 84.8159 11.2994 85.2756 11.4597C85.7353 11.6201 86.1095 11.8767 86.3981 12.2188C86.6868 12.5609 86.8899 12.9992 87.0288 13.523C87.1571 14.0468 87.232 14.6669 87.232 15.3938V19.3813H84.848V18.5368H84.7946C84.5914 18.8682 84.2921 19.114 83.8859 19.2958C83.4796 19.4775 83.0413 19.563 82.5603 19.563C82.0792 19.563 81.9189 19.5203 81.5768 19.4347C81.2347 19.3492 80.9247 19.2103 80.6467 19.0178C80.3688 18.8254 80.1336 18.5688 79.9518 18.2588C79.7701 17.9381 79.6846 17.5532 79.6846 17.0829C79.6846 16.6125 79.8449 16.0459 80.1549 15.7038C80.465 15.351 80.8712 15.0838 81.363 14.8913C81.8547 14.6989 82.3999 14.5706 83.0093 14.5065C83.6079 14.4424 84.1959 14.4103 84.7732 14.4103V14.282C84.7732 13.8865 84.6342 13.5978 84.3563 13.4161C84.0783 13.2343 83.7469 13.1381 83.3407 13.1381C82.9344 13.1381 82.6137 13.213 82.2716 13.3733C81.9295 13.5337 81.6302 13.7261 81.395 13.9399L80.0694 12.5395ZM84.848 15.9176H84.5166C84.228 15.9176 83.9393 15.9283 83.6507 15.9604C83.362 15.9818 83.0948 16.0352 82.8703 16.11C82.6458 16.1849 82.4534 16.2918 82.3037 16.4308C82.154 16.5697 82.0792 16.7622 82.0792 16.9973C82.0792 17.2325 82.1113 17.2753 82.1861 17.3822C82.2503 17.4891 82.3465 17.5746 82.4534 17.6388C82.5603 17.7029 82.6779 17.7457 82.8168 17.7777C82.9558 17.7991 83.0841 17.8205 83.2124 17.8205C83.7469 17.8205 84.1424 17.6708 84.4311 17.3822C84.709 17.0936 84.848 16.698 84.848 16.1956V15.9176Z" fill="white"/>
<path d="M90.5672 7.35449H87.916V19.3598H90.5672V7.35449Z" fill="white"/>
<path d="M96.4049 13.7901C96.1911 13.587 95.9453 13.416 95.6566 13.277C95.368 13.138 95.0687 13.0739 94.7479 13.0739C94.4272 13.0739 94.2776 13.1166 94.0745 13.2129C93.8713 13.3091 93.7644 13.4694 93.7644 13.7046C93.7644 13.9398 93.882 14.0895 94.1065 14.1857C94.331 14.2819 94.7052 14.3888 95.2076 14.5064C95.507 14.5705 95.8063 14.6561 96.1056 14.7737C96.4049 14.8912 96.6829 15.0409 96.9181 15.2333C97.164 15.4258 97.3564 15.661 97.5061 15.9282C97.6557 16.2062 97.7306 16.5269 97.7306 16.9117C97.7306 17.2966 97.6343 17.8311 97.4312 18.1732C97.2281 18.5153 96.9715 18.7932 96.6401 19.007C96.3194 19.2208 95.956 19.3705 95.5497 19.4667C95.1435 19.5629 94.7479 19.6057 94.3417 19.6057C93.7003 19.6057 93.0589 19.4988 92.4495 19.2957C91.8295 19.0926 91.3163 18.7825 90.8994 18.387L92.364 16.8476C92.5992 17.1041 92.8771 17.318 93.2192 17.4783C93.5613 17.6494 93.9141 17.7349 94.299 17.7349C94.6838 17.7349 94.7159 17.6814 94.9297 17.5852C95.1328 17.489 95.2397 17.3073 95.2397 17.0507C95.2397 16.7941 95.1114 16.6231 94.8548 16.5055C94.5983 16.3879 94.2027 16.2703 93.6682 16.142C93.3903 16.0779 93.1123 15.9924 92.8451 15.8854C92.5671 15.7785 92.3212 15.6396 92.1074 15.4578C91.8936 15.2761 91.7119 15.0516 91.5729 14.795C91.4339 14.5278 91.3698 14.2178 91.3698 13.8436C91.3698 13.4694 91.466 12.967 91.6691 12.6249C91.8722 12.2935 92.1288 12.0155 92.4495 11.8124C92.7702 11.5986 93.123 11.449 93.5079 11.342C93.8927 11.2458 94.2776 11.1924 94.6624 11.1924C95.2504 11.1924 95.8384 11.2886 96.4049 11.4703C96.9715 11.6521 97.4526 11.93 97.8375 12.3042L96.4049 13.7901Z" fill="white"/>
<path d="M39.3075 8.12402H36.7632L32.0273 19.3703H35.181C35.8331 18.4509 36.8701 17.8522 38.0353 17.8522C39.2006 17.8522 40.2375 18.4509 40.8896 19.3703H44.0433L39.3075 8.12402ZM38.0353 16.2059C37.3832 16.2059 36.699 16.3449 35.9935 16.6549L38.0353 11.1173L40.0772 16.6549C39.3716 16.3449 38.6874 16.2059 38.0353 16.2059Z" fill="white"/>
<path d="M55.9521 28.1896H53.6216V28.8524C53.6216 29.5473 54.1026 29.8038 54.9792 29.8038C55.8558 29.8038 56.2621 29.6862 56.2621 29.6862V30.5735C56.2621 30.5735 55.5993 30.7125 54.7868 30.7125C53.1191 30.7125 52.5098 29.9963 52.5098 28.8203V24.9932H56.2514V25.9018H53.6109V27.2916H55.9414V28.1896H55.9521Z" fill="#1DBFDA"/>
<path d="M58.026 26.2334V28.9915C58.026 29.7291 58.4643 29.804 58.9026 29.804C59.3409 29.804 59.683 29.6971 59.683 29.6971V26.2334H60.7734V30.2316C60.7734 31.632 60.132 32.359 58.6888 32.359C57.2456 32.359 57.3953 32.1559 57.3953 32.1559L57.5343 31.322C57.5343 31.322 57.9619 31.4931 58.5712 31.4931C59.4371 31.4931 59.7472 31.0975 59.7579 30.5737C59.5227 30.6271 59.2233 30.6699 58.8599 30.6699C57.6305 30.6699 56.9463 30.2744 56.9463 28.8953V26.2441H58.026V26.2334Z" fill="#1DBFDA"/>
<path d="M62.5807 28.6927C62.5807 29.2272 62.8051 29.8366 63.7138 29.8366C64.6225 29.8366 64.8791 29.6441 64.8791 29.6441L65.0181 30.4673C65.0181 30.4673 64.4408 30.7025 63.6069 30.7025C62.1958 30.7025 61.4902 29.9114 61.4902 28.4147C61.4902 26.9181 62.0568 26.1377 63.4359 26.1377C64.8149 26.1377 65.2319 26.9502 65.2319 27.9337C65.2319 28.9172 65.1998 28.4361 65.1463 28.6927H62.5807ZM64.1949 27.8695C64.1949 27.4312 64.088 26.9822 63.4359 26.9822C62.7838 26.9822 62.6234 27.4847 62.5913 27.9764H64.1949V27.8695Z" fill="#1DBFDA"/>
<path d="M71.7957 24.9824V30.6055H70.6732V28.2216H68.4389V30.6055H67.3164V24.9824H68.4389V27.2702H70.6732V24.9824H71.7957Z" fill="#1DBFDA"/>
<path d="M74.543 30.7025C73.0357 30.7025 72.5439 29.719 72.5439 28.4254C72.5439 27.1319 73.0357 26.1377 74.543 26.1377C76.0504 26.1377 76.5421 27.1319 76.5421 28.4254C76.5421 29.719 76.0397 30.7025 74.543 30.7025ZM74.543 27.0143C73.6878 27.0143 73.6344 27.8161 73.6344 28.4254C73.6344 29.0348 73.6878 29.8259 74.543 29.8259C75.3983 29.8259 75.441 29.0455 75.441 28.4254C75.441 27.8161 75.3983 27.0143 74.543 27.0143Z" fill="#1DBFDA"/>
<path d="M79.0219 27.9337C79.7702 28.1368 80.4437 28.4361 80.4437 29.3555C80.4437 30.2749 79.6847 30.7132 78.5836 30.7132C77.4825 30.7132 77.2152 30.4887 77.2152 30.4887L77.3542 29.6655C77.3542 29.6655 77.8673 29.8579 78.5622 29.8579C79.2571 29.8579 79.4067 29.7297 79.4067 29.4517C79.4067 29.1738 79.0326 29.0134 78.5408 28.8851C77.8673 28.7141 77.0869 28.3934 77.0869 27.4526C77.0869 26.5119 77.9635 26.1377 78.9256 26.1377C79.8878 26.1377 80.1337 26.2767 80.2406 26.3087L80.0802 27.1319C80.0802 27.1319 79.6312 26.9929 78.9898 26.9929C78.3484 26.9929 78.1132 27.0998 78.1132 27.3885C78.1132 27.6985 78.5087 27.7947 79.0219 27.9337Z" fill="#1DBFDA"/>
<path d="M83.0203 30.7025C82.6996 30.7025 82.4537 30.649 82.2613 30.5956V32.2526H81.1602V26.5012C81.1602 26.5012 81.9299 26.1377 82.9348 26.1377C84.4421 26.1377 85.0408 26.9502 85.0408 28.4254C85.0408 29.9007 84.41 30.7025 83.0203 30.7025ZM82.9348 27.0143C82.582 27.0143 82.3468 27.0784 82.2506 27.1105V29.719C82.3468 29.7617 82.6034 29.8259 82.9348 29.8259C83.7365 29.8259 83.9396 29.27 83.9396 28.4254C83.9396 27.5809 83.7579 27.0143 82.9348 27.0143Z" fill="#1DBFDA"/>
<path d="M86.9334 25.09C86.9334 25.4749 86.6768 25.6566 86.3134 25.6566C85.9499 25.6566 85.6826 25.4642 85.6826 25.09C85.6826 24.7159 85.9285 24.5234 86.3134 24.5234C86.6982 24.5234 86.9334 24.7266 86.9334 25.09ZM86.8479 30.6062H85.7575V26.2232H86.8479V30.6062Z" fill="#1DBFDA"/>
<path d="M89.039 27.1V29.0242C89.039 29.5267 89.21 29.826 89.6804 29.826C90.1508 29.826 90.2684 29.7191 90.2684 29.7191L90.3967 30.5209C90.3967 30.5209 90.0439 30.7133 89.4345 30.7133C88.8252 30.7133 87.9486 30.3285 87.9486 29.0349V27.1107H87.4141V26.2448H87.9486V25.1223L89.039 24.9619V26.2341H90.2042V27.1H89.039Z" fill="#1DBFDA"/>
<path d="M93.4006 28.2116V27.7305C93.4006 27.2174 93.0478 27.0249 92.4598 27.0249C91.8719 27.0249 91.2518 27.2601 91.2518 27.2601L91.0487 26.4477C91.1984 26.3728 91.7864 26.127 92.6416 26.127C93.4968 26.127 94.491 26.5332 94.491 27.7412V30.3283C94.491 30.3283 93.7961 30.6917 92.6309 30.6917C91.4656 30.6917 90.8242 30.3176 90.8242 29.4196C90.8242 28.5216 91.4229 28.1474 92.6416 28.1474C92.9195 28.1581 93.1654 28.1688 93.4006 28.2116ZM93.4006 29.89V28.9278C93.1975 28.9064 92.9516 28.8851 92.7485 28.8851C92.2674 28.8851 91.9146 28.9813 91.9146 29.4517C91.9146 29.922 92.246 30.0076 92.663 30.0076C93.0799 29.9862 93.4006 29.89 93.4006 29.89Z" fill="#1DBFDA"/>
<path d="M96.4049 24.5869H95.3145V30.6056H96.4049V24.5869Z" fill="#1DBFDA"/>
</g>
<defs>
<clipPath id="clip0_49_3947">
<rect width="94.1286" height="39.7147" fill="white" transform="translate(9)"/>
</clipPath>
</defs>
</svg>
