<svg width="117" height="38" viewBox="0 0 117 38" fill="none" xmlns="http://www.w3.org/2000/svg">
<path d="M25.5404 9.84077C25.6153 9.84077 25.6996 9.82204 25.7745 9.81268C26.7203 9.70968 27.6567 9.77522 28.565 10.103C29.8478 10.5712 30.7093 11.4607 31.243 12.6968C31.4584 13.1837 31.5708 13.6893 31.6176 14.2043C31.7206 15.1969 31.6644 16.1895 31.3929 17.1633C30.9153 18.8488 29.8759 20.0661 28.3028 20.8059C27.8908 21.0025 27.4507 21.1524 27.0012 21.2928C24.6508 21.9951 22.3099 22.6787 19.9595 23.3716C19.7067 23.4465 19.4632 23.5214 19.2104 23.5589C18.4894 23.6525 17.9931 23.3342 17.7777 22.6506C17.1691 20.7684 16.5698 18.905 15.9611 17.0229C14.7064 13.1837 13.4797 9.34448 12.2437 5.49592C12.1594 5.23373 12.0564 4.98091 12.0096 4.70935C11.9628 4.46589 11.9628 4.22243 11.9909 3.98833C12.0283 3.64187 12.2062 3.34222 12.5152 3.16431C12.7025 3.05194 12.8898 2.9583 13.0958 2.90212C15.1746 2.34965 17.244 1.81591 19.3322 1.2728C19.997 1.09489 20.6525 0.907608 21.3173 0.757786C23.059 0.373866 24.5853 0.757786 25.812 2.06873C26.6828 2.99576 27.2259 4.12879 27.4226 5.40228C27.6379 6.81623 27.3008 8.08972 26.2895 9.14784C26.1678 9.26957 26.0367 9.38194 25.915 9.48494C25.7932 9.58795 25.6528 9.69095 25.5404 9.77522C25.5404 9.79395 25.5404 9.81268 25.5404 9.82204V9.84077ZM19.0044 12.163H18.9482C18.9014 12.0413 18.8546 11.9102 18.8171 11.7978C18.2928 10.1872 17.7684 8.56728 17.244 6.94732C17.2159 6.86305 17.1878 6.78814 17.1597 6.71323C16.8601 6.75068 14.3412 7.57471 14.2101 7.68707C15.6802 12.3597 17.2815 16.9854 18.6954 21.6955C19.5194 21.4239 20.3341 21.1617 21.1675 20.8902C21.1675 20.8059 21.1487 20.7404 21.1394 20.6748C21.0645 20.3658 20.9896 20.0381 20.924 19.729C20.9053 19.6541 20.8678 19.5792 20.9427 19.4856C21.0083 19.5324 21.0645 19.5792 21.13 19.626C21.6169 20.0006 22.16 20.2534 22.7874 20.2909C24.3044 20.3845 25.5311 19.7946 26.4768 18.6241C27.1604 17.7814 27.4413 16.7701 27.4413 15.7026C27.4413 14.6351 27.0855 13.1462 26.43 12.0038C26.0554 11.339 25.5591 10.7772 24.9318 10.3558C24.2482 9.89695 23.5084 9.66285 22.6844 9.68158C22.0383 9.70031 21.4297 9.86886 20.8585 10.1591C20.0344 10.5712 19.4258 11.1704 19.0981 12.06C19.0512 12.0787 19.0138 12.1256 18.995 12.163H19.0044Z" fill="#281C64"/>
<path d="M64.2595 12.8833C64.0067 10.4019 64.091 7.9017 64.0723 5.40154H66.2634V16.0202C66.1042 16.067 64.2033 16.0858 63.7445 16.0389C63.0235 14.7467 62.3118 13.4545 61.5908 12.1529C60.8698 10.8513 60.1862 9.54975 59.6244 8.17326C59.6057 8.17326 59.5963 8.17325 59.5776 8.19198C59.6057 9.50293 59.6431 10.7951 59.6619 12.1061C59.6806 13.417 59.6619 14.7186 59.6619 16.0483H57.4707V5.40154C57.5269 5.40154 57.5831 5.38281 57.6393 5.38281H60.0926C60.205 5.38281 60.2799 5.40154 60.3454 5.51391C61.2631 7.18068 62.2182 8.83809 63.1171 10.5142C63.5011 11.2259 63.8007 11.975 64.1284 12.7147C64.1565 12.7803 64.194 12.8458 64.2221 12.9114C64.2408 12.9114 64.2595 12.9114 64.2783 12.8927L64.2595 12.8833Z" fill="#281C64"/>
<path d="M36.5146 5.53278C36.7581 5.49532 36.9828 5.45787 37.2263 5.42977C38.3968 5.30804 39.5673 5.25186 40.7378 5.33614C41.4869 5.38296 42.1985 5.57023 42.8634 5.94479C44.3148 6.76881 44.5208 8.92251 42.9945 9.91508C42.7791 10.0555 42.5637 10.1679 42.3109 10.299C42.4045 10.3271 42.4701 10.3552 42.545 10.3833C43.369 10.6736 44.0058 11.1792 44.2773 12.022C44.6332 13.1456 44.4084 14.1569 43.5563 15.009C43.2098 15.3555 42.7697 15.5896 42.3109 15.7582C41.7584 15.9548 41.1872 16.0578 40.6067 16.1046C39.483 16.2076 38.3593 16.1795 37.2263 16.1046C36.9922 16.0859 36.7675 16.0484 36.524 16.0203V5.54214L36.5146 5.53278ZM38.9024 14.3348C38.968 14.3348 39.0335 14.3723 39.0991 14.3723C39.4736 14.3723 39.8669 14.391 40.2508 14.3723C40.6254 14.3442 40.9906 14.2318 41.309 14.0258C42.0955 13.5296 42.1704 12.1437 41.206 11.638C41.0561 11.5631 40.897 11.4976 40.7378 11.4414C40.1478 11.2728 39.5392 11.3009 38.9399 11.3197C38.9399 11.3197 38.9399 11.3197 38.9118 11.3478V14.3442L38.9024 14.3348ZM38.8931 9.60607C39.277 9.60607 39.6422 9.6248 39.998 9.60607C40.3819 9.58735 40.7565 9.50307 41.0842 9.29707C41.4962 9.02551 41.6742 8.65096 41.6273 8.16403C41.5805 7.7052 41.3277 7.39619 40.897 7.22764C40.8033 7.19019 40.7097 7.1621 40.6254 7.14337C40.0917 7.02164 39.5579 7.04973 39.0242 7.11528C38.9774 7.11528 38.9305 7.14337 38.8837 7.1621V9.6248L38.8931 9.60607Z" fill="#281C64"/>
<path d="M95.1427 10.5615C95.1239 11.4417 95.0303 12.2283 94.7587 12.9774C94.0939 14.7847 92.8111 15.8334 90.9102 16.1518C90.0768 16.2922 89.234 16.2735 88.4194 16.03C86.865 15.5806 85.8349 14.5599 85.2731 13.0617C84.936 12.1628 84.833 11.217 84.9079 10.2619C84.9735 9.43786 85.1701 8.63257 85.554 7.89282C86.4061 6.29159 87.7545 5.41138 89.5618 5.23347C90.2922 5.15856 91.0038 5.23347 91.7061 5.43948C93.1575 5.87958 94.1501 6.8347 94.7213 8.23928C95.0771 9.10076 95.1427 9.82178 95.1614 10.5615H95.1427ZM92.605 10.702C92.5582 10.3087 92.5208 9.89669 92.4459 9.50341C92.3335 8.93221 92.1088 8.40783 91.7342 7.95837C90.8353 6.8347 89.1591 6.87215 88.2696 7.91155C88.0261 8.19246 87.8388 8.51084 87.7171 8.8573C87.277 10.1027 87.2676 11.3481 87.7171 12.5935C87.8669 13.0055 88.0916 13.3707 88.41 13.6797C89.2902 14.5693 90.854 14.5412 91.6968 13.5486C91.9121 13.2958 92.0713 13.0242 92.2024 12.7246C92.474 12.0598 92.5582 11.3762 92.5957 10.6926L92.605 10.702Z" fill="#281C64"/>
<path d="M55.8505 10.6462C55.8317 11.6575 55.6725 12.6407 55.2137 13.5584C54.5208 14.9349 53.4158 15.7683 51.927 16.0866C51 16.2927 50.0448 16.2927 49.1272 16.0305C47.6102 15.5997 46.5989 14.6165 46.0184 13.1651C45.6625 12.2849 45.5502 11.3579 45.597 10.4215C45.6438 9.53192 45.8405 8.67044 46.2618 7.88387C47.1139 6.28265 48.4717 5.40244 50.2789 5.23389C51.1685 5.14961 52.0487 5.25262 52.8727 5.59908C54.193 6.15155 55.0264 7.14412 55.4946 8.4738C55.7568 9.18545 55.8411 9.90648 55.8505 10.6462ZM53.2941 10.5245C53.266 10.2904 53.2286 9.87838 53.1537 9.4851C53.0226 8.86708 52.7791 8.29588 52.3296 7.81832C51.4682 6.87257 49.9512 6.91003 49.1272 7.75278C48.7807 8.09924 48.5373 8.52062 48.3781 8.98881C48.0597 9.96266 48.0222 10.9459 48.2282 11.9478C48.35 12.5284 48.5747 13.0527 48.9586 13.5116C49.8576 14.6072 51.5805 14.5978 52.4701 13.4741C52.6667 13.2213 52.8166 12.9497 52.9383 12.6501C53.1911 12.0227 53.266 11.3672 53.2848 10.5245H53.2941Z" fill="#281C64"/>
<path d="M104.693 5.67332C104.515 6.31942 104.365 6.92808 104.187 7.56482C104.103 7.53673 104.028 7.50864 103.953 7.48991C103.111 7.19963 102.23 7.09663 101.35 7.26518C100.105 7.518 99.2808 8.24839 98.925 9.47506C98.6815 10.3084 98.6815 11.1606 98.925 11.9939C99.2902 13.2393 100.161 13.951 101.425 14.157C102.296 14.3068 103.157 14.2132 104 13.9416C104.047 13.9229 104.103 13.9135 104.15 13.8948C104.15 13.8948 104.169 13.8948 104.197 13.8948C104.309 14.5035 104.422 15.1215 104.534 15.7489C104.262 15.8987 103.991 15.9642 103.71 16.0204C102.465 16.2826 101.228 16.3201 99.9925 16.0017C97.9605 15.468 96.7338 14.1383 96.3405 12.0782C96.1064 10.8984 96.1813 9.72788 96.6121 8.60422C97.2207 7.02172 98.3819 6.01978 99.9831 5.51413C100.816 5.24257 101.678 5.16766 102.558 5.23321C103.129 5.27067 103.691 5.34558 104.234 5.51413C104.365 5.54222 104.506 5.5984 104.665 5.66395L104.693 5.67332Z" fill="#281C64"/>
<path d="M80.2813 14.0349H84.5138V16.0294H77.8936V5.41078C78.0527 5.36396 79.9817 5.35459 80.272 5.41078C80.272 5.97261 80.272 6.54381 80.272 7.115V14.0349H80.2813Z" fill="#281C64"/>
<path d="M19.0043 12.1627C19.0324 12.1159 19.0605 12.0784 19.0792 12.0316C19.3976 11.1607 20.0156 10.5521 20.8396 10.1307C21.4108 9.8498 22.0195 9.67188 22.6656 9.65315C23.4896 9.63443 24.2387 9.86853 24.9129 10.3274C25.5496 10.7581 26.0366 11.3199 26.4111 11.9754C27.0666 13.1272 27.4224 14.3632 27.4224 15.6741C27.4224 16.9851 27.1415 17.7436 26.4579 18.5957C25.5122 19.7662 24.2855 20.3561 22.7686 20.2625C22.1412 20.225 21.5981 19.9815 21.1112 19.5976C21.055 19.5508 20.9988 19.5133 20.9239 19.4572C20.849 19.5508 20.8958 19.6257 20.9052 19.7006C20.9801 20.0096 21.055 20.3374 21.1205 20.6464C21.1392 20.7119 21.1392 20.7775 21.1486 20.8617C20.3246 21.1333 19.5006 21.3955 18.6765 21.667C17.2907 16.9757 15.6801 12.3593 14.21 7.68674C14.3504 7.58373 16.8599 6.75035 17.1596 6.71289C17.1877 6.7878 17.2251 6.87208 17.2439 6.94699C17.7682 8.55758 18.2926 10.1775 18.817 11.7975C18.8545 11.9192 18.9013 12.0503 18.9481 12.1627C18.9762 12.1627 18.9949 12.1627 19.0136 12.1627H19.0043ZM24.8286 16.1236C24.7912 15.1029 24.5571 14.2696 24.1263 13.5017C23.9203 13.1365 23.6675 12.7994 23.3304 12.5372C22.8622 12.1627 22.3472 11.9848 21.7385 12.0222C20.334 12.1159 19.4444 13.3987 19.6785 14.719C19.7253 14.9999 19.8189 15.2715 19.9126 15.543C20.0718 16.0487 20.2216 16.5543 20.4089 17.0506C20.8021 18.09 21.9352 18.6893 22.9278 18.4552C23.808 18.2492 24.4353 17.7436 24.7069 16.854C24.7818 16.5731 24.8005 16.2734 24.8286 16.1142V16.1236Z" fill="#119BBE"/>
<path d="M70.3269 15.1503C70.2988 15.4031 70.2801 15.6466 70.252 15.8994C70.252 15.9462 70.2333 16.0024 70.2239 16.068C69.5497 16.068 68.8006 16.068 68.1357 16.068C68.2481 12.2849 68.1826 8.60492 68.2387 4.82191C68.3605 4.77509 70.4393 4.76573 70.6734 4.82191C70.6734 4.88746 70.6734 4.953 70.6734 5.01855C70.6734 6.3295 70.6734 7.53744 70.6546 8.85775C70.6546 8.96075 70.6546 9.06376 70.6546 9.1574V9.17612C70.6827 9.14803 70.7202 9.1293 70.7389 9.10121C71.179 8.53938 71.7783 8.2491 72.4806 8.14609C72.9675 8.07118 73.4544 8.08991 73.9226 8.23973C74.5313 8.42701 75.0182 8.77347 75.4021 9.26976C75.758 9.73796 75.9827 10.2623 76.1044 10.8429C76.3104 11.8355 76.273 12.828 75.9452 13.8019C75.683 14.5885 75.2336 15.2439 74.5407 15.7121C73.5668 16.3489 72.5368 16.48 71.4412 16.0399C71.0011 15.8619 70.6546 15.5529 70.3924 15.1597C70.3737 15.1222 70.3456 15.0941 70.3175 15.0567V15.1784L70.3269 15.1503ZM73.6136 13.2307C73.8009 12.5846 73.829 12.0227 73.7166 11.4516C73.6698 11.18 73.5668 10.9178 73.4263 10.6837C73.211 10.356 72.9207 10.1406 72.5368 10.0376C71.6378 9.79414 70.8232 10.4215 70.6921 11.2924C70.664 11.4796 70.664 11.6669 70.664 11.8542C70.664 12.2007 70.6453 12.5471 70.664 12.8936C70.7015 13.624 71.282 14.2326 71.9469 14.2794C72.5368 14.3356 73.0331 14.1484 73.3795 13.6427C73.4919 13.4929 73.5668 13.315 73.623 13.2213L73.6136 13.2307Z" fill="#119BBE"/>
<path d="M24.8277 16.1239C24.7996 16.2831 24.7808 16.5733 24.6966 16.8542C24.4344 17.7438 23.8164 18.2495 22.9174 18.4555C21.9249 18.6896 20.8012 18.0809 20.3985 17.0509C20.2019 16.5546 20.0614 16.049 19.9023 15.5433C19.818 15.2718 19.7243 15.0002 19.6682 14.7193C19.4341 13.399 20.3236 12.1161 21.7282 12.0225C22.3369 11.985 22.8612 12.1629 23.3201 12.5375C23.6478 12.809 23.91 13.1368 24.116 13.502C24.5467 14.2885 24.7902 15.1126 24.8277 16.1332V16.1239ZM24.5187 16.0115C24.4906 15.1875 24.1722 14.1294 23.7134 13.4458C23.4886 13.1181 23.2264 12.8184 22.8893 12.6124C21.9623 12.0131 20.4641 12.3409 20.0053 13.5956C19.8648 13.9702 19.8086 14.3635 19.9116 14.7474C20.1364 15.5246 20.3985 16.2831 20.642 17.0603C20.6607 17.1164 20.6982 17.1633 20.7263 17.2194C21.1196 17.9405 21.9155 18.3525 22.6927 18.2401C23.5261 18.1277 24.2096 17.5472 24.4063 16.7419C24.4718 16.4984 24.4906 16.2643 24.5187 16.0209V16.0115Z" fill="black"/>
<path d="M0.294922 37.5388V31.7051H2.62653C3.65656 31.7051 4.34013 32.2763 4.34013 33.1565C4.34013 34.0367 3.8813 34.327 3.30073 34.4206V34.4487C4.09667 34.5423 4.63041 35.0948 4.63041 35.872C4.63041 36.6492 3.8813 37.5201 2.64526 37.5201H0.304286L0.294922 37.5388ZM1.20322 34.1865H2.21452C3.00109 34.1865 3.43183 33.8588 3.43183 33.2876C3.43183 32.7164 3.05727 32.4448 2.4018 32.4448H1.19386V34.1865H1.20322ZM2.44862 36.799C3.26328 36.799 3.69402 36.4619 3.69402 35.8346C3.69402 35.2072 3.25391 34.8794 2.39244 34.8794H1.19386V36.799H2.43926H2.44862Z" fill="#333333"/>
<path d="M5.33301 31.7051H6.20385V37.5388H5.33301V31.7051Z" fill="#333333"/>
<path d="M6.90625 35.4134C6.90625 34.0463 7.71155 33.2129 8.91949 33.2129C10.1274 33.2129 10.9327 34.0463 10.9327 35.4134C10.9327 36.7805 10.1368 37.6233 8.91949 37.6233C7.70218 37.6233 6.90625 36.7899 6.90625 35.4134ZM10.0525 35.4134C10.0525 34.4677 9.61242 33.9339 8.92885 33.9339C8.24529 33.9339 7.80518 34.477 7.80518 35.4134C7.80518 36.3498 8.24529 36.9023 8.92885 36.9023C9.61242 36.9023 10.0525 36.3592 10.0525 35.4134Z" fill="#333333"/>
<path d="M14.4345 34.7478C14.3502 34.2983 14.0038 33.9331 13.4326 33.9331C12.8614 33.9331 12.3089 34.4949 12.3089 35.4032C12.3089 36.3115 12.7584 36.8734 13.4326 36.8734C14.1068 36.8734 14.3222 36.5831 14.4252 36.0868H15.2679C15.1743 36.9951 14.4533 37.6038 13.4326 37.6038C12.4119 37.6038 11.4287 36.7704 11.4287 35.3939C11.4287 34.0174 12.2246 33.1934 13.4326 33.1934C14.6405 33.1934 15.193 33.8956 15.2679 34.729H14.4345V34.7478Z" fill="#333333"/>
<path d="M18.5167 33.2868H19.5467L17.7863 35.1127L19.6122 37.5286H18.6009L17.1589 35.6371L16.7937 35.9929V37.5193H15.9229V31.6855H16.7937V35.0846L18.5073 33.2587L18.5167 33.2868Z" fill="#333333"/>
<path d="M22.6748 34.7478C22.5905 34.2983 22.244 33.9331 21.6728 33.9331C21.1016 33.9331 20.5492 34.4949 20.5492 35.4032C20.5492 36.3115 20.9986 36.8734 21.6728 36.8734C22.347 36.8734 22.5624 36.5831 22.6654 36.0868H23.5081C23.4145 36.9951 22.6935 37.6038 21.6728 37.6038C20.6522 37.6038 19.6689 36.7704 19.6689 35.3939C19.6689 34.0174 20.4649 33.1934 21.6728 33.1934C22.8808 33.1934 23.4332 33.8956 23.5081 34.729H22.6748V34.7478Z" fill="#333333"/>
<path d="M24.1729 31.7051H25.0343V33.9992H25.0531C25.2872 33.5029 25.7554 33.2127 26.4015 33.2127C27.3379 33.2127 27.8903 33.8307 27.8903 34.7952V37.5388H27.0101V34.9731C27.0101 34.3457 26.6917 33.9711 26.0831 33.9711C25.4744 33.9711 25.0437 34.4112 25.0437 35.0854V37.5388H24.1729V31.7051Z" fill="#333333"/>
<path d="M28.5645 36.3311C28.5645 35.5913 29.1357 35.1325 30.147 35.0763L31.3081 35.0108V34.683C31.3081 34.2148 30.9897 33.9246 30.456 33.9246C29.9222 33.9246 29.6319 34.168 29.557 34.5426H28.733C28.7798 33.7747 29.4353 33.2129 30.4841 33.2129C31.5328 33.2129 32.1696 33.756 32.1696 34.6081V37.539H31.3362V36.8367H31.3174C31.074 37.3049 30.5309 37.6046 29.9784 37.6046C29.145 37.6046 28.5645 37.0895 28.5645 36.3217V36.3311ZM31.3081 35.9472V35.6101L30.2593 35.6756C29.7349 35.7131 29.4447 35.9378 29.4447 36.303C29.4447 36.6682 29.7537 36.921 30.2219 36.921C30.6901 36.921 31.3081 36.4996 31.3081 35.9472Z" fill="#333333"/>
<path d="M32.9746 32.1639C32.9746 31.8829 33.1993 31.6582 33.4803 31.6582C33.7612 31.6582 33.9859 31.8829 33.9859 32.1639C33.9859 32.4448 33.7612 32.6601 33.4803 32.6601C33.1993 32.6601 32.9746 32.4354 32.9746 32.1639ZM33.0495 33.2875H33.9204V37.5387H33.0495V33.2875Z" fill="#333333"/>
<path d="M34.8101 33.2878H35.6435V33.9995H35.6623C35.8964 33.5125 36.3458 33.2129 37.0013 33.2129C37.9377 33.2129 38.4714 33.8122 38.4714 34.786V37.539H37.5912V34.9546C37.5912 34.3178 37.2916 33.962 36.6829 33.962C36.0743 33.962 35.6716 34.4021 35.6716 35.0576V37.539H34.8008V33.2878H34.8101Z" fill="#333333"/>
<path d="M49.4834 37.5388V31.7051H50.3917V37.5388H49.4834Z" fill="#333333"/>
<path d="M51.1689 35.4134C51.1689 34.0463 51.9742 33.2129 53.1822 33.2129C54.3901 33.2129 55.1954 34.0463 55.1954 35.4134C55.1954 36.7805 54.3995 37.6233 53.1822 37.6233C51.9649 37.6233 51.1689 36.7899 51.1689 35.4134ZM54.3152 35.4134C54.3152 34.4677 53.8751 33.9339 53.1916 33.9339C52.508 33.9339 52.0679 34.477 52.0679 35.4134C52.0679 36.3498 52.508 36.9023 53.1916 36.9023C53.8751 36.9023 54.3152 36.3592 54.3152 35.4134Z" fill="#333333"/>
<path d="M56.4496 37.5382V32.4911H54.6611V31.7139H59.1371V32.4911H57.3579V37.5382H56.4496Z" fill="#333333"/>
<path d="M71.9946 31.7047C73.727 31.7047 74.757 32.7722 74.757 34.6075C74.757 36.4428 73.7363 37.529 71.9946 37.529H69.9346V31.6953H71.9946V31.7047ZM70.8429 36.7518H71.9104C73.1464 36.7518 73.83 35.9933 73.83 34.6168C73.83 33.2404 73.1464 32.4819 71.9104 32.4819H70.8429V36.7518Z" fill="#333333"/>
<path d="M75.3369 36.3311C75.3369 35.5913 75.9081 35.1325 76.9194 35.0763L78.0805 35.0108V34.683C78.0805 34.2148 77.7622 33.9246 77.2284 33.9246C76.6947 33.9246 76.4044 34.168 76.3295 34.5426H75.5055C75.5523 33.7747 76.2078 33.2129 77.2565 33.2129C78.3053 33.2129 78.942 33.756 78.942 34.6081V37.539H78.1086V36.8367H78.0899C77.8464 37.3049 77.3033 37.6046 76.7509 37.6046C75.9175 37.6046 75.3369 37.0895 75.3369 36.3217V36.3311ZM78.0805 35.9472V35.6101L77.0318 35.6756C76.5074 35.7131 76.2171 35.9378 76.2171 36.303C76.2171 36.6682 76.5261 36.921 76.9943 36.921C77.4625 36.921 78.0805 36.4996 78.0805 35.9472Z" fill="#333333"/>
<path d="M80.9279 32.2857V33.2877H81.7332V33.9806H80.9279V36.3216C80.9279 36.6868 81.0871 36.8553 81.4429 36.8553C81.7988 36.8553 81.677 36.8553 81.7332 36.8366V37.5295C81.6396 37.5576 81.4429 37.567 81.2463 37.567C80.3848 37.567 80.0477 37.2392 80.0477 36.4152V33.9712H79.4297V33.2783H80.0477V32.2764H80.9279V32.2857Z" fill="#333333"/>
<path d="M82.2197 36.3311C82.2197 35.5913 82.7909 35.1325 83.8022 35.0763L84.9633 35.0108V34.683C84.9633 34.2148 84.645 33.9246 84.1112 33.9246C83.5775 33.9246 83.2872 34.168 83.2123 34.5426H82.3883C82.4351 33.7747 83.0906 33.2129 84.1393 33.2129C85.1881 33.2129 85.8248 33.756 85.8248 34.6081V37.539H84.9914V36.8367H84.9727C84.7292 37.3049 84.1861 37.6046 83.6337 37.6046C82.8003 37.6046 82.2197 37.0895 82.2197 36.3217V36.3311ZM84.9633 35.9472V35.6101L83.9146 35.6756C83.3902 35.7131 83.0999 35.9378 83.0999 36.303C83.0999 36.6682 83.4089 36.921 83.8771 36.921C84.3453 36.921 84.9633 36.4996 84.9633 35.9472Z" fill="#333333"/>
<path d="M89.0935 35.9094C89.159 36.4899 89.7209 36.8645 90.4887 36.8645C91.2566 36.8645 91.7528 36.4806 91.7528 35.9655C91.7528 35.4505 91.4345 35.2445 90.676 35.0572L89.9175 34.8793C88.85 34.6171 88.3538 34.1209 88.3538 33.3062C88.3538 32.4915 89.234 31.6113 90.4794 31.6113C91.7248 31.6113 92.5581 32.3043 92.5862 33.3062H91.706C91.6498 32.7256 91.1723 32.3698 90.47 32.3698C89.7677 32.3698 89.2901 32.7256 89.2901 33.2406C89.2901 33.7557 89.5992 33.8961 90.3483 34.0834L90.9944 34.2426C92.193 34.5235 92.6892 35.0104 92.6892 35.8625C92.6892 36.7147 91.8184 37.6323 90.4419 37.6323C89.0654 37.6323 88.2788 36.9675 88.2227 35.9094H89.1122H89.0935Z" fill="#333333"/>
<path d="M96.1904 34.7478C96.1061 34.2983 95.7596 33.9331 95.1884 33.9331C94.6172 33.9331 94.0648 34.4949 94.0648 35.4032C94.0648 36.3115 94.5142 36.8734 95.1884 36.8734C95.8626 36.8734 96.078 36.5831 96.181 36.0868H97.0238C96.9301 36.9951 96.2091 37.6038 95.1884 37.6038C94.1678 37.6038 93.1846 36.7704 93.1846 35.3939C93.1846 34.0174 93.9805 33.1934 95.1884 33.1934C96.3964 33.1934 96.9489 33.8956 97.0238 34.729H96.1904V34.7478Z" fill="#333333"/>
<path d="M97.6143 32.1639C97.6143 31.8829 97.839 31.6582 98.1199 31.6582C98.4008 31.6582 98.6256 31.8829 98.6256 32.1639C98.6256 32.4448 98.4008 32.6601 98.1199 32.6601C97.839 32.6601 97.6143 32.4354 97.6143 32.1639ZM97.6798 33.2875H98.5506V37.5387H97.6798V33.2875Z" fill="#333333"/>
<path d="M103.092 36.293C102.97 37.0702 102.239 37.6227 101.266 37.6227C100.292 37.6227 99.2617 36.78 99.2617 35.4409C99.2617 34.1019 100.03 33.2217 101.228 33.2217C102.427 33.2217 103.148 34.0551 103.148 35.3473V35.6469H100.142V35.7031C100.142 36.4429 100.582 36.9298 101.284 36.9298C101.987 36.9298 102.146 36.677 102.268 36.3118H103.092V36.293ZM100.142 35.0195H102.268C102.249 34.3734 101.837 33.9146 101.228 33.9146C100.619 33.9146 100.189 34.3828 100.142 35.0195Z" fill="#333333"/>
<path d="M103.813 33.2878H104.646V33.9995H104.665C104.899 33.5125 105.349 33.2129 106.004 33.2129C106.941 33.2129 107.474 33.8122 107.474 34.786V37.539H106.594V34.9546C106.594 34.3178 106.295 33.962 105.686 33.962C105.077 33.962 104.675 34.4021 104.675 35.0576V37.539H103.804V33.2878H103.813Z" fill="#333333"/>
<path d="M111.136 34.7478C111.051 34.2983 110.705 33.9331 110.134 33.9331C109.563 33.9331 109.01 34.4949 109.01 35.4032C109.01 36.3115 109.46 36.8734 110.134 36.8734C110.808 36.8734 111.023 36.5831 111.126 36.0868H111.969C111.875 36.9951 111.154 37.6038 110.134 37.6038C109.113 37.6038 108.13 36.7704 108.13 35.3939C108.13 34.0174 108.926 33.1934 110.134 33.1934C111.342 33.1934 111.894 33.8956 111.969 34.729H111.136V34.7478Z" fill="#333333"/>
<path d="M116.238 36.293C116.116 37.0702 115.386 37.6227 114.412 37.6227C113.438 37.6227 112.408 36.78 112.408 35.4409C112.408 34.1019 113.176 33.2217 114.375 33.2217C115.573 33.2217 116.294 34.0551 116.294 35.3473V35.6469H113.288V35.7031C113.288 36.4429 113.729 36.9298 114.431 36.9298C115.133 36.9298 115.292 36.677 115.414 36.3118H116.238V36.293ZM113.288 35.0195H115.414C115.395 34.3734 114.983 33.9146 114.375 33.9146C113.766 33.9146 113.335 34.3828 113.288 35.0195Z" fill="#333333"/>
<path d="M43.9497 31.4238H43.3691V37.6134H43.9497V31.4238Z" fill="#333333"/>
<path d="M64.3247 31.4521H63.7441V37.6417H64.3247V31.4521Z" fill="#333333"/>
</svg>
