<svg width="120" height="41" viewBox="0 0 120 41" fill="none" xmlns="http://www.w3.org/2000/svg">
<path d="M38.0929 35.5235C38.0929 35.6708 38.0719 35.797 38.0298 35.9233C37.9877 36.0496 37.9036 36.1337 37.8194 36.2389C37.7352 36.3231 37.6089 36.3863 37.4827 36.4283C37.3564 36.4704 37.1881 36.4915 37.0197 36.4915H36.683V37.5647V37.5857C36.683 37.5857 36.683 37.5857 36.662 37.6068C36.662 37.6068 36.6199 37.6068 36.5989 37.6068C36.5778 37.6068 36.5357 37.6068 36.4936 37.6068C36.4516 37.6068 36.4305 37.6068 36.3884 37.6068C36.3674 37.6068 36.3463 37.6068 36.3253 37.6068C36.3253 37.6068 36.3042 37.6068 36.2832 37.5857C36.2832 37.5857 36.2832 37.5857 36.2832 37.5647V34.808C36.2832 34.7449 36.2832 34.7028 36.3253 34.6817C36.3674 34.6607 36.3884 34.6396 36.4305 34.6396H37.0618C37.1249 34.6396 37.1881 34.6396 37.2512 34.6396C37.3143 34.6396 37.3775 34.6396 37.4616 34.6817C37.5458 34.6817 37.63 34.7238 37.7142 34.787C37.7983 34.829 37.8615 34.8922 37.9246 34.9553C37.9877 35.0184 38.0298 35.1026 38.0508 35.2078C38.0719 35.292 38.0929 35.3972 38.0929 35.5235ZM37.6931 35.5445C37.6931 35.4183 37.6721 35.313 37.63 35.2499C37.5879 35.1657 37.5248 35.1026 37.4616 35.0605C37.3985 35.0184 37.3354 34.9974 37.2512 34.9763C37.1881 34.9763 37.1039 34.9763 37.0408 34.9763H36.683V36.1758H37.0408C37.167 36.1758 37.2512 36.1758 37.3354 36.1337C37.4195 36.0916 37.4827 36.0706 37.5248 36.0075C37.5879 35.9443 37.63 35.8812 37.651 35.8181C37.6721 35.7339 37.6931 35.6497 37.6931 35.5656V35.5445Z" fill="#333333"/>
<path d="M40.9339 36.4267C40.9339 36.4899 40.9339 36.5319 40.8919 36.553C40.8708 36.574 40.8287 36.5951 40.7866 36.5951H39.4188C39.4188 36.7003 39.4188 36.8055 39.4609 36.9107C39.482 36.9949 39.524 37.0791 39.5872 37.1422C39.6503 37.2053 39.7134 37.2685 39.7976 37.2895C39.8818 37.3316 39.987 37.3526 40.1133 37.3526C40.2395 37.3526 40.3026 37.3526 40.3658 37.3316C40.4499 37.3316 40.5131 37.2895 40.5552 37.2895C40.6183 37.2685 40.6604 37.2474 40.7025 37.2264C40.7446 37.2264 40.7656 37.2053 40.7866 37.2053C40.8077 37.2053 40.8077 37.2053 40.8077 37.2053C40.8077 37.2053 40.8077 37.2053 40.8077 37.2264C40.8077 37.2264 40.8077 37.2474 40.8077 37.2685C40.8077 37.2685 40.8077 37.3106 40.8077 37.3316C40.8077 37.3526 40.8077 37.3737 40.8077 37.3737C40.8077 37.3737 40.8077 37.3947 40.8077 37.4158V37.4368C40.8077 37.4368 40.8077 37.4368 40.8077 37.4579C40.8077 37.4579 40.7656 37.4789 40.7235 37.4999C40.6814 37.4999 40.6183 37.542 40.5552 37.5631C40.492 37.5631 40.4079 37.6052 40.3237 37.6052C40.2395 37.6052 40.1343 37.6262 40.0501 37.6262C39.8818 37.6262 39.7345 37.6052 39.6082 37.5631C39.482 37.521 39.3767 37.4368 39.2926 37.3526C39.2084 37.2685 39.1453 37.1422 39.1032 36.9949C39.0611 36.8476 39.04 36.6793 39.04 36.5109C39.04 36.3426 39.0611 36.1742 39.1032 36.0269C39.1453 35.8796 39.2084 35.7744 39.2926 35.6692C39.3767 35.5639 39.482 35.5008 39.6082 35.4377C39.7345 35.3746 39.8607 35.3535 40.008 35.3535C40.1553 35.3535 40.3026 35.3746 40.4289 35.4377C40.5341 35.4798 40.6393 35.5639 40.7025 35.6481C40.7866 35.7323 40.8287 35.8375 40.8708 35.9638C40.9129 36.09 40.9129 36.2163 40.9129 36.3426V36.4057L40.9339 36.4267ZM40.5552 36.3215C40.5552 36.1111 40.5131 35.9638 40.4289 35.8586C40.3447 35.7533 40.1974 35.6902 40.008 35.6902C39.8186 35.6902 39.8397 35.6902 39.7555 35.7533C39.6924 35.7954 39.6293 35.8375 39.5872 35.9006C39.5451 35.9638 39.503 36.0269 39.482 36.1111C39.4609 36.1953 39.4399 36.2794 39.4399 36.3636H40.5762L40.5552 36.3215Z" fill="#333333"/>
<path d="M43.3326 35.6273C43.3326 35.6694 43.3326 35.6905 43.3326 35.7115C43.3326 35.7325 43.3326 35.7536 43.3326 35.7746V35.7957C43.3326 35.7957 43.3326 35.7957 43.3116 35.7957C43.2905 35.7957 43.2905 35.7957 43.2695 35.7957C43.2695 35.7957 43.2274 35.7957 43.2064 35.7957C43.1853 35.7957 43.1643 35.7957 43.1222 35.7957C43.1012 35.7957 43.0591 35.7957 43.038 35.7957C43.017 35.7957 42.9539 35.7957 42.9328 35.8167C42.8907 35.8167 42.8486 35.8588 42.8276 35.9009C42.7855 35.943 42.7434 35.9851 42.7013 36.0482C42.6592 36.1113 42.6172 36.1745 42.554 36.2586V37.6265C42.554 37.6265 42.554 37.6475 42.554 37.6685C42.554 37.6685 42.554 37.6685 42.533 37.6896C42.533 37.6896 42.4909 37.6896 42.4699 37.6896C42.4488 37.6896 42.4067 37.6896 42.3646 37.6896C42.3225 37.6896 42.3015 37.6896 42.2805 37.6896C42.2594 37.6896 42.2384 37.6896 42.2173 37.6896C42.2173 37.6896 42.1963 37.6896 42.1963 37.6685C42.1963 37.6685 42.1963 37.6475 42.1963 37.6265V35.5642V35.5432C42.1963 35.5432 42.1963 35.5432 42.2173 35.5221C42.2173 35.5221 42.2384 35.5221 42.2594 35.5221C42.2805 35.5221 42.3015 35.5221 42.3436 35.5221C42.3857 35.5221 42.4067 35.5221 42.4278 35.5221C42.4488 35.5221 42.4699 35.5221 42.4699 35.5221C42.4699 35.5221 42.4699 35.5221 42.4909 35.5432C42.4909 35.5432 42.4909 35.5432 42.4909 35.5642V35.8588C42.554 35.7746 42.5961 35.7115 42.6592 35.6484C42.7013 35.6063 42.7645 35.5642 42.8065 35.5221C42.8486 35.5011 42.8907 35.48 42.9328 35.459C42.9749 35.459 43.017 35.459 43.0591 35.459C43.1012 35.459 43.1012 35.459 43.1222 35.459C43.1432 35.459 43.1643 35.459 43.2064 35.459C43.2274 35.459 43.2695 35.459 43.2695 35.48C43.2905 35.48 43.3116 35.48 43.3116 35.5011C43.3116 35.5011 43.3116 35.5011 43.3116 35.5221C43.3116 35.5221 43.3116 35.5221 43.3116 35.5432C43.3116 35.5432 43.3116 35.5642 43.3116 35.5852V35.6694" fill="#333333"/>
<path d="M45.6054 36.9944C45.6054 37.0996 45.6054 37.2048 45.5423 37.2679C45.5002 37.3521 45.4371 37.4152 45.3739 37.4784C45.3108 37.5415 45.2266 37.5836 45.1214 37.6046C45.0162 37.6257 44.911 37.6467 44.7847 37.6467C44.6585 37.6467 44.6374 37.6467 44.5743 37.6467C44.5111 37.6467 44.448 37.6257 44.3849 37.6046C44.3428 37.6046 44.2797 37.5625 44.2586 37.5415C44.2165 37.5415 44.1955 37.4994 44.1745 37.4784C44.1745 37.4784 44.1534 37.4363 44.1324 37.4152C44.1324 37.3942 44.1324 37.3521 44.1324 37.31C44.1324 37.2679 44.1324 37.2469 44.1324 37.2258V37.1838V37.1627C44.1324 37.1627 44.1324 37.1627 44.1534 37.1627C44.1534 37.1627 44.1955 37.1627 44.2376 37.1838C44.2797 37.2048 44.3218 37.2258 44.3638 37.2469C44.4059 37.2679 44.4691 37.289 44.5322 37.31C44.5953 37.31 44.6795 37.3311 44.7637 37.3311C44.8478 37.3311 44.8899 37.3311 44.932 37.31C44.9741 37.31 45.0372 37.2679 45.0583 37.2469C45.1004 37.2258 45.1214 37.1838 45.1425 37.1417C45.1425 37.0996 45.1635 37.0575 45.1635 36.9944C45.1635 36.9312 45.1635 36.8891 45.1214 36.8471C45.1004 36.805 45.0583 36.7629 44.9951 36.7418C44.9531 36.7208 44.8899 36.6787 44.8268 36.6577C44.7637 36.6366 44.7005 36.6156 44.6374 36.5735C44.5743 36.5525 44.5112 36.5104 44.448 36.4893C44.3849 36.4472 44.3218 36.4052 44.2797 36.3631C44.2376 36.321 44.1955 36.2578 44.1534 36.1947C44.1324 36.1316 44.1113 36.0474 44.1113 35.9632C44.1113 35.8791 44.1113 35.8159 44.1534 35.7318C44.1955 35.6686 44.2376 35.5845 44.3007 35.5424C44.3638 35.4792 44.448 35.4372 44.5322 35.4161C44.6164 35.374 44.7426 35.374 44.8689 35.374C44.9952 35.374 44.9741 35.374 45.0372 35.374C45.1004 35.374 45.1425 35.3951 45.1845 35.4161C45.2266 35.4161 45.2687 35.4372 45.2898 35.4582C45.3318 35.4582 45.3529 35.4792 45.3529 35.5003C45.3529 35.5003 45.3739 35.5213 45.395 35.5424C45.395 35.5424 45.395 35.5424 45.395 35.5634C45.395 35.5634 45.395 35.5845 45.395 35.6055C45.395 35.6055 45.395 35.6476 45.395 35.6686C45.395 35.6897 45.395 35.7107 45.395 35.7318V35.7738C45.395 35.7738 45.395 35.7738 45.395 35.7949C45.395 35.7949 45.395 35.7949 45.3739 35.7949C45.3529 35.7949 45.3318 35.7949 45.3108 35.7738C45.2898 35.7738 45.2477 35.7318 45.2056 35.7107C45.1635 35.6897 45.1214 35.6686 45.0583 35.6476C44.9952 35.6476 44.932 35.6265 44.8689 35.6265C44.8058 35.6265 44.7426 35.6265 44.7005 35.6476C44.6585 35.6476 44.6164 35.6897 44.5743 35.7107C44.5322 35.7318 44.5112 35.7738 44.5112 35.8159C44.5112 35.858 44.4901 35.9001 44.4901 35.9422C44.4901 36.0053 44.4901 36.0474 44.5322 36.0895C44.5532 36.1316 44.5953 36.1737 44.6585 36.1947C44.7005 36.2158 44.7637 36.2578 44.8268 36.2789C44.8899 36.2999 44.9531 36.321 45.0162 36.3631C45.0793 36.3841 45.1425 36.4262 45.2056 36.4472C45.2687 36.4893 45.3318 36.5104 45.3739 36.5735C45.416 36.6156 45.4581 36.6787 45.5002 36.7418C45.5212 36.805 45.5423 36.8891 45.5423 36.9733" fill="#333333"/>
<path d="M48.677 36.5118C48.677 36.6801 48.656 36.8274 48.6139 36.9747C48.5718 37.122 48.5087 37.2483 48.4035 37.3325C48.3193 37.4377 48.2141 37.5219 48.0668 37.564C47.9405 37.6271 47.7722 37.6481 47.6038 37.6481C47.4355 37.6481 47.2882 37.6271 47.1619 37.564C47.0357 37.5219 46.9304 37.4377 46.8463 37.3535C46.7621 37.2483 46.699 37.1431 46.6569 36.9958C46.6148 36.8485 46.5938 36.7012 46.5938 36.5328C46.5938 36.3645 46.6148 36.2172 46.6569 36.0699C46.699 35.9226 46.7621 35.8174 46.8463 35.7121C46.9304 35.6069 47.0357 35.5227 47.183 35.4807C47.3092 35.4175 47.4776 35.3965 47.6459 35.3965C47.8143 35.3965 47.9616 35.4175 48.0878 35.4807C48.2141 35.5227 48.3193 35.6069 48.4035 35.6911C48.4877 35.7753 48.5508 35.9015 48.5929 36.0488C48.635 36.1961 48.656 36.3434 48.656 36.5118M48.2772 36.5328C48.2772 36.4276 48.2772 36.3224 48.2351 36.2172C48.2351 36.112 48.172 36.0278 48.1299 35.9647C48.0878 35.8805 48.0247 35.8384 47.9405 35.7963C47.8564 35.7542 47.7511 35.7332 47.6459 35.7332C47.5407 35.7332 47.4355 35.7332 47.3513 35.7963C47.2671 35.8384 47.204 35.9015 47.1409 35.9647C47.0988 36.0278 47.0567 36.133 47.0357 36.2172C47.0146 36.3224 46.9936 36.4276 46.9936 36.5539C46.9936 36.6801 46.9936 36.7854 47.0146 36.8695C47.0146 36.9747 47.0777 37.0589 47.1198 37.122C47.1619 37.2062 47.2251 37.2483 47.3092 37.2904C47.3934 37.3325 47.4986 37.3535 47.6249 37.3535C47.7511 37.3535 47.8353 37.3535 47.9195 37.2904C48.0037 37.2483 48.0668 37.1852 48.1299 37.122C48.172 37.0589 48.2141 36.9537 48.2351 36.8695C48.2562 36.7643 48.2772 36.6591 48.2772 36.5328Z" fill="#333333"/>
<path d="M51.6244 37.5625C51.6244 37.5625 51.6244 37.5836 51.6244 37.6046C51.6244 37.6046 51.6244 37.6046 51.6034 37.6257C51.6034 37.6257 51.5613 37.6257 51.5403 37.6257C51.5192 37.6257 51.4771 37.6257 51.4561 37.6257C51.435 37.6257 51.393 37.6257 51.3719 37.6257C51.3509 37.6257 51.3298 37.6257 51.3088 37.6257C51.3088 37.6257 51.2877 37.6257 51.2877 37.6046C51.2877 37.6046 51.2877 37.5836 51.2877 37.5625V36.342C51.2877 36.2158 51.2877 36.1316 51.2667 36.0474C51.2667 35.9843 51.2246 35.9211 51.1825 35.858C51.1404 35.7949 51.0984 35.7738 51.0563 35.7318C50.9931 35.7107 50.93 35.6897 50.8669 35.6897C50.8037 35.6897 50.6775 35.7107 50.5723 35.7949C50.467 35.858 50.3829 35.9632 50.2777 36.0895V37.5415C50.2777 37.5415 50.2777 37.5625 50.2777 37.5836C50.2777 37.5836 50.2777 37.5836 50.2356 37.6046C50.2356 37.6046 50.1935 37.6046 50.1724 37.6046C50.1514 37.6046 50.1093 37.6046 50.0883 37.6046C50.0672 37.6046 50.0251 37.6046 50.0041 37.6046C49.9831 37.6046 49.962 37.6046 49.941 37.6046C49.941 37.6046 49.9199 37.6046 49.9199 37.5836C49.9199 37.5836 49.9199 37.5625 49.9199 37.5415V35.4792V35.4582C49.9199 35.4582 49.9199 35.4582 49.941 35.4372C49.941 35.4372 49.962 35.4372 49.983 35.4372C50.0041 35.4372 50.0251 35.4372 50.0672 35.4372C50.1093 35.4372 50.1304 35.4372 50.1514 35.4372C50.1724 35.4372 50.1935 35.4372 50.1935 35.4372C50.1935 35.4372 50.1935 35.4372 50.2145 35.4582C50.2145 35.4582 50.2145 35.4582 50.2145 35.4792V35.7528C50.3197 35.6265 50.446 35.5213 50.5723 35.4582C50.6775 35.3951 50.8037 35.374 50.93 35.374C51.0563 35.374 51.1825 35.3951 51.2877 35.4372C51.393 35.4792 51.4561 35.5424 51.5192 35.6265C51.5823 35.7107 51.6244 35.7949 51.6455 35.9001C51.6665 36.0053 51.6876 36.1316 51.6876 36.2789V37.5415L51.6244 37.5625Z" fill="#333333"/>
<path d="M54.4657 37.5633V37.6054C54.4657 37.6054 54.4447 37.6054 54.4236 37.6265C54.4026 37.6265 54.3605 37.6265 54.3184 37.6265C54.2763 37.6265 54.2553 37.6265 54.2132 37.6265C54.1921 37.6265 54.1711 37.6265 54.1711 37.6054C54.1711 37.6054 54.1711 37.5844 54.1711 37.5633V37.3529C54.0869 37.4581 53.9817 37.5212 53.8765 37.5844C53.7713 37.6475 53.645 37.6685 53.5187 37.6685C53.3925 37.6685 53.3083 37.6685 53.2241 37.6265C53.14 37.6054 53.0558 37.5633 52.9927 37.5002C52.9295 37.4371 52.8874 37.3739 52.8454 37.3108C52.8033 37.2266 52.7822 37.1425 52.7822 37.0372C52.7822 36.932 52.8033 36.8268 52.8454 36.7426C52.8874 36.6585 52.9506 36.5743 53.0558 36.5322C53.14 36.4691 53.2452 36.427 53.3714 36.4059C53.4977 36.3849 53.645 36.3639 53.8134 36.3639H54.108V36.1955C54.108 36.1113 54.108 36.0482 54.0869 35.9851C54.0869 35.9219 54.0448 35.8799 54.0027 35.8378C53.9607 35.7957 53.9186 35.7746 53.8554 35.7536C53.7923 35.7536 53.7292 35.7325 53.645 35.7325C53.5608 35.7325 53.4767 35.7325 53.3925 35.7746C53.3083 35.7957 53.2452 35.8167 53.2031 35.8378C53.14 35.8588 53.0979 35.8799 53.0558 35.9219C53.0137 35.943 52.9927 35.964 52.9716 35.964C52.9506 35.964 52.9506 35.964 52.9295 35.964C52.9295 35.964 52.9295 35.964 52.9085 35.943C52.9085 35.943 52.9085 35.9219 52.9085 35.9009C52.9085 35.9009 52.9085 35.8588 52.9085 35.8378C52.9085 35.7957 52.9085 35.7746 52.9085 35.7536C52.9085 35.7325 52.9085 35.7115 52.9506 35.6905C52.9716 35.6905 53.0137 35.6484 53.0558 35.6273C53.0979 35.6063 53.161 35.5852 53.2241 35.5432C53.2873 35.5221 53.3714 35.5011 53.4346 35.48C53.5187 35.48 53.5819 35.459 53.6661 35.459C53.8134 35.459 53.9396 35.459 54.0448 35.5011C54.15 35.5432 54.2342 35.5852 54.2974 35.6484C54.3605 35.7115 54.4026 35.7957 54.4447 35.9009C54.4657 36.0061 54.4867 36.1113 54.4867 36.2376V37.6265L54.4657 37.5633ZM54.0869 36.6164H53.7713C53.6661 36.6164 53.5819 36.6164 53.4977 36.6374C53.4135 36.6374 53.3504 36.6795 53.3083 36.7216C53.2662 36.7637 53.2241 36.8058 53.2031 36.8479C53.1821 36.8899 53.161 36.9531 53.161 37.0162C53.161 37.1214 53.2031 37.2056 53.2662 37.2687C53.3294 37.3319 53.4346 37.3739 53.5608 37.3739C53.6871 37.3739 53.7502 37.3529 53.8344 37.2898C53.9186 37.2477 54.0027 37.1635 54.108 37.0583V36.6164H54.0869Z" fill="#333333"/>
<path d="M56.1482 37.5636C56.1482 37.5636 56.1482 37.5847 56.1482 37.6057C56.1482 37.6057 56.1482 37.6057 56.1272 37.6268C56.1272 37.6268 56.0851 37.6268 56.064 37.6268C56.043 37.6268 56.0009 37.6268 55.9799 37.6268C55.9588 37.6268 55.9167 37.6268 55.8957 37.6268C55.8747 37.6268 55.8536 37.6268 55.8326 37.6268C55.8326 37.6268 55.8115 37.6268 55.8115 37.6057C55.8115 37.6057 55.8115 37.5847 55.8115 37.5636V34.4913V34.4703C55.8115 34.4703 55.8115 34.4703 55.8326 34.4492C55.8326 34.4492 55.8747 34.4492 55.8957 34.4492C55.9167 34.4492 55.9588 34.4492 55.9799 34.4492C56.0009 34.4492 56.043 34.4492 56.064 34.4492C56.0851 34.4492 56.1061 34.4492 56.1272 34.4492C56.1272 34.4492 56.1482 34.4492 56.1482 34.4703C56.1482 34.4703 56.1482 34.4703 56.1482 34.4913V37.5636Z" fill="#333333"/>
<path d="M59.0318 36.8271C59.0318 36.743 59.0318 36.6588 59.0739 36.5956C59.0949 36.5115 59.137 36.4483 59.1791 36.3642C59.2212 36.301 59.2843 36.2169 59.3685 36.1537C59.4527 36.0906 59.5368 36.0275 59.642 35.9433C59.5789 35.8591 59.5368 35.796 59.4947 35.7118C59.4527 35.6487 59.4106 35.5856 59.3895 35.5224C59.3685 35.4593 59.3474 35.4172 59.3264 35.3541C59.3264 35.291 59.3264 35.2489 59.3264 35.1857C59.3264 35.1016 59.3264 34.9963 59.3685 34.9122C59.4106 34.828 59.4527 34.7438 59.5158 34.6807C59.5789 34.6176 59.6841 34.5544 59.7894 34.5123C59.8946 34.4703 60.0419 34.4492 60.1892 34.4492C60.3365 34.4492 60.4417 34.4492 60.5469 34.4913C60.6521 34.5123 60.7363 34.5544 60.7994 34.6176C60.8626 34.6807 60.9047 34.7438 60.9467 34.807C60.9888 34.8911 60.9888 34.9753 60.9888 35.0595C60.9888 35.1437 60.9888 35.2278 60.9467 35.312C60.9257 35.3962 60.8626 35.4593 60.7994 35.5224C60.7363 35.5856 60.6521 35.6697 60.5469 35.7329C60.4417 35.796 60.3154 35.8802 60.1892 35.9433C60.2313 36.0064 60.2944 36.0696 60.3575 36.1327C60.4207 36.1958 60.4838 36.259 60.5469 36.3431C60.61 36.4063 60.6942 36.4904 60.7574 36.5536C60.8205 36.6167 60.9047 36.6798 60.9678 36.743C60.9888 36.7009 61.0309 36.6588 61.052 36.5956C61.073 36.5536 61.094 36.4904 61.1151 36.4273C61.1151 36.3642 61.1572 36.301 61.1572 36.2379C61.1572 36.1748 61.1572 36.1117 61.1572 36.0485V35.9643C61.1572 35.9643 61.1572 35.9433 61.1572 35.9223C61.1572 35.9223 61.1572 35.9223 61.1782 35.9012C61.1782 35.9012 61.1993 35.9012 61.2413 35.9012C61.2413 35.9012 61.2834 35.9012 61.3255 35.9012C61.3676 35.9012 61.3886 35.9012 61.4097 35.9012C61.4307 35.9012 61.4518 35.9012 61.4728 35.9012C61.4728 35.9012 61.4939 35.9012 61.5149 35.9223C61.5149 35.9223 61.5149 35.9433 61.5149 35.9643V36.0275C61.5149 36.1116 61.5149 36.1958 61.4939 36.28C61.4939 36.3642 61.4518 36.4483 61.4307 36.5325C61.4097 36.6167 61.3676 36.6798 61.3466 36.764C61.3045 36.8271 61.2624 36.9113 61.2203 36.9534C61.2834 37.0165 61.3466 37.0586 61.4097 37.1007C61.4518 37.1428 61.5149 37.1638 61.536 37.1849C61.578 37.2059 61.5991 37.2269 61.6201 37.2269C61.6412 37.2269 61.6622 37.2269 61.6833 37.2269C61.7043 37.2269 61.7043 37.2269 61.7253 37.2269C61.7253 37.2269 61.7464 37.2269 61.7674 37.2269C61.7674 37.2269 61.7674 37.227 61.7674 37.269C61.7674 37.269 61.7674 37.3111 61.7674 37.3532V37.4374C61.7674 37.4584 61.7674 37.4795 61.7674 37.4795V37.5005C61.7674 37.5005 61.7464 37.5005 61.7253 37.5216C61.7043 37.5216 61.6622 37.5216 61.6201 37.5216C61.578 37.5216 61.557 37.5216 61.5149 37.5216C61.4728 37.5216 61.4307 37.5005 61.3887 37.4584C61.3466 37.4374 61.2834 37.3953 61.2203 37.3532C61.1572 37.3111 61.073 37.248 60.9888 37.1849C60.9257 37.227 60.8626 37.2901 60.7784 37.3322C60.7153 37.3743 60.6311 37.4163 60.5469 37.4374C60.4627 37.4584 60.3786 37.5005 60.2944 37.5216C60.2102 37.5216 60.105 37.5426 59.9998 37.5426C59.8946 37.5426 59.8104 37.5426 59.7262 37.5216C59.642 37.5216 59.5579 37.4795 59.4947 37.4584C59.4106 37.4163 59.3474 37.3953 59.3053 37.3322C59.2422 37.2901 59.2001 37.227 59.158 37.1638C59.116 37.1007 59.0949 37.0376 59.0528 36.9534C59.0528 36.8692 59.0107 36.8061 59.0107 36.7009M59.4527 36.785C59.4527 36.8692 59.4527 36.9323 59.4947 36.9955C59.5158 37.0586 59.5579 37.1217 59.621 37.1638C59.6631 37.2059 59.7473 37.248 59.8104 37.269C59.8946 37.2901 59.9787 37.3111 60.084 37.3111C60.1892 37.3111 60.2102 37.3111 60.2733 37.3111C60.3365 37.3111 60.3786 37.2901 60.4417 37.248C60.4838 37.248 60.5469 37.2059 60.589 37.1638C60.6311 37.1428 60.6732 37.1007 60.7153 37.0586C60.6311 36.9955 60.568 36.9113 60.4838 36.8482C60.3996 36.764 60.3365 36.7009 60.2523 36.6167C60.1892 36.5325 60.105 36.4694 60.0419 36.3852C59.9787 36.301 59.9156 36.2379 59.8525 36.1748C59.7683 36.2169 59.7052 36.28 59.6631 36.3221C59.621 36.3642 59.5789 36.4273 59.5368 36.4694C59.4947 36.5115 59.4737 36.5746 59.4737 36.6167C59.4737 36.6588 59.4737 36.7219 59.4737 36.764L59.4527 36.785ZM59.7052 35.1857C59.7052 35.2278 59.7052 35.2699 59.7052 35.312C59.7052 35.3541 59.7262 35.3962 59.7473 35.4383C59.7683 35.4803 59.7893 35.5435 59.8314 35.5856C59.8735 35.6487 59.9156 35.6908 59.9577 35.775C60.0629 35.7118 60.1681 35.6487 60.2313 35.6066C60.3154 35.5435 60.3575 35.5014 60.4207 35.4593C60.4627 35.4172 60.5048 35.3541 60.5259 35.312C60.5469 35.2699 60.5469 35.2068 60.5469 35.1647C60.5469 35.1226 60.5469 35.0805 60.5469 35.0384C60.5469 34.9963 60.5048 34.9543 60.4627 34.9332C60.4207 34.9122 60.3786 34.8701 60.3365 34.849C60.2944 34.849 60.2102 34.828 60.1471 34.828C60.084 34.828 59.9998 34.828 59.9367 34.8701C59.8735 34.8701 59.8314 34.9122 59.7894 34.9543C59.7473 34.9963 59.7262 35.0384 59.7052 35.0805C59.7052 35.1226 59.6841 35.1647 59.6841 35.2278L59.7052 35.1857Z" fill="#333333"/>
<path d="M66.6499 37.2061C66.6499 37.2271 66.6499 37.2482 66.6499 37.2692C66.6499 37.2902 66.6499 37.3113 66.6499 37.3113C66.6499 37.3113 66.6499 37.3323 66.6499 37.3534C66.6499 37.3534 66.6499 37.3744 66.6078 37.3955C66.6078 37.3955 66.5657 37.4375 66.5026 37.4586C66.4605 37.4796 66.3974 37.5217 66.3132 37.5428C66.2501 37.5638 66.1659 37.6059 66.0607 37.6269C65.9555 37.648 65.8713 37.648 65.745 37.648C65.5556 37.648 65.3873 37.6059 65.2189 37.5428C65.0716 37.4796 64.9243 37.3744 64.8191 37.2482C64.7139 37.1219 64.6297 36.9746 64.5666 36.7852C64.5035 36.5958 64.4824 36.3854 64.4824 36.1539C64.4824 35.9224 64.5035 35.6909 64.5876 35.5015C64.6508 35.3122 64.7349 35.1438 64.8612 35.0175C64.9875 34.8913 65.1137 34.7861 65.2821 34.7019C65.4504 34.6388 65.6188 34.5967 65.8082 34.5967C65.9975 34.5967 65.9765 34.5967 66.0607 34.6177C66.1449 34.6177 66.229 34.6598 66.2922 34.6809C66.3553 34.7019 66.4184 34.7229 66.4815 34.765C66.5236 34.7861 66.5657 34.8282 66.5868 34.8492L66.6289 34.8913C66.6289 34.8913 66.6289 34.9123 66.6289 34.9334V34.9755C66.6289 34.9965 66.6289 35.0175 66.6289 35.0386C66.6289 35.0596 66.6289 35.1017 66.6289 35.1228C66.6289 35.1228 66.6289 35.1649 66.6289 35.1859C66.6289 35.1859 66.6289 35.2069 66.6078 35.2069C66.6078 35.2069 66.6078 35.2069 66.5868 35.2069C66.5868 35.2069 66.5447 35.2069 66.5026 35.1649C66.4605 35.1438 66.4184 35.1017 66.3553 35.0596C66.2922 35.0176 66.229 34.9965 66.1449 34.9544C66.0607 34.9334 65.9555 34.9123 65.8292 34.9123C65.7029 34.9123 65.5767 34.9334 65.4715 34.9965C65.3662 35.0596 65.261 35.1228 65.1979 35.228C65.1137 35.3332 65.0506 35.4595 65.0296 35.6068C64.9875 35.7541 64.9664 35.9224 64.9664 36.1118C64.9664 36.3012 64.9664 36.4695 65.0296 36.6168C65.0716 36.7642 65.1348 36.8904 65.1979 36.9746C65.261 37.0798 65.3662 37.1429 65.4715 37.185C65.5767 37.2271 65.7029 37.2692 65.8502 37.2692C65.9975 37.2692 66.0817 37.2692 66.1659 37.2271C66.2501 37.2061 66.3342 37.164 66.3974 37.1219C66.4605 37.0798 66.5026 37.0588 66.5447 37.0167C66.5868 36.9956 66.6078 36.9746 66.6499 36.9746C66.692 36.9746 66.6499 36.9746 66.6709 36.9746C66.6709 36.9746 66.6709 36.9746 66.6709 36.9956C66.6709 36.9956 66.6709 37.0167 66.6709 37.0377C66.6709 37.0588 66.6709 37.0798 66.6709 37.1219" fill="#333333"/>
<path d="M69.3012 37.5633V37.6054C69.3012 37.6054 69.2802 37.6054 69.2591 37.6265C69.2381 37.6265 69.196 37.6265 69.1539 37.6265C69.1118 37.6265 69.0908 37.6265 69.0487 37.6265C69.0276 37.6265 69.0066 37.6265 68.9855 37.6054C68.9855 37.6054 68.9855 37.5844 68.9855 37.5633V37.3529C68.9014 37.4581 68.7962 37.5212 68.6909 37.5844C68.5857 37.6475 68.4595 37.6685 68.3332 37.6685C68.2069 37.6685 68.1228 37.6685 68.0386 37.6265C67.9544 37.6054 67.8702 37.5633 67.8071 37.5002C67.744 37.4371 67.7019 37.3739 67.6598 37.3108C67.6177 37.2266 67.5967 37.1425 67.5967 37.0372C67.5967 36.932 67.6177 36.8268 67.6598 36.7426C67.7019 36.6585 67.765 36.5743 67.8702 36.5322C67.9544 36.4691 68.0596 36.427 68.2069 36.4059C68.3332 36.3849 68.4805 36.3639 68.6489 36.3639H68.9224V36.1955C68.9224 36.1113 68.9224 36.0482 68.9014 35.9851C68.9014 35.9219 68.8593 35.8799 68.8172 35.8378C68.7751 35.7957 68.733 35.7746 68.6699 35.7536C68.6068 35.7536 68.5436 35.7325 68.4595 35.7325C68.3753 35.7325 68.2911 35.7325 68.2069 35.7746C68.1228 35.7957 68.0596 35.8167 68.0175 35.8378C67.9544 35.8588 67.9123 35.8799 67.8702 35.9219C67.8282 35.943 67.8071 35.964 67.7861 35.964C67.765 35.964 67.765 35.964 67.765 35.964C67.765 35.964 67.765 35.964 67.744 35.943C67.744 35.943 67.744 35.9219 67.744 35.9009C67.744 35.9009 67.744 35.8588 67.744 35.8378C67.744 35.7957 67.744 35.7746 67.744 35.7536C67.744 35.7325 67.744 35.7115 67.7861 35.6905C67.7861 35.6905 67.8492 35.6484 67.8913 35.6273C67.9334 35.6063 67.9965 35.5852 68.0596 35.5432C68.1228 35.5221 68.2069 35.5011 68.2701 35.48C68.3542 35.48 68.4174 35.459 68.5015 35.459C68.6489 35.459 68.7751 35.459 68.8803 35.5011C68.9855 35.5432 69.0697 35.5852 69.1329 35.6484C69.196 35.7115 69.2381 35.7957 69.2802 35.9009C69.3012 36.0061 69.3222 36.1113 69.3222 36.2376V37.6265L69.3012 37.5633ZM68.9224 36.6164H68.6068C68.5015 36.6164 68.4174 36.6164 68.3332 36.6374C68.249 36.6374 68.1859 36.6795 68.1438 36.7216C68.1017 36.7637 68.0596 36.8058 68.0386 36.8479C68.0175 36.8899 67.9965 36.9531 67.9965 37.0162C67.9965 37.1214 68.0386 37.2056 68.1017 37.2687C68.1649 37.3319 68.2701 37.3739 68.3963 37.3739C68.5226 37.3739 68.5857 37.3529 68.6699 37.2898C68.7541 37.2477 68.8382 37.1635 68.9435 37.0583V36.6164H68.9224Z" fill="#333333"/>
<path d="M71.8043 35.6273C71.8043 35.6694 71.8043 35.6905 71.8043 35.7115C71.8043 35.7325 71.8043 35.7536 71.8043 35.7746V35.7957C71.8043 35.7957 71.8043 35.7957 71.7833 35.7957C71.7622 35.7957 71.7622 35.7957 71.7412 35.7957C71.7412 35.7957 71.6991 35.7957 71.6781 35.7957C71.657 35.7957 71.636 35.7957 71.5939 35.7957C71.5728 35.7957 71.5307 35.7957 71.5097 35.7957C71.4887 35.7957 71.4255 35.7957 71.4045 35.8167C71.3624 35.8167 71.3203 35.8588 71.2993 35.9009C71.2572 35.943 71.2151 35.9851 71.173 36.0482C71.1309 36.1113 71.0888 36.1745 71.0257 36.2586V37.6265C71.0257 37.6265 71.0257 37.6475 71.0257 37.6685C71.0257 37.6685 71.0257 37.6685 71.0047 37.6896C71.0047 37.6896 70.9836 37.6896 70.9415 37.6896C70.9205 37.6896 70.8784 37.6896 70.8363 37.6896C70.7942 37.6896 70.7732 37.6896 70.7521 37.6896C70.7311 37.6896 70.7101 37.6896 70.689 37.6896C70.689 37.6896 70.668 37.6896 70.668 37.6685C70.668 37.6685 70.668 37.6475 70.668 37.6265V35.5642V35.5432C70.668 35.5432 70.668 35.5432 70.689 35.5221H70.7311C70.7521 35.5221 70.7732 35.5221 70.8153 35.5221C70.8574 35.5221 70.8784 35.5221 70.8994 35.5221C70.9205 35.5221 70.9415 35.5221 70.9626 35.5221C70.9626 35.5221 70.9626 35.5221 70.9836 35.5432C70.9836 35.5432 70.9836 35.5432 70.9836 35.5642V35.8588C71.0468 35.7746 71.0888 35.7115 71.152 35.6484C71.1941 35.6063 71.2572 35.5642 71.2993 35.5221C71.3414 35.5011 71.3834 35.48 71.4255 35.459C71.4676 35.459 71.5097 35.459 71.5518 35.459C71.5939 35.459 71.5939 35.459 71.6149 35.459C71.636 35.459 71.6781 35.459 71.6991 35.459C71.7201 35.459 71.7412 35.459 71.7833 35.48C71.7833 35.48 71.8254 35.48 71.8254 35.5011C71.8254 35.5011 71.8254 35.5011 71.8254 35.5221C71.8254 35.5221 71.8254 35.5221 71.8254 35.5432C71.8254 35.5432 71.8254 35.5642 71.8254 35.5852V35.6694L71.8043 35.6273Z" fill="#333333"/>
<path d="M73.2784 34.7862C73.2784 34.8703 73.2784 34.9335 73.2363 34.9756C73.1942 35.0176 73.1311 35.0176 73.0469 35.0176C72.9627 35.0176 72.8996 35.0176 72.8575 34.9756C72.8154 34.9335 72.8154 34.8914 72.8154 34.7862C72.8154 34.6809 72.8154 34.6389 72.8575 34.5968C72.8996 34.5547 72.9627 34.5547 73.0469 34.5547C73.1311 34.5547 73.1942 34.5547 73.2363 34.5968C73.2784 34.6389 73.2784 34.6809 73.2784 34.7651M73.2363 37.5639C73.2363 37.5639 73.2363 37.5849 73.2363 37.606C73.2363 37.606 73.2363 37.606 73.2153 37.627C73.2153 37.627 73.1732 37.627 73.1521 37.627C73.1311 37.627 73.089 37.627 73.0469 37.627C73.0048 37.627 72.9838 37.627 72.9627 37.627C72.9417 37.627 72.9206 37.627 72.8996 37.627C72.8996 37.627 72.8786 37.627 72.8786 37.606C72.8786 37.606 72.8786 37.5849 72.8786 37.5639V35.5016C72.8786 35.5016 72.8786 35.5016 72.8786 35.4806C72.8786 35.4806 72.8786 35.4806 72.8996 35.4596C72.8996 35.4596 72.9417 35.4596 72.9627 35.4596C72.9838 35.4596 73.0259 35.4596 73.0469 35.4596C73.068 35.4596 73.11 35.4596 73.1521 35.4596C73.1732 35.4596 73.1942 35.4596 73.2153 35.4596C73.2153 35.4596 73.2363 35.4596 73.2363 35.4806C73.2363 35.4806 73.2363 35.4806 73.2363 35.5016V37.5639Z" fill="#333333"/>
<path d="M76.3281 37.5625C76.3281 37.5625 76.3281 37.5836 76.3281 37.6046C76.3281 37.6046 76.3281 37.6046 76.286 37.6257C76.286 37.6257 76.2439 37.6257 76.2229 37.6257C76.2018 37.6257 76.1598 37.6257 76.1387 37.6257C76.1177 37.6257 76.0756 37.6257 76.0335 37.6257C76.0124 37.6257 75.9914 37.6257 75.9704 37.6257C75.9704 37.6257 75.9493 37.6257 75.9493 37.6046C75.9493 37.6046 75.9493 37.5836 75.9493 37.5625V36.342C75.9493 36.2158 75.9493 36.1316 75.9283 36.0474C75.9283 35.9843 75.8862 35.9211 75.8441 35.858C75.802 35.7949 75.7599 35.7738 75.7178 35.7318C75.6547 35.7107 75.5916 35.6897 75.5284 35.6897C75.4653 35.6897 75.3391 35.7107 75.2549 35.7949C75.1497 35.858 75.0655 35.9632 74.9603 36.0895V37.5415C74.9603 37.5415 74.9603 37.5625 74.9603 37.5836C74.9603 37.5836 74.9603 37.5836 74.9392 37.6046C74.9392 37.6046 74.8971 37.6046 74.8761 37.6046C74.8551 37.6046 74.813 37.6046 74.7919 37.6046C74.7709 37.6046 74.7288 37.6046 74.7078 37.6046C74.6867 37.6046 74.6657 37.6046 74.6446 37.6046C74.6446 37.6046 74.6236 37.6046 74.6025 37.5836C74.6025 37.5836 74.6025 37.5625 74.6025 37.5415V35.4792V35.4582C74.6025 35.4582 74.6025 35.4582 74.6236 35.4372C74.6236 35.4372 74.6657 35.4372 74.6867 35.4372C74.6867 35.4372 74.7288 35.4372 74.7709 35.4372C74.813 35.4372 74.834 35.4372 74.8551 35.4372C74.8761 35.4372 74.8971 35.4372 74.9182 35.4372C74.9182 35.4372 74.9182 35.4372 74.9392 35.4582C74.9392 35.4582 74.9392 35.4582 74.9392 35.4792V35.7528C75.0655 35.6265 75.1707 35.5213 75.297 35.4582C75.4232 35.3951 75.5284 35.374 75.6547 35.374C75.781 35.374 75.9072 35.3951 75.9914 35.4372C76.0966 35.4792 76.1598 35.5424 76.2229 35.6265C76.286 35.7107 76.3281 35.7949 76.3491 35.9001C76.3702 36.0053 76.3912 36.1316 76.3912 36.2789V37.5415L76.3281 37.5625Z" fill="#333333"/>
<path d="M79.3382 35.5853C79.3382 35.6485 79.3382 35.6695 79.3382 35.7116C79.3382 35.7326 79.2962 35.7537 79.2751 35.7537H78.9805C79.0436 35.8168 79.0647 35.8589 79.0857 35.9431C79.1068 36.0062 79.1278 36.0904 79.1278 36.1535C79.1278 36.2798 79.1278 36.385 79.0647 36.4692C79.0226 36.5533 78.9595 36.6375 78.8963 36.7006C78.8332 36.7638 78.749 36.8059 78.6438 36.8479C78.5386 36.89 78.4334 36.89 78.3282 36.89C78.2229 36.89 78.1598 36.89 78.0967 36.8479C78.0125 36.8269 77.9704 36.8059 77.9283 36.7638C77.9073 36.7848 77.8862 36.8269 77.8652 36.8479C77.8652 36.89 77.8442 36.9321 77.8442 36.9742C77.8442 37.0163 77.8652 37.0794 77.9283 37.1005C77.9704 37.1426 78.0546 37.1636 78.1177 37.1636H78.6649C78.7701 37.1846 78.8542 37.2057 78.9384 37.2267C79.0226 37.2478 79.1068 37.2899 79.1699 37.3319C79.233 37.374 79.2751 37.4372 79.3172 37.5003C79.3593 37.5634 79.3803 37.6476 79.3803 37.7318C79.3803 37.8159 79.3593 37.9212 79.3172 38.0053C79.2751 38.0895 79.212 38.1737 79.1278 38.2368C79.0436 38.2999 78.9384 38.3631 78.8122 38.3841C78.6859 38.4262 78.5386 38.4472 78.3702 38.4472C78.2019 38.4472 78.0546 38.4472 77.9494 38.4052C77.8231 38.3841 77.7389 38.342 77.6548 38.2999C77.5706 38.2579 77.5285 38.1947 77.4864 38.1316C77.4443 38.0685 77.4443 37.9843 77.4443 37.9001C77.4443 37.8159 77.4443 37.7949 77.4443 37.7528C77.4443 37.7107 77.4654 37.6686 77.5075 37.6266C77.5285 37.5845 77.5706 37.5424 77.6127 37.5003C77.6548 37.4582 77.6969 37.4161 77.7389 37.3951C77.6548 37.353 77.6127 37.3109 77.5706 37.2478C77.5285 37.1846 77.5075 37.1215 77.5075 37.0584C77.5075 36.9532 77.5075 36.89 77.5706 36.8059C77.6127 36.7217 77.6548 36.6586 77.7179 36.6165C77.6758 36.5533 77.6337 36.4902 77.6127 36.4271C77.5916 36.3639 77.5706 36.2798 77.5706 36.1746C77.5706 36.0693 77.5706 35.9431 77.6337 35.8589C77.6758 35.7747 77.7389 35.6906 77.8021 35.6274C77.8652 35.5643 77.9494 35.5222 78.0546 35.4801C78.1598 35.438 78.265 35.417 78.3702 35.417C78.4755 35.417 78.4965 35.417 78.5386 35.417C78.6017 35.417 78.6438 35.417 78.6859 35.438H79.3172C79.3382 35.438 79.3593 35.438 79.3803 35.4801C79.3803 35.5012 79.3803 35.5433 79.3803 35.6064M78.9384 37.7739C78.9384 37.6897 78.8963 37.6055 78.8332 37.5634C78.7701 37.5213 78.6649 37.4792 78.5386 37.4792H78.0125C77.9704 37.4792 77.9283 37.5424 77.8862 37.5634C77.8442 37.6055 77.8231 37.6266 77.8021 37.6686C77.8021 37.6897 77.76 37.7318 77.76 37.7528C77.76 37.7739 77.76 37.8159 77.76 37.837C77.76 37.9422 77.8021 38.0053 77.9073 38.0685C78.0125 38.1105 78.1598 38.1526 78.3282 38.1526C78.4965 38.1526 78.5386 38.1526 78.6228 38.1316C78.7069 38.1105 78.7701 38.0895 78.8122 38.0474C78.8542 38.0053 78.8963 37.9632 78.9174 37.9212C78.9174 37.8791 78.9384 37.8159 78.9384 37.7739ZM78.749 36.1325C78.749 35.9852 78.7069 35.8799 78.6228 35.7958C78.5386 35.7116 78.4334 35.6695 78.2861 35.6695C78.1388 35.6695 78.1598 35.6695 78.0967 35.7116C78.0336 35.7326 77.9915 35.7747 77.9704 35.8168C77.9283 35.8589 77.9073 35.901 77.8862 35.9641C77.8862 36.0272 77.8652 36.0693 77.8652 36.1325C77.8652 36.2798 77.9073 36.385 77.9704 36.4481C78.0546 36.5323 78.1598 36.5744 78.3071 36.5744C78.4544 36.5744 78.4544 36.5744 78.4965 36.5323C78.5596 36.5113 78.6017 36.4692 78.6438 36.4271C78.6859 36.385 78.7069 36.3429 78.728 36.2798C78.728 36.2166 78.749 36.1746 78.749 36.1114V36.1325Z" fill="#333333"/>
<path d="M89.8803 31.6708C89.8803 31.6919 89.8803 31.7129 89.8593 31.7339C89.8593 31.7339 89.8172 31.755 89.7961 31.776C89.7751 31.776 89.733 31.776 89.6699 31.7971C89.6278 31.7971 89.5647 31.7971 89.4805 31.7971C89.3963 31.7971 89.3332 31.7971 89.2911 31.7971C89.249 31.7971 89.2069 31.7971 89.1648 31.776C89.1227 31.776 89.1227 31.755 89.1017 31.7339C89.1017 31.7339 89.1017 31.6919 89.1017 31.6708V30.0715H87.6287V31.6708C87.6287 31.6919 87.6287 31.7129 87.6287 31.7339C87.6287 31.7339 87.5866 31.755 87.5655 31.776C87.5445 31.776 87.5024 31.776 87.4393 31.7971C87.3972 31.7971 87.313 31.7971 87.2499 31.7971C87.1867 31.7971 87.1026 31.7971 87.0605 31.7971C87.0184 31.7971 86.9763 31.7971 86.9342 31.776C86.9132 31.776 86.8921 31.755 86.8711 31.7339C86.8711 31.7339 86.8711 31.6919 86.8711 31.6708V27.9251C86.8711 27.904 86.8711 27.883 86.8711 27.862C86.8711 27.862 86.9132 27.8409 86.9342 27.8199C86.9553 27.8199 86.9974 27.8199 87.0605 27.7988C87.1026 27.7988 87.1867 27.7988 87.2499 27.7988C87.313 27.7988 87.3972 27.7988 87.4393 27.7988C87.4814 27.7988 87.5234 27.7988 87.5655 27.8199C87.5866 27.8199 87.6076 27.8409 87.6287 27.862C87.6287 27.862 87.6287 27.904 87.6287 27.9251V29.3771H89.1017V27.9251C89.1017 27.904 89.1017 27.883 89.1017 27.862C89.1017 27.862 89.1438 27.8409 89.1648 27.8199C89.1859 27.8199 89.228 27.8199 89.2911 27.7988C89.3332 27.7988 89.4173 27.7988 89.4805 27.7988C89.5436 27.7988 89.6278 27.7988 89.6699 27.7988C89.712 27.7988 89.754 27.7988 89.7961 27.8199C89.8172 27.8199 89.8593 27.8409 89.8593 27.862C89.8593 27.862 89.8803 27.904 89.8803 27.9251V31.6708Z" fill="#36498A"/>
<path d="M93.2268 30.219C93.2268 30.3032 93.2268 30.3874 93.1636 30.4295C93.1215 30.4716 93.0584 30.4926 92.9953 30.4926H91.3329C91.3329 30.6189 91.3329 30.703 91.3749 30.8083C91.396 30.9135 91.4381 30.9766 91.5012 31.0608C91.5643 31.1239 91.6485 31.166 91.7327 31.2081C91.8169 31.2502 91.9431 31.2502 92.0694 31.2502C92.1956 31.2502 92.3219 31.2502 92.4271 31.2291C92.5323 31.2291 92.6165 31.187 92.6796 31.166C92.7638 31.1449 92.8269 31.1239 92.869 31.1029C92.9111 31.1029 92.9532 31.0818 92.9953 31.0818C93.0374 31.0818 93.0374 31.0818 93.0374 31.0818C93.0374 31.0818 93.0374 31.1029 93.0584 31.1239C93.0584 31.1239 93.0584 31.166 93.0584 31.2081C93.0584 31.2502 93.0584 31.2923 93.0584 31.3343C93.0584 31.3764 93.0584 31.4185 93.0584 31.4606C93.0584 31.4816 93.0584 31.5237 93.0584 31.5448C93.0584 31.5658 93.0584 31.5869 93.0584 31.6079C93.0584 31.6079 93.0584 31.6289 93.0163 31.65C93.0163 31.65 92.9742 31.6921 92.9111 31.7131C92.848 31.7342 92.7849 31.7552 92.6796 31.7973C92.5955 31.8183 92.4902 31.8394 92.364 31.8604C92.2377 31.8604 92.1115 31.8815 91.9852 31.8815C91.7537 31.8815 91.5222 31.8604 91.3539 31.7973C91.1645 31.7342 91.0172 31.65 90.8909 31.5237C90.7647 31.3975 90.6805 31.2502 90.6174 31.0397C90.5542 30.8503 90.5332 30.6189 90.5332 30.3663C90.5332 30.1138 90.5753 29.9034 90.6384 29.714C90.7016 29.5246 90.7857 29.3563 90.912 29.209C91.0382 29.0827 91.1855 28.9775 91.3539 28.8933C91.5222 28.8302 91.7327 28.7881 91.9431 28.7881C92.1535 28.7881 92.364 28.8302 92.5323 28.8933C92.7007 28.9564 92.8269 29.0617 92.9322 29.1669C93.0374 29.2931 93.1215 29.4194 93.1636 29.5877C93.2057 29.7561 93.2478 29.9244 93.2478 30.1138V30.2401L93.2268 30.219ZM92.4692 30.0086C92.4692 29.7982 92.4271 29.6298 92.3429 29.5036C92.2377 29.3773 92.1115 29.3142 91.9221 29.3142C91.7327 29.3142 91.7327 29.3142 91.6695 29.3773C91.6064 29.4194 91.5433 29.4615 91.4802 29.5246C91.4381 29.5877 91.396 29.6509 91.3749 29.7561C91.3539 29.8403 91.3329 29.9244 91.3329 30.0296H92.4902L92.4692 30.0086Z" fill="#36498A"/>
<path d="M96.1946 31.6712C96.1946 31.6923 96.1946 31.7133 96.1736 31.7344C96.1525 31.7344 96.1104 31.7554 96.0683 31.7764C96.0263 31.7764 95.9631 31.7764 95.8789 31.7764C95.7948 31.7764 95.7106 31.7764 95.6685 31.7764C95.6264 31.7764 95.6054 31.7764 95.5843 31.7344C95.5843 31.7344 95.5633 31.6923 95.5633 31.6712V31.4608C95.4581 31.5871 95.3318 31.6712 95.1845 31.7344C95.0372 31.7975 94.8689 31.8396 94.7005 31.8396C94.5322 31.8396 94.4269 31.8396 94.3007 31.7764C94.1744 31.7344 94.0692 31.6923 93.985 31.6081C93.9009 31.545 93.8167 31.4397 93.7746 31.3345C93.7325 31.2293 93.6904 31.1031 93.6904 30.9557C93.6904 30.8084 93.7115 30.6611 93.7746 30.5349C93.8377 30.4086 93.9219 30.3244 94.0482 30.2403C94.1744 30.1561 94.3217 30.114 94.5111 30.0719C94.7005 30.0298 94.9109 30.0088 95.1424 30.0088H95.416V29.8404C95.416 29.7563 95.416 29.6721 95.3949 29.609C95.3949 29.5458 95.3529 29.4827 95.3108 29.4406C95.2687 29.3985 95.2266 29.3564 95.1635 29.3564C95.1003 29.3564 95.0162 29.3144 94.9109 29.3144C94.8057 29.3144 94.6584 29.3144 94.5743 29.3564C94.469 29.3775 94.3849 29.4196 94.3007 29.4406C94.2165 29.4827 94.1534 29.5038 94.1113 29.5458C94.0692 29.5669 94.0271 29.5879 93.985 29.5879C93.943 29.5879 93.943 29.5879 93.9219 29.5669C93.9219 29.5669 93.9009 29.5248 93.8798 29.5038C93.8798 29.4827 93.8588 29.4406 93.8588 29.3985C93.8588 29.3564 93.8588 29.3144 93.8588 29.2723C93.8588 29.2302 93.8588 29.1671 93.8588 29.125C93.8588 29.0829 93.8798 29.0618 93.9219 29.0198C93.943 28.9987 94.0061 28.9566 94.0692 28.9145C94.1323 28.8724 94.2165 28.8514 94.3217 28.8093C94.4269 28.7883 94.5322 28.7462 94.6374 28.7251C94.7426 28.7251 94.8689 28.7041 94.9951 28.7041C95.2056 28.7041 95.3949 28.7251 95.5423 28.7672C95.6896 28.8093 95.8158 28.8724 95.921 28.9566C96.0263 29.0408 96.0894 29.146 96.1315 29.2933C96.1736 29.4196 96.1946 29.5879 96.1946 29.7773V31.6081V31.6712ZM95.437 30.5138H95.1424C95.0162 30.5138 94.9109 30.5138 94.8268 30.5349C94.7426 30.5349 94.6584 30.577 94.6163 30.6191C94.5532 30.6611 94.5111 30.7032 94.4901 30.7453C94.469 30.7874 94.448 30.8505 94.448 30.9137C94.448 31.0189 94.4901 31.1241 94.5532 31.1872C94.6163 31.2504 94.7216 31.2924 94.8478 31.2924C94.9741 31.2924 95.0583 31.2714 95.1424 31.2083C95.2266 31.1451 95.3318 31.061 95.416 30.9768V30.5138H95.437Z" fill="#36498A"/>
<path d="M97.7292 31.6705C97.7292 31.6705 97.7292 31.7126 97.7292 31.7336C97.7292 31.7336 97.6872 31.7547 97.6661 31.7757C97.6451 31.7757 97.603 31.7757 97.5399 31.7968C97.4978 31.7968 97.4346 31.7968 97.3505 31.7968C97.2663 31.7968 97.2032 31.7968 97.1611 31.7968C97.119 31.7968 97.0769 31.7968 97.0348 31.7757C97.0138 31.7757 96.9927 31.7547 96.9717 31.7336C96.9717 31.7336 96.9717 31.6915 96.9717 31.6705V27.6302C96.9717 27.6302 96.9717 27.5881 96.9717 27.567C96.9717 27.567 97.0138 27.546 97.0348 27.525C97.0559 27.525 97.0979 27.5249 97.1611 27.5039C97.2032 27.5039 97.2663 27.5039 97.3505 27.5039C97.4346 27.5039 97.4767 27.5039 97.5399 27.5039C97.5819 27.5039 97.624 27.5039 97.6661 27.525C97.7082 27.525 97.7292 27.546 97.7292 27.567C97.7292 27.567 97.7292 27.6091 97.7292 27.6302V31.6705Z" fill="#36498A"/>
<path d="M100.109 31.397C100.109 31.4812 100.109 31.5654 100.109 31.6075C100.109 31.6496 100.088 31.6916 100.067 31.7127C100.067 31.7127 100.025 31.7548 99.9825 31.7758C99.9404 31.7758 99.8983 31.7969 99.8562 31.8179C99.8141 31.8179 99.751 31.8389 99.7089 31.8389C99.6458 31.8389 99.6037 31.8389 99.5406 31.8389C99.3933 31.8389 99.246 31.8389 99.1408 31.7758C99.0355 31.7337 98.9303 31.6706 98.8672 31.5864C98.8041 31.5023 98.7409 31.397 98.6988 31.2918C98.6568 31.1656 98.6568 31.0183 98.6568 30.8499V29.44H98.3201C98.278 29.44 98.2569 29.419 98.2359 29.3769C98.2359 29.3348 98.2148 29.2506 98.2148 29.1454C98.2148 29.0402 98.2148 29.0402 98.2148 28.9981C98.2148 28.956 98.2148 28.935 98.2148 28.8929C98.2148 28.8718 98.2359 28.8508 98.2569 28.8508C98.2569 28.8508 98.299 28.8508 98.3201 28.8508H98.6357V28.2405C98.6357 28.2405 98.6357 28.1984 98.6357 28.1774C98.6357 28.1774 98.6568 28.1563 98.6988 28.1353C98.7199 28.1353 98.762 28.1353 98.8251 28.1143C98.8672 28.1143 98.9303 28.1143 99.0145 28.1143C99.0987 28.1143 99.1408 28.1143 99.2039 28.1143C99.246 28.1143 99.2881 28.1143 99.3301 28.1353C99.3512 28.1353 99.3722 28.1563 99.3933 28.1774C99.3933 28.1774 99.3933 28.2195 99.3933 28.2405V28.8508H99.9825H100.025C100.025 28.8508 100.046 28.8718 100.067 28.8929C100.067 28.9139 100.067 28.956 100.088 28.9981C100.088 29.0402 100.088 29.0823 100.088 29.1454C100.088 29.2506 100.088 29.3348 100.067 29.3769C100.046 29.419 100.025 29.44 99.9825 29.44H99.3933V30.7236C99.3933 30.8709 99.4143 30.9762 99.4564 31.0603C99.4985 31.1445 99.5827 31.1656 99.7089 31.1656C99.8352 31.1656 99.7931 31.1656 99.8141 31.1656C99.8562 31.1656 99.8773 31.1656 99.8983 31.1445C99.9194 31.1445 99.9404 31.1445 99.9614 31.1235H100.004C100.004 31.1235 100.025 31.1235 100.046 31.1235C100.046 31.1235 100.067 31.1445 100.067 31.1656C100.067 31.1866 100.067 31.2076 100.067 31.2497C100.067 31.2918 100.067 31.3339 100.067 31.397" fill="#36498A"/>
<path d="M103.286 31.6705C103.286 31.6705 103.286 31.7126 103.286 31.7336C103.286 31.7336 103.244 31.7547 103.223 31.7757C103.202 31.7757 103.16 31.7757 103.097 31.7968C103.055 31.7968 102.991 31.7968 102.907 31.7968C102.823 31.7968 102.76 31.7968 102.718 31.7968C102.676 31.7968 102.634 31.7968 102.592 31.7757C102.571 31.7757 102.55 31.7547 102.528 31.7336C102.528 31.7336 102.528 31.6915 102.528 31.6705V30.1133C102.528 29.987 102.528 29.8818 102.507 29.7976C102.507 29.7135 102.465 29.6503 102.423 29.6082C102.381 29.5451 102.339 29.503 102.276 29.482C102.213 29.4609 102.15 29.4399 102.066 29.4399C101.981 29.4399 101.876 29.482 101.771 29.5451C101.666 29.6082 101.56 29.7135 101.455 29.8608V31.6705C101.455 31.6705 101.455 31.7126 101.455 31.7336C101.455 31.7336 101.413 31.7547 101.392 31.7757C101.371 31.7757 101.329 31.7757 101.287 31.7968C101.245 31.7968 101.182 31.7968 101.098 31.7968C101.013 31.7968 100.95 31.7968 100.908 31.7968C100.866 31.7968 100.824 31.7968 100.782 31.7757C100.761 31.7757 100.74 31.7547 100.719 31.7336C100.719 31.7336 100.719 31.6915 100.719 31.6705V27.6302C100.719 27.6302 100.719 27.5881 100.719 27.567C100.719 27.567 100.761 27.546 100.782 27.525C100.803 27.525 100.845 27.5249 100.908 27.5039C100.95 27.5039 101.013 27.5039 101.098 27.5039C101.182 27.5039 101.245 27.5039 101.287 27.5039C101.329 27.5039 101.371 27.5039 101.392 27.525C101.413 27.525 101.455 27.546 101.455 27.567C101.455 27.567 101.455 27.6091 101.455 27.6302V29.1453C101.582 29.019 101.729 28.9138 101.855 28.8507C102.002 28.7876 102.129 28.7455 102.276 28.7455C102.423 28.7455 102.613 28.7876 102.739 28.8296C102.865 28.8928 102.97 28.9769 103.055 29.0822C103.139 29.1874 103.181 29.3136 103.223 29.4609C103.265 29.6082 103.265 29.7766 103.265 29.966V31.6495L103.286 31.6705Z" fill="#36498A"/>
<path d="M87.6077 38.1318C87.6077 38.1528 87.6077 38.1738 87.5867 38.1949C87.5867 38.1949 87.5446 38.2159 87.5235 38.237C87.5025 38.237 87.4604 38.237 87.3973 38.258C87.3552 38.258 87.2921 38.258 87.2079 38.258C87.1237 38.258 87.0606 38.258 87.0185 38.258C86.9764 38.258 86.9343 38.258 86.8922 38.237C86.8712 38.237 86.8501 38.2159 86.8291 38.1949C86.8291 38.1949 86.8291 38.1528 86.8291 38.1318V34.386C86.8291 34.365 86.8291 34.3439 86.8291 34.3229C86.8291 34.3229 86.8712 34.3019 86.8922 34.2808C86.9133 34.2808 86.9554 34.2808 87.0185 34.2598C87.0816 34.2598 87.1448 34.2598 87.2079 34.2598C87.271 34.2598 87.3552 34.2598 87.3973 34.2598C87.4604 34.2598 87.5025 34.2598 87.5235 34.2808C87.5446 34.2808 87.5656 34.3019 87.5867 34.3229C87.5867 34.3229 87.6077 34.365 87.6077 34.386V38.1318Z" fill="#36498A"/>
<path d="M91.0171 38.1315C91.0171 38.1315 91.0171 38.1736 91.0171 38.1947C91.0171 38.1947 90.975 38.2157 90.9539 38.2367C90.9329 38.2367 90.8908 38.2368 90.8277 38.2578C90.7856 38.2578 90.7224 38.2578 90.6383 38.2578C90.5541 38.2578 90.512 38.2578 90.4489 38.2578C90.4068 38.2578 90.3647 38.2578 90.3226 38.2367C90.3016 38.2367 90.2805 38.2157 90.2595 38.1947C90.2595 38.1947 90.2595 38.1526 90.2595 38.1315V36.5743C90.2595 36.4481 90.2595 36.3428 90.2384 36.2587C90.2384 36.1955 90.1964 36.1114 90.1543 36.0693C90.1122 36.0061 90.0701 35.9641 90.007 35.943C89.9438 35.922 89.8807 35.9009 89.7965 35.9009C89.7124 35.9009 89.6071 35.943 89.5019 36.0061C89.3967 36.0903 89.2915 36.1745 89.1863 36.3218V38.1526C89.1863 38.1526 89.1863 38.1947 89.1863 38.2157C89.1863 38.2157 89.1652 38.2368 89.1231 38.2578C89.1021 38.2578 89.06 38.2578 88.9969 38.2788C88.9548 38.2788 88.8917 38.2788 88.8075 38.2788C88.7233 38.2788 88.6812 38.2788 88.6181 38.2788C88.576 38.2788 88.5339 38.2788 88.4918 38.2578C88.4708 38.2578 88.4287 38.2368 88.4287 38.2157C88.4287 38.2157 88.4287 38.1736 88.4287 38.1526V35.4169C88.4287 35.4169 88.4287 35.3748 88.4287 35.3538C88.4287 35.3538 88.4498 35.3328 88.4918 35.3117C88.5129 35.3117 88.555 35.3117 88.5971 35.2907C88.6391 35.2907 88.6812 35.2907 88.7444 35.2907C88.8075 35.2907 88.8706 35.2907 88.9127 35.2907C88.9548 35.2907 88.9969 35.2907 89.0179 35.3117C89.039 35.3117 89.06 35.3328 89.06 35.3538C89.06 35.3538 89.06 35.3959 89.06 35.4169V35.7326C89.2073 35.5642 89.3546 35.459 89.523 35.3538C89.6703 35.2696 89.8386 35.2275 90.007 35.2275C90.1753 35.2275 90.3437 35.2696 90.4699 35.3117C90.5962 35.3748 90.7014 35.459 90.7856 35.5642C90.8697 35.6695 90.9118 35.7957 90.9539 35.943C90.996 36.0903 90.996 36.2587 90.996 36.4481V38.1315H91.0171Z" fill="#36498A"/>
<path d="M93.7107 37.3528C93.7107 37.5001 93.6896 37.6474 93.6265 37.7737C93.5634 37.9 93.4792 37.9841 93.374 38.0683C93.2688 38.1525 93.1425 38.2156 92.9952 38.2577C92.8479 38.2998 92.6796 38.3208 92.5323 38.3208C92.385 38.3208 92.3218 38.3208 92.2377 38.2998C92.1324 38.2998 92.0693 38.2577 91.9851 38.2367C91.922 38.2156 91.8589 38.1946 91.7957 38.1735C91.7537 38.1525 91.7116 38.1314 91.6905 38.1104C91.6695 38.0894 91.6484 38.0473 91.6484 38.0052C91.6484 37.9631 91.6484 37.9 91.6484 37.7947C91.6484 37.6895 91.6484 37.6895 91.6484 37.6474C91.6484 37.6053 91.6484 37.5843 91.6484 37.5633C91.6484 37.5422 91.6484 37.5212 91.6695 37.5212C91.6695 37.5212 91.6905 37.5212 91.7116 37.5212C91.7326 37.5212 91.7747 37.5212 91.8168 37.5633C91.8589 37.5843 91.922 37.6264 91.9851 37.6474C92.0483 37.6685 92.1324 37.7106 92.2166 37.7316C92.3008 37.7527 92.406 37.7737 92.5112 37.7737C92.6164 37.7737 92.6375 37.7737 92.7006 37.7737C92.7637 37.7737 92.8058 37.7316 92.8479 37.7106C92.89 37.6895 92.911 37.6474 92.9321 37.6053C92.9531 37.5633 92.9742 37.5212 92.9742 37.458C92.9742 37.3949 92.9742 37.3528 92.911 37.2897C92.869 37.2476 92.8269 37.2055 92.7637 37.1845C92.7006 37.1424 92.6375 37.1214 92.5533 37.1003C92.4691 37.0793 92.385 37.0372 92.3008 37.0161C92.2166 36.974 92.1324 36.932 92.0693 36.8899C91.9851 36.8478 91.922 36.7847 91.8589 36.7215C91.7957 36.6584 91.7537 36.5742 91.7116 36.49C91.6695 36.4059 91.6484 36.2796 91.6484 36.1534C91.6484 36.0271 91.6695 35.9008 91.7326 35.7956C91.7747 35.6904 91.8589 35.5852 91.9641 35.5221C92.0483 35.4379 92.1745 35.3747 92.3218 35.3327C92.4691 35.2906 92.6164 35.2695 92.7848 35.2695C92.9531 35.2695 92.9531 35.2695 93.0373 35.2906C93.1215 35.2906 93.1846 35.3116 93.2477 35.3327C93.3109 35.3327 93.374 35.3747 93.4161 35.3958C93.4582 35.4168 93.5003 35.4379 93.5213 35.4589C93.5213 35.4589 93.5634 35.48 93.5634 35.501C93.5634 35.501 93.5634 35.5431 93.5634 35.5641C93.5634 35.5852 93.5634 35.6062 93.5634 35.6483C93.5634 35.6694 93.5634 35.7114 93.5634 35.7746C93.5634 35.8377 93.5634 35.8798 93.5634 35.9008C93.5634 35.9429 93.5634 35.964 93.5634 35.985C93.5634 35.985 93.5634 36.0271 93.5423 36.0271C93.5423 36.0271 93.5213 36.0271 93.5003 36.0271C93.4792 36.0271 93.4582 36.0271 93.4161 36.0061C93.374 35.985 93.3319 35.964 93.2688 35.9429C93.2057 35.9219 93.1425 35.9008 93.0794 35.8798C92.9952 35.8587 92.911 35.8377 92.8058 35.8377C92.7006 35.8377 92.6796 35.8377 92.6164 35.8587C92.5743 35.8587 92.5323 35.9008 92.4902 35.9219C92.4481 35.9429 92.427 35.985 92.427 36.0061C92.427 36.0481 92.406 36.0902 92.406 36.1113C92.406 36.1744 92.406 36.2375 92.4691 36.2796C92.5112 36.3217 92.5533 36.3638 92.6164 36.3848C92.6796 36.4269 92.7427 36.448 92.8269 36.469C92.911 36.49 92.9952 36.5321 93.0794 36.5532C93.1636 36.5953 93.2477 36.6374 93.3319 36.6794C93.4161 36.7215 93.4792 36.7847 93.5423 36.8478C93.6055 36.9109 93.6476 36.9951 93.6896 37.0793C93.7317 37.1634 93.7528 37.2687 93.7528 37.3949" fill="#36498A"/>
<path d="M96.8876 38.131C96.8876 38.131 96.8876 38.1731 96.8876 38.1941C96.8876 38.1941 96.8666 38.2152 96.8245 38.2362C96.8034 38.2362 96.7613 38.2362 96.7193 38.2573C96.6772 38.2573 96.614 38.2573 96.572 38.2573C96.5299 38.2573 96.4457 38.2573 96.4036 38.2573C96.3615 38.2573 96.3194 38.2573 96.2984 38.2362C96.2774 38.2362 96.2563 38.2152 96.2563 38.1941C96.2563 38.1941 96.2563 38.152 96.2563 38.131V37.8153C96.109 37.9837 95.9407 38.11 95.7934 38.1731C95.646 38.2573 95.4777 38.2993 95.3094 38.2993C95.141 38.2993 94.9727 38.2783 94.8464 38.2152C94.7201 38.152 94.6149 38.0679 94.5307 37.9626C94.4466 37.8574 94.4045 37.7312 94.3624 37.5839C94.3203 37.4366 94.3203 37.2682 94.3203 37.0578V35.3743C94.3203 35.3743 94.3203 35.3322 94.3203 35.3112C94.3203 35.3112 94.3414 35.2901 94.3834 35.2691C94.4045 35.2691 94.4466 35.2691 94.5097 35.248C94.5518 35.248 94.6149 35.248 94.6991 35.248C94.7833 35.248 94.8464 35.248 94.8885 35.248C94.9306 35.248 94.9727 35.248 95.0147 35.2691C95.0358 35.2691 95.0568 35.2901 95.0779 35.3112C95.0779 35.3112 95.0779 35.3533 95.0779 35.3743V36.9105C95.0779 37.0578 95.0779 37.163 95.0989 37.2472C95.0989 37.3313 95.141 37.3945 95.1831 37.4366C95.2252 37.4997 95.2673 37.5418 95.3304 37.5628C95.3935 37.5839 95.4567 37.6049 95.5408 37.6049C95.625 37.6049 95.7302 37.5628 95.8354 37.4997C95.9407 37.4366 96.0459 37.3313 96.1511 37.184V35.3743C96.1511 35.3743 96.1511 35.3322 96.1511 35.3112C96.1511 35.3112 96.1721 35.2901 96.2142 35.2691C96.2353 35.2691 96.2774 35.2691 96.3405 35.248C96.3826 35.248 96.4457 35.248 96.5299 35.248C96.614 35.248 96.6772 35.248 96.7193 35.248C96.7613 35.248 96.8034 35.248 96.8455 35.2691C96.8666 35.2691 96.8876 35.2901 96.9087 35.3112C96.9087 35.3112 96.9087 35.3533 96.9087 35.3743V38.11L96.8876 38.131Z" fill="#36498A"/>
<path d="M99.413 35.6484C99.413 35.7326 99.413 35.7747 99.413 35.8378C99.413 35.8799 99.413 35.922 99.413 35.943C99.413 35.9641 99.413 35.9851 99.3709 36.0061C99.3709 36.0061 99.3498 36.0061 99.3288 36.0061C99.3077 36.0061 99.2867 36.0061 99.2867 36.0061C99.2657 36.0061 99.2446 36.0061 99.2236 35.9851C99.2025 35.9851 99.1604 35.9851 99.1394 35.9641C99.1184 35.9641 99.0763 35.9641 99.0342 35.9641C98.9921 35.9641 98.95 35.9641 98.9079 35.9851C98.8658 35.9851 98.8238 36.0272 98.7817 36.0693C98.7396 36.1114 98.6764 36.1535 98.6344 36.2166C98.5923 36.2797 98.5291 36.3428 98.466 36.4481V38.1526C98.466 38.1526 98.466 38.1947 98.466 38.2157C98.466 38.2157 98.4239 38.2368 98.4029 38.2578C98.3818 38.2578 98.3398 38.2578 98.2977 38.2788C98.2556 38.2788 98.1924 38.2788 98.1083 38.2788C98.0241 38.2788 97.961 38.2788 97.9189 38.2788C97.8768 38.2788 97.8347 38.2788 97.7926 38.2578C97.7716 38.2578 97.7505 38.2368 97.7295 38.2157C97.7295 38.2157 97.7295 38.1736 97.7295 38.1526V35.4169C97.7295 35.4169 97.7295 35.3748 97.7295 35.3538C97.7295 35.3538 97.7505 35.3328 97.7926 35.3117C97.8137 35.3117 97.8558 35.3117 97.8978 35.2907C97.9399 35.2907 98.0031 35.2907 98.0451 35.2907C98.0872 35.2907 98.1714 35.2907 98.2135 35.2907C98.2556 35.2907 98.2977 35.2907 98.3187 35.3117C98.3398 35.3117 98.3608 35.3328 98.3608 35.3538C98.3608 35.3538 98.3608 35.3959 98.3608 35.4169V35.7536C98.4239 35.6484 98.5081 35.5642 98.5712 35.5011C98.6344 35.438 98.6975 35.3748 98.7606 35.3328C98.8238 35.2907 98.8658 35.2696 98.929 35.2486C98.9921 35.2486 99.0342 35.2275 99.0973 35.2275C99.1604 35.2275 99.1604 35.2275 99.1815 35.2275C99.2025 35.2275 99.2446 35.2275 99.2867 35.2275C99.3288 35.2275 99.3498 35.2275 99.3709 35.2486C99.3919 35.2486 99.413 35.2486 99.413 35.2696C99.413 35.2696 99.413 35.2907 99.434 35.3117C99.434 35.3117 99.434 35.3328 99.434 35.3748C99.434 35.3748 99.434 35.4169 99.434 35.4801C99.434 35.5221 99.434 35.5853 99.434 35.6484" fill="#36498A"/>
<path d="M102.064 38.1302C102.064 38.1513 102.064 38.1723 102.043 38.1933C102.043 38.1933 101.979 38.2144 101.937 38.2354C101.895 38.2354 101.832 38.2354 101.748 38.2354C101.664 38.2354 101.601 38.2354 101.559 38.2354C101.517 38.2354 101.495 38.2354 101.474 38.1933C101.474 38.1933 101.453 38.1513 101.453 38.1302V37.9198C101.348 38.046 101.222 38.1302 101.075 38.1933C100.927 38.2565 100.78 38.2986 100.591 38.2986C100.401 38.2986 100.317 38.2986 100.191 38.2354C100.065 38.1933 99.9593 38.1512 99.8751 38.0671C99.791 37.9829 99.7068 37.8987 99.6647 37.7935C99.6226 37.6883 99.6016 37.562 99.6016 37.4147C99.6016 37.2674 99.6436 37.1201 99.6857 36.9939C99.7489 36.8676 99.833 36.7834 99.9593 36.6993C100.086 36.6151 100.233 36.573 100.422 36.5309C100.612 36.4888 100.822 36.4678 101.075 36.4678H101.348V36.2994C101.348 36.2153 101.348 36.1311 101.327 36.068C101.327 36.0048 101.285 35.9417 101.243 35.8996C101.201 35.8575 101.138 35.8154 101.075 35.7944C101.011 35.7944 100.927 35.7733 100.822 35.7733C100.717 35.7733 100.57 35.7733 100.485 35.8154C100.38 35.8365 100.296 35.8786 100.212 35.9206C100.128 35.9627 100.065 35.9838 100.022 36.0048C99.9803 36.0259 99.9172 36.0469 99.8962 36.0469C99.8751 36.0469 99.8541 36.0469 99.833 36.0259C99.833 36.0259 99.791 35.9838 99.791 35.9627C99.791 35.9417 99.791 35.8996 99.7699 35.8575C99.7699 35.8154 99.7699 35.7733 99.7699 35.7313C99.7699 35.6892 99.7699 35.626 99.7699 35.584C99.7699 35.5419 99.791 35.5208 99.833 35.4787C99.8541 35.4577 99.9172 35.4156 99.9803 35.3735C100.043 35.3314 100.128 35.3104 100.233 35.2683C100.338 35.2473 100.422 35.2052 100.549 35.1841C100.654 35.1841 100.78 35.1631 100.906 35.1631C101.117 35.1631 101.306 35.1841 101.453 35.2262C101.601 35.2683 101.727 35.3314 101.832 35.4156C101.937 35.4998 102.001 35.605 102.043 35.7523C102.085 35.8996 102.106 36.0469 102.106 36.2363V38.0881L102.064 38.1302ZM101.306 36.9728H101.011C100.885 36.9728 100.78 36.9728 100.696 36.9939C100.612 36.9939 100.527 37.0359 100.485 37.078C100.422 37.1201 100.38 37.1622 100.359 37.2043C100.338 37.2464 100.317 37.3095 100.317 37.3726C100.317 37.4989 100.359 37.5831 100.422 37.6462C100.485 37.7093 100.591 37.7514 100.717 37.7514C100.843 37.7514 100.927 37.7304 101.011 37.6673C101.096 37.6041 101.201 37.5199 101.285 37.4147V36.9518L101.306 36.9728Z" fill="#36498A"/>
<path d="M105.453 38.1315C105.453 38.1315 105.453 38.1736 105.453 38.1947C105.453 38.1947 105.432 38.2157 105.389 38.2367C105.368 38.2367 105.326 38.2368 105.263 38.2578C105.221 38.2578 105.158 38.2578 105.074 38.2578C104.99 38.2578 104.927 38.2578 104.884 38.2578C104.821 38.2578 104.8 38.2578 104.758 38.2367C104.737 38.2367 104.716 38.2157 104.695 38.1947C104.695 38.1947 104.695 38.1526 104.695 38.1315V36.5743C104.695 36.4481 104.695 36.3428 104.674 36.2587C104.674 36.1955 104.632 36.1114 104.59 36.0693C104.548 36.0061 104.506 35.9641 104.443 35.943C104.379 35.922 104.316 35.9009 104.232 35.9009C104.148 35.9009 104.043 35.943 103.937 36.0061C103.832 36.0903 103.727 36.1745 103.622 36.3218V38.1526C103.622 38.1526 103.622 38.1947 103.622 38.2157C103.622 38.2157 103.58 38.2368 103.559 38.2578C103.538 38.2578 103.496 38.2578 103.432 38.2788C103.39 38.2788 103.327 38.2788 103.243 38.2788C103.159 38.2788 103.096 38.2788 103.054 38.2788C103.012 38.2788 102.969 38.2788 102.927 38.2578C102.906 38.2578 102.885 38.2368 102.864 38.2157C102.864 38.2157 102.864 38.1736 102.864 38.1526V35.4169C102.864 35.4169 102.864 35.3748 102.864 35.3538C102.864 35.3538 102.885 35.3328 102.927 35.3117C102.948 35.3117 102.991 35.3117 103.033 35.2907C103.075 35.2907 103.138 35.2907 103.18 35.2907C103.222 35.2907 103.306 35.2907 103.348 35.2907C103.39 35.2907 103.432 35.2907 103.453 35.3117C103.475 35.3117 103.496 35.3328 103.496 35.3538C103.496 35.3538 103.496 35.3959 103.496 35.4169V35.7326C103.643 35.5642 103.811 35.459 103.959 35.3538C104.106 35.2696 104.274 35.2275 104.443 35.2275C104.611 35.2275 104.779 35.2696 104.905 35.3117C105.032 35.3748 105.137 35.459 105.221 35.5642C105.305 35.6695 105.347 35.7957 105.389 35.943C105.432 36.0903 105.432 36.2587 105.432 36.4481V38.1315H105.453Z" fill="#36498A"/>
<path d="M108.272 37.6883C108.272 37.7514 108.272 37.7935 108.272 37.8146C108.272 37.8566 108.272 37.8777 108.272 37.8987C108.272 37.9198 108.272 37.9408 108.272 37.9619C108.272 37.9619 108.251 38.0039 108.23 38.025C108.209 38.046 108.167 38.0881 108.104 38.1092C108.041 38.1513 107.977 38.1723 107.893 38.1933C107.809 38.2144 107.725 38.2354 107.641 38.2565C107.557 38.2565 107.451 38.2775 107.367 38.2775C107.157 38.2775 106.967 38.2354 106.799 38.1723C106.631 38.1092 106.504 38.0039 106.399 37.8777C106.294 37.7514 106.21 37.6041 106.147 37.4147C106.084 37.2253 106.062 37.0149 106.062 36.7834C106.062 36.552 106.105 36.2784 106.168 36.068C106.231 35.8786 106.336 35.7102 106.462 35.5629C106.589 35.4366 106.736 35.3314 106.904 35.2683C107.073 35.2052 107.262 35.1631 107.451 35.1631C107.641 35.1631 107.62 35.1631 107.683 35.1841C107.767 35.1841 107.83 35.2262 107.914 35.2473C107.977 35.2683 108.041 35.2893 108.104 35.3314C108.167 35.3525 108.209 35.3946 108.23 35.4156C108.251 35.4366 108.272 35.4577 108.272 35.4787C108.272 35.4787 108.272 35.5208 108.272 35.5419C108.272 35.5629 108.272 35.605 108.272 35.626C108.272 35.6681 108.272 35.7102 108.272 35.7523C108.272 35.8786 108.272 35.9627 108.251 36.0048C108.251 36.0469 108.209 36.068 108.167 36.068C108.125 36.068 108.104 36.068 108.062 36.0259C108.02 36.0048 107.977 35.9627 107.914 35.9206C107.872 35.8786 107.788 35.8575 107.725 35.8365C107.662 35.8154 107.557 35.7944 107.472 35.7944C107.262 35.7944 107.115 35.8786 107.009 36.0259C106.904 36.1732 106.841 36.4046 106.841 36.6993C106.841 36.9939 106.841 36.9728 106.883 37.078C106.904 37.1833 106.946 37.2885 107.009 37.3516C107.052 37.4358 107.115 37.4779 107.199 37.5199C107.283 37.562 107.367 37.5831 107.472 37.5831C107.578 37.5831 107.662 37.5831 107.746 37.541C107.83 37.4989 107.893 37.4779 107.956 37.4358C108.02 37.3937 108.062 37.3726 108.104 37.3306C108.146 37.3095 108.167 37.2885 108.209 37.2885C108.251 37.2885 108.251 37.2885 108.251 37.2885C108.251 37.2885 108.251 37.3095 108.272 37.3516C108.272 37.3726 108.272 37.4147 108.272 37.4568C108.272 37.4989 108.272 37.562 108.272 37.6252" fill="#36498A"/>
<path d="M111.367 36.6795C111.367 36.7848 111.367 36.8479 111.304 36.89C111.262 36.9321 111.199 36.9531 111.135 36.9531H109.473C109.473 37.0583 109.473 37.1635 109.515 37.2688C109.536 37.374 109.578 37.4371 109.641 37.5213C109.704 37.5844 109.789 37.6475 109.873 37.6686C109.978 37.7107 110.083 37.7317 110.209 37.7317C110.336 37.7317 110.462 37.7317 110.567 37.7107C110.672 37.7107 110.757 37.6686 110.841 37.6475C110.925 37.6265 110.988 37.6054 111.03 37.5844C111.072 37.5844 111.114 37.5634 111.156 37.5634C111.199 37.5634 111.199 37.5634 111.199 37.5634C111.199 37.5634 111.199 37.5634 111.22 37.6054C111.22 37.6054 111.22 37.6475 111.22 37.6896C111.22 37.7317 111.22 37.7738 111.22 37.8159C111.22 37.858 111.22 37.9001 111.22 37.9211C111.22 37.9421 111.22 37.9842 111.22 38.0053C111.22 38.0263 111.22 38.0474 111.22 38.0684C111.22 38.0684 111.22 38.0894 111.177 38.1105C111.177 38.1105 111.135 38.1526 111.072 38.1736C111.009 38.1947 110.946 38.2157 110.841 38.2367C110.757 38.2578 110.651 38.2788 110.525 38.2999C110.399 38.2999 110.273 38.3209 110.146 38.3209C109.915 38.3209 109.683 38.2999 109.515 38.2367C109.326 38.1736 109.178 38.0894 109.052 37.9632C108.926 37.8369 108.842 37.6896 108.779 37.4792C108.715 37.2898 108.694 37.0583 108.694 36.8058C108.694 36.5533 108.736 36.3428 108.8 36.1535C108.863 35.9641 108.947 35.7957 109.073 35.6484C109.199 35.5011 109.347 35.4169 109.515 35.3328C109.683 35.2696 109.873 35.2275 110.104 35.2275C110.336 35.2275 110.525 35.2696 110.693 35.3328C110.862 35.3959 110.988 35.5011 111.093 35.6063C111.199 35.7326 111.283 35.8588 111.325 36.0272C111.367 36.1955 111.409 36.3639 111.409 36.5533V36.6795H111.367ZM110.609 36.4691C110.609 36.2587 110.567 36.0903 110.483 35.9641C110.399 35.8378 110.252 35.7747 110.041 35.7747C109.831 35.7747 109.852 35.7747 109.789 35.8378C109.725 35.8799 109.662 35.922 109.599 35.9851C109.557 36.0482 109.515 36.1324 109.494 36.2166C109.473 36.3008 109.452 36.3849 109.452 36.4901H110.609V36.4691Z" fill="#36498A"/>
<path d="M75.2135 26.4105C75.8027 26.2842 76.2446 26.1159 76.5813 25.9054C76.918 25.695 77.1916 25.4635 77.4441 25.1899H66.8382V26.4736H75.3819C75.3187 26.4736 75.2766 26.4315 75.2135 26.4105ZM74.1192 23.8853C73.9509 24.0957 73.7405 24.2219 73.4879 24.2851C73.1513 24.3693 72.8777 24.4113 72.6883 24.4324H77.9492C78.1385 24.0536 78.2438 23.6327 78.2648 23.1487H74.3507C74.3507 23.4223 74.2666 23.6538 74.0982 23.8853H74.1192ZM70.7733 21.8861H72.4989C73.2144 21.8861 73.6984 21.9913 73.9509 22.2228C74.0351 22.286 74.0772 22.3491 74.1403 22.4333H78.2438C78.2017 21.9703 78.0754 21.5284 77.886 21.1496H66.8382V22.4333H70.7733V21.9072V21.8861ZM52.7181 21.1496H40.8286V22.4333H52.7181V21.1496ZM32.7058 21.7599C32.9373 21.5705 33.274 21.4653 33.7369 21.4653C34.1999 21.4653 34.726 21.5915 35.0416 21.8651C35.21 22.0124 35.3573 22.2018 35.4625 22.4333H39.2713C39.1661 21.9493 39.0188 21.5284 38.8294 21.1496H29.2126C28.9811 21.5494 28.8338 21.9913 28.7707 22.4333H32.3691C32.3691 22.1807 32.4954 21.9493 32.7058 21.7809V21.7599ZM44.8058 30.5139H48.7198V29.2303H44.8058V30.5139ZM66.8593 30.5139H70.7944V29.2303H66.8593V30.5139ZM77.886 29.2303H73.4038L74.0982 30.5139H78.5594L77.9071 29.2303H77.886ZM76.1394 19.6345C75.5081 19.424 74.5822 19.3188 73.3617 19.3188H66.8382V20.392H77.3599C77.0232 20.0343 76.6024 19.7818 76.1394 19.6345ZM66.8593 31.987H70.7944V31.2505H66.8593V31.987ZM78.9382 31.2505H74.498L74.8979 31.987H79.317L78.9382 31.2505ZM61.3669 31.2505L61.5984 31.987H65.7019L65.4283 31.2505H61.388H61.3669ZM44.8058 31.987H48.7198V31.2505H44.8058V31.987ZM52.7181 19.3188H40.8286V20.392H52.7181V19.3188ZM37.8193 20.0133C36.9776 19.403 35.736 19.1084 34.1157 19.1084C32.4954 19.1084 31.7588 19.2767 31.0013 19.6134C30.5173 19.8239 30.1174 20.0974 29.7808 20.4131H38.2613C38.1139 20.2658 37.9877 20.1395 37.8193 20.0343V20.0133ZM60.925 19.3188H56.6532L56.2534 20.392H61.3248L60.925 19.3188ZM51.8974 31.987H55.8956L56.1061 31.2505H52.171L51.8974 31.987ZM34.1367 32.2185C35.3573 32.2185 36.3673 32.0501 37.188 31.6924C37.4616 31.5661 37.7141 31.4188 37.9456 31.2715H29.9912C30.854 31.9028 32.2428 32.2395 34.1157 32.2395L34.1367 32.2185ZM63.8921 27.2101H53.7071L53.2231 28.4938H64.3761L63.8921 27.2101ZM66.8593 28.4938H70.7944V27.2101H66.8593V28.4938ZM59.3047 24.4534H62.84L62.356 23.1698H58.9049L59.3047 24.4534ZM35.4835 29.3145C35.1889 29.567 34.747 29.7143 34.1999 29.7143C33.6527 29.7143 33.1267 29.5459 32.7479 29.2303H28.5602C28.7286 29.6932 28.9601 30.1141 29.2547 30.5139H38.7663C38.8715 30.3877 38.9767 30.2614 39.0609 30.1352C39.2503 29.8405 39.3976 29.5459 39.5028 29.2513H35.5677C35.5467 29.2934 35.5046 29.3145 35.4625 29.3355L35.4835 29.3145ZM77.4231 28.3254C77.3389 28.136 77.1495 27.8835 76.8759 27.5468C76.7707 27.4206 76.6865 27.3153 76.6024 27.2101H72.1833C72.3726 27.3785 72.5831 27.6941 72.8146 28.115L73.0039 28.4727H77.5072L77.4231 28.3254ZM70.7733 23.1698H66.8382V24.4534H70.7733V23.1698ZM64.6497 29.2303H52.9496L52.4656 30.5139H56.3376L56.5269 29.9037H60.9671L61.1565 30.5139H65.1337L64.6497 29.2303ZM61.6195 21.1496H55.9798L55.4958 22.4333H62.0824L61.5984 21.1496H61.6195ZM37.2933 24.4534C36.5357 24.1167 35.4204 23.8011 33.9473 23.4854C33.4844 23.3802 33.1267 23.275 32.8952 23.1698H28.7496C28.7917 23.6327 28.918 24.0536 29.1495 24.4534H37.2933ZM34.9364 27.2101C35.1889 27.3153 35.3783 27.4206 35.5046 27.5258C35.7992 27.7783 35.9254 28.0729 35.9254 28.4096C35.9254 28.7463 35.9254 28.4517 35.9254 28.4938H39.6922C39.7133 28.2833 39.7343 28.0939 39.7343 27.8835C39.7343 27.6731 39.7343 27.4416 39.6712 27.2312H34.9153L34.9364 27.2101ZM44.8058 24.4534H48.7198V23.1698H44.8058V24.4534ZM59.9149 26.4736H63.5975L63.1135 25.1899H59.5151L59.8939 26.4736H59.9149ZM44.8058 28.4938H48.7198V27.2101H44.8058V28.4938ZM32.0955 27.7993H28.2656C28.2656 28.0519 28.3288 28.2833 28.3708 28.4938H32.2218C32.1166 28.2412 32.1587 28.1571 32.0955 27.7993ZM44.8058 26.4736H48.7198V25.1899H44.8058V26.4736ZM57.9579 25.1899H54.4436L53.9596 26.4736H57.5581L57.9369 25.1899H57.9579ZM38.5348 25.1899H29.7597C29.7808 25.211 29.8018 25.232 29.8439 25.2741C30.37 25.7371 31.1907 26.1369 32.2428 26.4736H39.4607C39.3976 26.3052 39.3134 26.1579 39.2293 26.0106C39.0609 25.716 38.8084 25.4425 38.5348 25.211V25.1899ZM58.5682 23.1698H55.2012L54.7172 24.4534H58.1683L58.5471 23.1698H58.5682Z" fill="#36498A"/>
<path d="M26.413 2L20.2894 14.4787L8 16.0781L16.0175 25.5686L14.0815 39.4362L25.3187 33.4599L34.1149 39.5204L35.4196 38.9312L25.2977 30.4718L16.7541 35.0803L18.9847 24.9163L12.861 17.6773L21.8466 16.4147L26.3499 7.40816L31.9053 17.4669L32.6419 16.7514L26.413 2Z" fill="#36498A"/>
<path d="M83.3154 17.0664H83.126V38.215H83.3154V17.0664Z" fill="#333333"/>
</svg>
