<svg width="151" height="46" viewBox="0 0 151 46" fill="none" xmlns="http://www.w3.org/2000/svg">
<path d="M150.704 0.37207H0.704102V45.4274H150.704V0.37207Z" fill="white"/>
<path fill-rule="evenodd" clip-rule="evenodd" d="M66.7656 7.99805H63.702C63.4256 8.25143 62.0436 8.38963 61.5368 8.55087C60.8227 8.78121 60.2469 9.08066 59.6249 9.44921C58.3581 10.1863 57.3676 10.9925 56.4001 12.1212C54.8568 13.8949 53.0371 18.018 53.0371 21.9799V23.0625C53.0371 28.9593 56.8608 32.5757 60.8458 32.5757H62.9649C65.7521 32.5757 69.023 30.6639 70.4281 28.706C71.9484 26.5868 73.9293 23.1316 73.9293 18.9164V17.2348C73.9293 14.0331 72.7546 12.3976 71.6259 10.7391C71.2113 10.1172 70.1056 9.33404 69.4376 8.98853C69.0921 8.82729 66.7426 8.02108 66.7426 7.99805M63.2874 25.8036H62.1357C60.9379 25.8036 59.4867 24.2373 59.4867 22.4176V20.8743C59.4867 18.041 62.0205 14.5859 64.0245 14.5859H64.4391C65.9594 14.5859 67.5027 15.9679 67.5027 18.1101V19.1928C67.5027 22.3024 65.3375 25.7806 63.2874 25.7806V25.8036Z" fill="#0053A5"/>
<path fill-rule="evenodd" clip-rule="evenodd" d="M74.9893 9.84007L75.9337 32.2525H82.6828C83.1434 32.2525 85.3547 23.7528 85.9536 22.7393C85.9536 24.559 86.0688 25.8259 86.0688 27.6457C86.0688 29.4654 85.8154 32.2525 86.3913 32.2525H93.1404C93.4168 32.2525 95.0983 27.0928 95.3517 26.4248C96.1118 24.559 96.7107 22.3247 97.4708 20.4359C97.9546 19.2381 101.64 9.12601 101.686 8.45801H95.8815C95.2595 8.45801 92.2651 19.5606 91.4589 20.4359V8.45801H84.9632C84.9632 8.48104 81.5541 20.4359 81.5541 20.4359H81.3468L81.4159 19.5145L81.0473 10.6232V8.48104H75.0353V9.8631L74.9893 9.84007Z" fill="#0053A5"/>
<path fill-rule="evenodd" clip-rule="evenodd" d="M44.8366 7.99805H41.3584C41.3123 8.04412 37.9033 9.2419 37.3735 9.54135C36.3599 10.1172 34.9088 11.338 34.1717 12.3976C32.5823 14.678 30.9238 18.0871 30.9238 22.5558V23.0165C30.9238 29.1436 35.024 32.5297 39.3544 32.5297H41.2432C43.7309 32.5297 47.1861 30.3875 48.453 28.5908C49.5356 27.0245 49.8351 26.6098 50.6873 24.6289C51.102 23.6614 51.9082 20.6209 51.9082 19.1928V17.0506C51.9082 14.3095 50.6413 12.0751 49.6047 10.7161C49.144 10.1172 48.1766 9.38011 47.5086 9.01156C47.0479 8.73515 44.9287 8.09018 44.8366 7.99805ZM41.1281 25.8036H40.5061C38.6634 25.8036 37.3504 24.3294 37.3504 21.6574C37.3504 18.9855 39.746 14.6089 42.3028 14.6089H42.8326C44.1916 14.6089 45.4816 16.4286 45.4816 18.5939V19.0546C45.4816 22.3254 43.3394 25.8036 41.1511 25.8036H41.1281Z" fill="#0053A5"/>
<path fill-rule="evenodd" clip-rule="evenodd" d="M14.0177 8.46111H13.3958C13.3958 10.419 12.1749 18.4811 11.8064 20.5772C11.4839 22.466 11.2766 24.5852 10.885 26.474C10.6316 27.6948 9.96363 31.15 9.89453 32.2556H18.9701C21.9646 32.2556 24.7517 30.6432 26.272 28.455C27.585 26.5662 29.5198 22.2357 29.5198 18.5962V16.454C29.5198 12.1005 27.1473 8.73752 24.4523 8.48415C21.0432 8.16166 17.565 8.48415 14.0177 8.48415M18.6706 14.9107H20.9741C22.3792 14.9107 23.1854 16.1316 23.1854 18.1356C23.1854 22.6042 21.1123 25.6448 17.9105 25.6448H17.1043L18.6706 14.9107Z" fill="#0053A5"/>
<path fill-rule="evenodd" clip-rule="evenodd" d="M135.893 20.8989C135.202 20.1848 132.737 8.92101 132.069 8.92101H125.527C125.044 8.92101 125.044 10.925 124.951 11.616C124.813 12.7908 124.606 13.7352 124.491 14.6335C124.237 16.7757 123.938 18.6876 123.592 20.7146C123.27 22.6265 123.016 24.7456 122.694 26.6114C122.51 27.694 121.727 31.8172 121.727 32.5543H127.6L129.213 20.8989C129.835 21.5669 132.553 32.5543 133.106 32.5543H139.67C139.67 32.5313 143.425 8.75977 143.425 8.75977H137.482L135.847 20.8759L135.893 20.8989Z" fill="#0053A5"/>
<path fill-rule="evenodd" clip-rule="evenodd" d="M112.238 7.99765H109.497C109.405 8.08978 107.93 8.48137 107.608 8.61957C106.94 8.94205 106.571 9.19543 105.926 9.56399C104.775 10.232 103.992 11.2916 103.185 12.4663C101.688 14.6546 100.214 17.7412 100.214 21.9335V23.4768C100.214 26.1027 102.448 32.8287 103.6 32.8287H103.922C104.567 32.8287 106.387 32.368 107.078 32.2068C108.184 31.9534 109.197 31.8613 109.289 30.0646C109.382 28.6365 109.658 26.978 109.865 25.5268C109.98 24.7667 110.165 21.3346 110.671 21.3346C111.409 21.3346 111.823 29.1663 112.077 30.4792C112.376 31.9995 113.551 31.9765 114.749 32.2759C115.67 32.5062 117.305 32.99 118.158 32.99C119.747 31.4236 121.429 26.6325 121.429 22.5554V21.9335C121.429 18.2249 119.839 14.3321 118.549 12.4663C117.743 11.2916 116.914 10.4163 115.854 9.63309C115.278 9.21847 114.841 9.01116 114.219 8.64261C113.712 8.3662 112.491 8.18192 112.261 7.97461" fill="#ED1C24"/>
<path fill-rule="evenodd" clip-rule="evenodd" d="M108.76 34.8576C76.3731 34.3508 23.2789 34.0975 7.43119 36.8155C6.62499 37.138 6.44072 37.4144 7.66154 37.5987C26.1121 40.0864 75.3596 40.1555 110.119 39.6488C109.865 37.7139 109.474 36.0324 108.736 34.8576" fill="#0053A5"/>
<path fill-rule="evenodd" clip-rule="evenodd" d="M112.559 34.8574C111.73 36.3316 111.545 37.944 111.177 39.4643C122.026 39.4182 133.773 39.0497 143.863 37.6215C144.899 37.3912 144.853 36.9766 143.655 36.7462C133.29 35.4794 123.063 35.2029 112.559 34.8574Z" fill="#0053A5"/>
</svg>
