<svg width="37" height="37" viewBox="0 0 37 37" fill="none" xmlns="http://www.w3.org/2000/svg">
<rect width="37" height="37" rx="4" fill="#FFE3DA"/>
<path d="M18.8998 27.7996C18.6415 27.7996 18.4206 27.7079 18.2373 27.5246C18.054 27.3413 17.9623 27.1204 17.9623 26.8621V22.9246C17.9623 22.6663 18.054 22.4454 18.2373 22.2621C18.4206 22.0788 18.6415 21.9871 18.8998 21.9871C19.1581 21.9871 19.379 22.0788 19.5623 22.2621C19.7456 22.4454 19.8373 22.6663 19.8373 22.9246V23.9496H26.8748C27.1331 23.9496 27.354 24.0413 27.5373 24.2246C27.7206 24.4079 27.8123 24.6288 27.8123 24.8871C27.8123 25.1454 27.7206 25.3663 27.5373 25.5496C27.354 25.7329 27.1331 25.8246 26.8748 25.8246H19.8373V26.8621C19.8373 27.1204 19.7456 27.3413 19.5623 27.5246C19.379 27.7079 19.1581 27.7996 18.8998 27.7996ZM11.1123 25.8246C10.854 25.8246 10.6331 25.7329 10.4498 25.5496C10.2665 25.3663 10.1748 25.1454 10.1748 24.8871C10.1748 24.6288 10.2665 24.4079 10.4498 24.2246C10.6331 24.0413 10.854 23.9496 11.1123 23.9496H15.1498C15.4081 23.9496 15.629 24.0413 15.8123 24.2246C15.9956 24.4079 16.0873 24.6288 16.0873 24.8871C16.0873 25.1454 15.9956 25.3663 15.8123 25.5496C15.629 25.7329 15.4081 25.8246 15.1498 25.8246H11.1123ZM15.1498 21.8871C14.8915 21.8871 14.6706 21.7954 14.4873 21.6121C14.304 21.4288 14.2123 21.2079 14.2123 20.9496V19.9246H11.1123C10.854 19.9246 10.6331 19.8329 10.4498 19.6496C10.2665 19.4663 10.1748 19.2454 10.1748 18.9871C10.1748 18.7288 10.2665 18.5079 10.4498 18.3246C10.6331 18.1413 10.854 18.0496 11.1123 18.0496H14.2123V17.0121C14.2123 16.7538 14.304 16.5329 14.4873 16.3496C14.6706 16.1663 14.8915 16.0746 15.1498 16.0746C15.4081 16.0746 15.629 16.1663 15.8123 16.3496C15.9956 16.5329 16.0873 16.7538 16.0873 17.0121V20.9496C16.0873 21.2079 15.9956 21.4288 15.8123 21.6121C15.629 21.7954 15.4081 21.8871 15.1498 21.8871ZM18.8998 19.9246C18.6415 19.9246 18.4206 19.8329 18.2373 19.6496C18.054 19.4663 17.9623 19.2454 17.9623 18.9871C17.9623 18.7288 18.054 18.5079 18.2373 18.3246C18.4206 18.1413 18.6415 18.0496 18.8998 18.0496H26.8748C27.1331 18.0496 27.354 18.1413 27.5373 18.3246C27.7206 18.5079 27.8123 18.7288 27.8123 18.9871C27.8123 19.2454 27.7206 19.4663 27.5373 19.6496C27.354 19.8329 27.1331 19.9246 26.8748 19.9246H18.8998ZM22.8373 15.9746C22.579 15.9746 22.3581 15.8829 22.1748 15.6996C21.9915 15.5163 21.8998 15.2954 21.8998 15.0371V11.0996C21.8998 10.8413 21.9915 10.6204 22.1748 10.4371C22.3581 10.2538 22.579 10.1621 22.8373 10.1621C23.0956 10.1621 23.3165 10.2538 23.4998 10.4371C23.6831 10.6204 23.7748 10.8413 23.7748 11.0996V12.1371H26.8748C27.1331 12.1371 27.354 12.2288 27.5373 12.4121C27.7206 12.5954 27.8123 12.8163 27.8123 13.0746C27.8123 13.3329 27.7206 13.5538 27.5373 13.7371C27.354 13.9204 27.1331 14.0121 26.8748 14.0121H23.7748V15.0371C23.7748 15.2954 23.6831 15.5163 23.4998 15.6996C23.3165 15.8829 23.0956 15.9746 22.8373 15.9746ZM11.1123 14.0121C10.854 14.0121 10.6331 13.9204 10.4498 13.7371C10.2665 13.5538 10.1748 13.3329 10.1748 13.0746C10.1748 12.8163 10.2665 12.5954 10.4498 12.4121C10.6331 12.2288 10.854 12.1371 11.1123 12.1371H19.0873C19.3456 12.1371 19.5665 12.2288 19.7498 12.4121C19.9331 12.5954 20.0248 12.8163 20.0248 13.0746C20.0248 13.3329 19.9331 13.5538 19.7498 13.7371C19.5665 13.9204 19.3456 14.0121 19.0873 14.0121H11.1123Z" fill="#E85222"/>
</svg>
