<svg width="37" height="37" viewBox="0 0 37 37" fill="none" xmlns="http://www.w3.org/2000/svg">
<rect width="37" height="37" rx="4" fill="#FFE3DA"/>
<path d="M12.5496 26.4499C11.8246 25.7249 11.2559 24.8828 10.8434 23.9236C10.4309 22.9645 10.2246 21.9728 10.2246 20.9486C10.2246 19.9245 10.4184 18.9103 10.8059 17.9061C11.1934 16.902 11.8246 15.9665 12.6996 15.0999C13.6913 14.1082 15.0975 13.3707 16.9184 12.8874C18.7392 12.404 21.0413 12.1999 23.8246 12.2749C24.2329 12.2905 24.6099 12.3764 24.9554 12.5324C25.3009 12.6884 25.6071 12.899 25.8741 13.1644C26.1411 13.4297 26.3517 13.7353 26.5059 14.0811C26.66 14.427 26.7454 14.804 26.7621 15.2124C26.7954 16.529 26.7621 17.754 26.6621 18.8874C26.5621 20.0207 26.3954 21.0499 26.1621 21.9749C25.9288 22.8999 25.6288 23.7249 25.2621 24.4499C24.8954 25.1749 24.4579 25.7915 23.9496 26.2999C23.0884 27.1572 22.1744 27.784 21.2076 28.1804C20.2408 28.5767 19.2537 28.7749 18.2464 28.7749C17.1902 28.7749 16.1621 28.5728 15.1621 28.1686C14.1621 27.7645 13.2913 27.1915 12.5496 26.4499ZM15.1996 26.0999C15.6829 26.3832 16.1788 26.5895 16.6871 26.7186C17.1954 26.8478 17.7163 26.9082 18.2496 26.8999C19.0079 26.8915 19.7579 26.7353 20.4996 26.4311C21.2413 26.127 21.9454 25.6415 22.6121 24.9749C22.9039 24.6785 23.1998 24.2628 23.4996 23.7276C23.7996 23.1925 24.0621 22.4947 24.2871 21.6344C24.5121 20.774 24.6829 19.7335 24.7996 18.5129C24.9163 17.292 24.9329 15.8377 24.8496 14.1499C24.0471 14.1165 23.1424 14.104 22.1354 14.1124C21.1282 14.1207 20.1225 14.1999 19.1184 14.3499C18.1142 14.4999 17.1642 14.7353 16.2684 15.0561C15.3725 15.377 14.6371 15.8249 14.0621 16.3999C13.3371 17.1249 12.8288 17.8561 12.5371 18.5936C12.2454 19.3311 12.0996 20.033 12.0996 20.6994C12.0996 21.658 12.285 22.5061 12.6559 23.2436C13.0267 23.9811 13.3579 24.5082 13.6496 24.8249C14.3163 23.5332 15.2017 22.2853 16.3059 21.0811C17.41 19.877 18.7163 18.8832 20.2246 18.0999C19.0496 19.1249 18.0288 20.2853 17.1621 21.5811C16.2954 22.877 15.6413 24.3832 15.1996 26.0999Z" fill="#E85222"/>
</svg>
