<svg width="98" height="147" viewBox="0 0 98 147" fill="none" xmlns="http://www.w3.org/2000/svg">
<g clip-path="url(#clip0_42_3169)">
<g opacity="0.9">
<path d="M10.6501 135.81C13.1201 135.81 15.1201 137.81 15.1201 140.28C15.1201 142.75 13.1201 144.75 10.6501 144.75C8.18012 144.75 6.18011 142.75 6.18011 140.28C6.18011 137.81 8.18012 135.81 10.6501 135.81Z" fill="#E85222"/>
<path d="M27.7403 136.45C29.8603 136.45 31.5703 138.17 31.5703 140.28C31.5703 142.39 29.8503 144.11 27.7403 144.11C25.6303 144.11 23.9103 142.39 23.9103 140.28C23.9103 138.17 25.6303 136.45 27.7403 136.45Z" fill="#E85222"/>
<path d="M44.8303 137.08C46.6003 137.08 48.0303 138.51 48.0303 140.28C48.0303 142.05 46.6003 143.48 44.8303 143.48C43.0603 143.48 41.6303 142.05 41.6303 140.28C41.6303 138.51 43.0603 137.08 44.8303 137.08Z" fill="#E85222"/>
<path d="M61.92 137.72C63.34 137.72 64.48 138.87 64.48 140.28C64.48 141.69 63.33 142.84 61.92 142.84C60.51 142.84 59.36 141.69 59.36 140.28C59.36 138.87 60.51 137.72 61.92 137.72Z" fill="#E85222"/>
<path d="M79.0099 138.35C80.0699 138.35 80.9399 139.21 80.9399 140.28C80.9399 141.35 80.0799 142.21 79.0099 142.21C77.9399 142.21 77.0799 141.35 77.0799 140.28C77.0799 139.21 77.9399 138.35 79.0099 138.35Z" fill="#E85222"/>
<path d="M96.1001 138.99C96.8101 138.99 97.3901 139.57 97.3901 140.28C97.3901 140.99 96.8101 141.57 96.1001 141.57C95.3901 141.57 94.8101 140.99 94.8101 140.28C94.8101 139.57 95.3901 138.99 96.1001 138.99Z" fill="#E85222"/>
<path d="M10.6501 116.68C13.1201 116.68 15.1201 118.68 15.1201 121.15C15.1201 123.62 13.1201 125.62 10.6501 125.62C8.18012 125.62 6.18011 123.62 6.18011 121.15C6.18011 118.68 8.18012 116.68 10.6501 116.68Z" fill="#E85222"/>
<path d="M27.7403 117.32C29.8603 117.32 31.5703 119.04 31.5703 121.15C31.5703 123.26 29.8503 124.98 27.7403 124.98C25.6303 124.98 23.9103 123.26 23.9103 121.15C23.9103 119.04 25.6303 117.32 27.7403 117.32Z" fill="#E85222"/>
<path d="M44.8303 117.951C46.6003 117.951 48.0303 119.381 48.0303 121.151C48.0303 122.921 46.6003 124.351 44.8303 124.351C43.0603 124.351 41.6303 122.921 41.6303 121.151C41.6303 119.381 43.0603 117.951 44.8303 117.951Z" fill="#E85222"/>
<path d="M61.92 118.59C63.34 118.59 64.48 119.74 64.48 121.15C64.48 122.56 63.33 123.71 61.92 123.71C60.51 123.71 59.36 122.56 59.36 121.15C59.36 119.74 60.51 118.59 61.92 118.59Z" fill="#E85222"/>
<path d="M79.0099 119.22C77.944 119.22 77.0799 120.084 77.0799 121.15C77.0799 122.216 77.944 123.08 79.0099 123.08C80.0759 123.08 80.9399 122.216 80.9399 121.15C80.9399 120.084 80.0759 119.22 79.0099 119.22Z" fill="#E85222"/>
<path d="M96.1001 119.86C96.8101 119.86 97.3901 120.44 97.3901 121.15C97.3901 121.86 96.8101 122.44 96.1001 122.44C95.3901 122.44 94.8101 121.86 94.8101 121.15C94.8101 120.44 95.3901 119.86 96.1001 119.86Z" fill="#E85222"/>
<path d="M10.6501 97.5502C13.1201 97.5502 15.1201 99.5502 15.1201 102.02C15.1201 104.49 13.1201 106.49 10.6501 106.49C8.18012 106.49 6.18011 104.49 6.18011 102.02C6.18011 99.5502 8.18012 97.5502 10.6501 97.5502Z" fill="#E85222"/>
<path d="M27.7403 98.1903C29.8603 98.1903 31.5703 99.9104 31.5703 102.02C31.5703 104.13 29.8503 105.86 27.7403 105.86C25.6303 105.86 23.9103 104.14 23.9103 102.02C23.9103 99.9004 25.6303 98.1904 27.7403 98.1903Z" fill="#E85222"/>
<path d="M44.8303 98.8197C46.6003 98.8197 48.0303 100.25 48.0303 102.02C48.0303 103.79 46.6003 105.22 44.8303 105.22C43.0603 105.22 41.6303 103.79 41.6303 102.02C41.6303 100.25 43.0603 98.8197 44.8303 98.8197Z" fill="#E85222"/>
<path d="M61.92 99.4601C63.34 99.4601 64.48 100.61 64.48 102.02C64.48 103.43 63.33 104.58 61.92 104.58C60.51 104.58 59.36 103.43 59.36 102.02C59.36 100.61 60.51 99.4601 61.92 99.4601Z" fill="#E85222"/>
<path d="M79.0099 100.1C80.0699 100.1 80.9399 100.96 80.9399 102.03C80.9399 103.1 80.0799 103.96 79.0099 103.96C77.9399 103.96 77.0799 103.1 77.0799 102.03C77.0799 100.96 77.9399 100.1 79.0099 100.1Z" fill="#E85222"/>
<path d="M96.1001 100.731C96.8101 100.731 97.3901 101.311 97.3901 102.021C97.3901 102.731 96.8101 103.311 96.1001 103.311C95.3901 103.311 94.8101 102.731 94.8101 102.021C94.8101 101.311 95.3901 100.731 96.1001 100.731Z" fill="#E85222"/>
<path d="M10.6501 78.4204C13.1201 78.4204 15.1201 80.4204 15.1201 82.8904C15.1201 85.3604 13.1201 87.3604 10.6501 87.3604C8.18012 87.3604 6.18011 85.3604 6.18011 82.8904C6.18011 80.4204 8.18012 78.4204 10.6501 78.4204Z" fill="#E85222"/>
<path d="M27.7403 79.0607C29.8603 79.0607 31.5703 80.7807 31.5703 82.8907C31.5703 85.0007 29.8503 86.7207 27.7403 86.7207C25.6303 86.7207 23.9103 85.0007 23.9103 82.8907C23.9103 80.7807 25.6303 79.0607 27.7403 79.0607Z" fill="#E85222"/>
<path d="M44.8303 79.6898C46.6003 79.6898 48.0303 81.1198 48.0303 82.8898C48.0303 84.6598 46.6003 86.0898 44.8303 86.0898C43.0603 86.0898 41.6303 84.6598 41.6303 82.8898C41.6303 81.1198 43.0603 79.6898 44.8303 79.6898Z" fill="#E85222"/>
<path d="M61.92 80.3302C63.34 80.3302 64.48 81.4802 64.48 82.8902C64.48 84.3002 63.33 85.4502 61.92 85.4502C60.51 85.4502 59.36 84.3002 59.36 82.8902C59.36 81.4802 60.51 80.3302 61.92 80.3302Z" fill="#E85222"/>
<path d="M79.0099 80.9701C80.0699 80.9701 80.9399 81.8301 80.9399 82.9001C80.9399 83.9701 80.0799 84.8301 79.0099 84.8301C77.9399 84.8301 77.0799 83.9701 77.0799 82.9001C77.0799 81.8301 77.9399 80.9701 79.0099 80.9701Z" fill="#E85222"/>
<path d="M96.1001 81.6007C96.8101 81.6007 97.3901 82.1807 97.3901 82.8907C97.3901 83.6007 96.8101 84.1807 96.1001 84.1807C95.3901 84.1807 94.8101 83.6007 94.8101 82.8907C94.8101 82.1807 95.3901 81.6007 96.1001 81.6007Z" fill="#E85222"/>
<path d="M10.6501 59.2905C13.1201 59.2905 15.1201 61.2905 15.1201 63.7605C15.1201 66.2305 13.1201 68.2305 10.6501 68.2305C8.18012 68.2305 6.18011 66.2305 6.18011 63.7605C6.18011 61.2905 8.18012 59.2905 10.6501 59.2905Z" fill="#E85222"/>
<path d="M27.7403 59.9308C29.8603 59.9308 31.5703 61.6508 31.5703 63.7608C31.5703 65.8708 29.8503 67.5908 27.7403 67.5908C25.6303 67.5908 23.9103 65.8708 23.9103 63.7608C23.9103 61.6508 25.6303 59.9308 27.7403 59.9308Z" fill="#E85222"/>
<path d="M44.8303 60.5707C46.6003 60.5707 48.0303 62.0007 48.0303 63.7707C48.0303 65.5407 46.6003 66.9707 44.8303 66.9707C43.0603 66.9707 41.6303 65.5407 41.6303 63.7707C41.6303 62.0007 43.0603 60.5707 44.8303 60.5707Z" fill="#E85222"/>
<path d="M61.92 61.2003C63.34 61.2003 64.48 62.3503 64.48 63.7603C64.48 65.1703 63.33 66.3203 61.92 66.3203C60.51 66.3203 59.36 65.1703 59.36 63.7603C59.36 62.3503 60.51 61.2003 61.92 61.2003Z" fill="#E85222"/>
<path d="M79.0099 61.8402C80.0699 61.8402 80.9399 62.7002 80.9399 63.7702C80.9399 64.8402 80.0799 65.7002 79.0099 65.7002C77.9399 65.7002 77.0799 64.8402 77.0799 63.7702C77.0799 62.7002 77.9399 61.8402 79.0099 61.8402Z" fill="#E85222"/>
<path d="M96.1001 62.4708C96.8101 62.4708 97.3901 63.0508 97.3901 63.7608C97.3901 64.4708 96.8101 65.0508 96.1001 65.0508C95.3901 65.0508 94.8101 64.4708 94.8101 63.7608C94.8101 63.0508 95.3901 62.4708 96.1001 62.4708Z" fill="#E85222"/>
<path d="M10.6501 40.1606C13.1201 40.1606 15.1201 42.1606 15.1201 44.6306C15.1201 47.1006 13.1201 49.1006 10.6501 49.1006C8.18012 49.1006 6.18011 47.1006 6.18011 44.6306C6.18011 42.1606 8.18012 40.1606 10.6501 40.1606Z" fill="#E85222"/>
<path d="M27.7403 40.8009C29.8603 40.8009 31.5703 42.5209 31.5703 44.6309C31.5703 46.7409 29.8503 48.4609 27.7403 48.4609C25.6303 48.4609 23.9103 46.7409 23.9103 44.6309C23.9103 42.5209 25.6303 40.8009 27.7403 40.8009Z" fill="#E85222"/>
<path d="M44.8303 41.4408C46.6003 41.4408 48.0303 42.8708 48.0303 44.6408C48.0303 46.4108 46.6003 47.8408 44.8303 47.8408C43.0603 47.8408 41.6303 46.4108 41.6303 44.6408C41.6303 42.8708 43.0603 41.4408 44.8303 41.4408Z" fill="#E85222"/>
<path d="M61.92 42.0704C63.34 42.0704 64.48 43.2204 64.48 44.6304C64.48 46.0404 63.33 47.1904 61.92 47.1904C60.51 47.1904 59.36 46.0404 59.36 44.6304C59.36 43.2204 60.51 42.0704 61.92 42.0704Z" fill="#E85222"/>
<path d="M79.0099 42.7103C80.0699 42.7103 80.9399 43.5703 80.9399 44.6403C80.9399 45.7103 80.0799 46.5703 79.0099 46.5703C77.9399 46.5703 77.0799 45.7103 77.0799 44.6403C77.0799 43.5703 77.9399 42.7103 79.0099 42.7103Z" fill="#E85222"/>
<path d="M96.1001 43.3409C96.8101 43.3409 97.3901 43.9209 97.3901 44.6309C97.3901 45.3409 96.8101 45.9209 96.1001 45.9209C95.3901 45.9209 94.8101 45.3409 94.8101 44.6309C94.8101 43.9209 95.3901 43.3409 96.1001 43.3409Z" fill="#E85222"/>
<path d="M10.6501 21.0405C13.1201 21.0405 15.1201 23.0405 15.1201 25.5105C15.1201 27.9805 13.1201 29.9805 10.6501 29.9805C8.18012 29.9805 6.18011 27.9805 6.18011 25.5105C6.18011 23.0405 8.18012 21.0405 10.6501 21.0405Z" fill="#E85222"/>
<path d="M27.7403 21.6711C29.8603 21.6711 31.5703 23.3911 31.5703 25.5011C31.5703 27.6111 29.8503 29.3311 27.7403 29.3311C25.6303 29.3311 23.9103 27.6111 23.9103 25.5011C23.9103 23.3911 25.6303 21.6711 27.7403 21.6711Z" fill="#E85222"/>
<path d="M44.8303 22.3109C46.6003 22.3109 48.0303 23.7409 48.0303 25.5109C48.0303 27.2809 46.6003 28.7109 44.8303 28.7109C43.0603 28.7109 41.6303 27.2809 41.6303 25.5109C41.6303 23.7409 43.0603 22.3109 44.8303 22.3109Z" fill="#E85222"/>
<path d="M61.92 22.9405C63.34 22.9405 64.48 24.0905 64.48 25.5005C64.48 26.9105 63.33 28.0605 61.92 28.0605C60.51 28.0605 59.36 26.9105 59.36 25.5005C59.36 24.0905 60.51 22.9405 61.92 22.9405Z" fill="#E85222"/>
<path d="M79.0099 23.5804C77.944 23.5804 77.0799 24.4445 77.0799 25.5104C77.0799 26.5763 77.944 27.4404 79.0099 27.4404C80.0759 27.4404 80.9399 26.5763 80.9399 25.5104C80.9399 24.4445 80.0759 23.5804 79.0099 23.5804Z" fill="#E85222"/>
<path d="M96.1001 24.211C96.8101 24.211 97.3901 24.791 97.3901 25.501C97.3901 26.211 96.8101 26.791 96.1001 26.791C95.3901 26.791 94.8101 26.211 94.8101 25.501C94.8101 24.791 95.3901 24.211 96.1001 24.211Z" fill="#E85222"/>
<path d="M10.6501 1.90961C13.1201 1.90961 15.1201 3.90961 15.1201 6.37961C15.1201 8.84961 13.1201 10.8496 10.6501 10.8496C8.18012 10.8496 6.18011 8.84961 6.18011 6.37961C6.18011 3.90961 8.18012 1.90961 10.6501 1.90961Z" fill="#E85222"/>
<path d="M27.7403 2.54021C29.8603 2.54021 31.5703 4.26021 31.5703 6.37021C31.5703 8.48021 29.8503 10.2002 27.7403 10.2002C25.6303 10.2002 23.9103 8.48021 23.9103 6.37021C23.9103 4.26021 25.6303 2.54021 27.7403 2.54021Z" fill="#E85222"/>
<path d="M44.8303 3.18008C46.6003 3.18008 48.0303 4.61008 48.0303 6.38008C48.0303 8.15008 46.6003 9.58008 44.8303 9.58008C43.0603 9.58008 41.6303 8.15008 41.6303 6.38008C41.6303 4.61008 43.0603 3.18008 44.8303 3.18008Z" fill="#E85222"/>
<path d="M61.92 3.80968C63.34 3.80968 64.48 4.95969 64.48 6.36969C64.48 7.77969 63.33 8.92969 61.92 8.92969C60.51 8.92969 59.36 7.77969 59.36 6.36969C59.36 4.95969 60.51 3.80968 61.92 3.80968Z" fill="#E85222"/>
<path d="M79.0099 4.44957C77.944 4.44957 77.0799 5.31367 77.0799 6.37958C77.0799 7.44549 77.944 8.30957 79.0099 8.30957C80.0759 8.30957 80.9399 7.44549 80.9399 6.37958C80.9399 5.31367 80.0759 4.44957 79.0099 4.44957Z" fill="#E85222"/>
<path d="M96.1001 5.08015C96.8101 5.08015 97.3901 5.66016 97.3901 6.37016C97.3901 7.08016 96.8101 7.66016 96.1001 7.66016C95.3901 7.66016 94.8101 7.08016 94.8101 6.37016C94.8101 5.66016 95.3901 5.08015 96.1001 5.08015Z" fill="#E85222"/>
</g>
</g>
<defs>
<clipPath id="clip0_42_3169">
<rect width="144.39" height="146.66" fill="white" transform="translate(97.3901 146.66) rotate(180)"/>
</clipPath>
</defs>
</svg>
