<svg width="128" height="259" viewBox="0 0 128 259" fill="none" xmlns="http://www.w3.org/2000/svg">
<g clip-path="url(#clip0_42_3354)">
<g opacity="0.9">
<path d="M84.5818 129.5C84.5818 152.824 65.6156 171.817 42.3022 171.817C18.9887 171.817 0 152.824 0 129.5C0 106.176 18.9661 87.1826 42.2796 87.1826C65.5931 87.1826 84.5593 106.176 84.5593 129.5H84.5818ZM0.991105 129.5C0.991105 152.282 19.5293 170.824 42.3022 170.824C65.075 170.824 83.6132 152.282 83.6132 129.5C83.6132 106.717 65.075 88.1751 42.3022 88.1751C19.5293 88.1751 0.991105 106.717 0.991105 129.5Z" fill="#714684"/>
<path d="M93.9069 129.409C93.9069 130.898 93.8393 132.387 93.6816 133.875C91.2489 158.508 69.2644 176.576 44.6445 174.14C32.7287 172.967 21.9617 167.215 14.3707 157.944C6.77978 148.673 3.24334 137.011 4.39212 125.078C6.8023 100.446 28.8093 82.3777 53.4293 84.8138C65.3451 85.9868 76.1121 91.7389 83.703 101.01C90.3479 109.108 93.8844 119.055 93.8844 129.409H93.9069ZM5.1805 129.59C5.1805 139.718 8.64936 149.44 15.1366 157.357C22.5699 166.425 33.0891 172.042 44.7571 173.192C68.8365 175.561 90.3479 157.899 92.7131 133.808C93.8618 122.146 90.393 110.709 82.9597 101.664C75.5264 92.596 65.0072 86.9793 53.3392 85.8289C29.2598 83.4604 7.74836 101.123 5.38322 125.214C5.24807 126.68 5.15797 128.146 5.15797 129.59H5.1805Z" fill="#714684"/>
<path d="M103.638 129.409C103.638 132.364 103.368 135.319 102.804 138.297C97.9615 164.215 72.9586 181.381 47.0547 176.531C34.5082 174.185 23.6286 167.08 16.3981 156.546C9.19003 146.011 6.50954 133.289 8.85215 120.725C13.695 94.807 38.6979 77.6411 64.6018 82.4908C77.1483 84.8368 88.0279 91.9422 95.2585 102.476C100.777 110.529 103.638 119.845 103.638 129.409ZM9.00983 129.59C9.00983 138.951 11.8255 148.087 17.209 155.982C24.2819 166.313 34.9362 173.26 47.2349 175.561C72.6207 180.298 97.1055 163.516 101.858 138.116C104.156 125.823 101.52 113.349 94.4701 103.04C87.3972 92.7092 76.7428 85.7616 64.4441 83.4608C39.0583 78.7238 14.5735 95.5062 9.82073 120.905C9.28013 123.815 9.00983 126.725 9.00983 129.612V129.59Z" fill="#714684"/>
<path d="M113.684 129.41C113.684 133.831 113.099 138.275 111.95 142.651C104.697 169.877 76.6755 186.095 49.4652 178.855C36.288 175.336 25.2732 166.899 18.4481 155.08C11.623 143.26 9.79847 129.5 13.3124 116.327C20.5655 89.1002 48.5867 72.8817 75.797 80.1225C88.9742 83.6414 99.989 92.0777 106.814 103.898C111.364 111.77 113.707 120.545 113.707 129.41H113.684ZM12.524 129.59C12.524 138.297 14.8216 146.869 19.2815 154.606C25.9715 166.178 36.7835 174.456 49.713 177.907C76.3827 185.035 103.886 169.11 111.004 142.402C114.45 129.477 112.648 115.966 105.958 104.394C99.2682 92.8221 88.4561 84.5437 75.5267 81.0924C48.857 73.9644 21.3539 89.8897 14.2359 116.597C13.0871 120.906 12.524 125.259 12.524 129.59Z" fill="#714684"/>
<path d="M123.978 129.455C123.978 135.365 123.01 141.297 121.05 147.049C111.387 175.561 80.347 190.878 51.8527 181.223C38.0448 176.531 26.8949 166.764 20.4527 153.681C14.0106 140.598 13.042 125.801 17.7047 111.973C27.3679 83.461 58.4076 68.1448 86.9018 77.7992C100.71 82.4911 111.86 92.2583 118.302 105.341C122.064 112.966 123.956 121.176 123.956 129.455H123.978ZM15.7675 129.545C15.7675 137.666 17.6371 145.718 21.3312 153.23C27.6608 166.065 38.608 175.674 52.1681 180.276C80.1443 189.772 110.621 174.727 120.126 146.734C124.721 133.177 123.775 118.627 117.446 105.792C111.116 92.9575 100.169 83.3482 86.609 78.7466C58.6328 69.2501 28.1563 84.2956 18.6507 112.289C16.7361 117.951 15.79 123.77 15.79 129.568L15.7675 129.545Z" fill="#714684"/>
<path d="M134.475 129.5C134.475 136.921 133.033 144.342 130.172 151.425C118.099 181.223 84.0411 195.637 54.2629 183.569C39.8243 177.726 28.5392 166.583 22.4799 152.237C16.4207 137.891 16.2855 122.033 22.1421 107.597C34.2155 77.7988 68.2735 63.3848 98.0517 75.4528C112.49 81.3177 123.775 92.4383 129.835 106.785C132.921 114.093 134.475 121.808 134.475 129.5ZM18.8083 129.5C18.8083 137.079 20.3175 144.635 23.3584 151.831C29.3276 165.929 40.4099 176.869 54.6007 182.621C83.8834 194.509 117.356 180.321 129.226 151.019C134.97 136.831 134.858 121.244 128.889 107.123C122.919 93.0248 111.837 82.0846 97.6462 76.3326C68.3636 64.445 34.8913 78.6334 23.0205 107.935C20.2049 114.905 18.7858 122.191 18.7858 129.477L18.8083 129.5Z" fill="#714684"/>
<path d="M145.129 129.545C145.129 138.5 143.169 147.433 139.273 155.801C124.789 186.907 87.7352 200.397 56.6505 185.915C41.6038 178.9 30.1835 166.426 24.4847 150.816C18.8084 135.207 19.5292 118.311 26.557 103.243C41.0406 72.1372 78.0944 58.6481 109.179 73.1297C124.226 80.145 135.646 92.619 141.345 108.228C143.868 115.176 145.129 122.372 145.129 129.567V129.545ZM21.6916 129.455C21.6916 136.515 22.9304 143.598 25.4082 150.455C30.9944 165.817 42.2345 178.088 57.056 185.013C87.6451 199.269 124.113 185.983 138.372 155.373C145.287 140.553 146.008 123.928 140.399 108.544C134.813 93.1829 123.573 80.9119 108.751 73.9869C78.162 59.7308 41.6939 73.0169 27.4355 103.627C23.6062 111.86 21.669 120.635 21.669 129.455H21.6916Z" fill="#714684"/>
<path d="M155.941 129.567C155.941 140.101 153.396 150.545 148.395 160.132C131.501 192.524 91.4293 205.133 59.0607 188.216C43.3833 180.027 31.8279 166.222 26.5345 149.327C21.2411 132.455 22.8178 114.499 30.9945 98.822C47.8883 66.43 87.9604 53.8432 120.329 70.7384C136.007 78.9266 147.562 92.7316 152.855 109.604C154.905 116.146 155.941 122.868 155.941 129.545V129.567ZM24.4397 129.432C24.4397 136.019 25.4533 142.628 27.4805 149.079C32.7064 165.704 44.0815 179.305 59.5338 187.381C91.4293 204.028 130.893 191.622 147.539 159.703C155.603 144.252 157.158 126.567 151.932 109.943C146.706 93.318 135.331 79.7161 119.879 71.6407C87.983 54.9936 48.519 67.4 31.8729 99.3182C26.9399 108.77 24.4397 119.056 24.4397 129.432Z" fill="#714684"/>
<path d="M166.866 129.612C166.866 141.748 163.713 153.703 157.518 164.508C138.214 198.186 95.1462 209.893 61.4937 190.584C45.1855 181.223 33.4949 166.087 28.5845 147.929C23.674 129.77 26.1067 110.8 35.4546 94.4911C54.7361 60.8135 97.8267 49.1063 131.479 68.4152C147.787 77.7764 159.478 92.9121 164.388 111.071C166.055 117.206 166.866 123.432 166.866 129.612ZM27.0753 129.387C27.0753 135.5 27.8862 141.635 29.5305 147.681C34.3734 165.568 45.9063 180.524 61.9892 189.727C95.1687 208.765 137.651 197.238 156.685 164.012C165.898 147.929 168.308 129.206 163.442 111.319C158.599 93.4309 147.067 78.4756 130.984 69.2723C97.8041 50.2342 55.3218 61.7609 36.2881 94.9874C30.1838 105.634 27.0753 117.454 27.0753 129.409V129.387Z" fill="#714684"/>
<path d="M177.88 129.635C177.88 143.394 174.051 156.884 166.64 168.861C144.949 203.847 98.8623 214.63 63.9033 192.93C46.9644 182.418 35.1388 165.929 30.6112 146.507C26.0611 127.086 29.3498 107.055 39.869 90.1148C61.5607 55.1288 107.647 44.3465 142.606 66.0464C159.545 76.558 171.371 93.0472 175.898 112.469C177.227 118.153 177.88 123.905 177.88 129.612V129.635ZM29.5976 129.364C29.5976 135.003 30.2508 140.665 31.5573 146.282C36.0398 165.433 47.7078 181.719 64.4214 192.095C98.9073 213.524 144.386 202.877 165.807 168.365C176.191 151.65 179.435 131.89 174.952 112.717C170.47 93.566 158.802 77.2798 142.088 66.9035C107.602 45.4744 62.1238 56.1213 40.7025 90.6336C33.3818 102.453 29.5976 115.785 29.5976 129.341V129.364Z" fill="#714684"/>
<path d="M188.986 129.657C188.986 145.064 184.481 160.109 175.764 173.238C151.662 209.509 102.58 219.389 66.3366 195.276C48.7896 183.591 36.8287 165.771 32.6616 145.086C28.4944 124.402 32.6391 103.333 44.3071 85.7613C68.4089 49.4896 117.491 39.6096 153.734 63.7231C171.281 75.4076 183.242 93.2277 187.409 113.913C188.468 119.168 188.986 124.424 188.986 129.657ZM32.0534 129.342C32.0534 134.507 32.5715 139.718 33.6076 144.906C37.7072 165.343 49.5329 182.937 66.8772 194.464C102.67 218.284 151.144 208.517 174.953 172.696C186.486 155.35 190.563 134.53 186.463 114.116C182.363 93.6789 170.538 76.0844 153.193 64.5577C117.401 40.7375 68.927 50.5047 45.118 86.3253C36.5134 99.273 32.0534 114.138 32.0534 129.342Z" fill="#714684"/>
<path d="M200.135 129.68C200.135 146.756 194.887 163.357 184.863 177.591C158.374 215.148 106.273 224.149 68.724 197.622C50.5462 184.787 38.4503 165.613 34.666 143.665C30.8818 121.717 35.8824 99.6113 48.6992 81.4077C75.1887 43.8502 127.289 34.85 164.839 61.3771C183.016 74.212 195.112 93.3855 198.897 115.334C199.73 120.116 200.135 124.92 200.135 129.68ZM34.4183 129.319C34.4183 134.033 34.8237 138.77 35.6346 143.485C39.3738 165.185 51.3346 184.11 69.2871 196.81C106.386 223.021 157.856 214.133 184.053 177.004C196.734 159.027 201.667 137.169 197.928 115.491C194.189 93.7915 182.228 74.8662 164.276 62.1666C127.177 35.9553 75.6843 44.8428 49.5101 81.9717C39.599 96.0247 34.4183 112.446 34.4183 129.319Z" fill="#714684"/>
<path d="M211.375 129.68C211.375 148.425 205.384 166.629 193.986 181.945C165.086 220.811 109.99 228.886 71.1566 199.968C52.3482 185.96 40.117 165.456 36.7158 142.244C33.3145 119.033 39.1485 95.8672 53.1591 77.0546C82.0588 38.1888 137.155 30.1134 175.988 59.0315C194.797 73.0395 207.028 93.5438 210.429 116.755C211.06 121.086 211.375 125.394 211.375 129.68ZM36.7383 129.319C36.7383 133.56 37.0536 137.823 37.6843 142.109C41.0406 165.072 53.1366 185.328 71.7423 199.178C110.148 227.781 164.636 219.773 193.198 181.358C207.051 162.749 212.817 139.853 209.438 116.89C206.082 93.9273 193.986 73.671 175.38 59.821C136.975 31.2187 82.4868 39.2264 53.9249 77.6411C42.6624 92.7994 36.7383 110.777 36.7383 129.319Z" fill="#714684"/>
<path d="M222.638 129.68C222.638 150.14 215.88 169.9 203.108 186.298C171.821 226.45 113.706 233.646 73.5665 202.314C54.1274 187.133 41.7611 165.298 38.7427 140.823C35.7244 116.349 42.4143 92.1454 57.5737 72.7012C88.8611 32.5497 146.976 25.354 187.116 56.6857C206.555 71.8666 218.921 93.7018 221.939 118.176C222.412 122.033 222.66 125.868 222.66 129.68H222.638ZM39.013 129.319C39.013 133.109 39.2383 136.899 39.7113 140.711C42.7071 164.937 54.9383 186.547 74.1747 201.547C113.864 232.54 171.371 225.435 202.32 185.689C217.322 166.448 223.944 142.515 220.948 118.289C217.952 94.0627 205.721 72.4531 186.485 57.4526C146.796 26.4593 89.2891 33.5647 58.3396 73.3102C45.703 89.5288 39.013 109.086 39.013 129.319Z" fill="#714684"/>
<path d="M233.968 129.68C233.968 151.876 226.423 173.215 212.232 190.651C178.534 232.089 117.424 238.382 75.9998 204.659C55.93 188.328 43.4285 165.139 40.7931 139.402C38.1577 113.642 45.6811 88.4229 62.0118 68.3471C95.7093 26.9098 156.82 20.6164 198.244 54.3392C218.313 70.6705 230.815 93.8591 233.45 119.597C233.788 122.98 233.968 126.341 233.968 129.68ZM41.2436 129.319C41.2436 132.635 41.4238 135.973 41.7617 139.312C44.3746 164.801 56.7634 187.742 76.608 203.915C117.604 237.299 178.106 231.074 211.466 190.042C227.616 170.17 235.095 145.199 232.459 119.709C229.846 94.22 217.458 71.2795 197.613 55.1061C156.617 21.7217 96.1148 27.9474 62.7551 68.9787C48.7219 86.2574 41.2436 107.371 41.2436 129.341V129.319Z" fill="#714684"/>
<path d="M245.321 129.68C245.321 153.613 236.964 176.531 221.355 195.028C185.247 237.774 121.14 243.165 78.4327 207.029C57.7322 189.524 45.0956 165.027 42.8431 138.004C40.568 110.981 48.9699 84.7017 66.4494 64.0168C102.535 21.2712 166.664 15.8801 209.371 52.0165C230.072 69.5208 242.708 94.0177 244.983 121.041C245.231 123.928 245.344 126.838 245.344 129.703L245.321 129.68ZM43.4512 129.342C43.4512 132.184 43.5639 135.049 43.8117 137.914C46.0642 164.666 58.5881 188.938 79.0634 206.262C121.366 242.037 184.864 236.691 220.611 194.374C237.933 173.87 246.222 147.839 243.992 121.086C241.74 94.3335 229.216 70.0621 208.74 52.7383C166.438 16.9629 102.94 22.3089 67.1927 64.6259C51.7405 82.9197 43.4512 105.635 43.4512 129.319V129.342Z" fill="#714684"/>
<path d="M256.696 129.658C256.696 155.328 247.529 179.848 230.455 199.359C191.959 243.391 124.834 247.88 80.843 209.375C59.5342 190.72 46.7399 164.87 44.8478 136.583C42.9557 108.319 52.191 80.98 70.8418 59.6411C109.337 15.6097 176.462 11.1208 220.454 49.6483C241.762 68.303 254.557 94.1533 256.449 122.44C256.606 124.853 256.696 127.267 256.696 129.658ZM45.6137 129.342C45.6137 131.711 45.7038 134.102 45.8615 136.493C47.731 164.509 60.3902 190.111 81.5187 208.608C125.127 246.774 191.621 242.331 229.756 198.705C248.227 177.569 257.372 150.501 255.503 122.485C253.633 94.4691 240.974 68.8669 219.845 50.3701C176.237 12.2036 109.72 16.6699 71.5851 60.2952C54.6913 79.6266 45.5912 103.921 45.5912 129.365L45.6137 129.342Z" fill="#714684"/>
<path d="M268.116 129.635C268.116 157.087 258.092 183.185 239.599 203.712C198.716 249.052 128.573 252.638 83.2751 211.72C61.3357 191.892 48.4063 164.711 46.8971 135.161C45.3879 105.611 55.4566 77.2573 75.2787 55.2867C116.162 9.94706 186.305 6.36048 231.603 47.279C253.542 67.1066 266.472 94.2879 267.981 123.838C268.071 125.777 268.139 127.695 268.139 129.635H268.116ZM47.7305 129.364C47.7305 131.281 47.7756 133.176 47.8882 135.094C49.3748 164.373 62.1916 191.328 83.9283 210.975C128.821 251.533 198.333 247.969 238.856 203.035C258.498 181.268 268.477 153.139 266.99 123.883C265.503 94.6036 252.686 67.648 230.95 48.0008C186.035 7.46578 116.545 11.0072 75.9995 55.9409C57.6416 76.2873 47.7305 102.16 47.7305 129.364Z" fill="#714684"/>
<path d="M279.559 129.612C279.559 158.824 268.702 186.546 248.723 208.066C205.429 254.691 132.313 257.375 85.7084 214.066C63.1382 193.088 50.0736 164.553 48.9474 133.74C47.8437 102.927 58.7458 73.5128 79.7167 50.9332C122.987 4.30777 196.126 1.62348 242.708 44.933C265.279 65.9111 278.343 94.4457 279.469 125.259C279.514 126.702 279.559 128.169 279.559 129.612ZM49.8484 129.387C49.8484 130.83 49.8709 132.251 49.9385 133.695C51.0647 164.237 63.9942 192.524 86.3841 213.321C132.583 256.27 205.091 253.608 248.002 207.366C268.792 184.967 279.627 155.823 278.501 125.259C277.375 94.7164 264.445 66.4299 242.055 45.6323C195.856 2.70622 123.348 5.36795 80.415 51.6099C60.5929 72.9489 49.8259 100.423 49.8259 129.409L49.8484 129.387Z" fill="#714684"/>
<path d="M291.025 129.567C291.025 160.583 279.312 189.885 257.845 212.397C212.164 260.331 136.029 262.113 88.1409 216.389C64.9401 194.238 51.7404 164.373 50.997 132.297C50.2312 100.221 62.0118 69.7686 84.154 46.5574C129.812 -1.33123 205.947 -3.13579 253.836 42.5873C277.037 64.7384 290.236 94.6039 290.98 126.68C291.002 127.65 291.002 128.62 291.002 129.59L291.025 129.567ZM51.9206 129.432C51.9206 130.379 51.9206 131.349 51.9431 132.319C52.6864 164.125 65.7735 193.742 88.7942 215.713C136.3 261.052 211.804 259.27 257.124 211.743C279.086 188.712 290.777 158.531 290.011 126.703C289.268 94.8971 276.181 65.2797 253.16 43.3092C205.654 -2.05305 130.15 -0.271042 84.8298 47.2567C63.5435 69.5881 51.9206 98.6642 51.9206 129.409V129.432Z" fill="#714684"/>
<path d="M302.512 129.545C302.512 162.343 289.921 193.269 266.968 216.773C218.876 265.993 139.746 266.895 90.5509 218.781C66.7194 195.479 53.3845 164.283 53.0241 130.921C52.6187 97.6044 65.2552 66.0922 88.5687 42.2494C136.66 -6.9701 215.791 -7.87239 264.985 40.2418C288.817 63.5432 302.152 94.7396 302.512 128.101C302.512 128.575 302.512 129.071 302.512 129.545ZM53.9927 129.455C53.9927 129.929 53.9927 130.402 53.9927 130.899C54.3756 163.967 67.5979 194.938 91.2267 218.059C140.016 265.79 218.539 264.91 266.247 216.074C289.358 192.412 301.882 161.17 301.499 128.101C301.116 95.0329 287.893 64.062 264.265 40.9411C215.475 -6.78965 136.953 -5.90992 89.2445 42.9261C66.4716 66.2275 53.9702 96.9276 53.9702 129.455H53.9927Z" fill="#714684"/>
<path d="M314 129.5C314 164.102 300.53 196.652 276.068 221.104C225.589 271.609 143.44 271.609 92.9616 221.104C68.4993 196.629 55.0293 164.102 55.0293 129.5C55.0293 94.8972 68.4993 62.3474 92.9616 37.8955C143.44 -12.6097 225.589 -12.6097 276.068 37.8955C300.53 62.3699 314 94.8972 314 129.5ZM56.0429 129.5C56.0429 163.854 69.4003 196.133 93.6824 220.427C143.778 270.549 225.297 270.549 275.392 220.427C299.652 196.133 313.032 163.854 313.032 129.5C313.032 95.1453 299.674 62.8662 275.392 38.5722C225.297 -11.5721 143.778 -11.5721 93.6824 38.5722C69.4228 62.8662 56.0429 95.1453 56.0429 129.5Z" fill="#714684"/>
</g>
</g>
<defs>
<clipPath id="clip0_42_3354">
<rect width="314" height="259" fill="white"/>
</clipPath>
</defs>
</svg>
