<svg width="93" height="139" viewBox="0 0 93 139" fill="none" xmlns="http://www.w3.org/2000/svg">
<g clip-path="url(#clip0_42_3251)">
<g opacity="0.9">
<path d="M9.11448 35.2559L8.16186 37.0093C8.13834 37.056 8.10305 37.1145 8.07953 37.1613C7.98545 37.3483 7.89136 37.5353 7.79727 37.7107C7.85608 37.5938 7.91488 37.4652 7.97369 37.3483C7.8208 37.6288 7.67967 37.8977 7.53854 38.1899L6.97402 39.4173C7.02106 39.3121 7.07987 39.2069 7.12691 39.09C6.42127 40.598 5.78619 42.141 5.23343 43.7191C3.63397 50.4756 2.9636 57.4426 2.76367 69.4477C3.86918 47.2142 7.05635 39.581 8.1501 37.021C8.45588 36.4248 8.77342 35.8403 9.10272 35.2559H9.11448Z" fill="#714684"/>
<path d="M2.03428 52.9531C1.82259 53.8181 1.61089 54.6949 1.44624 55.443L1.35216 55.9106C0.952293 58.4706 1.75202 63.5555 2.76345 69.447C2.69288 68.9444 2.63408 68.43 2.57528 67.9274C1.45801 58.1666 1.63442 55.3495 2.03428 52.9531Z" fill="#714684"/>
<path d="M0.646558 60.1538C0.540711 60.9253 0.434864 61.8838 0.352539 62.6203C0.352539 62.6203 0.352539 62.6437 0.352539 62.6554C0.387821 62.7956 0.399582 62.819 2.77525 69.447C0.717122 61.7436 0.693601 60.9838 0.670079 59.9551C0.670079 60.0135 0.658319 60.0837 0.646558 60.1538Z" fill="#714684"/>
<path d="M0.188172 65.9639C0.15289 66.0691 0.105847 66.1977 0.0705645 66.3029C0.0705645 66.3029 0.0705645 66.3146 0.0705645 66.3262C0.0352823 67.051 0.0235215 67.4952 0.0235215 67.5303C0.0235215 67.9394 0 68.4537 0 68.8862C0.0352823 68.068 0.0588038 68.0446 0.540995 67.6822C1.10551 67.8381 1.84644 68.4304 2.76378 69.459C0.94086 66.186 0.588038 66.0924 0.188172 65.9756V65.9639Z" fill="#714684"/>
<path d="M95.6264 134.324C125.922 121.571 137.518 89.6354 139.435 78.355C139.435 78.2965 139.447 78.2498 139.459 78.1913C139.529 77.5952 139.612 76.847 139.67 76.2742L139.776 75.0936C139.776 75.0936 139.776 75.0585 139.776 75.0352C139.153 81.6982 125.569 127.463 83.7598 137.761C84.3831 137.644 84.9829 137.539 85.5474 137.422C88.4641 136.651 92.2745 135.482 95.1795 134.488C95.3323 134.43 95.4735 134.371 95.6146 134.324H95.6264Z" fill="#714684"/>
<path d="M0.540743 71.3995C1.14054 69.8214 1.4816 69.7396 2.76352 69.4474C0.152638 68.2901 0.105595 70.6865 0.0703125 72.8023C0.105595 73.5387 0.176159 74.5323 0.234963 75.2688L0.293767 75.9701C0.223202 74.883 0.0703125 72.6386 0.540743 71.3878V71.3995Z" fill="#714684"/>
<path d="M139.976 71.0138C139.976 70.7449 139.988 70.4878 139.988 70.2189V70.1137C139.988 70.0786 139.988 70.0202 139.988 69.9851C139.988 69.6812 139.988 69.3889 139.988 69.0967C139.988 68.8395 139.988 68.5824 139.988 68.3603C139.988 68.3486 139.988 68.3369 139.988 68.3252C139.894 73.5972 111.08 149.182 52.5234 136.966C52.5234 136.966 52.5234 136.966 52.5352 136.966C54.1817 137.387 56.4045 137.796 58.0745 138.147C60.2032 138.486 63.0728 138.766 65.2133 139C117.737 140.251 139.306 77.9457 139.976 71.0255V71.0138Z" fill="#714684"/>
<path d="M1.22316 82.4109C1.24668 82.5512 1.28196 82.7032 1.30549 82.8435C-0.164609 74.3335 1.95233 70.7916 2.76382 69.4473C0.0941275 71.8553 0.152931 76.0402 1.22316 82.4109Z" fill="#714684"/>
<path d="M35.5997 130.163C95.1561 160.871 137.201 74.8599 139.812 64.5732C139.812 64.503 139.812 64.4329 139.8 64.3627L139.765 63.9068C139.765 63.8367 139.753 63.7666 139.741 63.6847C139.694 63.1587 139.635 62.5275 139.576 62.0015C139.576 61.9313 139.565 61.8612 139.553 61.8027C130.238 73.9832 125.158 88.8055 115.138 100.553C110.233 106.305 98.7549 119.759 83.3954 127.626C52.6645 143.372 33.0711 129.356 24.6387 122.483C24.9209 122.728 25.2032 122.962 25.4737 123.196L26.8615 124.353C29.3783 126.177 32.8242 128.468 35.4821 130.093C35.5174 130.116 35.5526 130.128 35.5879 130.151L35.5997 130.163Z" fill="#714684"/>
<path d="M1.89305 85.5554C1.89305 85.5554 1.86953 85.4735 1.85777 85.4268C1.88129 85.532 1.90481 85.6489 1.92833 85.7541C2.10474 86.5139 2.37524 87.5309 2.58693 88.279C3.02208 89.8337 3.65716 91.9028 4.23344 93.4107C4.58626 94.3342 5.05669 95.5733 5.4448 96.4851C5.91523 97.5722 6.58559 99.01 7.0913 100.085C7.60878 101.184 8.37322 102.622 8.98478 103.674C9.71395 104.913 10.6548 106.433 11.5369 107.777C21.1572 121.676 36.599 132.652 54.0049 131.133C95.0617 127.544 123.229 81.3238 133.837 63.9298C136.283 59.9164 137.985 57.7928 138.941 57.559C138.941 57.559 138.929 57.4772 138.918 57.4421C138.741 56.4835 138.482 55.2795 138.282 54.3444C138.282 54.3093 138.271 54.2742 138.259 54.2392C138.141 53.9002 137.647 53.6547 137.377 53.4209C135.848 54.2158 134.743 55.7588 129.227 64.1285C115.043 85.6606 98.7193 107.321 75.5977 119.958C23.4035 148.503 -3.58746 93.1536 2.76335 69.4472C0.975711 74.0412 0.775779 79.6405 1.88129 85.5554H1.89305Z" fill="#714684"/>
<path d="M123.393 61.4869C132.708 48.383 134.931 45.2619 136.977 49.4117C136.965 49.3649 136.954 49.3182 136.942 49.2831C136.742 48.6519 136.495 47.9154 136.26 47.214C136.095 46.7348 135.919 46.2555 135.742 45.7645C133.002 39.8964 129.215 45.0164 120.171 57.2203C110.163 70.7333 97.708 87.5429 79.4906 101.816C25.7204 143.933 -0.894134 98.9752 2.76346 69.4475C-4.55173 103.008 42.5501 175.203 123.393 61.4869Z" fill="#714684"/>
<path d="M112.926 53.7831C124.711 38.5049 129.133 32.777 133.52 40.3635C133.496 40.305 133.461 40.2466 133.437 40.1882C132.826 38.914 131.991 37.3359 131.367 36.1202C127.886 30.2053 123.852 32.5666 120.006 36.0033C103.929 50.3697 93.286 69.4587 77.6089 84.1758C27.1553 131.542 2.0696 99.7696 2.76349 69.447C-0.0708557 100.342 34.4469 155.517 112.926 53.7831Z" fill="#714684"/>
<path d="M103.177 41.9885C114.914 27.4351 121.218 22.2449 127.557 30.0184C126.616 28.6858 125.287 27.0026 124.276 25.6816C123.723 25.0153 123.123 24.314 122.535 23.6477C116.973 17.6042 113.962 20.9941 77.9622 61.6269C25.7798 120.507 7.35065 93.9718 3.50488 74.7776C6.77437 92.1833 23.5922 140.718 103.189 41.9768L103.177 41.9885Z" fill="#714684"/>
<path d="M2.83398 70.2188C2.96335 71.6566 3.18681 73.1879 3.50435 74.7777C3.11624 72.732 2.92807 71.1188 2.83398 70.2188Z" fill="#714684"/>
<path d="M2.76367 69.4473C2.76367 69.4473 2.78719 69.7746 2.82248 70.2188C2.79895 69.9616 2.77543 69.6927 2.76367 69.4473Z" fill="#714684"/>
<path d="M80.2082 44.7009C99.7546 20.5621 108.693 11.491 118.407 19.358C118.348 19.2996 118.301 19.2528 118.243 19.2061C116.914 17.967 115.138 16.4824 113.785 15.3252C113.75 15.3018 113.726 15.2784 113.691 15.255C104.624 8.38159 95.0856 14.9511 72.9283 43.2982C15.136 117.223 4.33961 78.0511 2.76367 69.4476C3.5634 75.7132 12.5133 128.293 80.1965 44.6892L80.2082 44.7009Z" fill="#714684"/>
<path d="M64.5664 39.6976C85.1007 12.3792 95.5913 4.86289 106.094 9.9712C105.753 9.76079 105.4 9.56207 105.07 9.36335L104.741 9.17632C104.506 9.03604 104.271 8.90746 104.047 8.77887L101.025 7.21248C100.637 7.02545 100.249 6.83841 99.8722 6.66307C85.8063 0.561145 68.8709 23.6713 57.6511 39.008C21.0634 88.9806 7.6091 83.1476 2.76367 69.4474C5.83323 81.1486 18.0056 101.664 64.5664 39.6976Z" fill="#714684"/>
<path d="M48.6306 38.3646C65.5308 14.518 76.8447 0.221751 90.9458 3.20258C90.4636 3.0623 89.9932 2.91034 89.5228 2.78175C87.7586 2.30248 85.7828 1.8349 84.2069 1.44915C70.141 -0.596515 59.427 13.8283 43.1148 37.5347C32.342 53.1986 12.2781 82.3406 2.76367 69.4587C12.2781 89.6582 39.6336 51.0594 48.6189 38.3763L48.6306 38.3646Z" fill="#714684"/>
<path d="M36.1995 36.6232C53.7348 9.74905 61.6968 0.607855 73.7751 0.128585C73.5399 0.116895 73.2929 0.0935161 73.0577 0.0818266L70.1057 0L67.2479 0.0701371C66.9186 0.0818266 66.601 0.0935161 66.2717 0.116895C53.5936 1.14557 43.1501 17.9434 29.9428 39.1832C20.6518 54.1224 10.1259 71.0489 2.76367 69.4591C10.2082 76.4494 25.8383 52.4859 36.1877 36.6349L36.1995 36.6232Z" fill="#714684"/>
<path d="M25.0032 38.3537C39.1396 13.5953 46.0079 4.27874 56.3691 1.32129C54.5815 1.69535 52.3117 2.29152 50.3829 2.80586C49.983 2.92275 49.5949 3.03965 49.1951 3.15654C38.6692 7.17774 31.107 20.6674 18.7112 44.0815C9.94945 60.6339 6.51531 66.0929 2.77539 69.4595C8.34999 67.5307 15.3359 55.3035 25.0032 38.3654V38.3537Z" fill="#714684"/>
<path d="M40.0687 6.68652C39.857 6.78004 39.6454 6.88525 39.4337 6.99045L36.6346 8.40488L34.9646 9.35173C34.6588 9.52708 34.353 9.70242 34.0472 9.88945C29.0607 13.0807 25.3443 18.8553 20.9928 27.1081C13.807 40.7498 8.97331 55.3967 2.77539 69.4592C5.58621 65.0756 9.31437 57.0099 14.0304 46.8049C26.5321 19.732 31.9421 11.374 40.0687 6.68652Z" fill="#714684"/>
<path d="M26.4381 15.126C26.2734 15.2546 26.1323 15.3715 25.9676 15.5117C25.8618 15.5936 25.7677 15.6754 25.6619 15.7689C25.5325 15.8741 25.4031 15.9793 25.2855 16.0845C24.0859 17.1132 22.7922 18.2588 21.7455 19.1822C15.5123 25.2374 9.12624 42.1521 2.76367 69.4471C15.2536 28.0312 21.1104 20.0239 26.4381 15.126Z" fill="#714684"/>
<path d="M15.0771 26.4881C14.3009 27.5051 13.4777 28.6039 12.772 29.5508C12.6427 29.7495 12.5015 29.9365 12.3722 30.1469C8.1971 36.7164 4.97465 49.9256 2.77539 69.4587C4.58655 57.3133 8.67929 35.5942 15.7945 25.6348C15.5476 25.927 15.3124 26.2076 15.0889 26.4998L15.0771 26.4881Z" fill="#714684"/>
<path d="M2.75185 54.0403C2.9753 52.4155 3.25756 50.8257 3.62214 49.2593C4.08081 46.4772 4.19842 46.1265 4.8923 44.0107C4.86878 44.0692 4.84526 44.1393 4.82174 44.1978C4.39835 45.2615 3.9044 46.6993 3.5163 47.7865V47.8098C2.69304 50.3581 2.57544 53.3507 2.44607 56.8108C2.45783 56.6471 2.48135 56.4951 2.49311 56.3315C2.32846 58.1083 2.23438 59.9085 2.23438 61.732C2.3755 64.5375 2.39903 64.9116 2.77537 69.4471C2.48135 62.2347 2.52839 58.9733 2.76361 54.0403H2.75185Z" fill="#714684"/>
</g>
</g>
<defs>
<clipPath id="clip0_42_3251">
<rect width="140" height="139" fill="white"/>
</clipPath>
</defs>
</svg>
