<svg width="138" height="273" viewBox="0 0 138 273" fill="none" xmlns="http://www.w3.org/2000/svg">
<g clip-path="url(#clip0_42_3378)">
<g opacity="0.9">
<path d="M-18.4015 245.759C-26.8052 242.39 -14.149 191.753 10.4177 130.471C34.9845 69.1891 60.8064 23.8422 69.2101 27.2111C77.6138 30.5799 64.9576 81.2168 40.3908 142.499C15.8241 203.781 -10.002 249.138 -18.4057 245.769L-18.4015 245.759ZM68.921 27.9323C61.1862 24.8316 34.7252 71.924 11.1348 130.771C-12.4557 189.617 -25.8513 241.947 -18.1166 245.048C-16.392 245.739 -10.7283 244.443 4.52799 217.463C15.5294 198.009 28.0127 171.288 39.6696 142.21C51.3266 113.131 60.7682 85.1909 66.2403 63.5208C73.8455 33.4733 70.6456 28.6237 68.921 27.9323Z" fill="#E85222"/>
<path d="M-15.9043 239.529C-26.1581 235.418 -16.0526 186.937 7.11046 129.157C30.2735 71.3763 56.4547 29.3399 66.7084 33.4505C76.9622 37.561 66.8567 86.0418 43.6936 143.822C20.5305 201.603 -5.6506 243.639 -15.9043 239.529ZM66.4235 34.1612C61.8976 32.3469 53.0538 41.3946 42.1625 58.9997C31.0074 77.0207 18.8224 102.029 7.83167 129.446C-3.15906 156.862 -11.623 183.363 -16.0008 204.089C-20.282 224.331 -20.1411 236.993 -15.6152 238.807C-11.0894 240.622 -2.24549 231.574 8.64579 213.969C19.8009 195.948 31.9859 170.939 42.9724 143.533C53.9589 116.127 62.4271 89.6163 66.8091 68.8801C71.0903 48.6373 70.9493 35.9755 66.4235 34.1612Z" fill="#E85222"/>
<path d="M-13.4026 233.289C-19.2663 230.939 -20.6622 218.623 -17.3284 198.595C-14.0303 178.747 -6.5251 153.609 3.81197 127.823C14.149 102.037 26.0861 78.676 37.4115 62.0457C48.8417 45.2754 58.3622 37.3238 64.2155 39.6703C70.0688 42.0168 71.4752 54.3365 68.1414 74.3647C64.8433 94.213 57.3381 119.351 47.001 145.137C36.6639 170.923 24.7269 194.284 13.4014 210.914C1.97128 227.684 -7.54927 235.636 -13.4026 233.289ZM63.9222 40.402C52.4142 35.7886 25.7688 75.1397 4.52899 128.123C-16.7108 181.105 -24.6257 227.965 -13.1176 232.579C-1.60962 237.192 25.0358 197.841 46.2756 144.858C67.5154 91.8751 75.4407 45.0195 63.9222 40.402Z" fill="#E85222"/>
<path d="M-10.9053 227.059C-17.6366 224.361 -20.1285 212.358 -17.9141 193.276C-15.7125 174.347 -9.17651 150.629 0.494331 126.505C10.1652 102.381 21.8228 80.7151 33.3061 65.5069C44.8899 50.1691 54.968 43.2175 61.7098 45.9202C68.4515 48.6228 70.9329 60.6214 68.7186 79.7031C66.5169 98.6321 59.981 122.351 50.3101 146.475C40.6393 170.599 28.9817 192.264 17.4983 207.472C5.91455 222.81 -4.16357 229.762 -10.9053 227.059ZM61.4207 46.6414C48.0835 41.2948 21.0768 77.2496 1.21554 126.794C-18.6457 176.338 -23.9534 220.991 -10.6162 226.338C2.72097 231.684 29.7277 195.73 49.5889 146.186C69.4502 96.6416 74.7578 51.988 61.4207 46.6414Z" fill="#E85222"/>
<path d="M-8.40403 220.82C-23.9571 214.585 -21.4466 171.673 -2.80465 125.171C15.8373 78.6683 43.6633 45.9051 59.2164 52.14C74.7695 58.375 72.2589 101.287 53.617 147.789C34.9751 194.291 7.14904 227.055 -8.40403 220.82ZM58.9231 52.8717C43.7672 46.796 16.3951 79.3651 -2.08763 125.47C-20.5703 171.576 -23.275 214.033 -8.1191 220.109C7.03677 226.185 34.4089 193.616 52.8916 147.51C71.3743 101.405 74.079 58.9474 58.9231 52.8717Z" fill="#E85222"/>
<path d="M-5.90659 214.59C-23.2888 207.622 -23.375 166.92 -6.11165 123.857C11.1517 80.7931 39.3391 51.4262 56.7108 58.3902C74.0826 65.3542 74.1793 106.06 56.9159 149.123C39.6525 192.187 11.4652 221.554 -5.90659 214.59ZM56.4217 59.1114C39.4367 52.3024 11.7137 81.4794 -5.39044 124.146C-22.4946 166.812 -22.5921 207.064 -5.61747 213.869C11.3571 220.673 39.0905 191.501 56.1947 148.834C73.2988 106.168 73.3963 65.9162 56.4217 59.1114Z" fill="#E85222"/>
<path d="M-3.40531 208.349C-22.6062 200.652 -25.2996 162.157 -9.41064 122.522C6.47836 82.8867 35.0165 56.9118 54.2175 64.6091C73.4184 72.3063 76.1118 110.801 60.2228 150.437C44.3338 190.072 15.7956 216.047 -3.40531 208.349ZM53.9242 65.3407C35.1204 57.8027 7.03616 83.5835 -8.69361 122.821C-24.4234 162.06 -21.9241 200.101 -3.12038 207.639C15.6834 215.177 43.7676 189.396 59.4974 150.158C75.2272 110.92 72.7279 72.8788 53.9242 65.3407Z" fill="#E85222"/>
<path d="M-0.907565 202.12C-21.9272 193.694 -27.234 157.39 -12.7278 121.204C1.77847 85.0185 30.6821 62.4293 51.7122 70.8599C72.7423 79.2904 78.0387 115.59 63.5324 151.776C49.0262 187.962 20.1225 210.551 -0.907565 202.12ZM51.4231 71.5811C30.8006 63.314 2.34045 85.7048 -12.0066 121.494C-26.3536 157.282 -21.2513 193.128 -0.618445 201.399C20.0145 209.67 48.4642 187.275 62.8112 151.487C77.1582 115.698 72.056 79.8524 51.4231 71.5811Z" fill="#E85222"/>
<path d="M1.59379 195.881C-21.255 186.721 -29.1586 152.628 -16.0309 119.881C-2.90317 87.1335 26.3617 67.9406 49.2105 77.1003C72.0593 86.2599 79.9629 120.353 66.8352 153.1C53.7075 185.847 24.4426 205.04 1.59379 195.881ZM48.9256 77.811C26.474 68.8106 -2.337 87.8094 -15.3097 120.17C-28.2823 152.53 -20.5729 186.169 1.87872 195.17C24.3303 204.17 53.1413 185.171 66.114 152.811C79.0866 120.451 71.3772 86.8114 48.9256 77.811Z" fill="#E85222"/>
<path d="M4.09116 189.651C-20.5763 179.762 -31.0829 147.865 -19.3338 118.557C-7.58462 89.2483 22.0457 73.4412 46.7132 83.3299C71.3807 93.2186 81.8873 125.116 70.1382 154.424C58.389 183.733 28.7587 199.54 4.09116 189.651ZM46.4241 84.0511C22.1538 74.3216 -7.02264 89.9346 -18.6126 118.846C-30.2025 147.757 -19.89 179.2 4.38028 188.93C28.6506 198.659 57.827 183.046 69.417 154.135C81.0069 125.224 70.6944 93.7806 46.4241 84.0511Z" fill="#E85222"/>
<path d="M6.59252 183.41C-19.8937 172.792 -33.0074 143.101 -22.6369 117.232C-12.2663 91.3624 17.7254 78.9515 44.2116 89.5693C70.6978 100.187 83.8115 129.878 73.441 155.748C63.0704 181.617 33.0787 194.028 6.59252 183.41ZM43.9266 90.28C17.8376 79.8215 -11.7001 92.0383 -21.9114 117.511C-32.1228 142.983 -19.2032 172.22 6.88583 182.679C32.9748 193.137 62.5126 180.92 72.7239 155.448C82.9353 129.976 70.0157 100.739 43.9266 90.28Z" fill="#E85222"/>
<path d="M9.0897 177.18C-19.2257 165.829 -34.9466 138.345 -25.9504 115.903C-16.9542 93.4622 13.3987 84.4475 41.7141 95.7986C70.0295 107.15 85.7504 134.635 76.7542 157.076C67.758 179.517 37.4051 188.532 9.0897 177.18ZM41.425 96.5198C13.5068 85.328 -16.3922 94.1485 -25.2292 116.193C-34.0662 138.236 -18.5394 165.267 9.37882 176.459C37.297 187.651 67.196 178.831 76.033 156.787C84.87 134.743 69.3432 107.712 41.425 96.5198Z" fill="#E85222"/>
<path d="M11.5915 170.941C-18.5425 158.861 -36.8665 133.572 -29.253 114.58C-21.6395 95.5878 9.07886 89.9588 39.2129 102.039C69.347 114.119 87.6709 139.408 80.0575 158.4C72.444 177.392 41.7256 183.021 11.5915 170.941ZM38.928 102.75C9.19112 90.8288 -21.0733 96.2636 -28.5276 114.858C-35.9819 133.453 -17.852 158.288 11.8848 170.209C41.6217 182.13 71.8862 176.695 79.3404 158.101C86.7947 139.506 68.6649 114.671 38.928 102.75Z" fill="#E85222"/>
<path d="M14.0928 164.7C-17.8704 151.887 -38.7911 128.808 -32.552 113.245C-26.3129 97.6813 4.76678 95.4486 36.7196 108.258C68.6723 121.067 89.6035 144.15 83.3644 159.713C77.1252 175.277 46.0456 177.51 14.0928 164.7ZM36.4262 108.99C4.86021 96.3353 -25.7551 98.3781 -31.835 113.544C-37.9149 128.711 -17.1778 151.34 14.3777 163.99C45.9333 176.64 76.5591 174.601 82.639 159.435C88.7189 144.268 67.9818 121.64 36.4262 108.99Z" fill="#E85222"/>
<path d="M16.5903 158.471C-17.1917 144.929 -40.7154 124.046 -35.859 111.932C-31.0026 99.8176 0.432056 100.966 34.214 114.509C67.9959 128.052 91.5238 148.924 86.6632 161.049C81.8027 173.173 50.3722 172.014 16.5903 158.471ZM33.9291 115.22C0.544314 101.836 -30.4364 100.493 -35.1336 112.211C-39.8307 123.928 -16.5012 144.357 16.8836 157.74C50.2683 171.123 81.2553 172.481 85.9525 160.764C90.6496 149.047 67.3201 128.618 33.9353 115.234L33.9291 115.22Z" fill="#E85222"/>
<path d="M19.0918 152.231C-17.115 137.716 -42.7088 119.425 -39.1681 110.593C-35.6274 101.76 -4.48595 106.213 31.7209 120.728C67.9278 135.242 93.5173 153.544 89.9767 162.376C86.436 171.209 55.2945 166.756 19.0876 152.241L19.0918 152.231ZM31.4276 121.459C-3.77584 107.347 -35.1283 102.603 -38.4511 110.892C-41.7739 119.181 -15.8371 137.404 19.3768 151.52C54.5907 165.637 85.9327 170.376 89.2555 162.087C92.5783 153.799 66.6415 135.576 31.4276 121.459Z" fill="#E85222"/>
<path d="M21.5893 146.002C-11.7745 132.627 -44.8635 115.237 -42.4751 109.28C-40.0867 103.322 -4.14849 113.604 29.2153 126.979C62.5792 140.354 95.6681 157.743 93.2797 163.701C90.8914 169.659 54.9531 159.377 21.5893 146.002ZM28.9262 127.7C-11.2421 111.597 -40.0527 105.325 -41.7539 109.569C-43.4551 113.812 -18.2899 129.178 21.8784 145.281C62.0467 161.383 90.8573 167.656 92.5585 163.412C94.2597 159.168 69.0945 143.803 28.9262 127.7Z" fill="#E85222"/>
</g>
</g>
<defs>
<clipPath id="clip0_42_3378">
<rect width="235.455" height="146.257" fill="white" transform="translate(137.087 54.4219) rotate(111.845)"/>
</clipPath>
</defs>
</svg>
