<svg width="113" height="165" viewBox="0 0 113 165" fill="none" xmlns="http://www.w3.org/2000/svg">
<g clip-path="url(#clip0_42_3281)">
<path d="M2.10126 2.36115C1.03154 2.88901 -0.00886436 3.51951 -1.01997 4.23798C-2.01641 4.95646 -2.98355 5.77757 -3.89208 6.672C-6.25131 9.01804 -8.03907 11.7893 -9.26997 14.7512C-10.4862 17.7277 -11.131 20.9095 -11.2043 24.1207C-11.2775 27.3318 -10.7646 30.5723 -9.66562 33.6368C-9.24066 34.8098 -8.74244 35.9682 -8.15629 37.0826C-8.1856 37.0826 -8.20026 37.0679 -8.22957 37.0532C-8.34679 37.0239 -8.46402 36.9799 -8.58125 36.9506C-9.07947 36.7893 -9.56304 36.6573 -10.032 36.5107C-10.4569 35.6749 -10.8379 34.8245 -11.1603 33.9594C-12.3179 30.9095 -12.8894 27.6837 -12.8748 24.4873C-12.8601 21.2908 -12.2593 18.109 -11.0724 15.1471C-9.88542 12.1852 -8.11233 9.4286 -5.7531 7.08256C-5.13764 6.46672 -4.49288 5.89488 -3.81882 5.35235C-3.14475 4.82449 -2.45602 4.32596 -1.75265 3.88608C-1.04927 3.44619 -0.316597 3.03564 0.416085 2.68373C0.928962 2.43446 1.44185 2.21452 1.96938 1.99458C2.20384 1.90661 2.43829 1.80397 2.67275 1.73065C2.76067 1.70133 2.86325 1.672 2.95117 1.62801C3.72781 1.36408 4.69495 1.10015 5.44228 0.880212C5.44228 0.880212 5.47159 0.880212 5.48624 0.880212C5.51555 0.880212 5.53021 0.880212 5.55952 0.865549C6.01378 0.76291 6.54131 0.645608 7.0835 0.542969C6.512 0.674934 5.94051 0.821561 5.36902 0.997514C4.24069 1.34942 3.14167 1.7893 2.07195 2.33183L2.10126 2.36115Z" fill="#E85222"/>
<path d="M7.12732 0.571604C7.61089 0.468965 8.09446 0.366325 8.57803 0.293012C8.66595 0.293012 8.75388 0.263686 8.8418 0.249023C8.81249 0.249023 8.78319 0.249023 8.75388 0.263686C8.25565 0.351663 7.69882 0.454302 7.12732 0.571604Z" fill="#E85222"/>
<path d="M-2.80774 39.0766C-3.55507 38.7541 -4.37568 38.4315 -5.13767 38.1529C-13.4756 22.4051 -4.19983 -0.615451 16.4032 0.000384485L16.7256 0.02971C17.6781 0.117687 18.8503 0.29364 19.9201 0.440267C20.2717 0.484255 20.5941 0.542907 20.9019 0.586895C20.6821 0.557569 20.4476 0.528244 20.2278 0.498918C0.474676 -1.99375 -12.4791 21.0561 -2.80774 39.0766Z" fill="#E85222"/>
<path d="M19.8909 2.94759C18.0446 3.43146 16.1982 4.19393 14.4105 5.23498C12.6227 6.27604 10.8936 7.61035 9.26705 9.23791C6.89316 11.5986 4.98818 14.3406 3.55212 17.2878C2.11607 20.235 1.16358 23.3728 0.723971 26.5253C0.284362 29.6778 0.342978 32.8303 0.943778 35.8068C1.36873 37.9476 2.08676 40.0004 3.08321 41.8919C2.29191 41.4813 1.442 41.0414 0.738628 40.7042C0.665359 40.6602 0.577443 40.6309 0.504175 40.6015C-0.462965 38.798 -1.19565 36.8625 -1.66457 34.8537C-2.3826 31.8332 -2.55844 28.6367 -2.20676 25.4549C-1.85507 22.2731 -0.975842 19.1059 0.4016 16.1441C1.77904 13.1822 3.66936 10.4256 6.02859 8.06489C7.56723 6.53997 9.20844 5.26431 10.9083 4.25258C12.6081 3.24085 14.3812 2.49305 16.1689 1.99451C17.9567 1.49598 19.7591 1.26137 21.5468 1.27604C23.2027 1.27604 24.8439 1.5253 26.4265 1.97985C26.5437 2.00917 26.6609 2.0385 26.7781 2.08249C27.0566 2.17047 27.3496 2.2731 27.6574 2.37574C28.434 2.63967 29.2693 2.94759 30.0166 3.22618C28.5366 2.72765 26.998 2.43439 25.4154 2.36108C23.5983 2.2731 21.752 2.47838 19.9056 2.94759H19.8909Z" fill="#E85222"/>
<path d="M34.3685 6.04126C32.6247 5.87996 30.7784 6.04125 28.9173 6.52513C27.0417 7.009 25.1367 7.81545 23.261 8.92982C21.3854 10.0589 19.5244 11.4958 17.7513 13.27C15.3774 15.6307 13.3845 18.3433 11.8165 21.2319C10.2486 24.1204 9.09097 27.1703 8.40225 30.2055C7.71353 33.2407 7.49372 36.2612 7.77214 39.0911C7.99195 41.3932 8.56343 43.5779 9.48661 45.5281C9.16423 45.3374 8.85651 45.1468 8.56344 44.9709C8.02125 44.6483 7.39114 44.2671 6.76104 43.9005C5.7939 41.965 5.16379 39.8242 4.84141 37.5662C4.43111 34.663 4.53369 31.5838 5.10518 28.4899C5.69132 25.3961 6.74638 22.3023 8.27036 19.399C9.77968 16.4811 11.7433 13.7539 14.1025 11.3932C15.817 9.67762 17.634 8.28466 19.4804 7.18495C21.3268 6.09991 23.2317 5.30812 25.1074 4.83891C26.9831 4.3697 28.8441 4.19375 30.6318 4.34038C32.1705 4.45768 33.6505 4.80958 35.0426 5.39609C35.2624 5.48407 35.4968 5.58671 35.7166 5.68935C36.6838 6.15856 37.9147 6.80372 38.9258 7.33158C38.8232 7.28759 38.7353 7.22894 38.6327 7.18495C37.3139 6.56911 35.8778 6.18788 34.3831 6.05592L34.3685 6.04126Z" fill="#E85222"/>
<path d="M32.6832 14.3111C30.8076 15.5135 28.9026 17.0384 27.0562 18.9006C24.6823 21.276 22.6162 23.9446 20.887 26.7305C19.1726 29.5311 17.7951 32.449 16.8426 35.3229C15.8901 38.1968 15.348 41.0267 15.2747 43.6513C15.2014 45.9827 15.5091 48.1381 16.2272 50.015C15.2747 49.3405 14.2929 48.6806 13.3844 48.0648C12.5638 46.144 12.1388 43.9592 12.0802 41.6132C12.0069 38.9006 12.4172 35.9827 13.2525 33.0355C14.0877 30.0883 15.3626 27.1117 17.0185 24.2672C18.6743 21.4372 20.7112 18.7393 23.0851 16.3786C24.9021 14.5604 26.7925 13.0648 28.6681 11.8918C30.5584 10.7188 32.4341 9.88299 34.2658 9.3698C36.0975 8.8566 37.856 8.66599 39.5118 8.81261C41.153 8.95924 42.6917 9.44311 44.0398 10.2642L47.0438 12.1557L47.1903 12.2437L47.4834 12.4343C47.4834 12.4343 47.3955 12.3757 47.3515 12.3463C46.1499 11.5985 44.7871 11.1587 43.2778 11.0414C41.7099 10.9241 40.01 11.1293 38.2223 11.6719C36.4346 12.2144 34.5735 13.0941 32.6979 14.2965L32.6832 14.3111Z" fill="#E85222"/>
<path d="M42.5452 21.0851C40.7281 22.3754 38.8231 23.9883 36.9328 25.8798C34.5589 28.2552 32.3902 30.8652 30.5145 33.5484C28.6389 36.2317 27.0416 39.003 25.7961 41.6716C24.5652 44.3549 23.6713 46.9502 23.2317 49.2962C22.8067 51.4957 22.7774 53.4898 23.1731 55.132C23.0558 55.044 22.9386 54.9561 22.836 54.8681C22.0887 54.2669 21.1362 53.5484 20.257 52.8886C19.7295 51.1438 19.6122 49.0763 19.876 46.8182C20.1691 44.3549 20.9017 41.6423 22.0154 38.8857C23.1291 36.1144 24.6384 33.2845 26.4408 30.5572C28.2579 27.8153 30.3827 25.1907 32.7565 22.8153C34.6469 20.9385 36.5372 19.3549 38.3835 18.1086C40.2299 16.8476 42.0323 15.9238 43.7321 15.308C45.4319 14.7068 47.0292 14.4135 48.4506 14.4722C49.7255 14.5309 50.8684 14.8388 51.8502 15.4399C51.9675 15.5133 52.0847 15.5866 52.1873 15.6599L53.257 16.437L54.2241 17.1408L55.5869 18.1526C54.6784 17.4781 53.5354 17.1408 52.2166 17.1408C50.8978 17.1408 49.3884 17.4781 47.7619 18.1379C46.1353 18.7977 44.3769 19.7801 42.5452 21.0704V21.0851Z" fill="#E85222"/>
<path d="M57.4187 25.7188C55.968 26.5399 54.3561 27.6543 52.6123 29.0473C50.8685 30.4402 49.0075 32.1118 47.0732 34.0473C44.6993 36.4226 42.4427 38.9593 40.4058 41.5253C38.369 44.0766 36.5226 46.6572 34.9986 49.1059C33.4747 51.5546 32.2437 53.8713 31.4085 55.9094C30.6025 57.8889 30.1629 59.6045 30.1776 60.9388C30.0897 60.8654 30.0017 60.7775 29.9138 60.7042C29.1372 60.0297 28.1407 59.1939 27.2469 58.4461C27.071 56.9652 27.3201 55.1323 27.9649 53.0502C28.6389 50.8654 29.7233 48.4314 31.1301 45.8801C32.5368 43.3288 34.2659 40.6748 36.2442 38.0649C38.2224 35.4549 40.4351 32.8889 42.809 30.5135C44.7286 28.5927 46.6043 26.9505 48.3921 25.6015C50.1651 24.2525 51.8503 23.1968 53.3743 22.449C54.8983 21.7012 56.2757 21.276 57.4334 21.1587C58.5324 21.0561 59.4409 21.2467 60.1296 21.7452C60.1736 21.7745 60.2175 21.8039 60.2615 21.8478L60.8623 22.3464L61.3312 22.7276L63.6025 24.6191C63.0457 24.1499 62.2104 24.0179 61.17 24.2086C60.115 24.3992 58.8401 24.9124 57.404 25.7335L57.4187 25.7188Z" fill="#E85222"/>
<path d="M35.8047 65.9822C35.2918 65.5129 34.7643 65.0291 34.2661 64.5599C34.5005 63.4455 35.1746 61.9206 36.215 60.117C37.27 58.2695 38.7061 56.1288 40.4059 53.8267C42.1058 51.5247 44.084 49.076 46.2234 46.598C48.3629 44.12 50.6635 41.6273 53.0374 39.2519C54.9863 37.3018 56.818 35.5863 58.5032 34.1346C60.1883 32.683 61.7123 31.4807 63.0458 30.5569C64.3793 29.6332 65.5076 29.0027 66.3868 28.6801C67.2661 28.3575 67.9108 28.3429 68.2625 28.6508L68.409 28.7827L70.7683 30.9528L71.5596 31.6713C71.5596 31.6713 71.5303 31.6566 71.5303 31.642C71.2958 31.4807 70.7976 31.6273 70.0796 32.0379C69.3176 32.4631 68.2772 33.1962 67.0316 34.1933C65.786 35.1904 64.3207 36.4514 62.6941 37.9616C61.0529 39.4719 59.2505 41.2021 57.3016 43.1522C54.9277 45.5276 52.5831 47.9909 50.3704 50.3956C48.1577 52.815 46.0915 55.1757 44.2745 57.3604C42.4574 59.5452 40.8748 61.554 39.6439 63.2549C38.4423 64.9264 37.5924 66.2901 37.1675 67.2432C37.0942 67.1698 37.0063 67.0819 36.9184 67.0085C36.8011 66.8912 36.6693 66.7739 36.5374 66.6566C36.5374 66.6566 36.5667 66.6713 36.5667 66.686L35.7754 65.9675L35.8047 65.9822Z" fill="#E85222"/>
<path d="M41.2117 71.1583C46.5456 65.5131 74.0798 37.7859 76.1313 36.0703L76.2046 36.1436C77.0691 37.0087 78.0216 37.9765 78.7836 38.7536C78.9301 38.9002 79.0767 39.0615 79.2379 39.2228L79.3258 39.3108C79.4284 39.4427 79.2232 39.868 78.7396 40.5571C78.2414 41.2609 77.4648 42.2287 76.4244 43.4164C75.384 44.6187 74.0798 46.041 72.5558 47.6539C71.0318 49.2668 69.2734 51.0703 67.3244 53.0205C64.9506 55.3958 62.5181 57.7712 60.1442 60.0293C57.7703 62.2873 55.4697 64.4134 53.3595 66.3196C51.2494 68.2257 49.3298 69.8973 47.7325 71.2169C46.1499 72.5219 44.8751 73.4897 44.0398 74.0175C43.9519 73.9295 43.864 73.8416 43.7907 73.7536C43.0287 72.9765 42.0762 72.0087 41.2117 71.1436V71.1583Z" fill="#E85222"/>
<path d="M81.8902 57.9326C80.4688 59.6481 78.7836 61.5103 76.864 63.4458C74.4901 65.8212 71.9844 68.1085 69.4639 70.1907C66.9435 72.2728 64.4231 74.1643 62.0345 75.7772C59.646 77.3754 57.404 78.6951 55.4404 79.6188C53.5208 80.5279 51.8796 81.0558 50.634 81.1437C50.5607 81.0558 50.4728 80.9531 50.3995 80.8651C49.6815 80.044 48.773 79.0323 47.9377 78.1232C49.0221 77.8593 50.5168 77.1408 52.2899 76.0704C54.1069 74.9707 56.217 73.5191 58.4883 71.7889C60.7597 70.0587 63.1922 68.0646 65.654 65.9091C68.1158 63.7537 70.5923 61.437 72.9661 59.047C74.9004 57.0968 76.6149 55.264 78.0803 53.5924C79.5456 51.9209 80.7472 50.3959 81.6704 49.0763C82.5936 47.7566 83.253 46.6423 83.59 45.7772C83.9271 44.9121 83.971 44.2962 83.678 43.959L86.1398 46.7302L86.7259 47.3901C86.7259 47.3901 86.7845 47.4634 86.8138 47.5074C87.1509 47.9912 87.1948 48.7097 86.975 49.6188C86.7406 50.6012 86.1837 51.8329 85.3338 53.2258C84.4839 54.6335 83.3409 56.217 81.9195 57.9326H81.8902Z" fill="#E85222"/>
<path d="M48.7147 79.0323C48.7147 79.0323 48.7147 79.0029 48.6853 78.9883L50.6196 81.1584L48.7 78.9883C48.7 78.9883 48.7147 79.0176 48.7293 79.0323H48.7147Z" fill="#E85222"/>
<path d="M55.9095 87.3751C55.382 86.73 54.8251 86.0408 54.2976 85.4103C55.763 85.5716 57.5947 85.293 59.6755 84.6332C61.8442 83.944 64.2621 82.8443 66.7971 81.422C69.3322 79.9997 71.9845 78.2549 74.5782 76.2607C77.1866 74.2666 79.7363 72.0525 82.1102 69.6625C84.0298 67.7417 85.671 65.8649 87.0192 64.076C88.3673 62.3018 89.4224 60.6302 90.1697 59.1053C90.917 57.5804 91.3567 56.2168 91.4739 55.0584C91.5765 53.944 91.386 53.0349 90.8877 52.3458C90.8584 52.3165 90.8438 52.2871 90.8145 52.2578L91.005 52.4924L93.4375 55.5716L93.6426 55.8355C93.6426 55.8355 93.7305 55.9528 93.7598 55.9968C94.3313 56.8179 94.5805 57.8443 94.5658 59.032C94.5365 60.3077 94.1701 61.7739 93.4961 63.3868C92.8074 64.9851 91.8109 66.73 90.5067 68.5335C89.2026 70.3517 87.5907 72.2432 85.6857 74.1493C83.3118 76.5247 80.7328 78.7094 78.0658 80.6303C75.3988 82.5511 72.6733 84.1933 70.0356 85.4836C67.3979 86.7739 64.8482 87.727 62.5476 88.2402C60.3789 88.7388 58.4299 88.8414 56.8327 88.5041C56.7741 88.4308 56.7008 88.3429 56.6422 88.2695C56.4517 88.0203 56.2319 87.7563 56.0121 87.4924L55.8216 87.2578C55.8216 87.2578 55.8655 87.3165 55.8948 87.3458L55.9095 87.3751Z" fill="#E85222"/>
<path d="M100.501 73.7097C99.9291 75.4546 99.0499 77.2874 97.8483 79.1349C96.6467 80.9824 95.1373 82.8593 93.3056 84.6921C90.9464 87.0675 88.2794 89.1642 85.5099 90.9091C82.7257 92.654 79.8243 94.0469 76.9815 95.044C74.124 96.0411 71.3252 96.6276 68.7315 96.7449C66.4162 96.8475 64.2768 96.5836 62.4304 95.9091C62.0348 95.3519 61.6391 94.8094 61.2874 94.3402C60.9504 93.8856 60.5841 93.3871 60.1884 92.8739C61.9468 93.4311 64.0277 93.5484 66.3136 93.2845C68.7901 93.0059 71.4864 92.2727 74.2559 91.1584C77.0254 90.044 79.8536 88.5484 82.5938 86.7302C85.3341 84.912 87.9571 82.7859 90.3163 80.4106C92.1773 78.5337 93.7306 76.6569 94.9762 74.8094C96.2217 72.9619 97.1449 71.173 97.7603 69.4722C98.3611 67.7713 98.6542 66.1877 98.6103 64.7507C98.5663 63.3138 98.1853 62.0381 97.4673 60.9824L99.4162 63.7977L99.9877 64.6335C100.046 64.7361 100.12 64.8534 100.178 64.956C100.794 66.0704 101.145 67.3607 101.219 68.7537C101.307 70.2786 101.057 71.9502 100.486 73.695L100.501 73.7097Z" fill="#E85222"/>
<path d="M71.6766 101.32C74.4021 101.408 77.3329 101.027 80.2782 100.191C83.2383 99.3552 86.213 98.0942 89.0558 96.4373C91.8986 94.7804 94.5802 92.7423 96.9394 90.3669C98.7125 88.5781 100.178 86.7306 101.321 84.8831C102.464 83.0355 103.314 81.1734 103.827 79.3699C104.354 77.5663 104.559 75.8215 104.442 74.1646C104.325 72.537 103.9 71.0121 103.153 69.6631C103.153 69.6631 103.153 69.6485 103.138 69.6338L103.182 69.7071L105.014 72.8889L105.131 73.1089C105.131 73.1089 105.16 73.1675 105.175 73.1968C105.893 74.6484 106.318 76.232 106.45 77.9036C106.582 79.6191 106.391 81.408 105.893 83.2555C105.395 85.0883 104.589 86.9652 103.475 88.8127C102.361 90.6602 100.925 92.493 99.1961 94.2379C96.8369 96.6133 94.1259 98.6221 91.2685 100.206C88.3964 101.789 85.3631 102.977 82.3444 103.695C79.3258 104.414 76.3218 104.678 73.5083 104.429C71.1637 104.223 68.951 103.681 66.9874 102.757C66.4012 101.833 65.7858 100.895 65.1996 99.9857C65.1996 99.9857 65.1996 99.971 65.185 99.9564C67.1193 100.792 69.332 101.247 71.6912 101.32H71.6766Z" fill="#E85222"/>
<path d="M70.0356 107.903C69.7719 107.434 69.5081 106.965 69.259 106.525C71.2079 107.508 73.362 108.167 75.6333 108.505C78.5347 108.93 81.6266 108.842 84.7186 108.27C87.8105 107.698 90.9024 106.642 93.8185 105.132C96.7345 103.622 99.4601 101.657 101.805 99.2964C103.49 97.5955 104.867 95.8066 105.952 93.9738C107.036 92.141 107.813 90.2641 108.282 88.3873C108.751 86.5251 108.926 84.6776 108.809 82.8888C108.692 81.1439 108.267 79.4577 107.564 77.8888C107.564 77.8594 107.534 77.8301 107.52 77.8008L107.578 77.9327L108.707 80.4401L109 81.1292C109.073 81.3198 109.146 81.5105 109.219 81.7011C109.762 83.1967 110.084 84.7509 110.187 86.3638C110.289 88.182 110.113 90.0442 109.644 91.9064C109.175 93.7685 108.414 95.6307 107.358 97.4489C106.303 99.2671 104.955 101.012 103.314 102.669C100.955 105.044 98.2146 106.965 95.2838 108.431C92.3531 109.883 89.2172 110.865 86.0814 111.335C82.9455 111.818 79.8096 111.789 76.8349 111.232C74.6515 110.821 72.556 110.117 70.6511 109.12C70.4899 108.827 70.3287 108.519 70.1675 108.226C70.1528 108.197 70.1382 108.167 70.1235 108.138L70.0063 107.918L70.0356 107.903Z" fill="#E85222"/>
<path d="M73.4351 114.706C73.1714 114.12 72.893 113.504 72.6145 112.918L72.5559 112.786C72.5559 112.786 72.5852 112.844 72.5999 112.874C72.5413 112.742 72.4827 112.639 72.424 112.522C89.5102 121.686 116.253 107.434 110.934 86.3486C111.227 87.331 111.564 88.6067 111.842 89.6624C111.872 89.7797 111.901 89.897 111.93 90.0143C111.96 90.1023 111.974 90.2049 112.004 90.3222C112.106 90.8208 112.209 91.4073 112.267 91.8765C114.568 109.648 92.1918 124.853 73.4351 114.721V114.706Z" fill="#E85222"/>
<path d="M106.391 115.601C104.047 117.962 101.292 119.78 98.3173 121.026C95.3426 122.273 92.1628 122.947 88.939 123.05C85.7298 123.152 82.4913 122.698 79.4141 121.642C78.0659 121.188 76.7618 120.616 75.5016 119.941C75.4136 119.692 75.3257 119.443 75.2378 119.223C75.0766 118.783 74.8861 118.284 74.681 117.771C90.5215 126.188 113.66 116.789 112.883 96.0997C112.883 96.085 112.883 96.0703 112.883 96.0557V96.2023L112.971 97.258V97.2873C112.971 97.2873 112.971 97.302 112.971 97.3167C113.015 98.4164 112.986 99.8826 112.971 100.982C112.898 102.302 112.707 103.607 112.399 104.897C112.092 106.188 111.667 107.463 111.11 108.695C110.568 109.927 109.894 111.129 109.102 112.287C108.311 113.446 107.403 114.545 106.377 115.586L106.391 115.601Z" fill="#E85222"/>
<path d="M87.9569 126.892C84.7771 126.892 81.5826 126.276 78.5493 125.073C77.9485 124.839 77.3477 124.56 76.7615 124.267C76.615 123.68 76.4538 123.05 76.278 122.434C89.8472 129.443 106.289 123.842 111.593 108.944C111.593 108.915 111.608 108.9 111.623 108.871C111.623 108.9 111.593 108.93 111.593 108.974C111.168 110.205 110.553 111.789 110.04 112.962C109.732 113.622 109.249 114.458 108.912 115.117C108.912 115.132 108.897 115.147 108.882 115.161C108.882 115.161 108.868 115.191 108.853 115.205C108.619 115.616 108.369 116.012 108.106 116.393C107.842 116.804 107.549 117.2 107.256 117.581C106.963 117.977 106.64 118.358 106.318 118.724C105.996 119.106 105.644 119.472 105.292 119.824C102.948 122.185 100.207 123.959 97.262 125.132C94.3166 126.305 91.1514 126.892 87.9716 126.877L87.9569 126.892Z" fill="#E85222"/>
<path d="M77.4796 127.654C77.4063 127.199 77.333 126.759 77.2451 126.319C85.3339 129.912 94.3606 128.929 101.995 123.226L100.53 124.355C100.442 124.413 100.369 124.472 100.281 124.531C99.6652 124.97 99.2988 125.22 98.7274 125.542C98.2145 125.836 97.5404 126.202 96.3388 126.847C96.3388 126.847 96.3095 126.847 96.3095 126.862L96.2216 126.906L95.6941 127.155C93.4667 128.182 91.0928 128.841 88.6896 129.12C86.2718 129.399 83.8246 129.296 81.4214 128.812C80.0879 128.548 78.7691 128.152 77.4796 127.668V127.654Z" fill="#E85222"/>
<path d="M77.7579 129.604C77.7579 129.604 77.7579 129.56 77.7579 129.545C77.7433 129.384 77.714 129.194 77.6847 129.018C78.9449 129.384 80.2344 129.633 81.5239 129.78C83.1798 129.956 84.865 129.956 86.5208 129.751C86.682 129.736 86.8579 129.707 87.019 129.692L86.6234 129.751C85.7735 129.853 85.3485 129.912 84.6745 129.941C84.1469 129.971 83.4582 129.985 82.2566 130C82.0368 130 81.8023 130 81.5386 130C80.9524 130 80.3663 129.971 79.8095 129.912C79.0914 129.853 78.4027 129.736 77.7433 129.604H77.7579Z" fill="#E85222"/>
<path d="M23.7009 155.631C23.7009 155.631 23.7302 155.631 23.7449 155.646C23.8914 155.704 24.0233 155.748 24.1698 155.792C24.1845 155.792 24.2138 155.807 24.2431 155.821C24.2577 155.821 24.2724 155.821 24.3017 155.836C24.4629 155.895 24.6094 155.939 24.7706 155.997C24.7706 155.997 24.7853 155.997 24.7999 155.997C24.9465 156.041 25.093 156.085 25.2249 156.129C25.2395 156.129 25.2688 156.129 25.2835 156.144C25.2981 156.144 25.3275 156.144 25.3421 156.159C25.4886 156.203 25.6498 156.247 25.7964 156.291C26.4704 157.185 27.2031 157.992 27.9798 158.725C28.7564 159.458 29.5624 160.118 30.4123 160.704C31.2622 161.291 32.1414 161.789 33.0499 162.214C33.8266 162.581 34.6325 162.889 35.4531 163.153C34.4127 162.83 33.1672 162.405 32.2 162.082C31.9949 162.009 31.8044 161.936 31.5992 161.863C27.3204 160.162 25.0783 157.332 23.7009 155.602V155.631Z" fill="#E85222"/>
<path d="M18.0881 153.123C18.0881 153.123 18.1321 153.138 18.1467 153.152C18.3226 153.24 18.4984 153.343 18.6889 153.431C18.6889 153.431 18.7036 153.431 18.7182 153.431C18.7329 153.431 18.7622 153.446 18.7768 153.46C18.938 153.534 19.0846 153.622 19.2458 153.695C19.2751 153.695 19.3044 153.724 19.319 153.739C19.3337 153.739 19.3483 153.754 19.3777 153.768C19.5535 153.856 19.7293 153.944 19.9052 154.017C19.9052 154.017 19.9198 154.017 19.9345 154.017C19.9491 154.017 19.9784 154.032 19.9931 154.047C20.1396 154.12 20.3008 154.193 20.4474 154.252C20.4767 154.252 20.4913 154.281 20.5206 154.281C23.0411 157.844 24.9607 158.871 26.9829 159.927C26.9975 159.927 27.0122 159.941 27.0415 159.956C26.0011 159.472 24.6383 158.783 23.5979 158.27C23.3048 158.123 23.0264 157.962 22.7333 157.786C22.4989 157.639 22.2644 157.493 22.03 157.331C21.5317 156.979 21.0482 156.583 20.5792 156.158C20.1103 155.733 19.6854 155.264 19.2604 154.751C18.8501 154.237 18.4545 153.695 18.0881 153.108V153.123Z" fill="#E85222"/>
<path d="M12.1535 149.693C12.2414 149.751 12.3147 149.795 12.4026 149.854C12.4612 149.898 12.5199 149.927 12.5785 149.971C12.725 150.074 12.8862 150.162 13.0327 150.25C13.0914 150.279 13.15 150.323 13.2086 150.352C13.2086 150.352 13.2232 150.352 13.2379 150.367C13.2672 150.382 13.2819 150.396 13.3112 150.411C13.4724 150.514 13.6482 150.616 13.8094 150.719C13.8387 150.734 13.868 150.748 13.8973 150.763C13.912 150.763 13.9266 150.778 13.9413 150.792C14.1318 150.91 14.3223 151.027 14.5128 151.13C14.5128 151.13 14.5274 151.13 14.5421 151.144C14.8205 151.643 15.1136 152.112 15.4359 152.552C15.7583 152.992 16.0954 153.388 16.447 153.769C16.7987 154.15 17.1797 154.487 17.5754 154.795C17.8684 155.03 18.1615 155.235 18.4692 155.426L15.685 153.725L15.4506 153.578C15.4506 153.578 15.3627 153.52 15.3187 153.49C14.9963 153.285 14.6886 153.05 14.4102 152.801C14.0732 152.522 13.7654 152.2 13.4577 151.863C13.1646 151.525 12.8716 151.159 12.6224 150.763C12.3587 150.367 12.1242 149.956 11.8898 149.502C11.963 149.546 12.051 149.605 12.1242 149.649L12.1535 149.693Z" fill="#E85222"/>
<path d="M5.98462 145.484C5.98462 145.484 6.02858 145.513 6.04323 145.528C6.27769 145.704 6.51214 145.865 6.7466 146.026C6.77591 146.041 6.80522 146.07 6.81987 146.085C6.89314 146.129 6.95176 146.173 7.02502 146.232C7.15691 146.334 7.30344 146.437 7.43533 146.525C7.50859 146.584 7.58186 146.628 7.65513 146.686C7.74305 146.745 7.83097 146.804 7.90424 146.862C7.97751 146.906 8.05078 146.965 8.10939 147.009C8.27058 147.39 8.44643 147.757 8.63692 148.094C8.82742 148.431 9.04723 148.739 9.26703 149.032C9.48683 149.326 9.73595 149.589 9.99971 149.839C10.2195 150.044 10.4393 150.22 10.6738 150.396C10.7177 150.425 10.7764 150.469 10.8203 150.499L10.6445 150.367L7.49394 148.109C7.25948 147.933 7.02503 147.742 6.81987 147.522C6.61472 147.302 6.40957 147.067 6.23373 146.804C6.05788 146.54 5.88204 146.261 5.73551 145.968C5.58897 145.66 5.45708 145.337 5.33985 145C5.50104 145.117 5.66223 145.235 5.80877 145.352C5.86738 145.396 5.926 145.44 5.96996 145.469L5.98462 145.484Z" fill="#E85222"/>
<path d="M-0.682922 140.338C-0.682922 140.338 -0.55104 140.44 -0.477772 140.499C-0.331236 140.616 -0.184695 140.733 -0.0381584 140.865C0.0351098 140.924 0.10838 140.983 0.181648 141.041C0.26957 141.115 0.357493 141.188 0.445414 141.261C0.518683 141.32 0.591942 141.379 0.66521 141.437C0.811747 141.555 0.958287 141.672 1.10482 141.775C1.17809 141.833 1.23671 141.877 1.30997 141.936C1.33928 141.95 1.35394 141.98 1.38325 141.994C1.44186 142.288 1.52978 142.566 1.63236 142.816C1.73493 143.065 1.83751 143.299 1.96939 143.519C2.10128 143.739 2.23315 143.93 2.39434 144.121C2.46761 144.209 2.55554 144.297 2.64346 144.384C2.73138 144.458 2.8193 144.546 2.90723 144.604L1.73493 143.651L-0.36054 141.95L-0.389843 141.921C-1.13718 141.261 -1.25441 140.66 -1.44491 139.678C-1.21045 139.868 -0.96134 140.074 -0.726881 140.264C-0.697574 140.279 -0.682916 140.308 -0.653609 140.323L-0.682922 140.338Z" fill="#E85222"/>
<path d="M3.06855 41.877C3.36162 42.0383 3.65469 42.185 3.93311 42.3316C3.83053 42.2876 3.74261 42.229 3.64004 42.185C2.32121 41.5691 0.88515 41.1879 -0.609521 41.0559C-2.3533 40.8946 -4.19966 41.0559 -6.06068 41.5398C-7.93634 42.0237 -9.84132 42.8301 -11.717 43.9445C-13.5926 45.0735 -15.4537 46.5105 -17.2268 48.2847C-19.6006 50.6454 -21.5935 53.358 -23.1615 56.2465C-24.7294 59.1351 -25.8871 62.185 -26.5758 65.2202C-27.2645 68.2553 -27.4843 71.2759 -27.2059 74.1058C-26.9275 76.9357 -26.1508 79.5603 -24.832 81.8184C-24.8613 81.8184 -24.8906 81.7891 -24.9053 81.7744C-25.0665 81.6864 -25.2276 81.5985 -25.3888 81.5105C-25.4181 81.5105 -25.4328 81.4812 -25.4621 81.4665C-25.4621 81.4665 -25.4768 81.4665 -25.4914 81.4518C-25.6819 81.3492 -25.8577 81.2612 -26.0482 81.1586C-26.0629 81.1586 -26.0775 81.1439 -26.0922 81.1292C-26.1215 81.1292 -26.1362 81.0999 -26.1655 81.0853C-26.3267 80.9973 -26.4879 80.924 -26.649 80.836C-26.6784 80.836 -26.693 80.8067 -26.7223 80.8067C-26.7223 80.8067 -26.737 80.8067 -26.7516 80.8067C-26.9275 80.7187 -27.118 80.6307 -27.2938 80.5281C-27.3085 80.5281 -27.3231 80.5134 -27.3378 80.4987C-28.8178 78.1527 -29.741 75.4401 -30.1659 72.5515C-30.5762 69.6483 -30.4736 66.5691 -29.9021 63.4753C-29.316 60.3814 -28.2609 57.2876 -26.737 54.3844C-25.2276 51.4665 -23.264 48.7392 -20.9048 46.3785C-19.1903 44.663 -17.3733 43.27 -15.5269 42.1703C-13.6806 41.0853 -11.7756 40.2935 -9.89994 39.8243C-8.02427 39.3551 -6.16325 39.1791 -4.37551 39.3257C-2.83687 39.443 -1.35685 39.7949 0.0352428 40.3814C0.181779 40.4401 0.328309 40.5134 0.474845 40.5721C0.548114 40.6014 0.636041 40.6454 0.709309 40.6747C1.41268 41.0119 2.24794 41.4518 3.05389 41.8624L3.06855 41.877Z" fill="#E85222"/>
<path d="M-19.0732 85.2936C-19.0732 85.2936 -19.1318 85.2496 -19.1612 85.2349C-19.381 85.0883 -19.6154 84.9417 -19.8352 84.795C-19.8352 84.795 -19.8645 84.7804 -19.8792 84.7657C-19.9231 84.7364 -19.9817 84.707 -20.0257 84.6777C-20.1869 84.5751 -20.3481 84.4724 -20.5093 84.3698C-20.5679 84.3258 -20.6265 84.2965 -20.6851 84.2672C-20.7731 84.2085 -20.8463 84.1645 -20.9342 84.1059C-21.0222 84.0619 -21.0954 84.0032 -21.1833 83.9592C-22.2677 81.8331 -22.8246 79.3258 -22.8978 76.6132C-22.9711 73.9006 -22.5608 70.9827 -21.7255 68.0355C-20.8903 65.0883 -19.6154 62.1117 -17.9596 59.2672C-16.3037 56.4372 -14.2668 53.7393 -11.8929 51.3786C-10.0759 49.5604 -8.18557 48.0648 -6.3099 46.8918C-4.41958 45.7188 -2.54391 44.883 -0.712209 44.3698C1.1195 43.8566 2.87794 43.666 4.5338 43.8126C6.17501 43.9592 7.71363 44.4431 9.06177 45.2642L12.0658 47.1557L12.2123 47.2437L12.5054 47.4343C12.5054 47.4343 12.4175 47.3757 12.3588 47.3463C11.1572 46.5985 9.79445 46.1587 8.28513 46.0414C6.71719 45.9241 5.01736 46.1293 3.22961 46.6719C1.44187 47.2144 -0.419139 48.0941 -2.29481 49.2965C-4.17047 50.4988 -6.07544 52.0238 -7.9218 53.8859C-10.2957 56.2613 -12.3619 58.9299 -14.091 61.7158C-15.8055 64.5164 -17.1829 67.4343 -18.1354 70.3082C-19.0879 73.1821 -19.6301 76.012 -19.7033 78.6367C-19.7766 81.2466 -19.381 83.6513 -18.4724 85.6601C-18.6043 85.5721 -18.7215 85.4988 -18.8534 85.4109C-18.9267 85.3669 -19 85.3082 -19.0732 85.2642V85.2936Z" fill="#E85222"/>
<path d="M-12.4937 89.9121C-12.4937 89.9121 -12.5963 89.8387 -12.6402 89.8094C-12.8161 89.6775 -12.9919 89.5455 -13.1824 89.4135C-13.241 89.3695 -13.2996 89.3255 -13.3583 89.2816C-13.4462 89.2082 -13.5341 89.1496 -13.622 89.0909C-13.7099 89.0323 -13.7979 88.959 -13.8858 88.9003C-14.003 88.8124 -14.1202 88.7244 -14.2375 88.6511C-14.3254 88.5924 -14.3987 88.5338 -14.4866 88.4751C-14.5159 88.4458 -14.5598 88.4165 -14.5892 88.4018C-15.2632 86.5543 -15.4098 84.3256 -15.1167 81.8622C-14.8236 79.3989 -14.0909 76.6862 -12.9773 73.9297C-11.8636 71.1584 -10.3542 68.3285 -8.55185 65.5865C-6.7348 62.8446 -4.61002 60.22 -2.23613 57.8446C-0.345814 55.9678 1.5445 54.3842 3.39086 53.1379C5.23722 51.8769 7.03962 50.9531 8.73944 50.3373C10.4393 49.7361 12.0365 49.4428 13.4579 49.5015C14.7328 49.5455 15.8758 49.8681 16.8576 50.4692C16.9748 50.5426 17.092 50.6159 17.1946 50.6892L18.2643 51.4663L19.2314 52.1701L20.5942 53.1819C19.6857 52.5074 18.5427 52.1701 17.2239 52.1701C15.9051 52.1701 14.3957 52.5074 12.7692 53.1672C11.1426 53.827 9.38421 54.8094 7.5525 56.0997C5.73545 57.3901 3.83047 59.003 1.94015 60.8945C-0.433738 63.2698 -2.60247 65.8798 -4.47814 68.5631C-6.3538 71.2464 -7.95105 74.0176 -9.19661 76.6863C-10.4275 79.3695 -11.3214 81.9648 -11.761 84.3109C-12.2153 86.6569 -12.2299 88.7684 -11.7463 90.4839C-11.9808 90.308 -12.2299 90.1173 -12.4644 89.9414C-12.4644 89.9414 -12.4937 89.9267 -12.4937 89.9121Z" fill="#E85222"/>
<path d="M22.4407 60.7334C20.99 61.5546 19.3781 62.6689 17.6343 64.0619C15.8905 65.4549 14.0295 67.1264 12.0952 69.0619C9.7213 71.4373 7.46464 73.9739 5.42778 76.5399C3.39093 79.0912 1.54457 81.6719 0.020596 84.1205C-1.50338 86.5692 -2.7343 88.8859 -3.56955 90.9241C-4.40481 92.9622 -4.84441 94.7364 -4.80045 96.0854C-4.80045 96.0854 -4.81511 96.0707 -4.82977 96.056C-4.87373 96.0267 -4.91768 95.9827 -4.94699 95.9534C-5.13749 95.7921 -5.32798 95.6308 -5.51848 95.4695C-5.57709 95.4255 -5.63571 95.3669 -5.69433 95.3229C-5.78225 95.2496 -5.87017 95.1763 -5.95809 95.103C-6.04601 95.0296 -6.14859 94.9417 -6.23652 94.8683C-6.35374 94.7657 -6.47097 94.6777 -6.5882 94.5751C-6.67612 94.5018 -6.74939 94.4431 -6.83731 94.3698C-6.88127 94.3405 -6.91058 94.2965 -6.95454 94.2672C-7.20365 94.0619 -7.43811 93.8713 -7.68722 93.6807C-7.92168 92.1704 -7.64326 90.2642 -6.98384 88.0795C-6.30978 85.8947 -5.22541 83.4607 -3.81866 80.9094C-2.41191 78.3581 -0.682786 75.7041 1.29546 73.0942C3.2737 70.4842 5.4864 67.9182 7.86029 65.5428C9.77992 63.622 11.6556 61.9798 13.4433 60.6308C15.2164 59.2818 16.9016 58.2261 18.4256 57.4783C19.9495 56.7305 21.327 56.3053 22.4846 56.188C23.5836 56.0854 24.4922 56.276 25.1809 56.7745C25.2249 56.8038 25.2688 56.8332 25.3128 56.8771L25.9136 57.3757L26.3825 57.7569L28.6538 59.6484C28.097 59.1792 27.2617 59.0472 26.2213 59.2379C25.1662 59.4285 23.8914 59.9417 22.4553 60.7628L22.4407 60.7334Z" fill="#E85222"/>
<path d="M1.45627 101.627C1.33904 101.525 1.23647 101.422 1.11924 101.319C1.03132 101.246 0.943395 101.158 0.855474 101.085C0.811513 101.041 0.767546 101.011 0.723585 100.967C0.474473 100.748 0.240015 100.528 -0.00909698 100.308C-0.0237506 100.293 -0.0530592 100.264 -0.0677129 100.249C-0.287518 100.044 -0.507318 99.8531 -0.727122 99.6625C-0.507318 98.5334 0.181401 96.9938 1.25112 95.1463C2.30618 93.2988 3.74224 91.1581 5.44206 88.856C7.14188 86.554 9.12012 84.1053 11.2596 81.6273C13.399 79.1493 15.6996 76.6566 18.0735 74.2812C20.0224 72.3311 21.8541 70.6155 23.5393 69.1639C25.2245 67.7123 26.7485 66.51 28.0819 65.5862C29.4154 64.6625 30.5438 64.032 31.423 63.7094C32.3022 63.3868 32.9469 63.3722 33.2986 63.6801L33.4452 63.812L35.8044 65.9821L36.5957 66.7006C36.5957 66.7006 36.581 66.6859 36.5664 66.6713C36.3319 66.51 35.8337 66.6566 35.1157 67.0672C34.3537 67.4924 33.3133 68.2255 32.0677 69.2226C30.8222 70.2197 29.3568 71.4807 27.7303 72.9909C27.3639 73.3282 26.9683 73.6947 26.5873 74.0613C25.2684 75.3076 23.847 76.6859 22.3377 78.1815C21.5171 79.0026 20.6965 79.8531 19.8759 80.6889C18.3519 82.2724 16.8573 83.856 15.4065 85.4249C14.923 85.9528 14.4541 86.466 13.9998 86.9792C13.9265 87.0672 13.8533 87.1405 13.78 87.2285C13.1499 87.9323 12.5491 88.6068 11.9629 89.2959C11.0398 90.3516 10.1459 91.3927 9.32528 92.3897C9.04686 92.727 8.78309 93.0496 8.51932 93.3721C8.09437 93.8853 7.69873 94.3839 7.30308 94.8824C6.33594 96.0994 5.44206 97.2578 4.70938 98.2842C4.18185 99.0173 3.74224 99.6625 3.36124 100.264C2.84837 101.07 2.45272 101.774 2.21826 102.316C2.15965 102.272 2.11569 102.214 2.05707 102.17C1.96915 102.082 1.88122 101.994 1.77865 101.921C1.67607 101.833 1.58816 101.745 1.48558 101.657L1.45627 101.627Z" fill="#E85222"/>
<path d="M8.44633 108.475C8.44633 108.475 8.3584 108.387 8.31444 108.343C8.07998 108.108 7.84553 107.859 7.61107 107.625H7.59642C7.46453 107.463 7.318 107.331 7.18612 107.185C7.0982 107.097 7.01027 106.994 6.90769 106.906C6.86373 106.862 6.81977 106.818 6.76116 106.759C6.67324 106.671 6.58532 106.583 6.51205 106.51L6.20433 106.202C11.4796 100.63 39.1017 72.8152 41.1533 71.0996L41.2265 71.1729C42.0911 72.038 43.0436 73.0058 43.8056 73.7829C43.8788 73.8709 43.9668 73.9588 44.0547 74.0468C44.1279 74.1201 44.1866 74.1788 44.2598 74.2521L44.3478 74.3401C44.4503 74.472 44.2452 74.8973 43.7616 75.5864C43.2634 76.2902 42.4867 77.258 41.4463 78.4456C40.4059 79.648 39.1017 81.0703 37.5778 82.6832C36.0538 84.2961 34.2954 86.0996 32.3464 88.0498C29.9725 90.4251 27.54 92.8005 25.1661 95.0586C22.7922 97.3166 20.4916 99.4427 18.3815 101.349C16.2714 103.255 14.3517 104.927 12.7545 106.246C11.1572 107.566 9.86773 108.548 9.01782 109.061C8.91525 108.944 8.79802 108.842 8.69544 108.724C8.60752 108.636 8.53425 108.548 8.44633 108.475Z" fill="#E85222"/>
<path d="M23.4957 106.804C25.767 105.073 28.1995 103.079 30.6613 100.924C31.2181 100.44 31.775 99.9267 32.3318 99.4282C33.8118 98.0939 35.2772 96.7156 36.7133 95.3079C37.1382 94.8974 37.5485 94.4868 37.9735 94.0763C39.9077 92.1261 41.6222 90.2933 43.0876 88.6217C43.6884 87.9326 44.2306 87.2874 44.7434 86.6569C45.4761 85.7478 46.1355 84.8974 46.6924 84.1056C47.0001 83.6804 47.2639 83.2698 47.4983 82.8886C47.9966 82.0968 48.3776 81.393 48.612 80.8065C48.8611 80.176 48.949 79.6628 48.8611 79.3109C48.8611 79.3109 48.8611 79.2962 48.8611 79.2815C48.8318 79.1789 48.7879 79.1056 48.7292 79.0323C48.7292 79.0323 48.7292 79.0029 48.6999 78.9883L50.6196 81.1584L51.1471 81.7595L51.7332 82.4194C51.7332 82.4194 51.7918 82.4927 51.8212 82.5367C52.1582 83.0205 52.2022 83.739 51.9823 84.6481C51.7479 85.6305 51.1911 86.8622 50.3411 88.2551C49.4912 89.6628 48.3482 91.2463 46.9268 92.9619C45.5054 94.6774 43.8203 96.5396 41.9006 98.4751C39.5268 100.85 37.021 103.138 34.5006 105.22C31.9801 107.302 29.4597 109.194 27.0712 110.806C24.6826 112.405 22.4406 113.724 20.477 114.648C18.5134 115.572 16.8283 116.114 15.5681 116.188C15.3629 115.953 15.1577 115.718 14.9379 115.484L14.9086 115.44C14.9086 115.44 14.894 115.425 14.8793 115.411C14.6595 115.161 14.4544 114.927 14.2346 114.677C14.1906 114.633 14.1466 114.589 14.1173 114.545C14.0294 114.457 13.9561 114.37 13.8682 114.267C13.7656 114.15 13.6631 114.047 13.5605 113.93C13.4726 113.827 13.37 113.724 13.2821 113.622C13.1942 113.534 13.1209 113.431 13.033 113.343C12.989 113.284 12.9304 113.24 12.8864 113.182C13.2821 113.094 13.7656 112.903 14.2785 112.698C15.1577 112.331 16.1688 111.804 17.3118 111.114C17.4584 111.026 17.6196 110.924 17.7661 110.836C18.9384 110.117 20.1986 109.252 21.5614 108.284C22.1915 107.83 22.8509 107.346 23.5103 106.848L23.4957 106.804Z" fill="#E85222"/>
<path d="M47.1321 104.692C49.0517 102.771 50.6929 100.894 52.041 99.1053C53.3892 97.3311 54.4442 95.6595 55.1916 94.1346C55.9389 92.6097 56.3785 91.2461 56.4957 90.0877C56.5983 88.9733 56.4078 88.0642 55.9096 87.3751C55.8803 87.3458 55.8656 87.3164 55.8363 87.2871L56.0268 87.5217L58.4593 90.6009L58.6645 90.8648C58.6645 90.8648 58.7524 90.9821 58.7817 91.0261C59.3532 91.8472 59.617 92.8736 59.5876 94.0613C59.5583 95.337 59.192 96.8032 58.5179 98.4161C57.8292 100.014 56.8328 101.759 55.5286 103.563C54.2244 105.381 52.6125 107.272 50.7075 109.179C48.3337 111.554 45.7546 113.739 43.0876 115.66C40.4207 117.58 37.6951 119.223 35.0575 120.513C32.4198 121.803 29.8701 122.756 27.5694 123.27C25.2688 123.783 23.2173 123.885 21.5761 123.475C21.371 123.211 21.1805 122.962 20.9753 122.698C20.946 122.654 20.902 122.61 20.8727 122.566C20.7995 122.478 20.7262 122.39 20.6529 122.302C20.5503 122.184 20.4624 122.053 20.3598 121.935C20.2719 121.833 20.1987 121.73 20.1107 121.627C20.0375 121.539 19.9642 121.437 19.8763 121.349C19.8323 121.29 19.7884 121.231 19.7444 121.173C19.5686 120.967 19.4074 120.748 19.2315 120.542C19.2022 120.498 19.1729 120.469 19.1436 120.425C19.1436 120.425 19.1436 120.425 19.1289 120.41C20.6236 120.616 22.5286 120.337 24.6827 119.648C26.8514 118.959 29.2693 117.859 31.8043 116.437C34.3394 115.014 36.9917 113.27 39.5854 111.275C42.1791 109.281 44.7435 107.067 47.1174 104.677L47.1321 104.692Z" fill="#E85222"/>
<path d="M55.3524 115.425C57.2134 113.548 58.7667 111.672 60.0123 109.824C61.2578 107.991 62.181 106.188 62.7965 104.487C63.3973 102.786 63.6903 101.202 63.6464 99.7654C63.6024 98.3284 63.2214 97.0528 62.5034 95.9971L64.4523 98.8123L65.0238 99.6481C65.0824 99.7361 65.1411 99.8387 65.1997 99.9414C65.1997 99.9414 65.1997 99.956 65.2143 99.9707C65.8298 101.085 66.1815 102.375 66.2547 103.768C66.3427 105.293 66.0935 106.965 65.5221 108.71C64.9506 110.455 64.0713 112.287 62.8697 114.135C61.6681 115.982 60.1588 117.859 58.3271 119.692C55.9679 122.067 53.3009 124.164 50.5314 125.909C47.7472 127.654 44.8458 129.047 42.003 130.044C39.1455 131.041 36.3467 131.628 33.753 131.745C31.1739 131.862 28.8 131.525 26.8218 130.66C26.7778 130.587 26.7192 130.513 26.6753 130.44C26.5873 130.308 26.4994 130.176 26.4115 130.059C26.3822 130.015 26.3529 129.985 26.3382 129.941C26.2943 129.868 26.2503 129.809 26.1917 129.736C26.1038 129.604 26.0158 129.472 25.9279 129.355C25.8986 129.311 25.8693 129.267 25.84 129.223C25.796 129.164 25.7521 129.091 25.7081 129.032C25.6202 128.9 25.5323 128.768 25.4297 128.636C25.4004 128.592 25.3564 128.534 25.3271 128.49C25.2832 128.431 25.2392 128.372 25.1952 128.314C25.1073 128.182 25.0047 128.05 24.9168 127.918C24.8729 127.859 24.8289 127.801 24.7996 127.742C26.6459 128.416 28.888 128.578 31.3644 128.299C33.8409 128.021 36.5372 127.287 39.3067 126.173C42.0762 125.059 44.9044 123.563 47.6446 121.745C50.3848 119.927 53.0078 117.801 55.3671 115.425H55.3524Z" fill="#E85222"/>
<path d="M30.7345 136.965C30.6612 136.848 30.6026 136.731 30.5293 136.599C30.5293 136.569 30.5 136.555 30.4854 136.54C30.4414 136.467 30.3975 136.393 30.3681 136.32C30.2949 136.203 30.2363 136.085 30.163 135.968C30.1483 135.939 30.1337 135.909 30.119 135.88C30.0751 135.807 30.0311 135.748 30.0018 135.675C29.9285 135.558 29.8553 135.44 29.7967 135.323C29.782 135.294 29.7527 135.25 29.738 135.22C29.6941 135.162 29.6648 135.088 29.6208 135.03C29.5475 134.912 29.4743 134.795 29.401 134.678C29.3717 134.634 29.357 134.604 29.3277 134.56C31.4672 135.675 33.9876 136.247 36.7132 136.349C39.4387 136.437 42.3695 136.056 45.3149 135.22C48.2749 134.384 51.2496 133.124 54.0924 131.467C56.9352 129.81 59.6168 127.772 61.9761 125.396C63.7491 123.607 65.2145 121.76 66.3575 119.912C67.5005 118.065 68.3504 116.203 68.8633 114.399C69.3908 112.596 69.5959 110.851 69.4787 109.194C69.3615 107.566 68.9365 106.041 68.1892 104.692C68.1892 104.692 68.1892 104.678 68.1745 104.663L68.2185 104.736L70.0502 107.918L70.1674 108.138C70.1674 108.138 70.1967 108.197 70.2114 108.226C70.9294 109.678 71.3544 111.261 71.4863 112.933C71.6181 114.648 71.4277 116.437 70.9294 118.285C70.4312 120.118 69.6253 121.994 68.5116 123.842C67.3979 125.689 65.9618 127.522 64.2327 129.267C61.8735 131.643 59.1626 133.651 56.3051 135.235C53.433 136.819 50.3997 138.006 47.381 138.725C44.3624 139.443 41.3584 139.707 38.5449 139.458C35.7314 139.223 33.123 138.475 30.881 137.2C30.8371 137.126 30.7931 137.053 30.7638 136.98L30.7345 136.965Z" fill="#E85222"/>
<path d="M72.6144 112.918L73.7427 115.425L74.0358 116.115C74.109 116.305 74.1823 116.496 74.2556 116.686C74.7978 118.182 75.1201 119.736 75.2227 121.349C75.3253 123.167 75.1495 125.03 74.6805 126.892C74.2116 128.754 73.4496 130.616 72.3946 132.434C71.3395 134.252 69.9914 135.997 68.3502 137.654C65.9909 140.03 63.2507 141.95 60.32 143.417C57.3892 144.868 54.2534 145.851 51.1175 146.32C47.9816 146.804 44.8457 146.774 41.871 146.217C38.911 145.66 36.1268 144.575 33.709 142.933C33.6943 142.889 33.665 142.845 33.6503 142.801C33.5917 142.669 33.5331 142.522 33.4745 142.39C33.4745 142.39 33.4745 142.39 33.4745 142.361C33.4452 142.302 33.4159 142.244 33.3866 142.17C33.328 142.053 33.284 141.936 33.2254 141.818C33.2254 141.818 33.2254 141.789 33.2107 141.774C33.1814 141.716 33.1521 141.642 33.1228 141.584C33.0789 141.466 33.0202 141.364 32.9616 141.247C32.9616 141.232 32.947 141.217 32.9323 141.188C32.903 141.129 32.8737 141.056 32.8444 140.997C32.7858 140.895 32.7418 140.777 32.6832 140.675C32.6832 140.645 32.6686 140.631 32.6539 140.601C35.0131 142.097 37.7241 143.05 40.6401 143.475C43.5416 143.901 46.6335 143.813 49.7254 143.241C52.8173 142.669 55.9092 141.613 58.8253 140.103C61.7414 138.593 64.467 136.642 66.8115 134.267C68.4967 132.566 69.8741 130.777 70.9585 128.945C72.0429 127.112 72.8195 125.235 73.2884 123.358C73.7574 121.496 73.9332 119.648 73.816 117.859C73.6987 116.115 73.2738 114.428 72.5704 112.859C72.5704 112.83 72.5411 112.801 72.5265 112.771L72.5851 112.903L72.6144 112.918Z" fill="#E85222"/>
<path d="M75.9556 121.349C76.2487 122.331 76.5857 123.607 76.8641 124.662C76.8934 124.78 76.9227 124.897 76.9521 125.014C76.9814 125.102 76.996 125.205 77.0253 125.322C77.1279 125.821 77.2305 126.407 77.2891 126.876C79.7216 145.615 54.6785 161.525 35.4236 147.844C35.4236 147.844 35.4236 147.83 35.4236 147.815C35.3943 147.712 35.365 147.61 35.3504 147.507C35.3504 147.463 35.3357 147.419 35.3211 147.375C35.2771 147.228 35.2331 147.067 35.1892 146.906C35.1892 146.906 35.1892 146.876 35.1892 146.862C35.1452 146.715 35.1013 146.583 35.0573 146.437C35.0573 146.437 35.0573 146.437 35.0573 146.422C35.0426 146.378 35.028 146.319 35.0133 146.275C34.984 146.173 34.9401 146.07 34.9108 145.953C34.9108 145.953 34.9108 145.938 34.9108 145.923C35.3064 146.187 35.8339 146.569 36.2296 146.818C53.2278 157.434 81.4654 142.991 75.9996 121.378L75.9556 121.349Z" fill="#E85222"/>
<path d="M71.4129 150.601C69.0683 152.962 66.3134 154.78 63.3388 156.026C60.3641 157.273 57.1842 157.947 53.9604 158.05C50.7513 158.152 47.5128 157.698 44.4356 156.642C41.3583 155.601 38.4569 153.974 35.9071 151.774C35.9071 151.774 35.9071 151.745 35.9071 151.73C35.9071 151.657 35.9071 151.598 35.9071 151.525C35.9071 151.481 35.9071 151.437 35.9071 151.408C35.9071 151.408 35.9071 151.393 35.9071 151.378C35.9071 151.305 35.9071 151.232 35.9071 151.158C35.9071 151.114 35.9071 151.07 35.9071 151.026C35.9071 151.026 35.9071 151.026 35.9071 151.012C35.9071 150.924 35.9071 150.85 35.9071 150.762C35.9071 150.718 35.9071 150.689 35.9071 150.645C35.9071 150.528 35.8925 150.425 35.8778 150.308C35.8778 150.293 35.8778 150.279 35.8778 150.264C51.4693 162.727 78.7837 153.548 77.9484 131.114C77.9484 131.1 77.9484 131.085 77.9484 131.07V131.217L78.0364 132.273V132.302C78.0364 132.302 78.0364 132.317 78.0364 132.331C78.0803 133.431 78.051 134.883 78.0364 135.982C77.9631 137.287 77.7726 138.607 77.4649 139.897C77.1571 141.188 76.7322 142.463 76.1753 143.695C75.6332 144.927 74.9591 146.129 74.1678 147.287C73.3765 148.446 72.468 149.545 71.4422 150.586L71.4129 150.601Z" fill="#E85222"/>
<path d="M52.9789 161.906C49.7991 161.906 46.6046 161.29 43.5713 160.088C40.538 158.886 37.6805 157.097 35.1747 154.707C35.1747 154.707 35.1747 154.678 35.204 154.663C35.2334 154.619 35.248 154.575 35.2773 154.531C35.2773 154.502 35.3066 154.487 35.3213 154.458C35.3213 154.458 35.3213 154.428 35.3359 154.414C35.3652 154.37 35.3799 154.326 35.3945 154.267C35.3945 154.238 35.4238 154.208 35.4385 154.179V154.15C35.4532 154.106 35.4825 154.047 35.4971 154.003C35.4971 153.974 35.5264 153.944 35.5264 153.915C35.5264 153.915 35.5264 153.9 35.5264 153.886C35.5411 153.827 35.5557 153.783 35.585 153.724C35.585 153.695 35.5997 153.666 35.6143 153.622C49.8723 165.88 70.5193 161.012 76.5859 143.974C76.5859 143.944 76.6006 143.93 76.6152 143.9C76.6152 143.93 76.5859 143.959 76.5859 144.003C76.161 145.235 75.5455 146.818 75.0326 147.991C74.7249 148.651 74.2413 149.487 73.9043 150.147C73.9043 150.161 73.8897 150.176 73.875 150.191C73.875 150.191 73.8604 150.22 73.8457 150.235C73.6112 150.645 73.3621 151.041 73.0984 151.422C72.8346 151.833 72.5415 152.229 72.2485 152.61C71.9554 153.006 71.633 153.387 71.3106 153.754C70.9882 154.12 70.6365 154.502 70.2849 154.853C67.9403 157.214 65.2 158.988 62.2547 160.161C59.3093 161.334 56.1441 161.921 52.9643 161.906H52.9789Z" fill="#E85222"/>
<path d="M39.4389 161.261C37.2116 160.044 35.1161 158.446 33.2405 156.481C33.2405 156.481 33.2698 156.481 33.2844 156.466C33.343 156.437 33.4016 156.408 33.4749 156.378C33.4749 156.378 33.5042 156.378 33.5042 156.364C33.5042 156.364 33.5335 156.349 33.5482 156.334C33.6068 156.305 33.6654 156.276 33.7094 156.232C33.7094 156.232 33.7387 156.217 33.7533 156.202C33.7533 156.202 33.7533 156.202 33.768 156.202C33.8413 156.158 33.9145 156.114 33.9731 156.056C33.9731 156.056 33.9878 156.056 34.0024 156.041C34.0611 155.997 34.1197 155.953 34.1636 155.909C34.1636 155.909 34.1783 155.909 34.1929 155.895C43.7764 165.015 56.5984 165.968 66.8999 158.329C66.9292 158.299 66.9731 158.285 67.0024 158.255L66.768 158.431L65.6983 159.252L65.5224 159.384C65.4345 159.443 65.3612 159.502 65.2733 159.56C64.6579 160 64.2915 160.249 63.72 160.572C63.2071 160.865 62.5331 161.232 61.3461 161.877C61.3461 161.877 61.3168 161.877 61.3168 161.892L61.2289 161.936L60.7014 162.185C58.474 163.211 56.1001 163.871 53.6969 164.15C51.2791 164.428 48.8319 164.326 46.4287 163.842C44.0255 163.373 41.6516 162.507 39.4243 161.29L39.4389 161.261Z" fill="#E85222"/>
<path d="M30.1045 157.038C30.1045 157.038 30.1338 157.038 30.1631 157.038C30.2511 157.038 30.339 157.038 30.4269 157.038C30.4416 157.038 30.4709 157.038 30.4855 157.038C30.4855 157.038 30.4855 157.038 30.5002 157.038C30.6174 157.038 30.72 157.038 30.8372 157.038C30.8372 157.038 30.8372 157.038 30.8519 157.038C30.8665 157.038 30.8958 157.038 30.9105 157.038C30.9984 157.038 31.0863 157.038 31.1596 157.023C31.1742 157.023 31.1889 157.023 31.2035 157.023C31.2182 157.023 31.2329 157.023 31.2622 157.023C31.3354 157.023 31.4233 157.009 31.4966 156.994C31.5113 156.994 31.5406 156.994 31.5552 156.994C32.9327 158.534 34.442 159.839 36.0539 160.938C37.6658 162.023 39.3656 162.903 41.1241 163.548C42.8825 164.194 44.6995 164.619 46.5313 164.809C48.1871 164.985 49.8723 164.985 51.5281 164.78C51.6893 164.765 51.8652 164.736 52.0264 164.721L51.6307 164.78C50.7662 164.883 50.3559 164.941 49.6818 164.971C49.1543 165 48.4655 165.015 47.2639 165.029C47.0441 165.029 46.8097 165.029 46.5459 165.029C45.9598 165.029 45.3736 165 44.8168 164.941C36.7426 164.208 31.7897 158.9 30.0752 157.067L30.1045 157.038Z" fill="#E85222"/>
<path d="M40.2886 164.34C40.2886 164.34 40.2446 164.34 40.23 164.34C39.761 164.252 39.3068 164.164 38.8379 164.047C38.7353 164.018 38.6474 164.003 38.5448 163.974C39.1602 164.12 39.7464 164.252 40.2739 164.355L40.2886 164.34Z" fill="#E85222"/>
<path d="M30.4121 160.733C29.5622 160.146 28.7563 159.486 27.9796 158.753C27.203 158.02 26.4703 157.199 25.7963 156.319C25.9428 156.363 26.104 156.407 26.2505 156.437C26.2652 156.437 26.2798 156.437 26.2945 156.437C26.3238 156.437 26.3531 156.451 26.3824 156.466C26.485 156.495 26.5875 156.525 26.7048 156.539C26.7341 156.539 26.7634 156.539 26.7927 156.554C26.8073 156.554 26.8367 156.554 26.8513 156.554C26.9685 156.583 27.0711 156.613 27.1883 156.627C27.2176 156.627 27.2323 156.627 27.2616 156.642C27.2616 156.642 27.2616 156.642 27.2763 156.642C27.4228 156.671 27.5547 156.701 27.6866 156.73C27.6866 156.73 27.7012 156.73 27.7159 156.73C28.5658 157.786 29.4743 158.739 30.4415 159.574C31.4086 160.425 32.4343 161.158 33.5041 161.789C34.5738 162.419 35.6728 162.947 36.8158 163.357C37.3873 163.563 37.9734 163.753 38.5596 163.915C37.6217 163.695 36.6546 163.46 35.8486 163.255C35.7607 163.225 35.6728 163.211 35.5849 163.182C35.5409 163.182 35.497 163.152 35.4383 163.138C34.6177 162.888 33.8264 162.58 33.0351 162.199C32.1266 161.774 31.2474 161.261 30.3975 160.689L30.4121 160.733Z" fill="#E85222"/>
</g>
<defs>
<clipPath id="clip0_42_3281">
<rect width="165" height="165" fill="white" transform="matrix(-1 0 0 1 113 0)"/>
</clipPath>
</defs>
</svg>
