<svg width="37" height="37" viewBox="0 0 37 37" fill="none" xmlns="http://www.w3.org/2000/svg">
<rect width="37" height="37" rx="4" fill="#FFE3DA"/>
<path d="M27.9375 22.0005C27.9375 23.0835 27.5519 24.0104 26.7807 24.7812C26.0097 25.5521 25.0828 25.9375 24 25.9375L15.789 25.9375C15.5713 26.5208 15.2126 27 14.7128 27.375C14.2129 27.75 13.6434 27.9375 13.0042 27.9375C12.1847 27.9375 11.4896 27.6518 10.9187 27.0805C10.3479 26.5092 10.0625 25.8154 10.0625 24.9992C10.0625 24.1831 10.3487 23.4896 10.921 22.9187C11.4933 22.3479 12.1883 22.0625 13.006 22.0625C13.6437 22.0625 14.2133 22.25 14.7148 22.625C15.2163 23 15.5738 23.4792 15.7875 24.0625L24 24.0625C24.5672 24.0625 25.0528 23.8606 25.4568 23.4567C25.8606 23.0529 26.0625 22.5675 26.0625 22.0005C26.0625 21.4335 25.8606 20.9479 25.4568 20.5437C25.0528 20.1396 24.5672 19.9375 24 19.9375L14 19.9375C12.9172 19.9375 11.9903 19.5519 11.2193 18.7808C10.4481 18.0096 10.0625 17.0825 10.0625 15.9995C10.0625 14.9165 10.4481 13.9896 11.2192 13.2187C11.9902 12.4479 12.9172 12.0625 14 12.0625L22.211 12.0625C22.4287 11.4792 22.7874 11 23.2872 10.625C23.7871 10.25 24.3566 10.0625 24.9957 10.0625C25.8152 10.0625 26.5104 10.3482 27.0812 10.9195C27.6521 11.4908 27.9375 12.1846 27.9375 13.0007C27.9375 13.8169 27.6518 14.5104 27.0803 15.0812C26.5089 15.6521 25.815 15.9375 24.9985 15.9375C24.3618 15.9375 23.7904 15.75 23.2842 15.375C22.7781 15 22.4244 14.5208 22.2232 13.9375L14 13.9375C13.4328 13.9375 12.9472 14.1394 12.5432 14.5432C12.1394 14.9471 11.9375 15.4325 11.9375 15.9995C11.9375 16.5665 12.1394 17.0521 12.5432 17.4562C12.9472 17.8604 13.4328 18.0625 14 18.0625L24 18.0625C25.0828 18.0625 26.0097 18.4481 26.7807 19.2192C27.5519 19.9904 27.9375 20.9175 27.9375 22.0005ZM14.0625 25.001C14.0625 24.7003 13.9607 24.4479 13.7572 24.2437C13.5539 24.0396 13.3018 23.9375 13.001 23.9375C12.7003 23.9375 12.4479 24.0392 12.2437 24.2427C12.0396 24.4461 11.9375 24.6982 11.9375 24.999C11.9375 25.2997 12.0393 25.5521 12.2428 25.7562C12.4461 25.9604 12.6982 26.0625 12.999 26.0625C13.2997 26.0625 13.5521 25.9607 13.7562 25.7572C13.9604 25.5539 14.0625 25.3018 14.0625 25.001ZM26.0625 13.001C26.0625 12.7003 25.9607 12.4479 25.7572 12.2437C25.5539 12.0396 25.3018 11.9375 25.001 11.9375C24.7003 11.9375 24.4479 12.0392 24.2437 12.2427C24.0396 12.4461 23.9375 12.6982 23.9375 12.999C23.9375 13.2997 24.0392 13.5521 24.2427 13.7562C24.4461 13.9604 24.6982 14.0625 24.999 14.0625C25.2997 14.0625 25.5521 13.9607 25.7562 13.7572C25.9604 13.5539 26.0625 13.3018 26.0625 13.001Z" fill="#E85222"/>
</svg>
