<svg width="37" height="37" viewBox="0 0 37 37" fill="none" xmlns="http://www.w3.org/2000/svg">
<rect width="37" height="37" rx="4" fill="#FFE3DA"/>
<path d="M15.0751 23.8371C15.3334 23.8371 15.5543 23.7454 15.7376 23.5621C15.9209 23.3788 16.0126 23.1579 16.0126 22.8996C16.0126 22.6413 15.9209 22.4204 15.7376 22.2371C15.5543 22.0538 15.3334 21.9621 15.0751 21.9621C14.8168 21.9621 14.5959 22.0538 14.4126 22.2371C14.2293 22.4204 14.1376 22.6413 14.1376 22.8996C14.1376 23.1579 14.2293 23.3788 14.4126 23.5621C14.5959 23.7454 14.8168 23.8371 15.0751 23.8371ZM15.0751 19.9371C15.3334 19.9371 15.5543 19.8454 15.7376 19.6621C15.9209 19.4788 16.0126 19.2579 16.0126 18.9996C16.0126 18.7413 15.9209 18.5204 15.7376 18.3371C15.5543 18.1538 15.3334 18.0621 15.0751 18.0621C14.8168 18.0621 14.5959 18.1538 14.4126 18.3371C14.2293 18.5204 14.1376 18.7413 14.1376 18.9996C14.1376 19.2579 14.2293 19.4788 14.4126 19.6621C14.5959 19.8454 14.8168 19.9371 15.0751 19.9371ZM15.0751 16.0121C15.3334 16.0121 15.5543 15.9204 15.7376 15.7371C15.9209 15.5538 16.0126 15.3329 16.0126 15.0746C16.0126 14.8163 15.9209 14.5954 15.7376 14.4121C15.5543 14.2288 15.3334 14.1371 15.0751 14.1371C14.8168 14.1371 14.5959 14.2288 14.4126 14.4121C14.2293 14.5954 14.1376 14.8163 14.1376 15.0746C14.1376 15.3329 14.2293 15.5538 14.4126 15.7371C14.5959 15.9204 14.8168 16.0121 15.0751 16.0121ZM18.9626 23.8496H22.9376C23.1959 23.8496 23.4168 23.7579 23.6001 23.5746C23.7834 23.3913 23.8751 23.1704 23.8751 22.9121C23.8751 22.6538 23.7834 22.4329 23.6001 22.2496C23.4168 22.0663 23.1959 21.9746 22.9376 21.9746H18.9626C18.7043 21.9746 18.4834 22.0663 18.3001 22.2496C18.1168 22.4329 18.0251 22.6538 18.0251 22.9121C18.0251 23.1704 18.1168 23.3913 18.3001 23.5746C18.4834 23.7579 18.7043 23.8496 18.9626 23.8496ZM18.9626 19.9246H22.9376C23.1959 19.9246 23.4168 19.8329 23.6001 19.6496C23.7834 19.4663 23.8751 19.2454 23.8751 18.9871C23.8751 18.7288 23.7834 18.5079 23.6001 18.3246C23.4168 18.1413 23.1959 18.0496 22.9376 18.0496H18.9626C18.7043 18.0496 18.4834 18.1413 18.3001 18.3246C18.1168 18.5079 18.0251 18.7288 18.0251 18.9871C18.0251 19.2454 18.1168 19.4663 18.3001 19.6496C18.4834 19.8329 18.7043 19.9246 18.9626 19.9246ZM18.9626 16.0246H22.9376C23.1959 16.0246 23.4168 15.9329 23.6001 15.7496C23.7834 15.5663 23.8751 15.3454 23.8751 15.0871C23.8751 14.8288 23.7834 14.6079 23.6001 14.4246C23.4168 14.2413 23.1959 14.1496 22.9376 14.1496H18.9626C18.7043 14.1496 18.4834 14.2413 18.3001 14.4246C18.1168 14.6079 18.0251 14.8288 18.0251 15.0871C18.0251 15.3454 18.1168 15.5663 18.3001 15.7496C18.4834 15.9329 18.7043 16.0246 18.9626 16.0246ZM12.1001 27.7746C11.5844 27.7746 11.143 27.591 10.7758 27.2239C10.4087 26.8567 10.2251 26.4153 10.2251 25.8996V12.0996C10.2251 11.5839 10.4087 11.1425 10.7758 10.7754C11.143 10.4082 11.5844 10.2246 12.1001 10.2246H25.9001C26.4158 10.2246 26.8572 10.4082 27.2243 10.7754C27.5915 11.1425 27.7751 11.5839 27.7751 12.0996V25.8996C27.7751 26.4153 27.5915 26.8567 27.2243 27.2239C26.8572 27.591 26.4158 27.7746 25.9001 27.7746H12.1001ZM12.1001 25.8996H25.9001V12.0996H12.1001V25.8996Z" fill="#E85222"/>
</svg>
