<svg width="164" height="34" viewBox="0 0 164 34" fill="none" xmlns="http://www.w3.org/2000/svg">
<g clip-path="url(#clip0_42_2399)">
<path d="M47.004 16.4263L42.1024 22.5921L40.4142 24.7697C35.2516 31.4411 35.3332 31.3432 34.8031 31.702C33.4737 32.591 31.3776 33.007 28.0093 33.0477C26.3537 33.0722 26.1498 33.0559 25.9459 32.9254C25.6523 32.7297 25.53 32.4605 25.5952 32.118C25.636 31.9304 27.3406 29.6713 31.4347 24.4027C34.6236 20.3085 37.2253 16.9157 37.2253 16.8749C37.2253 16.826 34.746 13.58 31.7202 9.65709C28.6944 5.74233 26.1417 2.41479 26.052 2.26799C25.6931 1.68078 25.9215 1.1425 26.5821 0.98754C27.0143 0.889671 27.414 0.889671 29.355 0.979385C31.6957 1.08541 33.2208 1.41979 34.6563 2.1375C35.9856 2.81442 36.4261 3.26299 39.566 7.16143C39.7536 7.38979 39.933 7.61815 40.1124 7.8302C41.3195 9.31455 42.2574 10.4319 42.2819 10.4237L47.004 16.4263Z" fill="white"/>
<path d="M52.3536 9.1676C48.8221 13.8327 46.9545 16.3691 47.0034 16.4262L42.2812 10.4236C42.322 10.4073 43.4394 8.93108 44.7687 7.13682C46.1063 5.34256 47.3623 3.6951 47.5662 3.48305C48.6509 2.35756 50.3065 1.57461 52.4515 1.17498C53.2099 1.03633 56.8474 0.913994 57.2389 1.01186C57.5814 1.09342 57.7771 1.34625 57.7771 1.68879C57.7771 1.97424 57.2715 2.66748 52.3536 9.1676Z" fill="white"/>
<path d="M59.3275 32.306C59.3275 32.6159 59.0257 32.9421 58.6668 33.0237C58.1775 33.1379 54.3525 32.9747 53.1454 32.7953C51.0249 32.4772 49.2959 31.8819 48.5129 31.205C48.3254 31.0418 46.8084 29.0437 45.1365 26.7519L42.1025 22.5925L47.0041 16.4268C51.2696 21.8095 59.0012 31.5964 59.1399 31.8003C59.2459 31.9553 59.3275 32.1755 59.3275 32.306Z" fill="white"/>
<path d="M66.7647 0.987763C64.8726 1.26506 63.2496 2.56182 62.6053 4.33161L62.3851 4.93514L62.3606 18.6205C62.3361 33.733 62.3035 32.632 62.8581 32.9175C63.0783 33.0398 63.2985 33.048 64.3832 33.0072C66.4058 32.9256 67.3927 32.5994 68.3469 31.7104C68.9423 31.1558 69.293 30.5115 69.4316 29.7367C69.4887 29.435 69.5213 27.8609 69.5213 25.5691V21.8828L71.8294 21.8338C74.2109 21.7849 74.8389 21.7278 76.2906 21.4423C81.1188 20.48 84.2343 17.446 84.8949 13.0501C85.0499 12.0469 85.0499 10.1956 84.8949 9.24952C84.324 5.70178 81.6408 2.7494 77.9217 1.56682C76.9675 1.26506 76.1193 1.08563 75.1325 0.979607C74.1946 0.881738 67.4661 0.889894 66.7647 0.987763ZM75.2304 7.61838C75.9236 7.83858 76.4782 8.19743 76.9675 8.72756C77.4895 9.28215 77.726 9.82858 77.8647 10.7828C78.1664 12.8707 77.0572 14.5344 75.0183 15.0401C74.1701 15.2603 73.1996 15.3337 71.3401 15.3337H69.5213V7.40633L72.1556 7.43895C74.3822 7.47157 74.847 7.49604 75.2304 7.61838Z" fill="white"/>
<path d="M4.30029 1.10174C2.41631 1.44429 1.1114 2.23539 0.49156 3.42613C-0.0711856 4.49453 -0.0467184 3.63818 -0.0467184 18.7834V32.4605L0.230577 32.7705L0.507872 33.0722H9.59336C18.0182 33.0722 18.7115 33.0641 19.2008 32.9254C20.4405 32.591 21.2805 31.9712 21.7943 31.0088C22.145 30.3564 22.2918 29.655 22.3571 28.3419C22.3979 27.4529 22.3816 27.2327 22.2755 27.0288C21.9982 26.4824 22.3 26.5069 14.8049 26.5069H8.02746V19.7621L10.5802 19.7131C12.5131 19.6805 13.2471 19.6397 13.6386 19.5419C15.8814 18.9791 17.1211 17.1849 17.1864 14.4119L17.2027 13.6942L16.9009 13.4087L16.591 13.1315H8.02746V7.504H13.2308C18.842 7.504 18.9643 7.49584 19.8777 7.05543C20.9869 6.52531 21.8188 5.46506 22.1777 4.11937C22.2511 3.85023 22.3489 3.22224 22.3979 2.73289C22.4794 1.91732 22.4713 1.80314 22.3408 1.52584C22.0635 0.946785 22.6507 0.979408 13.3124 0.987564C6.77963 0.99572 4.75701 1.02019 4.30029 1.10174Z" fill="white"/>
<path d="M92.9612 1.10174C90.9957 1.4606 89.6173 2.30064 89.0138 3.53215C88.5082 4.57609 88.5245 3.98887 88.5245 18.8242C88.5245 32.2322 88.5245 32.3382 88.6876 32.6073C89.022 33.1456 88.5082 33.1212 98.3358 33.0967C104.268 33.0804 107.449 33.0124 107.878 32.8928C109.077 32.5503 109.86 31.9549 110.366 31.0088C110.716 30.3564 110.863 29.655 110.928 28.3337C110.969 27.3795 110.961 27.2409 110.822 27.0125C110.512 26.4824 110.839 26.5069 103.376 26.5069H96.5987V19.656H99.1514C102.022 19.656 102.357 19.6071 103.319 19.1015C104.738 18.3593 105.497 17.0544 105.741 14.9665C105.847 13.996 105.79 13.686 105.439 13.3761L105.154 13.1315H96.5987V7.504H101.761C105.921 7.504 107.022 7.47953 107.47 7.38166C109.052 7.04728 110.317 5.79129 110.749 4.11937C110.822 3.85023 110.92 3.22224 110.969 2.73289C111.051 1.91732 111.042 1.80314 110.912 1.52584C110.635 0.946785 111.222 0.979408 101.924 0.987564C95.4895 0.99572 93.4098 1.02019 92.9612 1.10174Z" fill="white"/>
<path d="M119.035 1.06074C117.885 1.29726 116.768 1.90894 116.075 2.68373C115.561 3.25463 115.071 4.24148 114.957 4.95102C114.892 5.35066 114.867 9.22463 114.884 19.0197L114.908 32.5256L115.104 32.7376C115.43 33.0802 115.789 33.1454 116.735 33.0394C119.573 32.705 121.425 31.4653 121.922 29.565C122.02 29.1654 122.045 28.4314 122.045 25.2262V21.3685H122.885C123.822 21.3685 124.826 21.5724 125.454 21.8905C126.171 22.2575 126.457 22.6734 128.936 27.0286C130.347 29.5079 131.448 31.343 131.652 31.5795C132.084 32.0525 133.03 32.5419 133.993 32.7947C134.874 33.0231 138.087 33.1943 138.593 33.0394C138.984 32.9252 139.204 32.6397 139.196 32.2483C139.188 31.9139 133.316 21.2951 132.696 20.4959C132.476 20.2104 132.313 19.9657 132.329 19.9494C132.345 19.9331 132.565 19.8189 132.81 19.6966C134.368 18.9218 135.795 17.3233 136.603 15.4475C137.614 13.1068 137.883 10.1625 137.304 7.88709C136.562 4.99996 134.409 2.855 131.179 1.81107C130.347 1.53377 129.703 1.38697 128.488 1.16676C127.843 1.06074 127.011 1.02812 123.553 1.0118C121.27 1.00365 119.231 1.01996 119.035 1.06074ZM127.574 7.62611C128.757 7.9034 129.67 8.58033 130.086 9.47746C130.306 9.95865 130.323 10.0565 130.323 11.0107C130.323 11.965 130.314 12.0547 130.07 12.5603C129.752 13.2373 129.181 13.8 128.447 14.1507C127.338 14.6971 126.351 14.8439 123.822 14.8439H122.045V7.50377H124.557C126.489 7.50377 127.175 7.53639 127.574 7.62611Z" fill="white"/>
<path d="M139.286 1.25679C139.041 1.50146 139.009 1.58302 139.009 1.98265C139.009 2.4883 139.196 3.59748 139.392 4.20101C139.759 5.37543 140.615 6.54986 141.456 7.0392C142.19 7.4633 142.548 7.50408 145.55 7.50408H148.306V18.4899C148.306 30.4462 148.29 29.9976 148.763 30.9274C148.877 31.1557 149.171 31.539 149.399 31.7756C150.215 32.583 151.177 32.901 153.232 33.0397C154.676 33.1457 154.994 33.0968 155.328 32.7379L155.524 32.5259L155.549 20.015L155.565 7.50408H164.047V0.979492H139.563L139.286 1.25679Z" fill="white"/>
</g>
<defs>
<clipPath id="clip0_42_2399">
<rect width="164" height="32.1789" fill="white" transform="translate(0 0.910156)"/>
</clipPath>
</defs>
</svg>
