<svg width="37" height="37" viewBox="0 0 37 37" fill="none" xmlns="http://www.w3.org/2000/svg">
<rect width="37" height="37" rx="4" fill="#FFE3DA"/>
<path d="M14.1877 26.75C13.3544 26.75 12.6544 26.4583 12.0877 25.875C11.521 25.2917 11.246 24.5833 11.2627 23.75H9.9502C9.69186 23.75 9.47103 23.6583 9.2877 23.475C9.10436 23.2917 9.0127 23.0708 9.0127 22.8125C9.0127 22.5542 9.10436 22.3333 9.2877 22.15C9.47103 21.9667 9.69186 21.875 9.9502 21.875H11.9877C12.2627 21.5583 12.5898 21.3125 12.9689 21.1375C13.3481 20.9625 13.7544 20.875 14.1877 20.875C14.621 20.875 15.0294 20.9625 15.4127 21.1375C15.796 21.3125 16.1252 21.5583 16.4002 21.875H20.4877L22.5377 13.125H12.7127C12.4544 13.125 12.2335 13.0333 12.0502 12.85C11.8669 12.6667 11.7752 12.4458 11.7752 12.1875C11.7752 11.9292 11.8669 11.7083 12.0502 11.525C12.2335 11.3417 12.4544 11.25 12.7127 11.25H23.7127C24.021 11.25 24.2689 11.3646 24.4564 11.5938C24.6439 11.8229 24.7002 12.0875 24.6252 12.3875L24.0002 15.0625H26.0377C26.3377 15.0625 26.6189 15.1271 26.8814 15.2563C27.1439 15.3854 27.3627 15.5708 27.5377 15.8125L29.4377 18.3375C29.6044 18.5542 29.7148 18.7938 29.7689 19.0563C29.8231 19.3188 29.8252 19.5792 29.7752 19.8375L29.1377 23C29.096 23.2167 28.9898 23.3958 28.8189 23.5375C28.6481 23.6792 28.4502 23.75 28.2252 23.75H27.2502C27.2669 24.5833 26.9898 25.2917 26.4189 25.875C25.8481 26.4583 25.146 26.75 24.3127 26.75C23.4794 26.75 22.7794 26.4583 22.2127 25.875C21.646 25.2917 21.371 24.5833 21.3877 23.75H17.1252C17.1419 24.5833 16.8648 25.2917 16.2939 25.875C15.7231 26.4583 15.021 26.75 14.1877 26.75ZM22.8877 19.875H27.8502L27.9252 19.4625L26.0252 16.9375H23.5752L22.8877 19.875ZM20.5627 21.575L20.7189 20.9C20.8231 20.45 20.9502 19.9042 21.1002 19.2625C21.1502 19.0375 21.2023 18.825 21.2564 18.625C21.3106 18.425 21.3544 18.2333 21.3877 18.05L21.5439 17.375C21.6481 16.925 21.7752 16.3792 21.9252 15.7375C22.0752 15.0958 22.2023 14.55 22.3064 14.1L22.4627 13.425L22.5377 13.125L20.4877 21.875L20.5627 21.575ZM8.9502 20.2C8.69186 20.2 8.47103 20.1083 8.2877 19.925C8.10436 19.7417 8.0127 19.5208 8.0127 19.2625C8.0127 19.0042 8.10436 18.7833 8.2877 18.6C8.47103 18.4167 8.69186 18.325 8.9502 18.325H12.2502C12.5085 18.325 12.7294 18.4167 12.9127 18.6C13.096 18.7833 13.1877 19.0042 13.1877 19.2625C13.1877 19.5208 13.096 19.7417 12.9127 19.925C12.7294 20.1083 12.5085 20.2 12.2502 20.2H8.9502ZM10.9377 16.675C10.6794 16.675 10.4585 16.5833 10.2752 16.4C10.0919 16.2167 10.0002 15.9958 10.0002 15.7375C10.0002 15.4792 10.0919 15.2583 10.2752 15.075C10.4585 14.8917 10.6794 14.8 10.9377 14.8H15.2377C15.496 14.8 15.7169 14.8917 15.9002 15.075C16.0835 15.2583 16.1752 15.4792 16.1752 15.7375C16.1752 15.9958 16.0835 16.2167 15.9002 16.4C15.7169 16.5833 15.496 16.675 15.2377 16.675H10.9377ZM14.1877 24.875C14.4877 24.875 14.7398 24.7729 14.9439 24.5688C15.1481 24.3646 15.2502 24.1125 15.2502 23.8125C15.2502 23.5125 15.1481 23.2604 14.9439 23.0563C14.7398 22.8521 14.4877 22.75 14.1877 22.75C13.8877 22.75 13.6356 22.8521 13.4314 23.0563C13.2273 23.2604 13.1252 23.5125 13.1252 23.8125C13.1252 24.1125 13.2273 24.3646 13.4314 24.5688C13.6356 24.7729 13.8877 24.875 14.1877 24.875ZM24.3127 24.875C24.6127 24.875 24.8648 24.7729 25.0689 24.5688C25.2731 24.3646 25.3752 24.1125 25.3752 23.8125C25.3752 23.5125 25.2731 23.2604 25.0689 23.0563C24.8648 22.8521 24.6127 22.75 24.3127 22.75C24.0127 22.75 23.7606 22.8521 23.5564 23.0563C23.3523 23.2604 23.2502 23.5125 23.2502 23.8125C23.2502 24.1125 23.3523 24.3646 23.5564 24.5688C23.7606 24.7729 24.0127 24.875 24.3127 24.875Z" fill="#E85222"/>
</svg>
