<svg width="143" height="47" viewBox="0 0 143 47" fill="none" xmlns="http://www.w3.org/2000/svg">
<rect x="0.697266" width="142.303" height="46.1925" rx="4" fill="white"/>
<path d="M70.0957 16.4421C69.9289 16.5059 69.8342 16.529 69.754 16.5761C67.9313 17.654 66.1117 18.735 64.2898 19.8128C62.7116 20.7463 61.1309 21.6749 59.5519 22.606C59.0531 22.8996 58.5543 23.1932 58.0579 23.4907C57.9551 23.5522 57.8635 23.6335 57.7502 23.7181C57.8085 23.8035 57.8457 23.8801 57.9032 23.9375C58.4215 24.4601 58.9413 24.9819 59.4644 25.4996C60.1795 26.2081 60.8977 26.9142 61.6152 27.6202C62.4201 28.4124 63.2274 29.2023 64.0323 29.9945C64.8113 30.762 65.5886 31.5319 66.3652 32.3026C66.4494 32.3863 66.5198 32.4829 66.6203 32.6026C66.5069 32.6576 66.4364 32.7087 66.3595 32.7246C66.264 32.7438 66.1619 32.7342 66.0631 32.7342C63.6331 32.7342 61.203 32.7342 58.7729 32.7334C58.5624 32.7334 58.351 32.7302 58.1413 32.715C57.7583 32.6879 57.4287 32.5491 57.1526 32.2747C56.0707 31.2 54.9784 30.1341 53.8965 29.0587C53.269 28.4348 52.6536 27.7989 52.0244 27.1599C51.8762 27.2085 51.7653 27.2245 51.677 27.2772C50.332 28.0734 48.991 28.8768 47.646 29.6738C46.5658 30.3136 45.4816 30.9455 44.3997 31.5821C43.9649 31.8374 43.5317 32.0951 43.0984 32.3528C42.6766 32.6033 42.2279 32.7374 41.7275 32.7366C39.1363 32.7302 36.5451 32.7382 33.9539 32.7326C33.7109 32.7326 33.455 32.7055 33.2267 32.6289C32.7303 32.4629 32.4979 32.072 32.4266 31.5798C32.4096 31.4593 32.4137 31.3356 32.4137 31.2144C32.4137 27.9768 32.4113 24.7401 32.4161 21.5026C32.4161 21.1508 32.438 20.7949 32.4922 20.4471C32.5821 19.8703 32.8639 19.3836 33.3611 19.0565C33.9668 18.6584 34.5895 18.285 35.213 17.9132C36.8941 16.9112 38.5792 15.9155 40.2627 14.9183C40.3663 14.8568 40.4748 14.8018 40.5639 14.7539C40.7016 14.7938 40.7566 14.8648 40.759 14.9757C40.7607 15.073 40.7607 15.1712 40.7607 15.2685C40.7607 19.5926 40.7607 23.9176 40.7639 28.2417C40.7639 28.3909 40.7016 28.5624 40.8805 28.6989C40.951 28.6693 41.0311 28.6454 41.1008 28.6039C42.9324 27.5189 44.7609 26.4291 46.5925 25.3457C49.102 23.8609 51.6163 22.3826 54.1257 20.8971C56.3914 19.5559 58.6539 18.2092 60.918 16.8649C61.7957 16.3439 62.6727 15.8206 63.5545 15.306C63.9432 15.0794 64.3627 14.9637 64.8242 14.9645C68.8536 14.9709 72.8837 14.9757 76.9131 14.9605C77.6014 14.9581 78.1115 15.3435 78.2565 15.7958C78.3148 15.9777 78.3391 16.1764 78.3415 16.3679C78.3504 17.1984 78.3455 18.0289 78.3455 18.8602C78.3455 22.8302 78.3455 26.8009 78.3455 30.7708C78.3455 30.9263 78.3156 31.0883 78.433 31.2271C78.5941 31.2886 78.6897 31.1577 78.7941 31.0907C79.6444 30.549 80.4865 29.9953 81.3368 29.452C82.4154 28.7635 83.5005 28.0853 84.5791 27.3968C86.1451 26.3972 87.7071 25.3911 89.2708 24.3883C90.8458 23.379 92.4199 22.3698 93.9957 21.3622C95.416 20.4543 96.838 19.5496 98.2575 18.6408C99.6567 17.7457 101.054 16.8466 102.452 15.9498C102.742 15.7639 103.035 15.582 103.324 15.3961C103.77 15.1097 104.247 14.9581 104.791 14.9629C106.576 14.9773 108.362 14.9885 110.146 14.9597C111.048 14.9454 111.59 15.6187 111.588 16.3767C111.578 19.8216 111.584 23.2666 111.583 26.7115C111.583 27.3721 111.46 28.0064 110.993 28.5106C110.772 28.7491 110.501 28.9565 110.22 29.1249C108.068 30.4157 105.91 31.6946 103.751 32.9751C103.636 33.0429 103.51 33.0932 103.358 33.1666C103.314 33.0828 103.259 33.0166 103.246 32.9432C103.228 32.8363 103.237 32.7246 103.237 32.6145C103.237 28.7906 103.237 24.9675 103.235 21.1436C103.235 21.0159 103.288 20.8715 103.148 20.759C103.024 20.708 102.923 20.7774 102.818 20.8452C102.114 21.2976 101.408 21.7475 100.704 22.1991C98.1336 23.8434 95.5634 25.4885 92.9932 27.1328C91.5227 28.0742 90.053 29.0164 88.5825 29.9578C87.3808 30.7269 86.1759 31.492 84.9775 32.2667C84.4762 32.5906 83.9418 32.7438 83.3361 32.7414C79.4185 32.7294 75.5001 32.7334 71.5816 32.7326C71.346 32.7326 71.1144 32.7238 70.895 32.6145C70.4383 32.3863 70.1783 32.0313 70.1427 31.5247C70.1338 31.4034 70.1346 31.2806 70.1346 31.1585C70.1346 26.4187 70.1346 21.6789 70.133 16.9391C70.133 16.7987 70.1127 16.6591 70.0965 16.4421H70.0957Z" fill="black"/>
</svg>
