<svg width="37" height="37" viewBox="0 0 37 37" fill="none" xmlns="http://www.w3.org/2000/svg">
<rect width="37" height="37" rx="4" fill="#FFE3DA"/>
<path d="M10.1379 24.85C9.61289 24.85 9.16081 24.6604 8.78164 24.2813C8.40247 23.9021 8.21289 23.45 8.21289 22.925C8.21289 22.4 8.40189 21.9479 8.77989 21.5688C9.15789 21.1896 9.61231 21 10.1431 21C10.2396 21 10.3254 21.0042 10.4004 21.0125C10.4754 21.0208 10.5543 21.0417 10.6371 21.075L15.1629 16.5492C15.1296 16.4664 15.1129 16.3833 15.1129 16.3V16.0303C15.1129 15.4994 15.3025 15.045 15.6816 14.667C16.0608 14.289 16.5129 14.1 17.0379 14.1C17.5629 14.1 18.015 14.2896 18.3941 14.6688C18.7733 15.0479 18.9629 15.5 18.9629 16.025C18.9629 16.1083 18.9379 16.275 18.8879 16.525L21.4616 19.1C21.5458 19.0667 21.6254 19.0458 21.7004 19.0375C21.7754 19.0292 21.8629 19.025 21.9629 19.025C22.0629 19.025 22.1504 19.0292 22.2254 19.0375C22.3004 19.0458 22.3796 19.0667 22.4629 19.1L26.0129 15.55C25.9796 15.4667 25.9587 15.3875 25.9504 15.3125C25.9421 15.2375 25.9379 15.1518 25.9379 15.0553C25.9379 14.5244 26.1275 14.07 26.5066 13.692C26.8858 13.314 27.3379 13.125 27.8629 13.125C28.3879 13.125 28.84 13.3146 29.2191 13.6938C29.5983 14.0729 29.7879 14.525 29.7879 15.05C29.7879 15.575 29.5989 16.0271 29.2209 16.4063C28.8429 16.7854 28.3885 16.975 27.8576 16.975C27.7611 16.975 27.6754 16.9708 27.6004 16.9625C27.5254 16.9542 27.4462 16.9333 27.3629 16.9L23.8129 20.45C23.8462 20.5333 23.8671 20.6125 23.8754 20.6875C23.8837 20.7625 23.8879 20.8483 23.8879 20.9448C23.8879 21.4756 23.6983 21.93 23.3191 22.308C22.94 22.686 22.4879 22.875 21.9629 22.875C21.4379 22.875 20.9858 22.686 20.6066 22.308C20.2275 21.93 20.0379 21.4756 20.0379 20.9448V20.6875C20.0379 20.6125 20.0546 20.5333 20.0879 20.45L17.5379 17.9C17.4546 17.9333 17.3754 17.95 17.3004 17.95H17.0379C17.0046 17.95 16.8386 17.9333 16.5401 17.9L12.0129 22.4268C12.0462 22.5098 12.0629 22.5885 12.0629 22.663V22.9198C12.0629 23.4506 11.8733 23.905 11.4941 24.283C11.115 24.661 10.6629 24.85 10.1379 24.85Z" fill="#E85222"/>
</svg>
