<svg width="32" height="32" viewBox="0 0 32 32" fill="none" xmlns="http://www.w3.org/2000/svg">
<path d="M17.7228 16.0003L12.0615 10.3389C11.937 10.2145 11.8704 10.0616 11.8615 9.8803C11.8526 9.69897 11.9193 9.53719 12.0615 9.39497C12.2037 9.25275 12.361 9.18164 12.5335 9.18164C12.7059 9.18164 12.8633 9.25275 13.0055 9.39497L18.8561 15.2469C18.9726 15.3625 19.0544 15.4812 19.1015 15.6029C19.1486 15.7247 19.1721 15.8572 19.1721 16.0003C19.1721 16.1434 19.1486 16.2758 19.1015 16.3976C19.0544 16.5194 18.9726 16.6385 18.8561 16.7549L13.0055 22.6056C12.881 22.73 12.7281 22.7967 12.5468 22.8056C12.3655 22.8145 12.2037 22.7478 12.0615 22.6056C11.9193 22.4634 11.8481 22.306 11.8481 22.1336C11.8481 21.9612 11.9193 21.8038 12.0615 21.6616L17.7228 16.0003Z" fill="#E6E6E6"/>
</svg>
