<svg width="37" height="37" viewBox="0 0 37 37" fill="none" xmlns="http://www.w3.org/2000/svg">
<rect width="37" height="37" rx="4" fill="#FFE3DA"/>
<path d="M9.22461 26.7743C8.96628 26.7743 8.74544 26.6826 8.56211 26.4993C8.37878 26.3159 8.28711 26.0951 8.28711 25.8368C8.28711 25.5784 8.37878 25.3576 8.56211 25.1743C8.74544 24.9909 8.96628 24.8993 9.22461 24.8993H13.1371V22.8743H10.1996C9.94128 22.8743 9.72044 22.7826 9.53711 22.5993C9.35378 22.4159 9.26211 22.1951 9.26211 21.9368C9.26211 21.6784 9.35378 21.4576 9.53711 21.2743C9.72044 21.0909 9.94128 20.9993 10.1996 20.9993H13.1371V18.9993H11.2496C10.9913 18.9993 10.7704 18.9076 10.5871 18.7243C10.4038 18.5409 10.3121 18.3201 10.3121 18.0618C10.3121 17.8034 10.4038 17.5826 10.5871 17.3993C10.7704 17.2159 10.9913 17.1243 11.2496 17.1243H13.1371V14.2243L11.6371 10.9493C11.5288 10.7076 11.5187 10.4678 11.6069 10.2298C11.695 9.99194 11.8593 9.81927 12.0996 9.71177C12.3329 9.60344 12.5686 9.59244 12.8066 9.67877C13.0444 9.76527 13.2171 9.92627 13.3246 10.1618L15.2121 14.1743H26.6621L25.1371 10.9493C25.0288 10.7159 25.0163 10.4764 25.0996 10.2305C25.1829 9.98469 25.3454 9.8076 25.5871 9.69927C25.8288 9.59094 26.0704 9.57844 26.3121 9.66177C26.5538 9.7451 26.7288 9.9076 26.8371 10.1493L28.5371 13.7993C28.5954 13.9228 28.6392 14.0502 28.6684 14.1815C28.6975 14.3127 28.7121 14.4478 28.7121 14.5868V24.8993C28.7121 25.4149 28.5285 25.8564 28.1614 26.2235C27.7942 26.5907 27.3528 26.7743 26.8371 26.7743H9.22461ZM18.9621 19.9243H22.9121C23.1741 19.9243 23.3938 19.8352 23.5711 19.657C23.7484 19.4787 23.8371 19.2579 23.8371 18.9945C23.8371 18.731 23.7484 18.5076 23.5711 18.3243C23.3938 18.1409 23.1741 18.0493 22.9121 18.0493H18.9621C18.6929 18.0493 18.4673 18.1403 18.2851 18.3223C18.1031 18.5044 18.0121 18.7301 18.0121 18.9993C18.0121 19.2614 18.1031 19.4811 18.2851 19.6583C18.4673 19.8356 18.6929 19.9243 18.9621 19.9243ZM15.0121 24.8993H26.8371V16.0493H15.0121V24.8993Z" fill="#E85222"/>
</svg>
