<svg width="37" height="37" viewBox="0 0 37 37" fill="none" xmlns="http://www.w3.org/2000/svg">
<rect width="37" height="37" rx="4" fill="#FFE3DA"/>
<path d="M18.9991 26.85C18.7329 26.85 18.4748 26.7917 18.2248 26.675C17.9748 26.5583 17.754 26.3875 17.5623 26.1625L9.8498 16.925C9.70814 16.7523 9.60189 16.564 9.53105 16.36C9.46022 16.156 9.4248 15.9441 9.4248 15.7242C9.4248 15.5831 9.4373 15.4417 9.4623 15.3C9.4873 15.1583 9.5373 15.0208 9.6123 14.8875L11.5248 11.1C11.6915 10.7833 11.92 10.5313 12.2103 10.3438C12.5006 10.1563 12.8263 10.0625 13.1873 10.0625H24.8123C25.1733 10.0625 25.499 10.1563 25.7893 10.3438C26.0796 10.5313 26.3081 10.7833 26.4748 11.1L28.3873 14.8875C28.4623 15.0208 28.5123 15.1583 28.5373 15.3C28.5623 15.4417 28.5748 15.5831 28.5748 15.7242C28.5748 15.9441 28.5394 16.156 28.4686 16.36C28.3977 16.564 28.2915 16.7523 28.1498 16.925L20.4373 26.1625C20.2456 26.3875 20.0246 26.5583 19.7741 26.675C19.5236 26.7917 19.2652 26.85 18.9991 26.85ZM16.5248 15.0625H21.4748L19.9113 11.9375H18.0873L16.5248 15.0625ZM18.0623 23.85V16.9375H12.3123L18.0623 23.85ZM19.9373 23.85L25.6873 16.9375H19.9373V23.85ZM23.5623 15.0625H26.3498L24.7873 11.9375H21.9998L23.5623 15.0625ZM11.6498 15.0625H14.4373L15.9998 11.9375H13.2123L11.6498 15.0625Z" fill="#E85222"/>
</svg>
