<svg width="143" height="47" viewBox="0 0 143 47" fill="none" xmlns="http://www.w3.org/2000/svg">
<rect width="142.303" height="46.1925" rx="4" fill="white"/>
<path fill-rule="evenodd" clip-rule="evenodd" d="M111.358 16.8944H105.274C105.125 16.8944 105.004 17.0153 105.004 17.1646V17.6329C105.004 17.7789 105.121 17.8997 105.267 17.9031C105.267 17.9031 110.289 18.3764 110.314 18.3948C111.205 18.5778 111.875 19.4186 111.875 20.3635V21.2665C111.875 22.4044 111.293 23.3577 109.321 23.3577H102.805C102.711 23.3577 102.634 23.2805 102.634 23.1865V21.676C102.634 21.582 102.711 21.5048 102.805 21.5048H109.21C109.356 21.5014 109.473 21.3806 109.473 21.2346V20.5985C109.473 20.4491 109.352 20.3283 109.203 20.3283L104.546 19.9305C104.534 19.9305 104.522 19.9272 104.51 19.9238C103.467 19.8835 102.634 19.1316 102.634 18.0793V17.1629C102.634 16.025 103.544 15.0986 104.677 15.0717H111.36C111.455 15.0717 111.531 15.1489 111.531 15.2429V16.7249C111.531 16.8189 111.454 16.8961 111.36 16.8961M100.826 16.8944H94.7425C94.5931 16.8944 94.4723 17.0153 94.4723 17.1646V17.6329C94.4723 17.7789 94.5898 17.8997 94.7358 17.9031C94.7358 17.9031 99.7574 18.3764 99.7826 18.3948C100.674 18.5778 101.343 19.4186 101.343 20.3635V21.2665C101.343 22.4044 100.761 23.3577 98.789 23.3577H92.2737C92.178 23.3577 92.1025 23.2805 92.1025 23.1865V21.676C92.1025 21.582 92.1797 21.5048 92.2737 21.5048H98.6782C98.8242 21.5014 98.9417 21.3806 98.9417 21.2346V20.5985C98.9417 20.4491 98.8209 20.3283 98.6715 20.3283L94.0141 19.9305C94.0024 19.9305 93.9906 19.9272 93.9789 19.9238C92.935 19.8835 92.1025 19.1316 92.1025 18.0793V17.1629C92.1025 16.025 93.0122 15.0986 94.145 15.0717H100.828C100.924 15.0717 100.999 15.1489 100.999 15.2429V16.7249C100.999 16.8189 100.922 16.8961 100.828 16.8961L100.826 16.8944ZM120.495 21.6642H115.613L114.95 23.1395C114.899 23.252 114.767 23.3426 114.656 23.3426H112.605C112.493 23.3426 112.442 23.252 112.494 23.1395L116.039 15.2597C116.089 15.1473 116.22 15.0566 116.333 15.0566H119.777C119.889 15.0566 120.02 15.1473 120.07 15.2597L123.615 23.1395C123.665 23.252 123.615 23.3426 123.504 23.3426H121.455C121.342 23.3426 121.212 23.252 121.161 23.1395L120.498 21.6642H120.495ZM116.373 19.9758H119.736L118.363 16.9246H117.746L116.375 19.9758H116.373ZM125.057 15.0701H128.165C128.277 15.0701 128.725 15.1171 128.987 15.5215L132.839 21.488V15.2715C132.839 15.159 132.93 15.0684 133.042 15.0684H134.798C134.91 15.0684 135.001 15.159 135.001 15.2715V23.1513C135.001 23.2637 134.91 23.3543 134.798 23.3543H131.797C131.684 23.3543 131.077 23.3543 130.803 22.8609L127.069 17.0505V23.1529C127.069 23.2654 126.978 23.356 126.866 23.356H125.055C124.943 23.356 124.852 23.2654 124.852 23.1529V15.2731C124.852 15.1607 124.943 15.0701 125.055 15.0701H125.057ZM76.4336 15.0701H79.515C79.6274 15.0701 80.0755 15.1171 80.3374 15.5215L84.1891 21.488V15.2715C84.1891 15.159 84.2798 15.0684 84.3922 15.0684H86.1478C86.2602 15.0684 86.3508 15.159 86.3508 15.2715V23.1513C86.3508 23.2637 86.2602 23.3543 86.1478 23.3543L83.1469 23.3577C83.0344 23.3577 82.4269 23.3543 82.1533 22.8609L78.419 17.0505V23.1529C78.419 23.2654 78.3284 23.356 78.2159 23.356H76.4336C76.3211 23.356 76.2305 23.2654 76.2305 23.1529V15.2731C76.2305 15.1607 76.3211 15.0701 76.4336 15.0701ZM88.1316 15.0029H90.1825C90.2949 15.0029 90.3856 15.0936 90.3856 15.206V23.0858C90.3856 23.1982 90.2949 23.2889 90.1825 23.2889H88.1316C88.0191 23.2889 87.9285 23.1982 87.9285 23.0858V15.206C87.9285 15.0936 88.0191 15.0029 88.1316 15.0029Z" fill="#CE1141"/>
<path fill-rule="evenodd" clip-rule="evenodd" d="M57.1924 16.5755H57.4173C57.6053 16.208 57.9745 15.9814 58.4276 15.9814H60.0221V23.1966H62.4271V15.9814H64.0215C64.473 15.9814 64.8439 16.2097 65.0319 16.5755H65.2568V15.0029H57.1957V16.5755" fill="#231F20"/>
<path fill-rule="evenodd" clip-rule="evenodd" d="M57.459 22.208H54.8895V15.0029H51.9775V15.2211C52.2931 15.4225 52.4861 15.775 52.4861 16.208V23.1949H58.6875V21.6206H58.471C58.283 21.9882 57.9138 22.2063 57.4607 22.2063" fill="#231F20"/>
<path fill-rule="evenodd" clip-rule="evenodd" d="M48.9386 15.2218C49.2541 15.4232 49.4388 15.7757 49.4388 16.2087V19.3556C49.4388 20.9416 48.8816 21.8093 47.4029 21.8093C45.9243 21.8093 45.3738 20.9433 45.3738 19.3556V15.002H42.4619V15.2201C42.7774 15.4215 42.9704 15.774 42.9704 16.207V19.7785C42.9704 21.7707 44.2443 23.3567 46.7433 23.3567C49.5059 23.3567 50.6505 22.1416 50.6505 19.4764V15.002H48.9386V15.2201" fill="#231F20"/>
<path fill-rule="evenodd" clip-rule="evenodd" d="M42.1442 22.3641L38.9151 15.0029H37.0455L33.3984 23.1966H34.8082L35.592 21.3202H39.1316L39.8751 23.1966H42.7719V22.975C42.5068 22.876 42.2701 22.6444 42.1459 22.3641M36.0099 20.3333L37.4046 17.1462L38.7322 20.3333H36.0099Z" fill="#231F20"/>
<path fill-rule="evenodd" clip-rule="evenodd" d="M30.9527 15.2215C31.2699 15.4229 31.4545 15.7754 31.4545 16.2084V21.042L27.6565 15.0017H24.4189V15.2199C24.7345 15.4213 24.9275 15.7737 24.9275 16.2067V23.1936H26.1292V17.16L29.934 23.1936H32.6629V15H30.9527V15.2182" fill="#231F20"/>
<path fill-rule="evenodd" clip-rule="evenodd" d="M22.1809 22.2087H19.3613V19.4613H22.5484V18.4744H19.3613V15.9804H22.0818C22.5266 15.9804 22.8858 16.1684 23.0905 16.4772H23.307V15.002H16.4561V15.2201C16.7733 15.4215 16.9562 15.774 16.9562 16.207V23.1939H23.4161V21.6767H23.1912C23.0032 22.0191 22.676 22.2054 22.1809 22.2054" fill="#231F20"/>
<path fill-rule="evenodd" clip-rule="evenodd" d="M15.3632 22.4785L13.3022 19.4542C14.3276 19.1369 15.1299 18.2978 15.1299 17.2203C15.1299 15.8004 14.0272 15.0049 12.3254 15.0049H7V15.2231C7.31721 15.4245 7.50854 15.7769 7.50854 16.2099V23.1968H9.91191V19.716H10.8132L12.8003 23.1968H16.0043V22.9753C15.7475 22.883 15.5243 22.7168 15.3615 22.4785M10.9558 18.808H9.91191V15.9145H10.9558C11.8286 15.9145 12.5821 16.3627 12.5821 17.3327C12.5821 18.3112 11.8873 18.808 10.9558 18.808Z" fill="#231F20"/>
<path d="M71.8624 18.0557H69.6084V20.4238H71.8624V18.0557Z" fill="#231F20"/>
<path fill-rule="evenodd" clip-rule="evenodd" d="M37.1454 31.6663V28.2073H36.0293V27.8431H38.6945V28.2073H37.5784V31.6663H37.1454ZM30.2474 31.6663V27.8431H30.85L32.6072 30.8255V27.8431H33.0033V31.6663H32.676L30.6452 28.2811V31.6663H30.2491H30.2474ZM26.3671 31.6663V27.8431H26.7951V31.6663H26.3671ZM20.1606 29.7513C20.1606 29.1505 20.2983 28.6722 20.5718 28.3147C20.8454 27.9572 21.2129 27.7793 21.6728 27.7793C22.1327 27.7793 22.5002 27.9572 22.7738 28.313C23.0474 28.6688 23.185 29.1488 23.185 29.753C23.185 30.3572 23.0474 30.8355 22.7738 31.1947C22.5002 31.5522 22.1327 31.7318 21.6728 31.7318C21.2129 31.7318 20.8487 31.5522 20.5735 31.1947C20.2983 30.8355 20.1606 30.3572 20.1606 29.753V29.7513ZM20.5886 29.753C20.5886 30.2599 20.6843 30.6543 20.8773 30.9362C21.0686 31.2199 21.3338 31.3609 21.6728 31.3609C22.0118 31.3609 22.277 31.2199 22.4683 30.9362C22.6613 30.6543 22.757 30.2599 22.757 29.753C22.757 29.2462 22.6613 28.8501 22.4683 28.5681C22.277 28.2845 22.0118 28.1435 21.6728 28.1435C21.3338 28.1435 21.0686 28.2845 20.8773 28.5681C20.6843 28.8501 20.5886 29.2445 20.5886 29.753ZM15.2129 31.2333L15.5469 31C15.6342 31.1376 15.7197 31.235 15.802 31.2887C15.8842 31.3441 15.9832 31.3709 16.1007 31.3709C16.2837 31.3709 16.4129 31.3155 16.4901 31.2048C16.5673 31.094 16.6042 30.8943 16.6042 30.609V27.8431H17.0171V30.6526C17.0171 31.0034 16.9399 31.2702 16.7838 31.4549C16.6294 31.6395 16.4012 31.7301 16.1007 31.7301C15.9027 31.7301 15.7332 31.6898 15.5905 31.6109C15.4479 31.5321 15.322 31.4062 15.2129 31.2333Z" fill="#231F20"/>
<path fill-rule="evenodd" clip-rule="evenodd" d="M79.5953 31.665V27.8418H81.8543V28.201H80.0182V29.4815H81.3189V29.8357H80.0182V31.3008H81.9432V31.665H79.5953ZM73.7395 31.665V27.8418H74.8137C75.3491 27.8418 75.7368 27.9224 75.9784 28.0835C76.2201 28.2446 76.341 28.4997 76.341 28.8505C76.341 29.1006 76.2755 29.307 76.1429 29.4698C76.012 29.6343 75.814 29.7534 75.5471 29.8289L76.445 31.665H75.9801L75.1376 29.9296H74.1541V31.665H73.7362H73.7395ZM74.812 28.1959H74.1558V29.5772H74.7952C75.1896 29.5772 75.4733 29.5218 75.6495 29.4144C75.824 29.3053 75.9113 29.1308 75.9113 28.8908C75.9113 28.634 75.8341 28.4544 75.678 28.352C75.5219 28.2496 75.2333 28.1993 74.812 28.1993V28.1959ZM67.5683 27.8418H67.9862V30.309C67.9862 30.4801 67.9946 30.6111 68.0097 30.6983C68.0248 30.7839 68.0517 30.8628 68.0869 30.9316C68.1574 31.0692 68.2682 31.175 68.4175 31.2522C68.5669 31.3277 68.7431 31.3663 68.9445 31.3663C69.1459 31.3663 69.3255 31.3277 69.4766 31.2522C69.6259 31.1767 69.7367 31.0692 69.8072 30.9316C69.8441 30.8594 69.8693 30.7772 69.8844 30.6883C69.8995 30.5976 69.9079 30.4483 69.9079 30.2401V27.8435H70.3258V30.3761C70.3258 30.8175 70.2083 31.1548 69.9734 31.3848C69.7384 31.6147 69.3943 31.7305 68.9445 31.7305C68.4947 31.7305 68.149 31.6164 67.9174 31.3881C67.6858 31.1599 67.57 30.8225 67.57 30.3761V27.8435L67.5683 27.8418ZM62.9982 31.665V28.206H61.8821V27.8418H64.5473V28.206H63.4312V31.665H62.9982ZM56.0985 31.665V27.8418H56.7011L58.4583 30.8242V27.8418H58.8544V31.665H58.5271L56.4963 28.2798V31.665H56.1002H56.0985ZM50.6809 31.665V27.8418H52.9399V28.201H51.1038V29.4815H52.4045V29.8357H51.1038V31.3008H53.0289V31.665H50.6809ZM46.0185 31.665L44.7295 27.8418H45.1625L46.193 30.94H46.2232L47.2621 27.8418H47.6901L46.3894 31.665H46.0168H46.0185Z" fill="#231F20"/>
<path fill-rule="evenodd" clip-rule="evenodd" d="M124.665 31.6663V30.0518L123.502 27.8414H123.962L124.871 29.6087L125.784 27.8414H126.246L125.083 30.0518V31.6663H124.665ZM117.755 31.6663V27.8431H118.358L120.115 30.8255V27.8431H120.511V31.6663H120.184L118.153 28.2811V31.6663H117.757H117.755ZM111.75 31.6663L112.93 27.8431H113.573L114.748 31.6663H114.303L113.959 30.4764H112.535L112.196 31.6663H111.747H111.75ZM112.638 30.1223H113.843L113.272 28.1284H113.212L112.636 30.1223H112.638ZM106.928 31.6663V27.8431H108.039C108.496 27.8431 108.833 27.927 109.05 28.0982C109.268 28.2677 109.375 28.5295 109.375 28.887C109.375 29.2445 109.268 29.4912 109.056 29.6792C108.843 29.8655 108.544 29.9595 108.16 29.9595H107.339V31.668H106.926L106.928 31.6663ZM107.341 29.5986H107.992C108.34 29.5986 108.585 29.5432 108.729 29.4325C108.873 29.3217 108.944 29.1387 108.944 28.8786C108.944 28.6352 108.868 28.459 108.719 28.355C108.568 28.2492 108.316 28.1972 107.962 28.1972H107.343V29.5986H107.341ZM100.099 31.6663V27.8431H100.752L101.819 31.0755L102.893 27.8431H103.508V31.6663H103.1V28.2979L101.945 31.6663H101.662L100.507 28.2979V31.6663H100.099ZM93.9177 29.7513C93.9177 29.1505 94.0553 28.6722 94.3289 28.3147C94.6024 27.9572 94.97 27.7793 95.4299 27.7793C95.8897 27.7793 96.2573 27.9572 96.5309 28.313C96.8044 28.6688 96.9421 29.1488 96.9421 29.753C96.9421 30.3572 96.8044 30.8355 96.5309 31.1947C96.2573 31.5522 95.8897 31.7318 95.4299 31.7318C94.97 31.7318 94.6058 31.5522 94.3306 31.1947C94.0553 30.8355 93.9177 30.3572 93.9177 29.753V29.7513ZM94.3473 29.753C94.3473 30.2599 94.443 30.6543 94.636 30.9362C94.8273 31.2199 95.0925 31.3609 95.4315 31.3609C95.7706 31.3609 96.0357 31.2199 96.2271 30.9362C96.4201 30.6543 96.5157 30.2599 96.5157 29.753C96.5157 29.2462 96.4201 28.8501 96.2271 28.5681C96.0357 28.2845 95.7706 28.1435 95.4315 28.1435C95.0925 28.1435 94.8273 28.2845 94.636 28.5681C94.443 28.8501 94.3473 29.2445 94.3473 29.753ZM91.1451 30.52C91.0528 30.9228 90.8933 31.2249 90.6684 31.4263C90.4435 31.6277 90.1532 31.7301 89.7974 31.7301C89.3274 31.7301 88.9649 31.5589 88.7098 31.2149C88.4547 30.8708 88.3271 30.3841 88.3271 29.7513C88.3271 29.1186 88.4564 28.6554 88.7132 28.3046C88.9699 27.9538 89.3207 27.7793 89.7655 27.7793C90.1196 27.7793 90.4066 27.875 90.6281 28.068C90.848 28.261 90.9991 28.5446 91.0779 28.9222L90.6919 29.0229C90.6315 28.7376 90.5258 28.5194 90.3714 28.3667C90.2186 28.2157 90.029 28.1385 89.8041 28.1385C89.4684 28.1385 89.21 28.2794 89.0287 28.5631C88.8474 28.845 88.7568 29.2478 88.7568 29.7681C88.7568 30.2884 88.8491 30.6711 89.0337 30.948C89.2183 31.2249 89.4785 31.3642 89.8158 31.3642C90.0659 31.3642 90.2723 31.2837 90.4368 31.1225C90.6013 30.9614 90.7087 30.7315 90.7607 30.4327L91.1468 30.5183L91.1451 30.52Z" fill="#231F20"/>
</svg>
