<svg width="143" height="47" viewBox="0 0 143 47" fill="none" xmlns="http://www.w3.org/2000/svg">
<rect width="142.303" height="46.1925" rx="4" fill="white"/>
<path fill-rule="evenodd" clip-rule="evenodd" d="M77.0193 22.608C77.0193 22.608 75.7787 21.8326 75.0809 21.6C75.0809 21.6 72.7548 20.5145 72.2895 20.0493C72.2895 20.0493 71.3591 19.1964 71.9018 18.1884C71.9018 18.1884 72.1345 17.5681 73.0649 17.5681C73.0649 17.5681 74.3055 17.5681 74.3055 18.6536V20.1268H78.7252V18.0333C78.7252 18.0333 79.0353 14.5441 73.4526 14.389C73.4526 14.389 69.0329 14.0789 67.7923 16.4825C67.7923 16.4825 67.3271 17.0253 67.3271 18.8087V20.1268C67.3271 20.1268 67.3271 21.6776 68.025 22.608C68.025 22.608 68.4902 23.2283 69.5757 24.0037C69.5757 24.0037 71.8243 25.1668 73.1424 25.8646C73.1424 25.8646 74.4606 26.64 74.3055 27.8806C74.3055 27.8806 74.228 29.1212 72.9098 29.0436C72.9098 29.0436 71.7468 29.0436 71.7468 27.803V26.3298H67.017V28.4233C67.017 28.4233 66.8619 32.4553 72.9874 32.4553C72.9874 32.4553 78.8027 32.6104 79.1128 28.3458V26.64C79.1128 26.64 79.3455 24.0812 77.0193 22.6856V22.608Z" fill="#293795"/>
<path fill-rule="evenodd" clip-rule="evenodd" d="M54.3018 14.8555L52.8285 24.16H52.4409L51.0452 14.933H43.6016L43.2139 31.8362H47.6335V19.0425H48.0212L50.3473 31.8362H54.9996L57.2482 19.0425H57.5583L57.7134 31.8362H62.1331L61.6678 14.8555H54.3018Z" fill="#293795"/>
<path fill-rule="evenodd" clip-rule="evenodd" d="M28.0929 14.9297L25.1465 31.7554H29.8763L31.6597 18.6515H32.0473L33.7532 31.7554H38.483L35.5365 14.9297H28.0929Z" fill="#293795"/>
<path fill-rule="evenodd" clip-rule="evenodd" d="M127.42 22.3762V24.8574H128.661V27.4937C128.661 28.8118 127.575 28.8118 127.575 28.8118C126.18 28.8118 126.257 27.5712 126.257 27.5712V18.3442C126.257 17.4138 127.498 17.3362 127.498 17.3362C128.661 17.3362 128.661 18.4993 128.661 18.4993V19.895H133.08C133.235 17.1812 132.693 16.4833 132.693 16.4833C131.607 14.0021 127.42 14.1572 127.42 14.1572C120.984 14.1572 121.682 19.1196 121.682 19.1196V28.0364C121.837 32.6887 128.118 32.2235 128.273 32.2235C131.064 31.9133 131.917 30.9829 131.917 30.9829C132.693 30.3626 132.925 29.5872 132.925 29.5872C133.158 29.122 133.235 27.6488 133.235 27.6488V22.3762H127.498H127.42Z" fill="#293795"/>
<path fill-rule="evenodd" clip-rule="evenodd" d="M112.688 25.168H112.455L107.958 14.8555H102.53V31.8362H106.95L106.64 21.4462H106.872L111.525 31.8362H116.797V14.8555H112.378L112.688 25.168Z" fill="#293795"/>
<path fill-rule="evenodd" clip-rule="evenodd" d="M91.7522 27.572C91.7522 27.572 91.7522 28.9677 90.5116 28.9677C90.5116 28.9677 89.1159 28.9677 89.1159 27.572V14.7783H84.3086V27.417C84.3086 27.417 83.8434 32.2243 90.5892 32.2243C90.5892 32.2243 96.482 32.2243 96.482 27.6496V14.7783H91.7522V27.4945V27.572Z" fill="#293795"/>
<path fill-rule="evenodd" clip-rule="evenodd" d="M18.8656 22.6096C18.8656 22.6096 17.625 21.8342 16.9272 21.6016C16.9272 21.6016 14.601 20.5161 14.1358 20.0509C14.1358 20.0509 13.2054 19.198 13.7481 18.19C13.7481 18.19 13.9807 17.5697 14.9112 17.5697C14.9112 17.5697 16.1518 17.5697 16.1518 18.6552V20.1284H20.5714V18.0349C20.5714 18.0349 20.8816 14.5457 15.2989 14.3906C15.2989 14.3906 14.9112 14.3906 14.2909 14.3906C14.2909 14.3906 10.8792 14.5457 9.71617 16.4066C9.71617 16.4066 9.25094 16.9494 9.25094 18.7327V20.0509C9.25094 20.0509 9.25094 21.6016 9.94878 22.5321C9.94878 22.5321 10.414 23.1524 11.4995 23.9278C11.4995 23.9278 13.6706 25.0908 15.0663 25.7887C15.0663 25.7887 16.3844 26.564 16.2293 27.8046C16.2293 27.8046 16.1518 29.0452 14.8337 28.9677C14.8337 28.9677 13.6706 28.9677 13.6706 27.7271V26.2539H8.94079V28.3474C8.94079 28.3474 8.78571 32.3794 14.9112 32.3794C14.9112 32.3794 20.7265 32.5344 21.0367 28.2699V26.564C21.0367 26.564 21.2693 24.0053 18.9432 22.6096H18.8656Z" fill="#293795"/>
</svg>
