<svg width="124" height="20" viewBox="0 0 124 20" fill="none" xmlns="http://www.w3.org/2000/svg">
<path fill-rule="evenodd" clip-rule="evenodd" d="M9.99983 17.8077L5.59731 19.8444C4.7208 20.2499 3.69481 19.8381 3.3057 18.9247C3.18255 18.6356 3.13427 18.3179 3.16567 18.0033L3.66395 13.0104L0.444761 9.27638C-0.196159 8.53296 -0.137424 7.38883 0.575949 6.72091C0.801733 6.50951 1.07674 6.36348 1.37357 6.29738L6.08404 5.24837L8.49699 0.903873C8.97739 0.0389094 10.0397 -0.256431 10.8697 0.244211C11.1324 0.402665 11.3506 0.630111 11.5027 0.903873L13.9156 5.24837L18.6261 6.29738C19.5639 6.50623 20.1617 7.46783 19.9613 8.44516C19.8979 8.75449 19.7577 9.04109 19.5549 9.27638L16.3357 13.0104L16.834 18.0033C16.9332 18.9973 16.2404 19.8869 15.2865 19.9903C14.9846 20.023 14.6798 19.9727 14.4023 19.8444L9.99983 17.8077Z" fill="#FFC727"/>
<path fill-rule="evenodd" clip-rule="evenodd" d="M35.9998 17.8077L31.5973 19.8444C30.7208 20.2499 29.6948 19.8381 29.3057 18.9247C29.1826 18.6356 29.1343 18.3179 29.1657 18.0033L29.6639 13.0104L26.4448 9.27638C25.8038 8.53296 25.8626 7.38883 26.5759 6.72091C26.8017 6.50951 27.0767 6.36348 27.3736 6.29738L32.084 5.24837L34.497 0.903873C34.9774 0.0389094 36.0397 -0.256431 36.8697 0.244211C37.1324 0.402665 37.3506 0.630111 37.5027 0.903873L39.9156 5.24837L44.6261 6.29738C45.5639 6.50623 46.1617 7.46783 45.9613 8.44516C45.8979 8.75449 45.7577 9.04109 45.5549 9.27638L42.3357 13.0104L42.834 18.0033C42.9332 18.9973 42.2404 19.8869 41.2865 19.9903C40.9846 20.023 40.6798 19.9727 40.4023 19.8444L35.9998 17.8077Z" fill="#FFC727"/>
<path fill-rule="evenodd" clip-rule="evenodd" d="M61.9998 17.8077L57.5973 19.8444C56.7208 20.2499 55.6948 19.8381 55.3057 18.9247C55.1826 18.6356 55.1343 18.3179 55.1657 18.0033L55.6639 13.0104L52.4448 9.27638C51.8038 8.53296 51.8626 7.38883 52.5759 6.72091C52.8017 6.50951 53.0767 6.36348 53.3736 6.29738L58.084 5.24837L60.497 0.903873C60.9774 0.0389094 62.0397 -0.256431 62.8697 0.244211C63.1324 0.402665 63.3506 0.630111 63.5027 0.903873L65.9156 5.24837L70.6261 6.29738C71.5639 6.50623 72.1617 7.46783 71.9613 8.44516C71.8979 8.75449 71.7577 9.04109 71.5549 9.27638L68.3357 13.0104L68.834 18.0033C68.9332 18.9973 68.2404 19.8869 67.2865 19.9903C66.9846 20.023 66.6798 19.9727 66.4023 19.8444L61.9998 17.8077Z" fill="#FFC727"/>
<path fill-rule="evenodd" clip-rule="evenodd" d="M87.9998 17.8077L83.5973 19.8444C82.7208 20.2499 81.6948 19.8381 81.3057 18.9247C81.1826 18.6356 81.1343 18.3179 81.1657 18.0033L81.6639 13.0104L78.4448 9.27638C77.8038 8.53296 77.8626 7.38883 78.5759 6.72091C78.8017 6.50951 79.0767 6.36348 79.3736 6.29738L84.084 5.24837L86.497 0.903873C86.9774 0.0389094 88.0397 -0.256431 88.8697 0.244211C89.1324 0.402665 89.3506 0.630111 89.5027 0.903873L91.9156 5.24837L96.6261 6.29738C97.5639 6.50623 98.1617 7.46783 97.9613 8.44516C97.8979 8.75449 97.7577 9.04109 97.5549 9.27638L94.3357 13.0104L94.834 18.0033C94.9332 18.9973 94.2404 19.8869 93.2865 19.9903C92.9846 20.023 92.6798 19.9727 92.4023 19.8444L87.9998 17.8077Z" fill="#FFC727"/>
<path fill-rule="evenodd" clip-rule="evenodd" d="M114 17.8077L109.597 19.8444C108.721 20.2499 107.695 19.8381 107.306 18.9247C107.183 18.6356 107.134 18.3179 107.166 18.0033L107.664 13.0104L104.445 9.27638C103.804 8.53296 103.863 7.38883 104.576 6.72091C104.802 6.50951 105.077 6.36348 105.374 6.29738L110.084 5.24837L112.497 0.903873C112.977 0.0389094 114.04 -0.256431 114.87 0.244211C115.132 0.402665 115.351 0.630111 115.503 0.903873L117.916 5.24837L122.626 6.29738C123.564 6.50623 124.162 7.46783 123.961 8.44516C123.898 8.75449 123.758 9.04109 123.555 9.27638L120.336 13.0104L120.834 18.0033C120.933 18.9973 120.24 19.8869 119.287 19.9903C118.985 20.023 118.68 19.9727 118.402 19.8444L114 17.8077Z" fill="#FFC727"/>
</svg>
