<svg width="144" height="48" viewBox="0 0 144 48" fill="none" xmlns="http://www.w3.org/2000/svg">
<rect x="0.944336" y="0.904297" width="142.303" height="46.1925" rx="4" fill="white"/>
<path d="M50.3089 37.212C50.3089 37.3563 50.2883 37.4801 50.247 37.6038C50.2058 37.7276 50.1233 37.8101 50.0408 37.9132C49.9583 37.9957 49.8345 38.0576 49.7108 38.0988C49.587 38.1401 49.422 38.1607 49.257 38.1607H48.927V39.2126V39.2332C48.927 39.2332 48.927 39.2332 48.9064 39.2538C48.9064 39.2538 48.8652 39.2538 48.8445 39.2538C48.8239 39.2538 48.7827 39.2538 48.7414 39.2538C48.7002 39.2538 48.6795 39.2538 48.6383 39.2538C48.6177 39.2538 48.597 39.2538 48.5764 39.2538C48.5764 39.2538 48.5558 39.2538 48.5352 39.2332C48.5352 39.2332 48.5352 39.2332 48.5352 39.2126V36.5107C48.5352 36.4488 48.5352 36.4076 48.5764 36.387C48.6177 36.3663 48.6383 36.3457 48.6795 36.3457H49.2983C49.3602 36.3457 49.422 36.3457 49.4839 36.3457C49.5458 36.3457 49.6077 36.3457 49.6902 36.387C49.7727 36.387 49.8552 36.4282 49.9377 36.4901C50.0202 36.5313 50.082 36.5932 50.1439 36.6551C50.2058 36.717 50.247 36.7995 50.2677 36.9026C50.2883 36.9851 50.3089 37.0882 50.3089 37.212ZM49.917 37.2326C49.917 37.1088 49.8964 37.0057 49.8552 36.9438C49.8139 36.8613 49.752 36.7995 49.6902 36.7582C49.6283 36.717 49.5664 36.6963 49.4839 36.6757C49.422 36.6757 49.3395 36.6757 49.2777 36.6757H48.927V37.8513H49.2777C49.4014 37.8513 49.4839 37.8513 49.5664 37.8101C49.6489 37.7688 49.7108 37.7482 49.752 37.6863C49.8139 37.6245 49.8552 37.5626 49.8758 37.5007C49.8964 37.4182 49.917 37.3357 49.917 37.2532V37.2326Z" fill="#333333"/>
<path d="M53.0926 38.0968C53.0926 38.1587 53.0926 38.1999 53.0513 38.2205C53.0307 38.2412 52.9895 38.2618 52.9482 38.2618H51.6076C51.6076 38.3649 51.6076 38.468 51.6488 38.5712C51.6695 38.6537 51.7107 38.7362 51.7726 38.7981C51.8345 38.8599 51.8963 38.9218 51.9788 38.9424C52.0613 38.9837 52.1645 39.0043 52.2882 39.0043C52.412 39.0043 52.4738 39.0043 52.5357 38.9837C52.6182 38.9837 52.6801 38.9424 52.7213 38.9424C52.7832 38.9218 52.8245 38.9012 52.8657 38.8806C52.907 38.8806 52.9276 38.8599 52.9482 38.8599C52.9688 38.8599 52.9688 38.8599 52.9688 38.8599C52.9688 38.8599 52.9688 38.8599 52.9688 38.8806C52.9688 38.8806 52.9688 38.9012 52.9688 38.9218C52.9688 38.9218 52.9688 38.9631 52.9688 38.9837C52.9688 39.0043 52.9688 39.0249 52.9688 39.0249C52.9688 39.0249 52.9688 39.0456 52.9688 39.0662V39.0868C52.9688 39.0868 52.9688 39.0868 52.9688 39.1074C52.9688 39.1074 52.9276 39.1281 52.8863 39.1487C52.8451 39.1487 52.7832 39.1899 52.7213 39.2106C52.6595 39.2106 52.577 39.2518 52.4945 39.2518C52.412 39.2518 52.3088 39.2724 52.2263 39.2724C52.0613 39.2724 51.917 39.2518 51.7932 39.2106C51.6695 39.1693 51.5663 39.0868 51.4838 39.0043C51.4013 38.9218 51.3395 38.7981 51.2982 38.6537C51.257 38.5093 51.2363 38.3443 51.2363 38.1793C51.2363 38.0143 51.257 37.8493 51.2982 37.7049C51.3395 37.5605 51.4013 37.4574 51.4838 37.3543C51.5663 37.2512 51.6695 37.1893 51.7932 37.1274C51.917 37.0655 52.0407 37.0449 52.1851 37.0449C52.3295 37.0449 52.4738 37.0655 52.5976 37.1274C52.7007 37.1687 52.8038 37.2512 52.8657 37.3337C52.9482 37.4162 52.9895 37.5193 53.0307 37.643C53.072 37.7668 53.072 37.8905 53.072 38.0143V38.0762L53.0926 38.0968ZM52.7213 37.9937C52.7213 37.7874 52.6801 37.643 52.5976 37.5399C52.5151 37.4368 52.3707 37.3749 52.1851 37.3749C51.9995 37.3749 52.0201 37.3749 51.9376 37.4368C51.8757 37.478 51.8138 37.5193 51.7726 37.5812C51.7313 37.643 51.6901 37.7049 51.6695 37.7874C51.6488 37.8699 51.6282 37.9524 51.6282 38.0349H52.742L52.7213 37.9937Z" fill="#333333"/>
<path d="M55.4448 37.3144C55.4448 37.3557 55.4448 37.3763 55.4448 37.3969C55.4448 37.4175 55.4448 37.4382 55.4448 37.4588V37.4794C55.4448 37.4794 55.4448 37.4794 55.4242 37.4794C55.4036 37.4794 55.4036 37.4794 55.3829 37.4794C55.3829 37.4794 55.3417 37.4794 55.3211 37.4794C55.3004 37.4794 55.2798 37.4794 55.2386 37.4794C55.2179 37.4794 55.1767 37.4794 55.1561 37.4794C55.1354 37.4794 55.0736 37.4794 55.0529 37.5C55.0117 37.5 54.9704 37.5413 54.9498 37.5825C54.9086 37.6238 54.8673 37.665 54.8261 37.7269C54.7848 37.7888 54.7436 37.8507 54.6817 37.9332V39.2738C54.6817 39.2738 54.6817 39.2944 54.6817 39.315C54.6817 39.315 54.6817 39.315 54.6611 39.3357C54.6611 39.3357 54.6198 39.3357 54.5992 39.3357C54.5786 39.3357 54.5373 39.3357 54.4961 39.3357C54.4548 39.3357 54.4342 39.3357 54.4136 39.3357C54.3929 39.3357 54.3723 39.3357 54.3517 39.3357C54.3517 39.3357 54.3311 39.3357 54.3311 39.315C54.3311 39.315 54.3311 39.2944 54.3311 39.2738V37.2525V37.2319C54.3311 37.2319 54.3311 37.2319 54.3517 37.2113C54.3517 37.2113 54.3723 37.2113 54.3929 37.2113C54.4136 37.2113 54.4342 37.2113 54.4754 37.2113C54.5167 37.2113 54.5373 37.2113 54.5579 37.2113C54.5786 37.2113 54.5992 37.2113 54.5992 37.2113C54.5992 37.2113 54.5992 37.2113 54.6198 37.2319C54.6198 37.2319 54.6198 37.2319 54.6198 37.2525V37.5413C54.6817 37.4588 54.7229 37.3969 54.7848 37.335C54.8261 37.2938 54.8879 37.2525 54.9292 37.2113C54.9704 37.1907 55.0117 37.17 55.0529 37.1494C55.0942 37.1494 55.1354 37.1494 55.1767 37.1494C55.2179 37.1494 55.2179 37.1494 55.2386 37.1494C55.2592 37.1494 55.2798 37.1494 55.3211 37.1494C55.3417 37.1494 55.3829 37.1494 55.3829 37.17C55.4036 37.17 55.4242 37.17 55.4242 37.1907C55.4242 37.1907 55.4242 37.1907 55.4242 37.2113C55.4242 37.2113 55.4242 37.2113 55.4242 37.2319C55.4242 37.2319 55.4242 37.2525 55.4242 37.2732V37.3557" fill="#333333"/>
<path d="M57.6724 38.6536C57.6724 38.7567 57.6724 38.8598 57.6105 38.9217C57.5693 39.0042 57.5074 39.0661 57.4455 39.1279C57.3836 39.1898 57.3011 39.2311 57.198 39.2517C57.0949 39.2723 56.9918 39.2929 56.868 39.2929C56.7443 39.2929 56.7236 39.2929 56.6618 39.2929C56.5999 39.2929 56.538 39.2723 56.4761 39.2517C56.4349 39.2517 56.373 39.2104 56.3524 39.1898C56.3111 39.1898 56.2905 39.1486 56.2699 39.1279C56.2699 39.1279 56.2493 39.0867 56.2286 39.0661C56.2286 39.0454 56.2286 39.0042 56.2286 38.9629C56.2286 38.9217 56.2286 38.9011 56.2286 38.8804V38.8392V38.8186C56.2286 38.8186 56.2286 38.8186 56.2493 38.8186C56.2493 38.8186 56.2905 38.8186 56.3318 38.8392C56.373 38.8598 56.4143 38.8804 56.4555 38.9011C56.4968 38.9217 56.5586 38.9423 56.6205 38.9629C56.6824 38.9629 56.7649 38.9836 56.8474 38.9836C56.9299 38.9836 56.9711 38.9836 57.0124 38.9629C57.0536 38.9629 57.1155 38.9217 57.1361 38.9011C57.1774 38.8804 57.198 38.8392 57.2186 38.7979C57.2186 38.7567 57.2393 38.7154 57.2393 38.6536C57.2393 38.5917 57.2393 38.5504 57.198 38.5092C57.1774 38.4679 57.1361 38.4267 57.0743 38.4061C57.033 38.3854 56.9711 38.3442 56.9093 38.3236C56.8474 38.3029 56.7855 38.2823 56.7236 38.2411C56.6618 38.2204 56.5999 38.1792 56.538 38.1586C56.4761 38.1173 56.4143 38.0761 56.373 38.0348C56.3318 37.9936 56.2905 37.9317 56.2493 37.8698C56.2286 37.8079 56.208 37.7254 56.208 37.6429C56.208 37.5604 56.208 37.4986 56.2493 37.4161C56.2905 37.3542 56.3318 37.2717 56.3936 37.2304C56.4555 37.1686 56.538 37.1273 56.6205 37.1067C56.703 37.0654 56.8268 37.0654 56.9505 37.0654C57.0743 37.0654 57.0536 37.0654 57.1155 37.0654C57.1774 37.0654 57.2186 37.0861 57.2599 37.1067C57.3011 37.1067 57.3424 37.1273 57.363 37.1479C57.4043 37.1479 57.4249 37.1686 57.4249 37.1892C57.4249 37.1892 57.4455 37.2098 57.4661 37.2304C57.4661 37.2304 57.4661 37.2304 57.4661 37.2511C57.4661 37.2511 57.4661 37.2717 57.4661 37.2923C57.4661 37.2923 57.4661 37.3336 57.4661 37.3542C57.4661 37.3748 57.4661 37.3954 57.4661 37.4161V37.4573C57.4661 37.4573 57.4661 37.4573 57.4661 37.4779C57.4661 37.4779 57.4661 37.4779 57.4455 37.4779C57.4249 37.4779 57.4043 37.4779 57.3836 37.4573C57.363 37.4573 57.3218 37.4161 57.2805 37.3954C57.2393 37.3748 57.198 37.3542 57.1361 37.3336C57.0743 37.3336 57.0124 37.3129 56.9505 37.3129C56.8886 37.3129 56.8268 37.3129 56.7855 37.3336C56.7443 37.3336 56.703 37.3748 56.6618 37.3954C56.6205 37.4161 56.5999 37.4573 56.5999 37.4986C56.5999 37.5398 56.5793 37.5811 56.5793 37.6223C56.5793 37.6842 56.5793 37.7254 56.6205 37.7667C56.6411 37.8079 56.6824 37.8492 56.7443 37.8698C56.7855 37.8904 56.8474 37.9317 56.9093 37.9523C56.9711 37.9729 57.033 37.9936 57.0949 38.0348C57.1568 38.0554 57.2186 38.0967 57.2805 38.1173C57.3424 38.1586 57.4043 38.1792 57.4455 38.2411C57.4868 38.2823 57.528 38.3442 57.5693 38.4061C57.5899 38.4679 57.6105 38.5504 57.6105 38.6329" fill="#333333"/>
<path d="M60.6835 38.181C60.6835 38.346 60.6629 38.4904 60.6216 38.6348C60.5804 38.7791 60.5185 38.9029 60.4154 38.9854C60.3329 39.0885 60.2297 39.171 60.0854 39.2123C59.9616 39.2741 59.7966 39.2948 59.6316 39.2948C59.4666 39.2948 59.3222 39.2741 59.1985 39.2123C59.0747 39.171 58.9716 39.0885 58.8891 39.006C58.8066 38.9029 58.7447 38.7998 58.7035 38.6554C58.6622 38.511 58.6416 38.3666 58.6416 38.2016C58.6416 38.0366 58.6622 37.8923 58.7035 37.7479C58.7447 37.6035 58.8066 37.5004 58.8891 37.3973C58.9716 37.2941 59.0747 37.2116 59.2191 37.1704C59.3429 37.1085 59.5079 37.0879 59.6729 37.0879C59.8379 37.0879 59.9822 37.1085 60.106 37.1704C60.2297 37.2116 60.3329 37.2941 60.4154 37.3766C60.4979 37.4591 60.5597 37.5829 60.601 37.7273C60.6422 37.8716 60.6629 38.016 60.6629 38.181M60.2916 38.2016C60.2916 38.0985 60.2916 37.9954 60.2504 37.8923C60.2504 37.7891 60.1885 37.7066 60.1472 37.6448C60.106 37.5623 60.0441 37.521 59.9616 37.4798C59.8791 37.4385 59.776 37.4179 59.6729 37.4179C59.5697 37.4179 59.4666 37.4179 59.3841 37.4798C59.3016 37.521 59.2397 37.5829 59.1779 37.6448C59.1366 37.7066 59.0954 37.8098 59.0747 37.8923C59.0541 37.9954 59.0335 38.0985 59.0335 38.2223C59.0335 38.346 59.0335 38.4491 59.0541 38.5316C59.0541 38.6348 59.116 38.7173 59.1572 38.7791C59.1985 38.8616 59.2604 38.9029 59.3429 38.9441C59.4254 38.9854 59.5285 39.006 59.6522 39.006C59.776 39.006 59.8585 39.006 59.941 38.9441C60.0235 38.9029 60.0854 38.841 60.1472 38.7791C60.1885 38.7173 60.2297 38.6141 60.2504 38.5316C60.271 38.4285 60.2916 38.3254 60.2916 38.2016Z" fill="#333333"/>
<path d="M63.571 39.2104C63.571 39.2104 63.571 39.2311 63.571 39.2517C63.571 39.2517 63.571 39.2517 63.5504 39.2723C63.5504 39.2723 63.5091 39.2723 63.4885 39.2723C63.4679 39.2723 63.4266 39.2723 63.406 39.2723C63.3854 39.2723 63.3441 39.2723 63.3235 39.2723C63.3029 39.2723 63.2823 39.2723 63.2616 39.2723C63.2616 39.2723 63.241 39.2723 63.241 39.2517C63.241 39.2517 63.241 39.2311 63.241 39.2104V38.0142C63.241 37.8904 63.241 37.8079 63.2204 37.7254C63.2204 37.6636 63.1791 37.6017 63.1379 37.5398C63.0966 37.4779 63.0554 37.4573 63.0141 37.4161C62.9523 37.3954 62.8904 37.3748 62.8285 37.3748C62.7666 37.3748 62.6429 37.3954 62.5398 37.4779C62.4366 37.5398 62.3541 37.6429 62.251 37.7667V39.1898C62.251 39.1898 62.251 39.2104 62.251 39.2311C62.251 39.2311 62.251 39.2311 62.2098 39.2517C62.2098 39.2517 62.1685 39.2517 62.1479 39.2517C62.1273 39.2517 62.086 39.2517 62.0654 39.2517C62.0448 39.2517 62.0035 39.2517 61.9829 39.2517C61.9623 39.2517 61.9416 39.2517 61.921 39.2517C61.921 39.2517 61.9004 39.2517 61.9004 39.2311C61.9004 39.2311 61.9004 39.2104 61.9004 39.1898V37.1686V37.1479C61.9004 37.1479 61.9004 37.1479 61.921 37.1273C61.921 37.1273 61.9416 37.1273 61.9623 37.1273C61.9829 37.1273 62.0035 37.1273 62.0448 37.1273C62.086 37.1273 62.1066 37.1273 62.1273 37.1273C62.1479 37.1273 62.1685 37.1273 62.1685 37.1273C62.1685 37.1273 62.1685 37.1273 62.1891 37.1479C62.1891 37.1479 62.1891 37.1479 62.1891 37.1686V37.4367C62.2923 37.3129 62.416 37.2098 62.5398 37.1479C62.6429 37.0861 62.7666 37.0654 62.8904 37.0654C63.0141 37.0654 63.1379 37.0861 63.241 37.1273C63.3441 37.1686 63.406 37.2304 63.4679 37.3129C63.5298 37.3954 63.571 37.4779 63.5916 37.5811C63.6123 37.6842 63.6329 37.8079 63.6329 37.9523V39.1898L63.571 39.2104Z" fill="#333333"/>
<path d="M66.3561 39.2119V39.2532C66.3561 39.2532 66.3354 39.2532 66.3148 39.2738C66.2942 39.2738 66.2529 39.2738 66.2117 39.2738C66.1704 39.2738 66.1498 39.2738 66.1086 39.2738C66.0879 39.2738 66.0673 39.2738 66.0673 39.2532C66.0673 39.2532 66.0673 39.2325 66.0673 39.2119V39.0057C65.9848 39.1088 65.8817 39.1707 65.7786 39.2325C65.6754 39.2944 65.5517 39.315 65.4279 39.315C65.3042 39.315 65.2217 39.315 65.1392 39.2738C65.0567 39.2532 64.9742 39.2119 64.9123 39.15C64.8504 39.0882 64.8092 39.0263 64.7679 38.9644C64.7267 38.8819 64.7061 38.7994 64.7061 38.6963C64.7061 38.5932 64.7267 38.49 64.7679 38.4075C64.8092 38.325 64.8711 38.2425 64.9742 38.2013C65.0567 38.1394 65.1598 38.0982 65.2836 38.0775C65.4073 38.0569 65.5517 38.0363 65.7167 38.0363H66.0054V37.8713C66.0054 37.7888 66.0054 37.7269 65.9848 37.665C65.9848 37.6032 65.9436 37.5619 65.9023 37.5207C65.8611 37.4794 65.8198 37.4588 65.7579 37.4382C65.6961 37.4382 65.6342 37.4175 65.5517 37.4175C65.4692 37.4175 65.3867 37.4175 65.3042 37.4588C65.2217 37.4794 65.1598 37.5 65.1186 37.5207C65.0567 37.5413 65.0154 37.5619 64.9742 37.6032C64.9329 37.6238 64.9123 37.6444 64.8917 37.6444C64.8711 37.6444 64.8711 37.6444 64.8504 37.6444C64.8504 37.6444 64.8504 37.6444 64.8298 37.6238C64.8298 37.6238 64.8298 37.6032 64.8298 37.5825C64.8298 37.5825 64.8298 37.5413 64.8298 37.5207C64.8298 37.4794 64.8298 37.4588 64.8298 37.4382C64.8298 37.4175 64.8298 37.3969 64.8711 37.3763C64.8917 37.3763 64.9329 37.335 64.9742 37.3144C65.0154 37.2938 65.0773 37.2732 65.1392 37.2319C65.2011 37.2113 65.2836 37.1907 65.3454 37.17C65.4279 37.17 65.4898 37.1494 65.5723 37.1494C65.7167 37.1494 65.8404 37.1494 65.9436 37.1907C66.0467 37.2319 66.1292 37.2732 66.1911 37.335C66.2529 37.3969 66.2942 37.4794 66.3354 37.5825C66.3561 37.6857 66.3767 37.7888 66.3767 37.9125V39.2738L66.3561 39.2119ZM65.9848 38.2838H65.6754C65.5723 38.2838 65.4898 38.2838 65.4073 38.3044C65.3248 38.3044 65.2629 38.3457 65.2217 38.3869C65.1804 38.4282 65.1392 38.4694 65.1186 38.5107C65.0979 38.5519 65.0773 38.6138 65.0773 38.6757C65.0773 38.7788 65.1186 38.8613 65.1804 38.9232C65.2423 38.985 65.3454 39.0263 65.4692 39.0263C65.5929 39.0263 65.6548 39.0057 65.7373 38.9438C65.8198 38.9025 65.9023 38.82 66.0054 38.7169V38.2838H65.9848Z" fill="#333333"/>
<path d="M68.0058 39.2117C68.0058 39.2117 68.0058 39.2323 68.0058 39.2529C68.0058 39.2529 68.0058 39.2529 67.9852 39.2736C67.9852 39.2736 67.9439 39.2736 67.9233 39.2736C67.9027 39.2736 67.8614 39.2736 67.8408 39.2736C67.8202 39.2736 67.7789 39.2736 67.7583 39.2736C67.7377 39.2736 67.717 39.2736 67.6964 39.2736C67.6964 39.2736 67.6758 39.2736 67.6758 39.2529C67.6758 39.2529 67.6758 39.2323 67.6758 39.2117V36.2004V36.1798C67.6758 36.1798 67.6758 36.1798 67.6964 36.1592C67.6964 36.1592 67.7377 36.1592 67.7583 36.1592C67.7789 36.1592 67.8202 36.1592 67.8408 36.1592C67.8614 36.1592 67.9027 36.1592 67.9233 36.1592C67.9439 36.1592 67.9645 36.1592 67.9852 36.1592C67.9852 36.1592 68.0058 36.1592 68.0058 36.1798C68.0058 36.1798 68.0058 36.1798 68.0058 36.2004V39.2117Z" fill="#333333"/>
<path d="M70.8321 38.4898C70.8321 38.4073 70.8322 38.3248 70.8734 38.2629C70.894 38.1804 70.9353 38.1186 70.9765 38.0361C71.0178 37.9742 71.0797 37.8917 71.1622 37.8298C71.2447 37.7679 71.3271 37.7061 71.4303 37.6236C71.3684 37.5411 71.3272 37.4792 71.2859 37.3967C71.2447 37.3348 71.2034 37.2729 71.1828 37.2111C71.1622 37.1492 71.1415 37.1079 71.1209 37.0461C71.1209 36.9842 71.1209 36.9429 71.1209 36.8811C71.1209 36.7986 71.1209 36.6954 71.1622 36.6129C71.2034 36.5304 71.2446 36.4479 71.3065 36.3861C71.3684 36.3242 71.4715 36.2623 71.5747 36.2211C71.6778 36.1798 71.8222 36.1592 71.9665 36.1592C72.1109 36.1592 72.214 36.1592 72.3172 36.2004C72.4203 36.2211 72.5028 36.2623 72.5647 36.3242C72.6265 36.3861 72.6678 36.4479 72.709 36.5098C72.7503 36.5923 72.7503 36.6748 72.7503 36.7573C72.7503 36.8398 72.7503 36.9223 72.709 37.0048C72.6884 37.0873 72.6265 37.1492 72.5647 37.2111C72.5028 37.2729 72.4203 37.3554 72.3172 37.4173C72.214 37.4792 72.0903 37.5617 71.9665 37.6236C72.0078 37.6854 72.0697 37.7473 72.1315 37.8092C72.1934 37.8711 72.2553 37.9329 72.3172 38.0154C72.379 38.0773 72.4615 38.1598 72.5234 38.2217C72.5853 38.2836 72.6678 38.3454 72.7297 38.4073C72.7503 38.3661 72.7915 38.3248 72.8122 38.2629C72.8328 38.2217 72.8534 38.1598 72.874 38.0979C72.874 38.0361 72.9153 37.9742 72.9153 37.9123C72.9153 37.8504 72.9153 37.7886 72.9153 37.7267V37.6442C72.9153 37.6442 72.9153 37.6236 72.9153 37.6029C72.9153 37.6029 72.9153 37.6029 72.9359 37.5823C72.9359 37.5823 72.9565 37.5823 72.9978 37.5823C72.9978 37.5823 73.039 37.5823 73.0803 37.5823C73.1215 37.5823 73.1422 37.5823 73.1628 37.5823C73.1834 37.5823 73.204 37.5823 73.2247 37.5823C73.2247 37.5823 73.2453 37.5823 73.2659 37.6029C73.2659 37.6029 73.2659 37.6236 73.2659 37.6442V37.7061C73.2659 37.7886 73.2659 37.8711 73.2453 37.9536C73.2453 38.0361 73.204 38.1186 73.1834 38.2011C73.1628 38.2836 73.1215 38.3454 73.1009 38.4279C73.0597 38.4898 73.0184 38.5723 72.9772 38.6136C73.039 38.6754 73.1009 38.7167 73.1628 38.7579C73.204 38.7992 73.2659 38.8198 73.2865 38.8404C73.3278 38.8611 73.3484 38.8817 73.369 38.8817C73.3897 38.8817 73.4103 38.8817 73.4309 38.8817C73.4515 38.8817 73.4515 38.8817 73.4722 38.8817C73.4722 38.8817 73.4928 38.8817 73.5134 38.8817C73.5134 38.8817 73.5134 38.8817 73.5134 38.9229C73.5134 38.9229 73.5134 38.9642 73.5134 39.0054V39.0879C73.5134 39.1086 73.5134 39.1292 73.5134 39.1292V39.1498C73.5134 39.1498 73.4928 39.1498 73.4722 39.1704C73.4515 39.1704 73.4103 39.1704 73.369 39.1704C73.3278 39.1704 73.3072 39.1704 73.2659 39.1704C73.2247 39.1704 73.1834 39.1498 73.1422 39.1086C73.1009 39.0879 73.039 39.0467 72.9772 39.0054C72.9153 38.9642 72.8328 38.9023 72.7503 38.8404C72.6884 38.8817 72.6265 38.9436 72.544 38.9848C72.4822 39.0261 72.3997 39.0673 72.3172 39.0879C72.2347 39.1086 72.1522 39.1498 72.0697 39.1704C71.9872 39.1704 71.884 39.1911 71.7809 39.1911C71.6778 39.1911 71.5953 39.1911 71.5128 39.1704C71.4303 39.1704 71.3478 39.1292 71.2859 39.1086C71.2034 39.0673 71.1415 39.0467 71.1003 38.9848C71.0384 38.9436 70.9972 38.8817 70.9559 38.8198C70.9147 38.7579 70.894 38.6961 70.8528 38.6136C70.8528 38.5311 70.8115 38.4692 70.8115 38.3661M71.2447 38.4486C71.2447 38.5311 71.2447 38.5929 71.2859 38.6548C71.3065 38.7167 71.3478 38.7786 71.4096 38.8198C71.4509 38.8611 71.5334 38.9023 71.5953 38.9229C71.6778 38.9436 71.7603 38.9642 71.8634 38.9642C71.9665 38.9642 71.9872 38.9642 72.049 38.9642C72.1109 38.9642 72.1522 38.9436 72.214 38.9023C72.2553 38.9023 72.3172 38.8611 72.3584 38.8198C72.3997 38.7992 72.4409 38.7579 72.4822 38.7167C72.3997 38.6548 72.3378 38.5723 72.2553 38.5104C72.1728 38.4279 72.1109 38.3661 72.0284 38.2836C71.9665 38.2011 71.884 38.1392 71.8222 38.0567C71.7603 37.9742 71.6984 37.9123 71.6365 37.8504C71.554 37.8917 71.4922 37.9536 71.4509 37.9948C71.4097 38.0361 71.3684 38.0979 71.3271 38.1392C71.2859 38.1804 71.2653 38.2423 71.2653 38.2836C71.2653 38.3248 71.2653 38.3867 71.2653 38.4279L71.2447 38.4486ZM71.4922 36.8811C71.4922 36.9223 71.4922 36.9636 71.4922 37.0048C71.4922 37.0461 71.5128 37.0873 71.5334 37.1286C71.554 37.1698 71.5746 37.2317 71.6159 37.2729C71.6571 37.3348 71.6984 37.3761 71.7397 37.4586C71.8428 37.3967 71.9459 37.3348 72.0078 37.2936C72.0903 37.2317 72.1315 37.1904 72.1934 37.1492C72.2347 37.1079 72.2759 37.0461 72.2965 37.0048C72.3172 36.9636 72.3172 36.9017 72.3172 36.8604C72.3172 36.8192 72.3172 36.7779 72.3172 36.7367C72.3172 36.6954 72.2759 36.6542 72.2347 36.6336C72.1934 36.6129 72.1522 36.5717 72.1109 36.5511C72.0697 36.5511 71.9872 36.5304 71.9253 36.5304C71.8634 36.5304 71.7809 36.5304 71.719 36.5717C71.6571 36.5717 71.6159 36.6129 71.5747 36.6542C71.5334 36.6954 71.5128 36.7367 71.4922 36.7779C71.4922 36.8192 71.4715 36.8604 71.4715 36.9223L71.4922 36.8811Z" fill="#333333"/>
<path d="M78.2982 38.8612C78.2982 38.8818 78.2982 38.9025 78.2982 38.9231C78.2982 38.9437 78.2982 38.9643 78.2982 38.9643C78.2982 38.9643 78.2982 38.985 78.2982 39.0056C78.2982 39.0056 78.2982 39.0262 78.257 39.0468C78.257 39.0468 78.2157 39.0881 78.1538 39.1087C78.1126 39.1293 78.0507 39.1706 77.9682 39.1912C77.9063 39.2118 77.8238 39.2531 77.7207 39.2737C77.6176 39.2943 77.5351 39.2943 77.4113 39.2943C77.2257 39.2943 77.0607 39.2531 76.8957 39.1912C76.7513 39.1293 76.607 39.0262 76.5038 38.9025C76.4007 38.7787 76.3182 38.6343 76.2563 38.4487C76.1945 38.2631 76.1738 38.0568 76.1738 37.83C76.1738 37.6031 76.1945 37.3762 76.277 37.1906C76.3388 37.005 76.4213 36.84 76.5451 36.7162C76.6688 36.5925 76.7926 36.4893 76.9576 36.4068C77.1226 36.345 77.2876 36.3037 77.4732 36.3037C77.6588 36.3037 77.6382 36.3037 77.7207 36.3243C77.8032 36.3243 77.8857 36.3656 77.9476 36.3862C78.0095 36.4068 78.0713 36.4275 78.1332 36.4687C78.1745 36.4893 78.2157 36.5306 78.2363 36.5512L78.2776 36.5925C78.2776 36.5925 78.2776 36.6131 78.2776 36.6337V36.675C78.2776 36.6956 78.2776 36.7162 78.2776 36.7368C78.2776 36.7575 78.2776 36.7987 78.2776 36.8193C78.2776 36.8193 78.2776 36.8606 78.2776 36.8812C78.2776 36.8812 78.2776 36.9018 78.257 36.9018C78.257 36.9018 78.257 36.9018 78.2363 36.9018C78.2363 36.9018 78.1951 36.9018 78.1538 36.8606C78.1126 36.84 78.0713 36.7987 78.0095 36.7575C77.9476 36.7162 77.8857 36.6956 77.8032 36.6543C77.7207 36.6337 77.6176 36.6131 77.4938 36.6131C77.3701 36.6131 77.2463 36.6337 77.1432 36.6956C77.0401 36.7575 76.937 36.8193 76.8751 36.9225C76.7926 37.0256 76.7307 37.1493 76.7101 37.2937C76.6688 37.4381 76.6482 37.6031 76.6482 37.7887C76.6482 37.9743 76.6482 38.1393 76.7101 38.2837C76.7513 38.4281 76.8132 38.5518 76.8751 38.6343C76.937 38.7375 77.0401 38.7993 77.1432 38.8406C77.2463 38.8818 77.3701 38.9231 77.5145 38.9231C77.6588 38.9231 77.7413 38.9231 77.8238 38.8818C77.9063 38.8612 77.9888 38.82 78.0507 38.7787C78.1126 38.7375 78.1538 38.7168 78.1951 38.6756C78.2363 38.655 78.257 38.6343 78.2982 38.6343C78.3395 38.6343 78.2982 38.6343 78.3188 38.6343C78.3188 38.6343 78.3188 38.6343 78.3188 38.655C78.3188 38.655 78.3188 38.6756 78.3188 38.6962C78.3188 38.7168 78.3188 38.7375 78.3188 38.7787" fill="#333333"/>
<path d="M80.8962 39.2119V39.2532C80.8962 39.2532 80.8756 39.2532 80.855 39.2738C80.8343 39.2738 80.7931 39.2738 80.7518 39.2738C80.7106 39.2738 80.69 39.2738 80.6487 39.2738C80.6281 39.2738 80.6075 39.2738 80.5868 39.2532C80.5868 39.2532 80.5868 39.2325 80.5868 39.2119V39.0057C80.5043 39.1088 80.4012 39.1707 80.2981 39.2325C80.195 39.2944 80.0712 39.315 79.9475 39.315C79.8237 39.315 79.7412 39.315 79.6587 39.2738C79.5762 39.2532 79.4937 39.2119 79.4318 39.15C79.37 39.0882 79.3287 39.0263 79.2875 38.9644C79.2462 38.8819 79.2256 38.7994 79.2256 38.6963C79.2256 38.5932 79.2462 38.49 79.2875 38.4075C79.3287 38.325 79.3906 38.2425 79.4937 38.2013C79.5762 38.1394 79.6793 38.0982 79.8237 38.0775C79.9475 38.0569 80.0918 38.0363 80.2568 38.0363H80.525V37.8713C80.525 37.7888 80.525 37.7269 80.5043 37.665C80.5043 37.6032 80.4631 37.5619 80.4218 37.5207C80.3806 37.4794 80.3393 37.4588 80.2775 37.4382C80.2156 37.4382 80.1537 37.4175 80.0712 37.4175C79.9887 37.4175 79.9062 37.4175 79.8237 37.4588C79.7412 37.4794 79.6793 37.5 79.6381 37.5207C79.5762 37.5413 79.535 37.5619 79.4937 37.6032C79.4525 37.6238 79.4318 37.6444 79.4112 37.6444C79.3906 37.6444 79.3906 37.6444 79.3906 37.6444C79.3906 37.6444 79.3906 37.6444 79.37 37.6238C79.37 37.6238 79.37 37.6032 79.37 37.5825C79.37 37.5825 79.37 37.5413 79.37 37.5207C79.37 37.4794 79.37 37.4588 79.37 37.4382C79.37 37.4175 79.37 37.3969 79.4112 37.3763C79.4112 37.3763 79.4731 37.335 79.5143 37.3144C79.5556 37.2938 79.6175 37.2732 79.6793 37.2319C79.7412 37.2113 79.8237 37.1907 79.8856 37.17C79.9681 37.17 80.03 37.1494 80.1125 37.1494C80.2568 37.1494 80.3806 37.1494 80.4837 37.1907C80.5868 37.2319 80.6693 37.2732 80.7312 37.335C80.7931 37.3969 80.8343 37.4794 80.8756 37.5825C80.8962 37.6857 80.9168 37.7888 80.9168 37.9125V39.2738L80.8962 39.2119ZM80.525 38.2838H80.2156C80.1125 38.2838 80.03 38.2838 79.9475 38.3044C79.865 38.3044 79.8031 38.3457 79.7618 38.3869C79.7206 38.4282 79.6793 38.4694 79.6587 38.5107C79.6381 38.5519 79.6175 38.6138 79.6175 38.6757C79.6175 38.7788 79.6587 38.8613 79.7206 38.9232C79.7825 38.985 79.8856 39.0263 80.0093 39.0263C80.1331 39.0263 80.195 39.0057 80.2775 38.9438C80.36 38.9025 80.4425 38.82 80.5456 38.7169V38.2838H80.525Z" fill="#333333"/>
<path d="M83.3501 37.3144C83.3501 37.3557 83.3501 37.3763 83.3501 37.3969C83.3501 37.4175 83.3501 37.4382 83.3501 37.4588V37.4794C83.3501 37.4794 83.3501 37.4794 83.3295 37.4794C83.3088 37.4794 83.3088 37.4794 83.2882 37.4794C83.2882 37.4794 83.247 37.4794 83.2263 37.4794C83.2057 37.4794 83.1851 37.4794 83.1438 37.4794C83.1232 37.4794 83.082 37.4794 83.0613 37.4794C83.0407 37.4794 82.9788 37.4794 82.9582 37.5C82.917 37.5 82.8757 37.5413 82.8551 37.5825C82.8138 37.6238 82.7726 37.665 82.7313 37.7269C82.6901 37.7888 82.6488 37.8507 82.587 37.9332V39.2738C82.587 39.2738 82.587 39.2944 82.587 39.315C82.587 39.315 82.587 39.315 82.5663 39.3357C82.5663 39.3357 82.5457 39.3357 82.5045 39.3357C82.4838 39.3357 82.4426 39.3357 82.4013 39.3357C82.3601 39.3357 82.3395 39.3357 82.3188 39.3357C82.2982 39.3357 82.2776 39.3357 82.257 39.3357C82.257 39.3357 82.2363 39.3357 82.2363 39.315C82.2363 39.315 82.2363 39.2944 82.2363 39.2738V37.2525V37.2319C82.2363 37.2319 82.2363 37.2319 82.257 37.2113H82.2982C82.3188 37.2113 82.3395 37.2113 82.3807 37.2113C82.422 37.2113 82.4426 37.2113 82.4632 37.2113C82.4838 37.2113 82.5045 37.2113 82.5251 37.2113C82.5251 37.2113 82.5251 37.2113 82.5457 37.2319C82.5457 37.2319 82.5457 37.2319 82.5457 37.2525V37.5413C82.6076 37.4588 82.6488 37.3969 82.7107 37.335C82.752 37.2938 82.8138 37.2525 82.8551 37.2113C82.8963 37.1907 82.9376 37.17 82.9788 37.1494C83.0201 37.1494 83.0613 37.1494 83.1026 37.1494C83.1438 37.1494 83.1438 37.1494 83.1645 37.1494C83.1851 37.1494 83.2263 37.1494 83.247 37.1494C83.2676 37.1494 83.2882 37.1494 83.3295 37.17C83.3295 37.17 83.3707 37.17 83.3707 37.1907C83.3707 37.1907 83.3707 37.1907 83.3707 37.2113C83.3707 37.2113 83.3707 37.2113 83.3707 37.2319C83.3707 37.2319 83.3707 37.2525 83.3707 37.2732V37.3557L83.3501 37.3144Z" fill="#333333"/>
<path d="M84.7955 36.4905C84.7955 36.573 84.7955 36.6349 84.7543 36.6762C84.713 36.7174 84.6512 36.7174 84.5687 36.7174C84.4862 36.7174 84.4243 36.7174 84.383 36.6762C84.3418 36.6349 84.3418 36.5937 84.3418 36.4905C84.3418 36.3874 84.3418 36.3462 84.383 36.3049C84.4243 36.2637 84.4862 36.2637 84.5687 36.2637C84.6512 36.2637 84.713 36.2637 84.7543 36.3049C84.7955 36.3462 84.7955 36.3874 84.7955 36.4699M84.7543 39.2131C84.7543 39.2131 84.7543 39.2337 84.7543 39.2543C84.7543 39.2543 84.7543 39.2543 84.7337 39.2749C84.7337 39.2749 84.6924 39.2749 84.6718 39.2749C84.6512 39.2749 84.6099 39.2749 84.5687 39.2749C84.5274 39.2749 84.5068 39.2749 84.4862 39.2749C84.4655 39.2749 84.4449 39.2749 84.4243 39.2749C84.4243 39.2749 84.4037 39.2749 84.4037 39.2543C84.4037 39.2543 84.4037 39.2337 84.4037 39.2131V37.1918C84.4037 37.1918 84.4037 37.1918 84.4037 37.1712C84.4037 37.1712 84.4037 37.1712 84.4243 37.1506C84.4243 37.1506 84.4655 37.1506 84.4862 37.1506C84.5068 37.1506 84.548 37.1506 84.5687 37.1506C84.5893 37.1506 84.6305 37.1506 84.6718 37.1506C84.6924 37.1506 84.713 37.1506 84.7337 37.1506C84.7337 37.1506 84.7543 37.1506 84.7543 37.1712C84.7543 37.1712 84.7543 37.1712 84.7543 37.1918V39.2131Z" fill="#333333"/>
<path d="M87.784 39.2104C87.784 39.2104 87.784 39.2311 87.784 39.2517C87.784 39.2517 87.784 39.2517 87.7428 39.2723C87.7428 39.2723 87.7015 39.2723 87.6809 39.2723C87.6603 39.2723 87.619 39.2723 87.5984 39.2723C87.5778 39.2723 87.5365 39.2723 87.4953 39.2723C87.4747 39.2723 87.454 39.2723 87.4334 39.2723C87.4334 39.2723 87.4128 39.2723 87.4128 39.2517C87.4128 39.2517 87.4128 39.2311 87.4128 39.2104V38.0142C87.4128 37.8904 87.4128 37.8079 87.3922 37.7254C87.3922 37.6636 87.3509 37.6017 87.3097 37.5398C87.2684 37.4779 87.2272 37.4573 87.1859 37.4161C87.124 37.3954 87.0621 37.3748 87.0003 37.3748C86.9384 37.3748 86.8147 37.3954 86.7322 37.4779C86.629 37.5398 86.5465 37.6429 86.4434 37.7667V39.1898C86.4434 39.1898 86.4434 39.2104 86.4434 39.2311C86.4434 39.2311 86.4434 39.2311 86.4228 39.2517C86.4228 39.2517 86.3815 39.2517 86.3609 39.2517C86.3403 39.2517 86.299 39.2517 86.2784 39.2517C86.2578 39.2517 86.2165 39.2517 86.1959 39.2517C86.1753 39.2517 86.1546 39.2517 86.134 39.2517C86.134 39.2517 86.1134 39.2517 86.0928 39.2311C86.0928 39.2311 86.0928 39.2104 86.0928 39.1898V37.1686V37.1479C86.0928 37.1479 86.0928 37.1479 86.1134 37.1273C86.1134 37.1273 86.1546 37.1273 86.1753 37.1273C86.1753 37.1273 86.2165 37.1273 86.2578 37.1273C86.299 37.1273 86.3196 37.1273 86.3403 37.1273C86.3609 37.1273 86.3815 37.1273 86.4021 37.1273C86.4021 37.1273 86.4022 37.1273 86.4228 37.1479C86.4228 37.1479 86.4228 37.1479 86.4228 37.1686V37.4367C86.5465 37.3129 86.6497 37.2098 86.7734 37.1479C86.8972 37.0861 87.0003 37.0654 87.124 37.0654C87.2478 37.0654 87.3715 37.0861 87.454 37.1273C87.5572 37.1686 87.619 37.2304 87.6809 37.3129C87.7428 37.3954 87.784 37.4779 87.8047 37.5811C87.8253 37.6842 87.8459 37.8079 87.8459 37.9523V39.1898L87.784 39.2104Z" fill="#333333"/>
<path d="M90.7342 37.2734C90.7342 37.3353 90.7342 37.3559 90.7342 37.3971C90.7342 37.4178 90.6929 37.4384 90.6723 37.4384H90.3836C90.4454 37.5003 90.4661 37.5415 90.4867 37.624C90.5073 37.6859 90.5279 37.7684 90.5279 37.8303C90.5279 37.954 90.5279 38.0572 90.4661 38.1397C90.4248 38.2222 90.3629 38.3047 90.3011 38.3665C90.2392 38.4284 90.1567 38.4697 90.0536 38.5109C89.9504 38.5522 89.8473 38.5522 89.7442 38.5522C89.6411 38.5522 89.5792 38.5522 89.5173 38.5109C89.4348 38.4903 89.3936 38.4697 89.3523 38.4284C89.3317 38.449 89.3111 38.4903 89.2904 38.5109C89.2904 38.5522 89.2698 38.5934 89.2698 38.6347C89.2698 38.6759 89.2904 38.7378 89.3523 38.7584C89.3936 38.7997 89.4761 38.8203 89.5379 38.8203H90.0742C90.1773 38.8409 90.2598 38.8615 90.3423 38.8822C90.4248 38.9028 90.5073 38.944 90.5692 38.9853C90.6311 39.0265 90.6723 39.0884 90.7136 39.1503C90.7548 39.2122 90.7754 39.2947 90.7754 39.3772C90.7754 39.4597 90.7548 39.5628 90.7136 39.6453C90.6723 39.7278 90.6104 39.8103 90.5279 39.8722C90.4454 39.934 90.3423 39.9959 90.2186 40.0165C90.0948 40.0578 89.9504 40.0784 89.7854 40.0784C89.6204 40.0784 89.4761 40.0784 89.3729 40.0372C89.2492 40.0165 89.1667 39.9753 89.0842 39.934C89.0017 39.8928 88.9604 39.8309 88.9192 39.769C88.8779 39.7072 88.8779 39.6247 88.8779 39.5422C88.8779 39.4597 88.8779 39.439 88.8779 39.3978C88.8779 39.3565 88.8986 39.3153 88.9398 39.274C88.9604 39.2328 89.0017 39.1915 89.0429 39.1503C89.0842 39.109 89.1254 39.0678 89.1667 39.0472C89.0842 39.0059 89.0429 38.9647 89.0017 38.9028C88.9604 38.8409 88.9398 38.779 88.9398 38.7172C88.9398 38.614 88.9398 38.5522 89.0017 38.4697C89.0429 38.3872 89.0842 38.3253 89.1461 38.284C89.1048 38.2222 89.0636 38.1603 89.0429 38.0984C89.0223 38.0365 89.0017 37.954 89.0017 37.8509C89.0017 37.7478 89.0017 37.624 89.0636 37.5415C89.1048 37.459 89.1667 37.3765 89.2286 37.3146C89.2904 37.2528 89.3729 37.2115 89.4761 37.1703C89.5792 37.129 89.6823 37.1084 89.7854 37.1084C89.8886 37.1084 89.9092 37.1084 89.9504 37.1084C90.0123 37.1084 90.0536 37.1084 90.0948 37.129H90.7136C90.7342 37.129 90.7548 37.129 90.7754 37.1703C90.7754 37.1909 90.7754 37.2321 90.7754 37.294M90.3423 39.4184C90.3423 39.3359 90.3011 39.2534 90.2392 39.2122C90.1773 39.1709 90.0742 39.1297 89.9504 39.1297H89.4348C89.3936 39.1297 89.3523 39.1915 89.3111 39.2122C89.2698 39.2534 89.2492 39.274 89.2286 39.3153C89.2286 39.3359 89.1873 39.3772 89.1873 39.3978C89.1873 39.4184 89.1873 39.4597 89.1873 39.4803C89.1873 39.5834 89.2286 39.6453 89.3317 39.7072C89.4348 39.7484 89.5792 39.7897 89.7442 39.7897C89.9092 39.7897 89.9504 39.7897 90.0329 39.769C90.1154 39.7484 90.1773 39.7278 90.2186 39.6865C90.2598 39.6453 90.3011 39.604 90.3217 39.5628C90.3217 39.5215 90.3423 39.4597 90.3423 39.4184ZM90.1567 37.8096C90.1567 37.6653 90.1154 37.5622 90.0329 37.4797C89.9504 37.3971 89.8473 37.3559 89.7029 37.3559C89.5586 37.3559 89.5792 37.3559 89.5173 37.3971C89.4554 37.4178 89.4142 37.459 89.3936 37.5003C89.3523 37.5415 89.3317 37.5828 89.3111 37.6446C89.3111 37.7065 89.2904 37.7478 89.2904 37.8096C89.2904 37.954 89.3317 38.0572 89.3936 38.119C89.4761 38.2015 89.5792 38.2428 89.7236 38.2428C89.8679 38.2428 89.8679 38.2428 89.9092 38.2015C89.9711 38.1809 90.0123 38.1397 90.0536 38.0984C90.0948 38.0572 90.1154 38.0159 90.1361 37.954C90.1361 37.8921 90.1567 37.8509 90.1567 37.789V37.8096Z" fill="#333333"/>
<path d="M101.068 33.4366C101.068 33.4572 101.068 33.4779 101.047 33.4985C101.047 33.4985 101.006 33.5191 100.985 33.5397C100.964 33.5397 100.923 33.5397 100.861 33.5604C100.82 33.5604 100.758 33.5604 100.676 33.5604C100.593 33.5604 100.531 33.5604 100.49 33.5604C100.449 33.5604 100.408 33.5604 100.366 33.5397C100.325 33.5397 100.325 33.5191 100.304 33.4985C100.304 33.4985 100.304 33.4572 100.304 33.4366V31.8691H98.8607V33.4366C98.8607 33.4572 98.8607 33.4779 98.8607 33.4985C98.8607 33.4985 98.8194 33.5191 98.7988 33.5397C98.7782 33.5397 98.7369 33.5397 98.675 33.5604C98.6338 33.5604 98.5513 33.5604 98.4894 33.5604C98.4275 33.5604 98.345 33.5604 98.3038 33.5604C98.2625 33.5604 98.2213 33.5604 98.18 33.5397C98.1594 33.5397 98.1388 33.5191 98.1182 33.4985C98.1182 33.4985 98.1182 33.4572 98.1182 33.4366V29.7654C98.1182 29.7447 98.1182 29.7241 98.1182 29.7035C98.1182 29.7035 98.1594 29.6829 98.18 29.6622C98.2007 29.6622 98.2419 29.6622 98.3038 29.6416C98.345 29.6416 98.4275 29.6416 98.4894 29.6416C98.5513 29.6416 98.6338 29.6416 98.675 29.6416C98.7163 29.6416 98.7575 29.6416 98.7988 29.6622C98.8194 29.6622 98.84 29.6829 98.8607 29.7035C98.8607 29.7035 98.8607 29.7447 98.8607 29.7654V31.1885H100.304V29.7654C100.304 29.7447 100.304 29.7241 100.304 29.7035C100.304 29.7035 100.346 29.6829 100.366 29.6622C100.387 29.6622 100.428 29.6622 100.49 29.6416C100.531 29.6416 100.614 29.6416 100.676 29.6416C100.738 29.6416 100.82 29.6416 100.861 29.6416C100.903 29.6416 100.944 29.6416 100.985 29.6622C101.006 29.6622 101.047 29.6829 101.047 29.7035C101.047 29.7035 101.068 29.7447 101.068 29.7654V33.4366Z" fill="#36498A"/>
<path d="M104.348 32.0138C104.348 32.0963 104.348 32.1788 104.286 32.2201C104.245 32.2613 104.183 32.282 104.121 32.282H102.492C102.492 32.4057 102.492 32.4882 102.533 32.5913C102.554 32.6945 102.595 32.7563 102.657 32.8388C102.719 32.9007 102.801 32.942 102.884 32.9832C102.966 33.0245 103.09 33.0245 103.214 33.0245C103.337 33.0245 103.461 33.0245 103.564 33.0038C103.667 33.0038 103.75 32.9626 103.812 32.942C103.894 32.9213 103.956 32.9007 103.997 32.8801C104.039 32.8801 104.08 32.8595 104.121 32.8595C104.162 32.8595 104.162 32.8595 104.162 32.8595C104.162 32.8595 104.162 32.8801 104.183 32.9007C104.183 32.9007 104.183 32.942 104.183 32.9832C104.183 33.0245 104.183 33.0657 104.183 33.107C104.183 33.1482 104.183 33.1895 104.183 33.2307C104.183 33.2513 104.183 33.2926 104.183 33.3132C104.183 33.3338 104.183 33.3545 104.183 33.3751C104.183 33.3751 104.183 33.3957 104.142 33.4163C104.142 33.4163 104.101 33.4576 104.039 33.4782C103.977 33.4988 103.915 33.5195 103.812 33.5607C103.729 33.5813 103.626 33.602 103.502 33.6226C103.379 33.6226 103.255 33.6432 103.131 33.6432C102.904 33.6432 102.677 33.6226 102.512 33.5607C102.327 33.4988 102.182 33.4163 102.059 33.2926C101.935 33.1688 101.852 33.0245 101.791 32.8182C101.729 32.6326 101.708 32.4057 101.708 32.1582C101.708 31.9107 101.749 31.7045 101.811 31.5188C101.873 31.3332 101.956 31.1682 102.079 31.0238C102.203 30.9001 102.347 30.797 102.512 30.7145C102.677 30.6526 102.884 30.6113 103.09 30.6113C103.296 30.6113 103.502 30.6526 103.667 30.7145C103.832 30.7763 103.956 30.8795 104.059 30.9826C104.162 31.1063 104.245 31.2301 104.286 31.3951C104.327 31.5601 104.369 31.7251 104.369 31.9107V32.0345L104.348 32.0138ZM103.606 31.8076C103.606 31.6013 103.564 31.4363 103.482 31.3126C103.379 31.1888 103.255 31.127 103.069 31.127C102.884 31.127 102.884 31.127 102.822 31.1888C102.76 31.2301 102.698 31.2713 102.636 31.3332C102.595 31.3951 102.554 31.457 102.533 31.5601C102.512 31.6426 102.492 31.7251 102.492 31.8282H103.626L103.606 31.8076Z" fill="#36498A"/>
<path d="M107.256 33.4374C107.256 33.4581 107.256 33.4787 107.236 33.4993C107.215 33.4993 107.174 33.5199 107.132 33.5406C107.091 33.5406 107.029 33.5406 106.947 33.5406C106.864 33.5406 106.782 33.5406 106.741 33.5406C106.699 33.5406 106.679 33.5406 106.658 33.4993C106.658 33.4993 106.637 33.4581 106.637 33.4374V33.2312C106.534 33.3549 106.411 33.4374 106.266 33.4993C106.122 33.5612 105.957 33.6024 105.792 33.6024C105.627 33.6024 105.524 33.6024 105.4 33.5406C105.276 33.4993 105.173 33.4581 105.091 33.3756C105.008 33.3137 104.926 33.2106 104.884 33.1074C104.843 33.0043 104.802 32.8806 104.802 32.7362C104.802 32.5918 104.822 32.4474 104.884 32.3237C104.946 32.1999 105.029 32.1174 105.152 32.0349C105.276 31.9524 105.421 31.9112 105.606 31.8699C105.792 31.8287 105.998 31.8081 106.225 31.8081H106.493V31.6431C106.493 31.5606 106.493 31.478 106.472 31.4162C106.472 31.3543 106.431 31.2924 106.39 31.2512C106.349 31.2099 106.307 31.1687 106.246 31.1687C106.184 31.1687 106.101 31.1274 105.998 31.1274C105.895 31.1274 105.751 31.1274 105.668 31.1687C105.565 31.1893 105.482 31.2305 105.4 31.2512C105.317 31.2924 105.256 31.313 105.214 31.3543C105.173 31.3749 105.132 31.3956 105.091 31.3956C105.049 31.3956 105.049 31.3955 105.029 31.3749C105.029 31.3749 105.008 31.3337 104.987 31.313C104.987 31.2924 104.967 31.2512 104.967 31.2099C104.967 31.1687 104.967 31.1274 104.967 31.0862C104.967 31.0449 104.967 30.983 104.967 30.9418C104.967 30.9005 104.987 30.8799 105.029 30.8387C105.049 30.818 105.111 30.7768 105.173 30.7355C105.235 30.6943 105.317 30.6737 105.421 30.6324C105.524 30.6118 105.627 30.5705 105.73 30.5499C105.833 30.5499 105.957 30.5293 106.081 30.5293C106.287 30.5293 106.472 30.5499 106.617 30.5912C106.761 30.6324 106.885 30.6943 106.988 30.7768C107.091 30.8593 107.153 30.9624 107.194 31.1068C107.236 31.2305 107.256 31.3955 107.256 31.5812V33.3756V33.4374ZM106.514 32.3031H106.225C106.101 32.3031 105.998 32.3031 105.916 32.3237C105.833 32.3237 105.751 32.3649 105.709 32.4062C105.647 32.4474 105.606 32.4887 105.586 32.5299C105.565 32.5712 105.544 32.6331 105.544 32.6949C105.544 32.7981 105.586 32.9012 105.647 32.9631C105.709 33.0249 105.812 33.0662 105.936 33.0662C106.06 33.0662 106.142 33.0456 106.225 32.9837C106.307 32.9218 106.411 32.8393 106.493 32.7568V32.3031H106.514Z" fill="#36498A"/>
<path d="M108.76 33.4363C108.76 33.4363 108.76 33.4776 108.76 33.4982C108.76 33.4982 108.719 33.5188 108.698 33.5394C108.678 33.5394 108.636 33.5394 108.574 33.5601C108.533 33.5601 108.471 33.5601 108.389 33.5601C108.306 33.5601 108.244 33.5601 108.203 33.5601C108.162 33.5601 108.121 33.5601 108.079 33.5394C108.059 33.5394 108.038 33.5188 108.018 33.4982C108.018 33.4982 108.018 33.4569 108.018 33.4363V29.4763C108.018 29.4763 108.018 29.435 108.018 29.4144C108.018 29.4144 108.059 29.3938 108.079 29.3732C108.1 29.3732 108.141 29.3732 108.203 29.3525C108.244 29.3525 108.306 29.3525 108.389 29.3525C108.471 29.3525 108.513 29.3525 108.574 29.3525C108.616 29.3525 108.657 29.3525 108.698 29.3732C108.739 29.3732 108.76 29.3938 108.76 29.4144C108.76 29.4144 108.76 29.4557 108.76 29.4763V33.4363Z" fill="#36498A"/>
<path d="M111.093 33.1687C111.093 33.2512 111.093 33.3337 111.093 33.3749C111.093 33.4162 111.072 33.4574 111.051 33.4781C111.051 33.4781 111.01 33.5193 110.969 33.5399C110.928 33.5399 110.886 33.5606 110.845 33.5812C110.804 33.5812 110.742 33.6018 110.701 33.6018C110.639 33.6018 110.598 33.6018 110.536 33.6018C110.391 33.6018 110.247 33.6018 110.144 33.5399C110.041 33.4987 109.938 33.4368 109.876 33.3543C109.814 33.2718 109.752 33.1687 109.711 33.0656C109.669 32.9418 109.669 32.7974 109.669 32.6324V31.2505H109.339C109.298 31.2505 109.278 31.2299 109.257 31.1887C109.257 31.1474 109.236 31.0649 109.236 30.9618C109.236 30.8587 109.236 30.8587 109.236 30.8174C109.236 30.7762 109.236 30.7556 109.236 30.7143C109.236 30.6937 109.257 30.673 109.278 30.673C109.278 30.673 109.319 30.673 109.339 30.673H109.649V30.0749C109.649 30.0749 109.649 30.0337 109.649 30.013C109.649 30.013 109.669 29.9924 109.711 29.9718C109.731 29.9718 109.773 29.9718 109.834 29.9512C109.876 29.9512 109.938 29.9512 110.02 29.9512C110.103 29.9512 110.144 29.9512 110.206 29.9512C110.247 29.9512 110.288 29.9512 110.329 29.9718C110.35 29.9718 110.371 29.9924 110.391 30.013C110.391 30.013 110.391 30.0543 110.391 30.0749V30.673H110.969H111.01C111.01 30.673 111.031 30.6937 111.051 30.7143C111.051 30.7349 111.051 30.7762 111.072 30.8174C111.072 30.8587 111.072 30.8999 111.072 30.9618C111.072 31.0649 111.072 31.1474 111.051 31.1887C111.031 31.2299 111.01 31.2505 110.969 31.2505H110.391V32.5087C110.391 32.6531 110.412 32.7562 110.453 32.8387C110.494 32.9212 110.577 32.9418 110.701 32.9418C110.824 32.9418 110.783 32.9418 110.804 32.9418C110.845 32.9418 110.866 32.9418 110.886 32.9212C110.907 32.9212 110.928 32.9212 110.948 32.9006H110.989C110.989 32.9006 111.01 32.9006 111.031 32.9006C111.031 32.9006 111.051 32.9212 111.051 32.9418C111.051 32.9624 111.051 32.9831 111.051 33.0243C111.051 33.0656 111.051 33.1068 111.051 33.1687" fill="#36498A"/>
<path d="M114.207 33.4363C114.207 33.4363 114.207 33.4776 114.207 33.4982C114.207 33.4982 114.165 33.5188 114.145 33.5394C114.124 33.5394 114.083 33.5394 114.021 33.5601C113.98 33.5601 113.918 33.5601 113.835 33.5601C113.753 33.5601 113.691 33.5601 113.65 33.5601C113.609 33.5601 113.567 33.5601 113.526 33.5394C113.505 33.5394 113.485 33.5188 113.464 33.4982C113.464 33.4982 113.464 33.4569 113.464 33.4363V31.91C113.464 31.7863 113.464 31.6832 113.444 31.6007C113.444 31.5182 113.402 31.4563 113.361 31.415C113.32 31.3532 113.279 31.3119 113.217 31.2913C113.155 31.2707 113.093 31.25 113.01 31.25C112.928 31.25 112.825 31.2913 112.722 31.3532C112.619 31.415 112.515 31.5182 112.412 31.6625V33.4363C112.412 33.4363 112.412 33.4776 112.412 33.4982C112.412 33.4982 112.371 33.5188 112.35 33.5394C112.33 33.5394 112.289 33.5394 112.247 33.5601C112.206 33.5601 112.144 33.5601 112.062 33.5601C111.979 33.5601 111.917 33.5601 111.876 33.5601C111.835 33.5601 111.794 33.5601 111.752 33.5394C111.732 33.5394 111.711 33.5188 111.69 33.4982C111.69 33.4982 111.69 33.4569 111.69 33.4363V29.4763C111.69 29.4763 111.69 29.435 111.69 29.4144C111.69 29.4144 111.732 29.3938 111.752 29.3732C111.773 29.3732 111.814 29.3732 111.876 29.3525C111.917 29.3525 111.979 29.3525 112.062 29.3525C112.144 29.3525 112.206 29.3525 112.247 29.3525C112.289 29.3525 112.33 29.3525 112.35 29.3732C112.371 29.3732 112.412 29.3938 112.412 29.4144C112.412 29.4144 112.412 29.4557 112.412 29.4763V30.9613C112.536 30.8375 112.68 30.7344 112.804 30.6725C112.949 30.6107 113.072 30.5694 113.217 30.5694C113.361 30.5694 113.547 30.6107 113.67 30.6519C113.794 30.7138 113.897 30.7963 113.98 30.8994C114.062 31.0025 114.104 31.1263 114.145 31.2707C114.186 31.415 114.186 31.58 114.186 31.7657V33.4157L114.207 33.4363Z" fill="#36498A"/>
<path d="M98.8403 39.7696C98.8403 39.7902 98.8403 39.8109 98.8196 39.8315C98.8196 39.8315 98.7784 39.8521 98.7578 39.8727C98.7371 39.8727 98.6959 39.8727 98.634 39.8934C98.5928 39.8934 98.5309 39.8934 98.4484 39.8934C98.3659 39.8934 98.304 39.8934 98.2628 39.8934C98.2215 39.8934 98.1803 39.8934 98.139 39.8727C98.1184 39.8727 98.0978 39.8521 98.0771 39.8315C98.0771 39.8315 98.0771 39.7902 98.0771 39.7696V36.0984C98.0771 36.0777 98.0771 36.0571 98.0771 36.0365C98.0771 36.0365 98.1184 36.0159 98.139 35.9952C98.1596 35.9952 98.2009 35.9952 98.2628 35.9746C98.3246 35.9746 98.3865 35.9746 98.4484 35.9746C98.5103 35.9746 98.5928 35.9746 98.634 35.9746C98.6959 35.9746 98.7371 35.9746 98.7578 35.9952C98.7784 35.9952 98.799 36.0159 98.8196 36.0365C98.8196 36.0365 98.8403 36.0777 98.8403 36.0984V39.7696Z" fill="#36498A"/>
<path d="M102.182 39.7691C102.182 39.7691 102.182 39.8104 102.182 39.831C102.182 39.831 102.141 39.8516 102.121 39.8722C102.1 39.8722 102.059 39.8722 101.997 39.8929C101.956 39.8929 101.894 39.8929 101.811 39.8929C101.729 39.8929 101.687 39.8929 101.626 39.8929C101.584 39.8929 101.543 39.8929 101.502 39.8722C101.481 39.8722 101.461 39.8516 101.44 39.831C101.44 39.831 101.44 39.7897 101.44 39.7691V38.2429C101.44 38.1191 101.44 38.016 101.419 37.9335C101.419 37.8716 101.378 37.7891 101.337 37.7479C101.296 37.686 101.254 37.6447 101.192 37.6241C101.131 37.6035 101.069 37.5829 100.986 37.5829C100.904 37.5829 100.801 37.6241 100.697 37.686C100.594 37.7685 100.491 37.851 100.388 37.9954V39.7897C100.388 39.7897 100.388 39.831 100.388 39.8516C100.388 39.8516 100.367 39.8722 100.326 39.8929C100.306 39.8929 100.264 39.8929 100.202 39.9135C100.161 39.9135 100.099 39.9135 100.017 39.9135C99.9343 39.9135 99.893 39.9135 99.8311 39.9135C99.7899 39.9135 99.7486 39.9135 99.7074 39.8929C99.6868 39.8929 99.6455 39.8722 99.6455 39.8516C99.6455 39.8516 99.6455 39.8104 99.6455 39.7897V37.1085C99.6455 37.1085 99.6455 37.0672 99.6455 37.0466C99.6455 37.0466 99.6661 37.026 99.7074 37.0054C99.728 37.0054 99.7693 37.0054 99.8105 36.9847C99.8518 36.9847 99.893 36.9847 99.9549 36.9847C100.017 36.9847 100.079 36.9847 100.12 36.9847C100.161 36.9847 100.202 36.9847 100.223 37.0054C100.244 37.0054 100.264 37.026 100.264 37.0466C100.264 37.0466 100.264 37.0879 100.264 37.1085V37.4179C100.409 37.2529 100.553 37.1497 100.718 37.0466C100.862 36.9641 101.027 36.9229 101.192 36.9229C101.357 36.9229 101.522 36.9641 101.646 37.0054C101.77 37.0672 101.873 37.1497 101.956 37.2529C102.038 37.356 102.079 37.4797 102.121 37.6241C102.162 37.7685 102.162 37.9335 102.162 38.1191V39.7691H102.182Z" fill="#36498A"/>
<path d="M104.822 39.0057C104.822 39.1501 104.801 39.2945 104.74 39.4182C104.678 39.542 104.595 39.6245 104.492 39.707C104.389 39.7895 104.265 39.8514 104.121 39.8926C103.976 39.9339 103.811 39.9545 103.667 39.9545C103.523 39.9545 103.461 39.9545 103.378 39.9339C103.275 39.9339 103.213 39.8926 103.131 39.872C103.069 39.8514 103.007 39.8307 102.945 39.8101C102.904 39.7895 102.863 39.7689 102.842 39.7483C102.821 39.7276 102.801 39.6864 102.801 39.6451C102.801 39.6039 102.801 39.542 102.801 39.4389C102.801 39.3357 102.801 39.3357 102.801 39.2945C102.801 39.2532 102.801 39.2326 102.801 39.212C102.801 39.1914 102.801 39.1707 102.821 39.1707C102.821 39.1707 102.842 39.1707 102.863 39.1707C102.883 39.1707 102.925 39.1707 102.966 39.212C103.007 39.2326 103.069 39.2739 103.131 39.2945C103.193 39.3151 103.275 39.3564 103.358 39.377C103.44 39.3976 103.543 39.4182 103.646 39.4182C103.75 39.4182 103.77 39.4182 103.832 39.4182C103.894 39.4182 103.935 39.377 103.976 39.3564C104.018 39.3357 104.038 39.2945 104.059 39.2532C104.08 39.212 104.1 39.1707 104.1 39.1089C104.1 39.047 104.1 39.0057 104.038 38.9439C103.997 38.9026 103.956 38.8614 103.894 38.8407C103.832 38.7995 103.77 38.7789 103.688 38.7582C103.605 38.7376 103.523 38.6964 103.44 38.6757C103.358 38.6345 103.275 38.5932 103.213 38.552C103.131 38.5107 103.069 38.4489 103.007 38.387C102.945 38.3251 102.904 38.2426 102.863 38.1601C102.821 38.0776 102.801 37.9539 102.801 37.8301C102.801 37.7064 102.821 37.5826 102.883 37.4795C102.925 37.3764 103.007 37.2732 103.11 37.2114C103.193 37.1289 103.316 37.067 103.461 37.0257C103.605 36.9845 103.75 36.9639 103.915 36.9639C104.08 36.9639 104.08 36.9639 104.162 36.9845C104.245 36.9845 104.306 37.0051 104.368 37.0257C104.43 37.0257 104.492 37.067 104.533 37.0876C104.575 37.1082 104.616 37.1289 104.636 37.1495C104.636 37.1495 104.678 37.1701 104.678 37.1907C104.678 37.1907 104.678 37.232 104.678 37.2526C104.678 37.2732 104.678 37.2939 104.678 37.3351C104.678 37.3557 104.678 37.397 104.678 37.4589C104.678 37.5207 104.678 37.562 104.678 37.5826C104.678 37.6239 104.678 37.6445 104.678 37.6651C104.678 37.6651 104.678 37.7064 104.657 37.7064C104.657 37.7064 104.636 37.7064 104.616 37.7064C104.595 37.7064 104.575 37.7064 104.533 37.6857C104.492 37.6651 104.451 37.6445 104.389 37.6239C104.327 37.6032 104.265 37.5826 104.203 37.562C104.121 37.5414 104.038 37.5207 103.935 37.5207C103.832 37.5207 103.811 37.5207 103.75 37.5414C103.708 37.5414 103.667 37.5826 103.626 37.6032C103.585 37.6239 103.564 37.6651 103.564 37.6857C103.564 37.727 103.543 37.7682 103.543 37.7889C103.543 37.8507 103.543 37.9126 103.605 37.9539C103.646 37.9951 103.688 38.0364 103.75 38.057C103.811 38.0982 103.873 38.1189 103.956 38.1395C104.038 38.1601 104.121 38.2014 104.203 38.222C104.286 38.2632 104.368 38.3045 104.451 38.3457C104.533 38.387 104.595 38.4489 104.657 38.5107C104.719 38.5726 104.76 38.6551 104.801 38.7376C104.843 38.8201 104.863 38.9232 104.863 39.047" fill="#36498A"/>
<path d="M107.935 39.769C107.935 39.769 107.935 39.8102 107.935 39.8309C107.935 39.8309 107.915 39.8515 107.873 39.8721C107.853 39.8721 107.811 39.8721 107.77 39.8927C107.729 39.8927 107.667 39.8927 107.626 39.8927C107.585 39.8927 107.502 39.8927 107.461 39.8927C107.42 39.8927 107.378 39.8927 107.358 39.8721C107.337 39.8721 107.316 39.8515 107.316 39.8309C107.316 39.8309 107.316 39.7896 107.316 39.769V39.4596C107.172 39.6246 107.007 39.7484 106.863 39.8102C106.718 39.8927 106.553 39.934 106.388 39.934C106.223 39.934 106.058 39.9134 105.935 39.8515C105.811 39.7896 105.708 39.7071 105.625 39.604C105.543 39.5009 105.501 39.3771 105.46 39.2327C105.419 39.0884 105.419 38.9234 105.419 38.7171V37.0671C105.419 37.0671 105.419 37.0259 105.419 37.0052C105.419 37.0052 105.44 36.9846 105.481 36.964C105.501 36.964 105.543 36.964 105.605 36.9434C105.646 36.9434 105.708 36.9434 105.79 36.9434C105.873 36.9434 105.935 36.9434 105.976 36.9434C106.017 36.9434 106.058 36.9434 106.1 36.964C106.12 36.964 106.141 36.9846 106.161 37.0052C106.161 37.0052 106.161 37.0465 106.161 37.0671V38.5727C106.161 38.7171 106.161 38.8202 106.182 38.9027C106.182 38.9852 106.223 39.0471 106.265 39.0884C106.306 39.1502 106.347 39.1915 106.409 39.2121C106.471 39.2327 106.533 39.2534 106.615 39.2534C106.698 39.2534 106.801 39.2121 106.904 39.1502C107.007 39.0884 107.11 38.9852 107.213 38.8409V37.0671C107.213 37.0671 107.213 37.0259 107.213 37.0052C107.213 37.0052 107.234 36.9846 107.275 36.964C107.296 36.964 107.337 36.964 107.399 36.9434C107.44 36.9434 107.502 36.9434 107.585 36.9434C107.667 36.9434 107.729 36.9434 107.77 36.9434C107.811 36.9434 107.853 36.9434 107.894 36.964C107.915 36.964 107.935 36.9846 107.956 37.0052C107.956 37.0052 107.956 37.0465 107.956 37.0671V39.7484L107.935 39.769Z" fill="#36498A"/>
<path d="M110.41 37.3354C110.41 37.4179 110.41 37.4591 110.41 37.521C110.41 37.5622 110.41 37.6035 110.41 37.6241C110.41 37.6447 110.41 37.6654 110.369 37.686C110.369 37.686 110.348 37.686 110.327 37.686C110.307 37.686 110.286 37.686 110.286 37.686C110.265 37.686 110.245 37.686 110.224 37.6654C110.204 37.6654 110.162 37.6654 110.142 37.6447C110.121 37.6447 110.08 37.6447 110.039 37.6447C109.997 37.6447 109.956 37.6447 109.915 37.6654C109.874 37.6654 109.832 37.7066 109.791 37.7479C109.75 37.7891 109.688 37.8304 109.647 37.8922C109.605 37.9541 109.544 38.016 109.482 38.1191V39.7897C109.482 39.7897 109.482 39.831 109.482 39.8516C109.482 39.8516 109.44 39.8722 109.42 39.8929C109.399 39.8929 109.358 39.8929 109.317 39.9135C109.275 39.9135 109.214 39.9135 109.131 39.9135C109.049 39.9135 108.987 39.9135 108.945 39.9135C108.904 39.9135 108.863 39.9135 108.822 39.8929C108.801 39.8929 108.78 39.8722 108.76 39.8516C108.76 39.8516 108.76 39.8104 108.76 39.7897V37.1085C108.76 37.1085 108.76 37.0672 108.76 37.0466C108.76 37.0466 108.78 37.026 108.822 37.0054C108.842 37.0054 108.884 37.0054 108.925 36.9847C108.966 36.9847 109.028 36.9847 109.069 36.9847C109.11 36.9847 109.193 36.9847 109.234 36.9847C109.275 36.9847 109.317 36.9847 109.337 37.0054C109.358 37.0054 109.379 37.026 109.379 37.0466C109.379 37.0466 109.379 37.0879 109.379 37.1085V37.4385C109.44 37.3354 109.523 37.2529 109.585 37.191C109.647 37.1291 109.709 37.0672 109.77 37.026C109.832 36.9847 109.874 36.9641 109.935 36.9435C109.997 36.9435 110.039 36.9229 110.1 36.9229C110.162 36.9229 110.162 36.9229 110.183 36.9229C110.204 36.9229 110.245 36.9229 110.286 36.9229C110.327 36.9229 110.348 36.9229 110.369 36.9435C110.389 36.9435 110.41 36.9435 110.41 36.9641C110.41 36.9641 110.41 36.9847 110.43 37.0054C110.43 37.0054 110.43 37.026 110.43 37.0672C110.43 37.0672 110.43 37.1085 110.43 37.1704C110.43 37.2116 110.43 37.2735 110.43 37.3354" fill="#36498A"/>
<path d="M113.008 39.7675C113.008 39.7881 113.008 39.8088 112.987 39.8294C112.987 39.8294 112.925 39.85 112.884 39.8706C112.843 39.8706 112.781 39.8706 112.698 39.8706C112.616 39.8706 112.554 39.8706 112.513 39.8706C112.472 39.8706 112.451 39.8706 112.43 39.8294C112.43 39.8294 112.41 39.7881 112.41 39.7675V39.5613C112.307 39.685 112.183 39.7675 112.038 39.8294C111.894 39.8913 111.75 39.9325 111.564 39.9325C111.378 39.9325 111.296 39.9325 111.172 39.8706C111.048 39.8294 110.945 39.7881 110.863 39.7056C110.78 39.6231 110.698 39.5406 110.657 39.4375C110.615 39.3344 110.595 39.2106 110.595 39.0663C110.595 38.9219 110.636 38.7775 110.677 38.6538C110.739 38.53 110.822 38.4475 110.945 38.365C111.069 38.2825 111.213 38.2413 111.399 38.2C111.585 38.1588 111.791 38.1381 112.038 38.1381H112.307V37.9731C112.307 37.8906 112.307 37.8081 112.286 37.7463C112.286 37.6844 112.245 37.6225 112.203 37.5813C112.162 37.54 112.1 37.4988 112.038 37.4781C111.977 37.4781 111.894 37.4575 111.791 37.4575C111.688 37.4575 111.543 37.4575 111.461 37.4987C111.358 37.5194 111.275 37.5606 111.193 37.6019C111.11 37.6431 111.048 37.6638 111.007 37.6844C110.966 37.705 110.904 37.7256 110.883 37.7256C110.863 37.7256 110.842 37.7256 110.822 37.705C110.822 37.705 110.78 37.6637 110.78 37.6431C110.78 37.6225 110.78 37.5812 110.76 37.54C110.76 37.4987 110.76 37.4575 110.76 37.4163C110.76 37.375 110.76 37.3131 110.76 37.2719C110.76 37.2306 110.78 37.21 110.822 37.1688C110.842 37.1481 110.904 37.1069 110.966 37.0656C111.028 37.0244 111.11 37.0038 111.213 36.9625C111.317 36.9419 111.399 36.9006 111.523 36.88C111.626 36.88 111.75 36.8594 111.873 36.8594C112.08 36.8594 112.265 36.88 112.41 36.9212C112.554 36.9625 112.678 37.0244 112.781 37.1069C112.884 37.1894 112.946 37.2925 112.987 37.4369C113.028 37.5812 113.049 37.7256 113.049 37.9113V39.7263L113.008 39.7675ZM112.265 38.6331H111.977C111.853 38.6331 111.75 38.6331 111.667 38.6538C111.585 38.6538 111.502 38.695 111.461 38.7363C111.399 38.7775 111.358 38.8188 111.337 38.86C111.317 38.9013 111.296 38.9631 111.296 39.025C111.296 39.1488 111.337 39.2313 111.399 39.2931C111.461 39.355 111.564 39.3963 111.688 39.3963C111.812 39.3963 111.894 39.3756 111.977 39.3138C112.059 39.2519 112.162 39.1694 112.245 39.0663V38.6125L112.265 38.6331Z" fill="#36498A"/>
<path d="M116.331 39.7691C116.331 39.7691 116.331 39.8104 116.331 39.831C116.331 39.831 116.31 39.8516 116.269 39.8722C116.248 39.8722 116.207 39.8722 116.145 39.8929C116.104 39.8929 116.042 39.8929 115.96 39.8929C115.877 39.8929 115.815 39.8929 115.774 39.8929C115.712 39.8929 115.691 39.8929 115.65 39.8722C115.63 39.8722 115.609 39.8516 115.588 39.831C115.588 39.831 115.588 39.7897 115.588 39.7691V38.2429C115.588 38.1191 115.588 38.016 115.568 37.9335C115.568 37.8716 115.526 37.7891 115.485 37.7479C115.444 37.686 115.403 37.6447 115.341 37.6241C115.279 37.6035 115.217 37.5829 115.135 37.5829C115.052 37.5829 114.949 37.6241 114.846 37.686C114.743 37.7685 114.64 37.851 114.536 37.9954V39.7897C114.536 39.7897 114.536 39.831 114.536 39.8516C114.536 39.8516 114.495 39.8722 114.475 39.8929C114.454 39.8929 114.413 39.8929 114.351 39.9135C114.31 39.9135 114.248 39.9135 114.165 39.9135C114.083 39.9135 114.021 39.9135 113.98 39.9135C113.938 39.9135 113.897 39.9135 113.856 39.8929C113.835 39.8929 113.815 39.8722 113.794 39.8516C113.794 39.8516 113.794 39.8104 113.794 39.7897V37.1085C113.794 37.1085 113.794 37.0672 113.794 37.0466C113.794 37.0466 113.815 37.026 113.856 37.0054C113.876 37.0054 113.918 37.0054 113.959 36.9847C114 36.9847 114.062 36.9847 114.103 36.9847C114.145 36.9847 114.227 36.9847 114.268 36.9847C114.31 36.9847 114.351 36.9847 114.371 37.0054C114.392 37.0054 114.413 37.026 114.413 37.0466C114.413 37.0466 114.413 37.0879 114.413 37.1085V37.4179C114.557 37.2529 114.722 37.1497 114.866 37.0466C115.011 36.9641 115.176 36.9229 115.341 36.9229C115.506 36.9229 115.671 36.9641 115.795 37.0054C115.918 37.0672 116.021 37.1497 116.104 37.2529C116.186 37.356 116.228 37.4797 116.269 37.6241C116.31 37.7685 116.31 37.9335 116.31 38.1191V39.7691H116.331Z" fill="#36498A"/>
<path d="M119.093 39.3344C119.093 39.3963 119.093 39.4375 119.093 39.4581C119.093 39.4994 119.093 39.52 119.093 39.5406C119.093 39.5613 119.093 39.5819 119.093 39.6025C119.093 39.6025 119.073 39.6438 119.052 39.6644C119.031 39.685 118.99 39.7263 118.928 39.7469C118.866 39.7881 118.805 39.8088 118.722 39.8294C118.64 39.85 118.557 39.8706 118.475 39.8913C118.392 39.8913 118.289 39.9119 118.206 39.9119C118 39.9119 117.815 39.8706 117.65 39.8088C117.485 39.7469 117.361 39.6438 117.258 39.52C117.155 39.3963 117.072 39.2519 117.01 39.0663C116.948 38.8806 116.928 38.6744 116.928 38.4475C116.928 38.2206 116.969 37.9525 117.031 37.7463C117.093 37.5606 117.196 37.3956 117.32 37.2512C117.443 37.1275 117.588 37.0244 117.753 36.9625C117.918 36.9006 118.103 36.8594 118.289 36.8594C118.475 36.8594 118.454 36.8594 118.516 36.88C118.598 36.88 118.66 36.9212 118.743 36.9419C118.805 36.9625 118.866 36.9831 118.928 37.0244C118.99 37.045 119.031 37.0863 119.052 37.1069C119.073 37.1275 119.093 37.1481 119.093 37.1688C119.093 37.1688 119.093 37.21 119.093 37.2306C119.093 37.2512 119.093 37.2925 119.093 37.3131C119.093 37.3544 119.093 37.3956 119.093 37.4369C119.093 37.5606 119.093 37.6431 119.073 37.6844C119.073 37.7256 119.031 37.7463 118.99 37.7463C118.949 37.7463 118.928 37.7463 118.887 37.705C118.846 37.6844 118.805 37.6431 118.743 37.6019C118.701 37.5606 118.619 37.54 118.557 37.5194C118.495 37.4988 118.392 37.4781 118.31 37.4781C118.103 37.4781 117.959 37.5606 117.856 37.705C117.753 37.8494 117.691 38.0763 117.691 38.365C117.691 38.6538 117.691 38.6331 117.732 38.7363C117.753 38.8394 117.794 38.9425 117.856 39.0044C117.897 39.0869 117.959 39.1281 118.041 39.1694C118.124 39.2106 118.206 39.2313 118.31 39.2313C118.413 39.2313 118.495 39.2313 118.578 39.19C118.66 39.1488 118.722 39.1281 118.784 39.0869C118.846 39.0456 118.887 39.025 118.928 38.9838C118.97 38.9631 118.99 38.9425 119.031 38.9425C119.073 38.9425 119.073 38.9425 119.073 38.9425C119.073 38.9425 119.073 38.9631 119.093 39.0044C119.093 39.025 119.093 39.0663 119.093 39.1075C119.093 39.1488 119.093 39.2106 119.093 39.2725" fill="#36498A"/>
<path d="M122.126 38.346C122.126 38.4491 122.126 38.511 122.064 38.5522C122.023 38.5935 121.961 38.6141 121.899 38.6141H120.27C120.27 38.7172 120.27 38.8204 120.311 38.9235C120.332 39.0266 120.373 39.0885 120.435 39.171C120.497 39.2329 120.579 39.2947 120.662 39.3154C120.765 39.3566 120.868 39.3772 120.992 39.3772C121.116 39.3772 121.239 39.3772 121.342 39.3566C121.446 39.3566 121.528 39.3154 121.611 39.2947C121.693 39.2741 121.755 39.2535 121.796 39.2329C121.837 39.2329 121.879 39.2122 121.92 39.2122C121.961 39.2122 121.961 39.2122 121.961 39.2122C121.961 39.2122 121.961 39.2122 121.982 39.2535C121.982 39.2535 121.982 39.2947 121.982 39.336C121.982 39.3772 121.982 39.4185 121.982 39.4597C121.982 39.501 121.982 39.5422 121.982 39.5629C121.982 39.5835 121.982 39.6247 121.982 39.6454C121.982 39.666 121.982 39.6866 121.982 39.7072C121.982 39.7072 121.982 39.7279 121.941 39.7485C121.941 39.7485 121.899 39.7897 121.837 39.8104C121.776 39.831 121.714 39.8516 121.611 39.8722C121.528 39.8929 121.425 39.9135 121.301 39.9341C121.177 39.9341 121.054 39.9547 120.93 39.9547C120.703 39.9547 120.476 39.9341 120.311 39.8722C120.126 39.8104 119.981 39.7279 119.857 39.6041C119.734 39.4804 119.651 39.336 119.589 39.1297C119.527 38.9441 119.507 38.7172 119.507 38.4697C119.507 38.2222 119.548 38.016 119.61 37.8304C119.672 37.6447 119.754 37.4797 119.878 37.3354C120.002 37.191 120.146 37.1085 120.311 37.026C120.476 36.9641 120.662 36.9229 120.889 36.9229C121.116 36.9229 121.301 36.9641 121.466 37.026C121.631 37.0879 121.755 37.191 121.858 37.2941C121.961 37.4179 122.044 37.5416 122.085 37.7066C122.126 37.8716 122.167 38.0366 122.167 38.2222V38.346H122.126ZM121.384 38.1397C121.384 37.9335 121.342 37.7685 121.26 37.6447C121.177 37.521 121.033 37.4591 120.827 37.4591C120.621 37.4591 120.641 37.4591 120.579 37.521C120.517 37.5622 120.456 37.6035 120.394 37.6654C120.352 37.7272 120.311 37.8097 120.291 37.8922C120.27 37.9747 120.249 38.0572 120.249 38.1604H121.384V38.1397Z" fill="#36498A"/>
<path d="M86.6922 28.2809C87.2697 28.1572 87.7029 27.9922 88.0329 27.7859C88.3629 27.5797 88.631 27.3528 88.8785 27.0847H78.4835V28.3428H86.8572C86.7954 28.3428 86.7541 28.3015 86.6922 28.2809ZM85.6197 25.8059C85.4547 26.0122 85.2485 26.1359 85.001 26.1978C84.671 26.2803 84.4029 26.3215 84.2172 26.3422H89.3735C89.5591 25.9709 89.6623 25.5584 89.6829 25.084H85.8466C85.8466 25.3522 85.7641 25.579 85.5991 25.8059H85.6197ZM82.3404 23.8465H84.0316C84.7329 23.8465 85.2072 23.9497 85.4547 24.1765C85.5372 24.2384 85.5785 24.3003 85.6404 24.3828H89.6623C89.621 23.929 89.4973 23.4959 89.3116 23.1247H78.4835V24.3828H82.3404V23.8672V23.8465ZM64.6441 23.1247H52.9909V24.3828H64.6441V23.1247ZM45.0296 23.7228C45.2565 23.5372 45.5865 23.434 46.0403 23.434C46.494 23.434 47.0096 23.5578 47.319 23.8259C47.484 23.9703 47.6284 24.1559 47.7315 24.3828H51.4646C51.3615 23.9084 51.2171 23.4959 51.0315 23.1247H41.6059C41.379 23.5165 41.2346 23.9497 41.1727 24.3828H44.6996C44.6996 24.1353 44.8234 23.9084 45.0296 23.7434V23.7228ZM56.889 32.3028H60.7253V31.0447H56.889V32.3028ZM78.5041 32.3028H82.361V31.0447H78.5041V32.3028ZM89.3116 31.0447H84.9185L85.5991 32.3028H89.9716L89.3323 31.0447H89.3116ZM87.5998 21.6396C86.981 21.4334 86.0735 21.3303 84.8772 21.3303H78.4835V22.3822H88.796C88.466 22.0315 88.0535 21.784 87.5998 21.6396ZM78.5041 33.7466H82.361V33.0247H78.5041V33.7466ZM90.3429 33.0247H85.991L86.3829 33.7466H90.7141L90.3429 33.0247ZM73.121 33.0247L73.3478 33.7466H77.3697L77.1016 33.0247H73.1416H73.121ZM56.889 33.7466H60.7253V33.0247H56.889V33.7466ZM64.6441 21.3303H52.9909V22.3822H64.6441V21.3303ZM50.0415 22.0109C49.2165 21.4128 47.9996 21.124 46.4115 21.124C44.8234 21.124 44.1015 21.289 43.359 21.619C42.8846 21.8253 42.4927 22.0934 42.1627 22.4028H50.4746C50.3303 22.2584 50.2065 22.1347 50.0415 22.0315V22.0109ZM72.6878 21.3303H68.5009L68.1091 22.3822H73.0797L72.6878 21.3303ZM63.8397 33.7466H67.7584L67.9647 33.0247H64.1078L63.8397 33.7466ZM46.4321 33.9734C47.6284 33.9734 48.6184 33.8084 49.4228 33.4578C49.6909 33.3341 49.9384 33.1897 50.1653 33.0453H42.369C43.2146 33.6641 44.5759 33.9941 46.4115 33.9941L46.4321 33.9734ZM75.596 29.0647H65.6134L65.1391 30.3228H76.0703L75.596 29.0647ZM78.5041 30.3228H82.361V29.0647H78.5041V30.3228ZM71.0997 26.3628H74.5647L74.0903 25.1047H70.7078L71.0997 26.3628ZM47.7521 31.1272C47.4634 31.3747 47.0303 31.5191 46.494 31.5191C45.9578 31.5191 45.4421 31.3541 45.0709 31.0447H40.9665C41.1315 31.4984 41.3584 31.9109 41.6471 32.3028H50.9696C51.0728 32.1791 51.1759 32.0553 51.2584 31.9316C51.444 31.6428 51.5884 31.3541 51.6915 31.0653H47.8346C47.814 31.1066 47.7728 31.1272 47.7315 31.1478L47.7521 31.1272ZM88.8579 30.1578C88.7754 29.9722 88.5898 29.7247 88.3216 29.3947C88.2185 29.2709 88.136 29.1678 88.0535 29.0647H83.7222C83.9079 29.2297 84.1141 29.539 84.341 29.9515L84.5266 30.3022H88.9404L88.8579 30.1578ZM82.3404 25.1047H78.4835V26.3628H82.3404V25.1047ZM76.3385 31.0447H64.8709L64.3966 32.3028H68.1916L68.3772 31.7047H72.7291L72.9147 32.3028H76.8128L76.3385 31.0447ZM73.3685 23.1247H67.8409L67.3666 24.3828H73.8222L73.3478 23.1247H73.3685ZM49.5259 26.3628C48.7834 26.0328 47.6903 25.7234 46.2465 25.414C45.7927 25.3109 45.4421 25.2078 45.2152 25.1047H41.1521C41.1934 25.5584 41.3171 25.9709 41.544 26.3628H49.5259ZM47.2159 29.0647C47.4634 29.1678 47.649 29.2709 47.7728 29.374C48.0615 29.6215 48.1853 29.9103 48.1853 30.2403C48.1853 30.5703 48.1853 30.2816 48.1853 30.3228H51.8771C51.8978 30.1165 51.9184 29.9309 51.9184 29.7247C51.9184 29.5184 51.9184 29.2915 51.8565 29.0853H47.1953L47.2159 29.0647ZM56.889 26.3628H60.7253V25.1047H56.889V26.3628ZM71.6978 28.3428H75.3072L74.8328 27.0847H71.3059L71.6772 28.3428H71.6978ZM56.889 30.3228H60.7253V29.0647H56.889V30.3228ZM44.4315 29.6422H40.6777C40.6777 29.8897 40.7396 30.1165 40.7809 30.3228H44.5552C44.4521 30.0753 44.4934 29.9928 44.4315 29.6422ZM56.889 28.3428H60.7253V27.0847H56.889V28.3428ZM69.7797 27.0847H66.3353L65.8609 28.3428H69.3878L69.7591 27.0847H69.7797ZM50.7428 27.0847H42.1421C42.1627 27.1053 42.1834 27.1259 42.2246 27.1672C42.7402 27.6209 43.5446 28.0128 44.5759 28.3428H51.6503C51.5884 28.1778 51.5059 28.0334 51.4234 27.889C51.2584 27.6003 51.0109 27.3322 50.7428 27.1053V27.0847ZM70.3778 25.1047H67.0778L66.6034 26.3628H69.9859L70.3572 25.1047H70.3778Z" fill="#36498A"/>
<path d="M38.8614 4.35547L32.8595 16.5861L20.8145 18.1536L28.6726 27.4555L26.7751 41.0475L37.7889 35.1899L46.4102 41.13L47.6889 40.5525L37.7683 32.2612L29.3945 36.7781L31.5807 26.8162L25.5788 19.7211L34.3857 18.4836L38.7995 9.65611L44.2445 19.5149L44.9664 18.8136L38.8614 4.35547Z" fill="#36498A"/>
<path d="M94.6329 19.1221H94.4473V39.8503H94.6329V19.1221Z" fill="#333333"/>
</svg>
