<svg width="100" height="100" viewBox="0 0 100 100" fill="none" xmlns="http://www.w3.org/2000/svg">
<path d="M82.9483 39.9295C82.0527 40.105 81.2629 40.6282 80.7525 41.3846C80.2415 42.141 80.0515 43.069 80.2235 43.9651C81.6192 51.0016 80.5354 58.3042 77.1551 64.6317C73.7749 70.9592 68.3078 75.9203 61.6828 78.6722C55.0581 81.4242 47.685 81.7967 40.8166 79.7266C33.9482 77.6565 28.0088 73.2716 24.008 67.3173C20.0077 61.363 18.1928 54.2064 18.8719 47.066C19.5515 39.9245 22.6834 33.2391 27.7353 28.1451C32.7866 23.0523 39.4466 19.8654 46.5823 19.1281C53.7176 18.3901 60.8884 20.1467 66.875 24.0979C67.6389 24.6193 68.5801 24.8122 69.4873 24.6338C70.3944 24.4548 71.1918 23.9189 71.7006 23.1469C72.2094 22.3748 72.3865 21.4308 72.1925 20.5265C71.9985 19.6222 71.45 18.8341 70.6692 18.338C63.6097 13.6892 55.1999 11.5308 46.7742 12.2053C38.3485 12.8803 30.3884 16.3494 24.1593 22.0625C17.9294 27.7754 13.7859 35.4056 12.3862 43.7417C10.9865 52.0778 12.4104 60.6434 16.4327 68.0772C20.4545 75.5115 26.8443 81.3902 34.5879 84.7809C42.3318 88.1704 50.9856 88.8777 59.1763 86.7891C67.367 84.7012 74.6264 79.9374 79.8015 73.2539C84.977 66.5708 87.7723 58.3507 87.7439 49.8984C87.7583 47.4669 87.5274 45.04 87.0539 42.6552C86.8795 41.7452 86.3465 40.9432 85.5739 40.4304C84.8019 39.9182 83.8561 39.7375 82.9495 39.9303L82.9483 39.9295Z" fill="#009739"/>
<path d="M90.4323 16.82C89.7504 16.2125 88.8554 15.9007 87.9437 15.9527C87.0319 16.0041 86.1779 16.4152 85.5694 17.096L53.664 52.518L41.0057 39.8252C40.1309 38.9504 38.856 38.6085 37.6607 38.929C36.4655 39.2489 35.5318 40.1826 35.212 41.3778C34.8915 42.5725 35.2333 43.848 36.1081 44.7228L51.3882 59.9674C52.0309 60.6049 52.8976 60.9641 53.8024 60.9675C54.7471 60.9271 55.6386 60.5183 56.2859 59.8294L90.5697 21.8886V21.8891C91.2603 21.217 91.638 20.2868 91.612 19.3237C91.5854 18.3606 91.1576 17.4523 90.4317 16.8189L90.4323 16.82Z" fill="#009739"/>
</svg>
