<svg width="37" height="37" viewBox="0 0 37 37" fill="none" xmlns="http://www.w3.org/2000/svg">
<rect width="37" height="37" rx="4" fill="#FFE3DA"/>
<path d="M21.5004 25.4375C21.8999 25.4375 22.2392 25.2977 22.5184 25.018C22.7975 24.7383 22.9371 24.3987 22.9371 23.9992C22.9371 23.5997 22.7973 23.2604 22.5176 22.9813C22.2379 22.7021 21.8984 22.5625 21.4989 22.5625C21.0994 22.5625 20.76 22.7023 20.4809 22.982C20.2017 23.2617 20.0621 23.6013 20.0621 24.0008C20.0621 24.4003 20.2019 24.7396 20.4816 25.0188C20.7613 25.2979 21.1009 25.4375 21.5004 25.4375ZM15.7996 24.7C15.9829 24.8833 16.2017 24.975 16.4559 24.975C16.71 24.975 16.9288 24.8833 17.1121 24.7L22.2121 19.6C22.3871 19.425 22.4767 19.2083 22.4809 18.95C22.485 18.6917 22.3954 18.4708 22.2121 18.2875C22.0288 18.1042 21.81 18.0125 21.5559 18.0125C21.3017 18.0125 21.0827 18.1044 20.8989 18.2883L15.7871 23.4C15.6121 23.575 15.5246 23.7896 15.5246 24.0438C15.5246 24.2979 15.6163 24.5167 15.7996 24.7ZM16.5004 20.4375C16.8999 20.4375 17.2392 20.2977 17.5184 20.018C17.7975 19.7383 17.9371 19.3988 17.9371 18.9993C17.9371 18.5998 17.7973 18.2604 17.5176 17.9813C17.2379 17.7021 16.8984 17.5625 16.4989 17.5625C16.0994 17.5625 15.76 17.7023 15.4809 17.982C15.2017 18.2617 15.0621 18.6013 15.0621 19.0008C15.0621 19.4003 15.2019 19.7396 15.4816 20.0188C15.7613 20.2979 16.1009 20.4375 16.5004 20.4375ZM13.0996 28.75C12.5839 28.75 12.1425 28.5664 11.7754 28.1992C11.4082 27.8321 11.2246 27.3907 11.2246 26.875V11.125C11.2246 10.6093 11.4082 10.1679 11.7754 9.80075C12.1425 9.43358 12.5839 9.25 13.0996 9.25H20.9996L26.7746 15.0125V26.875C26.7746 27.3907 26.591 27.8321 26.2239 28.1992C25.8567 28.5664 25.4153 28.75 24.8996 28.75H13.0996ZM20.0746 14.075V11.125H13.0996V26.875H24.8996V15.95H21.9496C21.4339 15.95 20.9925 15.7664 20.6254 15.3992C20.2582 15.0321 20.0746 14.5907 20.0746 14.075Z" fill="#E85222"/>
</svg>
