<svg width="143" height="47" viewBox="0 0 143 47" fill="none" xmlns="http://www.w3.org/2000/svg">
<rect width="142.303" height="46.1925" rx="4" fill="white"/>
<g clip-path="url(#clip0_157_248)">
<path d="M30.67 32.9379C28.0626 35.5461 24.398 37.064 20.7108 37.064C17.0236 37.064 13.3591 35.5461 10.7524 32.9379C8.14582 30.3313 6.62793 26.6676 6.62793 22.9812C6.62793 19.2931 8.14582 15.6294 10.7524 13.0228C13.3591 10.4162 17.0236 8.89827 20.7108 8.89827C24.398 8.89827 28.0626 10.4162 30.67 13.0228C33.2766 15.6294 34.7945 19.2931 34.7945 22.9812C34.7945 26.6668 33.2766 30.3313 30.67 32.9379ZM31.113 12.5782C28.3895 9.85557 24.5619 8.26953 20.7108 8.26953C16.8597 8.26953 13.0321 9.85557 10.3095 12.5782C7.58604 15.3008 6 19.1292 6 22.9812C6 26.8315 7.58604 30.659 10.3095 33.3817C13.0321 36.1051 16.8597 37.6912 20.7108 37.6912C24.5627 37.6912 28.3895 36.1067 31.113 33.3817C33.8356 30.659 35.4216 26.8315 35.4216 22.9812C35.4216 19.1292 33.8356 15.3008 31.113 12.5782Z" fill="#273691"/>
<path d="M19.9018 22.5133V23.4471L20.7106 23.9144L21.5195 23.4471V22.5133L20.7106 22.046L19.9018 22.5133ZM21.414 20.2758V18.2914C21.4129 18.1051 21.339 17.9266 21.2079 17.7941C21.0781 17.6635 20.8948 17.5889 20.7106 17.5889C20.5265 17.5889 20.3439 17.6643 20.2141 17.7941C20.0829 17.9265 20.0089 18.1051 20.0081 18.2914V20.2758L20.7114 20.6814L21.414 20.2758ZM16.2973 24.7159C16.1367 24.8098 16.0192 24.9626 15.9695 25.1418C15.9221 25.3219 15.9478 25.5134 16.041 25.6746C16.1341 25.8358 16.2872 25.9537 16.4669 26.0026C16.6471 26.0495 16.8385 26.0245 17.0007 25.9328L18.719 24.9406V24.1293L18.0156 23.7237L16.2973 24.7159ZM25.1231 24.7159L23.4049 23.7237L22.7015 24.1293V24.9422L24.4198 25.9344C24.5817 26.0266 24.7734 26.0517 24.9536 26.0042C25.1333 25.9552 25.2866 25.8375 25.3803 25.6764C25.4724 25.5147 25.4971 25.3232 25.449 25.1434C25.4008 24.9636 25.2838 24.81 25.1231 24.7159Z" fill="#273691"/>
<path d="M30.8745 28.9929C30.8337 29.0119 30.7881 29.0178 30.7439 29.01L27.6546 28.4315C27.5782 28.4172 27.5088 28.3781 27.4569 28.3203C27.405 28.2625 27.3735 28.1893 27.3674 28.1119C27.3487 27.8895 27.2633 27.678 27.1224 27.505C26.9797 27.3337 26.7882 27.21 26.5733 27.1504C26.3585 27.0908 26.1306 27.0982 25.9201 27.1716C25.5438 27.3042 25.1432 27.3538 24.7459 27.317C24.3486 27.2802 23.964 27.1578 23.6185 26.9582L22.7034 26.4317V32.4425H21.4143V25.687L20.7109 25.2813L20.0075 25.687V32.4425H18.7192V26.4317L17.8033 26.9582C17.4579 27.158 17.0732 27.2806 16.6759 27.3174C16.2786 27.3542 15.878 27.3045 15.5017 27.1716C15.3445 27.116 15.1765 27.0972 15.0109 27.1169C14.8453 27.1366 14.6864 27.1941 14.5465 27.285C14.4067 27.3759 14.2896 27.4977 14.2044 27.6411C14.1192 27.7845 14.0682 27.9456 14.0552 28.1119C14.0491 28.1892 14.0178 28.2623 13.966 28.3201C13.9143 28.3778 13.845 28.417 13.7688 28.4315L10.6787 29.01C10.6458 29.0158 10.6119 29.0139 10.5798 29.0047C10.5477 28.9954 10.5182 28.9789 10.4934 28.9564C10.4687 28.9339 10.4494 28.9061 10.4371 28.875C10.4248 28.8439 10.4197 28.8104 10.4223 28.7771C10.4265 28.7323 10.4444 28.6898 10.4734 28.6554L12.5186 26.2703C12.5688 26.2111 12.6371 26.1701 12.713 26.1538C12.7889 26.1375 12.868 26.1468 12.9381 26.1802C13.1385 26.2752 13.3672 26.3068 13.5855 26.2703C13.8037 26.2338 14.0098 26.1291 14.168 25.9742C14.3262 25.82 14.4349 25.6148 14.4762 25.3974C14.549 25.0049 14.7061 24.633 14.9366 24.3072C15.1672 23.9814 15.4657 23.7095 15.8116 23.5103L16.7275 22.983L11.5208 19.9772L12.1649 18.8617L18.0158 22.2399L18.7192 21.8342V21.0222L12.8683 17.644L13.5116 16.5285L18.7184 19.5343V18.4756C18.7184 18.0789 18.8052 17.6813 18.9707 17.3195C19.1378 16.9585 19.382 16.634 19.6838 16.3752C19.8527 16.2294 19.973 16.0355 20.0286 15.8195C20.0843 15.6035 20.0727 15.3756 19.9953 15.1664C19.9163 14.958 19.776 14.7784 19.5929 14.6512C19.5293 14.6068 19.482 14.5429 19.458 14.4691C19.4339 14.3953 19.4346 14.3157 19.4599 14.2424L20.504 11.278C20.5192 11.2356 20.547 11.199 20.5837 11.173C20.6204 11.147 20.6643 11.1329 20.7093 11.1327C20.7542 11.1329 20.7981 11.147 20.8348 11.173C20.8715 11.199 20.8994 11.2356 20.9145 11.278L21.9594 14.2424C21.9847 14.3157 21.9854 14.3953 21.9614 14.4691C21.9374 14.5429 21.89 14.6068 21.8264 14.6512C21.643 14.7783 21.5029 14.9584 21.4249 15.1673C21.3469 15.3763 21.3347 15.6042 21.3899 15.8203C21.4451 16.0345 21.5676 16.2308 21.7355 16.3752C22.0383 16.6351 22.2814 16.9573 22.4481 17.3198C22.6149 17.6823 22.7014 18.0766 22.7017 18.4756V19.5335L27.9085 16.5277L28.5526 17.6432L22.7017 21.0214V21.8334L23.4051 22.2391L29.256 18.8609L29.9002 19.9764L24.6942 22.9822L25.6102 23.5095C25.9555 23.7095 26.2536 23.9816 26.4842 24.3072C26.7148 24.6329 26.8724 25.0044 26.9463 25.3965C26.9869 25.614 27.0964 25.8192 27.2538 25.9734C27.412 26.1283 27.6189 26.233 27.8363 26.2695C28.0553 26.306 28.2841 26.2743 28.4837 26.1794C28.5538 26.1461 28.6329 26.1369 28.7087 26.1532C28.7845 26.1695 28.8529 26.2104 28.9031 26.2695L30.9483 28.6546C30.9773 28.6889 30.995 28.7313 30.999 28.776C31.0031 28.8207 30.9933 28.8655 30.9711 28.9045C30.9494 28.9438 30.9155 28.9748 30.8745 28.9929ZM29.5456 14.145C27.2327 11.8313 23.9819 10.4854 20.7101 10.4854C17.439 10.4854 14.1882 11.8321 11.8745 14.145C9.56075 16.4588 8.21484 19.7095 8.21484 22.9814C8.21484 26.2516 9.56075 29.504 11.8745 31.8178C14.1882 34.1299 17.439 35.4766 20.7101 35.4766C23.9811 35.4766 27.2327 34.1299 29.5456 31.8178C31.8594 29.504 33.2061 26.2533 33.2061 22.9814C33.2061 19.7095 31.8594 16.4588 29.5456 14.145ZM105.49 35.2389V10.7214H109.782V20.1192H114.483V10.7214H118.871V35.2389H114.483V24.4741H109.782V35.2389H105.49ZM42.6956 25.7559L37.9293 10.7214H42.2129L45.1472 20.2734L48.3907 10.7214H52.4049L47.4642 25.2676V35.2389H42.6956V25.7559ZM68.1963 35.2389H72.0409V16.7581L75.3209 32.8246H78.9108L81.82 16.4985V35.2389H86.3274V10.7214H79.3424L77.2842 22.3843L74.899 10.7214H68.1963V35.2389ZM126.439 25.4477L128.267 14.4825L130.04 25.4477H126.439ZM131.953 10.7214H125.314L120.833 35.2389H124.805L125.757 29.5332H130.7L131.624 35.2389H136.001L131.953 10.7214ZM93.8942 25.4477L95.722 14.4825L97.4954 25.4477H93.8942ZM99.4092 10.7214H92.7698L88.2891 35.2389H92.2619L93.2127 29.5332H98.155L99.0782 35.2389H103.456L99.4092 10.7214ZM56.6008 25.4477L58.4286 14.4825L60.202 25.4477H56.6008ZM62.1158 10.7214H55.4764L50.9949 35.2389H54.9693L55.9201 29.5332H60.8624L61.7856 35.2389H66.1624L62.1158 10.7214Z" fill="#273691"/>
</g>
<defs>
<clipPath id="clip0_157_248">
<rect width="130" height="29.432" fill="white" transform="translate(6 8.26465)"/>
</clipPath>
</defs>
</svg>
